<?xml version="1.0" encoding="UTF-8"?>
<svg width="10px" height="10px" viewBox="0 0 10 10" version="1.1" xmlns="http://www.w3.org/2000/svg" xmlns:xlink="http://www.w3.org/1999/xlink">
    <!-- Generator: Sketch 64 (93537) - https://sketch.com -->
    <title>LinkedIn 24x24</title>
    <desc>Created with Sketch.</desc>
    <g id="Page-1" stroke="none" stroke-width="1" fill="none" fill-rule="evenodd">
        <g id="Share-Icons" transform="translate(-337.000000, -173.000000)">
            <g id="Group-3" transform="translate(265.000000, 89.000000)">
                <g id="LinkedIn-24x24" transform="translate(65.000000, 77.000000)">
                    <rect id="Rectangle-Copy-2" x="0" y="0" width="24" height="24"></rect>
                    <g id="Linkedin_5" transform="translate(7.000000, 7.000000)" fill="#404040" fill-rule="nonzero">
                        <g id="Linkedin-2" transform="translate(0.388235, 0.388235)">
                            <path d="M0.246588235,3.07952941 L2.10447059,3.07952941 L2.10447059,9.05411765 L0.246588235,9.05411765 L0.246588235,3.07952941 Z M1.17647059,0.111058824 C1.77111883,0.111058824 2.25317647,0.593116467 2.25317647,1.18776471 C2.25317647,1.78241294 1.77111883,2.26447059 1.17647059,2.26447059 C0.581822349,2.26447059 0.0997647059,1.78241294 0.0997647059,1.18776471 C0.0997647059,0.593116467 0.581822349,0.111058824 1.17647059,0.111058824" id="Shape"></path>
                            <path d="M3.26964706,3.07952941 L5.04847059,3.07952941 L5.04847059,3.89647059 L5.08235294,3.89647059 C5.44540883,3.27609928 6.12029642,2.90574296 6.83858824,2.93270588 C8.72094118,2.93270588 9.06541176,4.16941176 9.06541176,5.77694118 L9.06541176,9.05411765 L7.20188235,9.05411765 L7.20188235,6.14964706 C7.20188235,5.45694118 7.19058824,4.56470588 6.23811765,4.56470588 C5.28564706,4.56470588 5.12376471,5.31764706 5.12376471,6.09882353 L5.12376471,9.05411765 L3.26964706,9.05411765 L3.26964706,3.07952941 Z" id="Path"></path>
                        </g>
                    </g>
                </g>
            </g>
        </g>
    </g>
</svg>