<?xml version="1.0" encoding="UTF-8"?>
<svg width="10px" height="8px" viewBox="0 0 10 8" version="1.1" xmlns="http://www.w3.org/2000/svg" xmlns:xlink="http://www.w3.org/1999/xlink">
    <!-- Generator: Sketch 64 (93537) - https://sketch.com -->
    <title>Twitter 24x24</title>
    <desc>Created with Sketch.</desc>
    <g id="Page-1" stroke="none" stroke-width="1" fill="none" fill-rule="evenodd">
        <g id="Share-Icons" transform="translate(-337.000000, -126.000000)">
            <g id="Group-3" transform="translate(265.000000, 89.000000)">
                <g id="Twitter-24x24" transform="translate(65.000000, 29.000000)">
                    <rect id="Rectangle-Copy-3" x="0" y="0" width="24" height="24"></rect>
                    <path d="M17,8.94728992 C16.6254202,9.10992255 16.2285407,9.21724668 15.8221709,9.26579834 C16.2517028,9.01342565 16.5733421,8.61571257 16.7270628,8.14688241 C16.3239436,8.38216855 15.8830109,8.54794003 15.4232626,8.63705445 C14.8474528,8.03338 13.9559521,7.83704358 13.1740032,8.14169694 C12.3920543,8.44635029 11.8780539,9.19028082 11.8771782,10.0186364 C11.877453,10.1738062 11.8950549,10.3284754 11.9296662,10.4798531 C10.281536,10.4011193 8.74438315,9.63835777 7.6991392,8.38059313 C7.15852369,9.30052141 7.43383634,10.4757681 8.32899433,11.0693005 C8.00302342,11.0591489 7.68419581,10.9726536 7.39890825,10.8169757 L7.39890825,10.8438628 C7.39965495,11.8053896 8.08809437,12.6332219 9.04492967,12.8231651 C8.74286353,12.9030131 8.42645226,12.9150286 8.11904262,12.8583251 C8.38676818,13.6813339 9.15663728,14.2451436 10.0338022,14.2605894 C9.30741064,14.8201371 8.41129149,15.1231333 7.48918749,15.1209758 C7.32568945,15.1207899 7.16234432,15.1111214 7,15.0920205 C7.93877509,15.6878063 9.03255399,16.0031496 10.1492757,16 C13.9284065,16 15.9838337,12.9224404 15.9838337,10.2544154 C15.9838337,10.1654812 15.9838337,10.0786153 15.9838337,9.99174934 C16.3827345,9.70569534 16.7268139,9.35203573 17,8.94728992 Z" id="Twitter-2" fill="#404040" fill-rule="nonzero"></path>
                </g>
            </g>
        </g>
    </g>
</svg>