<?xml version="1.0" encoding="UTF-8"?>
<svg width="77px" height="14px" viewBox="0 0 77 14" version="1.1" xmlns="http://www.w3.org/2000/svg" xmlns:xlink="http://www.w3.org/1999/xlink">
    <!-- Generator: Sketch 64 (93537) - https://sketch.com -->
    <title>Shape</title>
    <desc>Created with Sketch.</desc>
    <g id="Page-1" stroke="none" stroke-width="1" fill="none" fill-rule="evenodd">
        <g id="showcase.withgoogle.com-Navigation-Wrapper-v2" transform="translate(-68.000000, -251.000000)" fill="#5F6368" fill-rule="nonzero">
            <g id="Group-6" transform="translate(44.000000, 247.000000)">
                <g id="ab3245a">
                    <g id="Group" transform="translate(0.546153, 0.076923)">
                        <path d="M29.566255,14.5805634 C28.1361525,14.5805634 26.9065884,14.0741532 25.8714859,13.0613327 C24.8384091,12.0485122 24.319845,10.831102 24.319845,9.41112775 C24.319845,7.99115346 24.8363834,6.77374326 25.8714859,5.7609228 C26.9045628,4.74810233 28.1361525,4.2416921 29.566255,4.2416921 C30.9355882,4.2416921 32.1185626,4.71569208 33.109101,5.66571768 L32.1124856,6.66233301 C31.3974344,5.98982022 30.5486908,5.65356383 29.566255,5.65356383 C28.5331781,5.65356383 27.6560756,6.0181792 26.9369731,6.75146121 C26.2178705,7.48271759 25.8593321,8.36994831 25.8593321,9.41112775 C25.8593321,10.4543328 26.2178705,11.3395379 26.9369731,12.0707943 C27.6560756,12.8020507 28.5311525,13.1686917 29.566255,13.1686917 C30.6175626,13.1686917 31.4865626,12.8243327 32.1773061,12.1335892 C32.5885112,11.722384 32.8457676,11.1288713 32.9470497,10.3550764 L29.5682806,10.3550764 L29.5682806,8.9432047 L34.3224599,8.9432047 C34.3731009,9.19438417 34.3974086,9.49012775 34.3974086,9.82638414 C34.3974086,11.2139482 33.9902548,12.3138712 33.1739215,13.1302045 C32.2482036,14.0984609 31.0469985,14.5805634 29.566255,14.5805634 L29.566255,14.5805634 Z M40.6141006,13.6285122 C39.9658955,14.2625378 39.1758955,14.5805634 38.2441007,14.5805634 C37.3123059,14.5805634 36.5202803,14.2625378 35.8741008,13.6285122 C35.2258957,12.9944866 34.9038188,12.2024609 34.9038188,11.2524354 C34.9038188,10.3024098 35.2279214,9.51038416 35.8741008,8.87635855 C36.5223059,8.24233294 37.3123059,7.92430731 38.2441007,7.92430731 C39.1758955,7.92430731 39.9679211,8.24233294 40.6141006,8.87635855 C41.2623057,9.51038416 41.5843826,10.3044354 41.5843826,11.2524354 C41.5843826,12.2024609 41.2602801,12.9944866 40.6141006,13.6285122 Z M36.9193316,12.6967173 C37.2900238,13.0795635 37.7295879,13.2699737 38.2441007,13.2699737 C38.7565879,13.2699737 39.1981776,13.0795635 39.5688699,12.6967173 C39.9395622,12.3138712 40.1238955,11.8337943 40.1238955,11.2524354 C40.1238955,10.6649995 39.9415878,10.1808713 39.5749468,9.80207645 C39.2083058,9.4232816 38.7667161,9.23489699 38.2441007,9.23489699 C37.723511,9.23489699 37.2798956,9.4232816 36.9132546,9.80207645 C36.5466136,10.1808713 36.3643059,10.6629738 36.3643059,11.2524354 C36.3643059,11.8317687 36.5486393,12.3138712 36.9193316,12.6967173 Z M47.9023567,13.6285122 C47.2541516,14.2625378 46.4641516,14.5805634 45.5323568,14.5805634 C44.6005619,14.5805634 43.8085363,14.2625378 43.1623569,13.6285122 C42.5141518,12.9944866 42.1920749,12.2024609 42.1920749,11.2524354 C42.1920749,10.3024098 42.5161774,9.51038416 43.1623569,8.87635855 C43.8085363,8.24233294 44.6005619,7.92430731 45.5323568,7.92430731 C46.4641516,7.92430731 47.2561772,8.24233294 47.9023567,8.87635855 C48.5505618,9.51038416 48.8726387,10.3044354 48.8726387,11.2524354 C48.8726387,12.2024609 48.5485361,12.9944866 47.9023567,13.6285122 Z M44.2075876,12.6967173 C44.5782799,13.0795635 45.017844,13.2699737 45.5323568,13.2699737 C46.0448439,13.2699737 46.4864337,13.0795635 46.8571259,12.6967173 C47.2278182,12.3138712 47.4121516,11.8337943 47.4121516,11.2524354 C47.4121516,10.6649995 47.2298439,10.1808713 46.8632029,9.80207645 C46.4965619,9.4232816 46.0549721,9.23489699 45.5323568,9.23489699 C45.0117671,9.23489699 44.5681517,9.4232816 44.2015107,9.80207645 C43.8348697,10.1808713 43.652562,10.6629738 43.652562,11.2524354 C43.652562,11.8317687 43.8368953,12.3138712 44.2075876,12.6967173 L44.2075876,12.6967173 Z M52.6929975,17.5704094 C51.9536385,17.5704094 51.3317668,17.3718966 50.8273822,16.9768966 C50.3229976,16.5818966 49.9624335,16.1241018 49.7436643,15.6014864 L51.0177924,15.0727941 C51.1514847,15.3928454 51.3621514,15.6703582 51.6477667,15.9053326 C51.9333821,16.1403069 52.2817923,16.2577941 52.6950231,16.2577941 C53.2500487,16.2577941 53.6855615,16.0896659 53.9995359,15.7534095 C54.3155358,15.4171531 54.4715102,14.9330249 54.4715102,14.3030506 L54.4715102,13.8229737 L54.4208692,13.8229737 C54.0096641,14.3273583 53.4242538,14.5805634 52.6686898,14.5805634 C51.8199462,14.5805634 51.076536,14.2564609 50.4364335,13.6102814 C49.7983566,12.9641019 49.4783053,12.1822045 49.4783053,11.2645892 C49.4783053,10.3408969 49.7983566,9.55089697 50.4364335,8.90066624 C51.0745104,8.2504355 51.8199462,7.92430731 52.6686898,7.92430731 C53.0474846,7.92430731 53.3898179,7.99520474 53.6956897,8.13902525 C54.0015615,8.28284575 54.2446384,8.45907651 54.4208692,8.66771753 L54.4715102,8.66771753 L54.4715102,8.12484576 L55.8590742,8.12484576 L55.8590742,14.1025121 C55.8590742,15.2632044 55.5633307,16.1301787 54.9698179,16.7074864 C54.3763051,17.2807428 53.6187154,17.5704094 52.6929975,17.5704094 L52.6929975,17.5704094 Z M52.7942795,13.2699737 C53.2986641,13.2699737 53.722023,13.0795635 54.0623307,12.6967173 C54.4026384,12.3138712 54.5727922,11.8378456 54.5727922,11.2645892 C54.5727922,10.6852559 54.4026384,10.2011277 54.0623307,9.8142303 C53.722023,9.42733288 53.2986641,9.23489699 52.7942795,9.23489699 C52.2817923,9.23489699 51.8442539,9.42935852 51.4836898,9.8142303 C51.1211001,10.2011277 50.9408181,10.6832303 50.9408181,11.2645892 C50.9408181,11.8358199 51.1211001,12.3138712 51.4836898,12.6967173 C51.8442539,13.0795635 52.2817923,13.2699737 52.7942795,13.2699737 Z M58.3303562,4.59415362 L58.3303562,14.3800249 L56.8678434,14.3800249 L56.8678434,4.59415362 L58.3303562,4.59415362 Z M62.3390996,14.5805634 C61.3971765,14.5805634 60.6112278,14.2605121 59.9812535,13.6224352 C59.3512792,12.9843583 59.0352792,12.1943584 59.0352792,11.2524354 C59.0352792,10.2781021 59.3391253,9.4779739 59.9488433,8.85610214 C60.5585612,8.23423037 61.2999458,7.92228167 62.1750226,7.92228167 C62.5781252,7.92228167 62.9528688,7.99520474 63.2972277,8.14307653 C63.6415867,8.29094832 63.927202,8.47933292 64.1540738,8.71025599 C64.3809456,8.94117906 64.5612277,9.1660252 64.6969456,9.38479442 C64.8306379,9.60356364 64.9400225,9.82233286 65.0250994,10.0411021 L65.1770225,10.4198969 L60.7266894,12.2612045 C61.0710483,12.9337173 61.6098688,13.2699737 62.3411252,13.2699737 C63.013638,13.2699737 63.560561,12.9641019 63.9798687,12.3503327 L65.1142276,13.1079224 C64.8610225,13.4867173 64.5045097,13.827025 64.0426636,14.1288455 C63.5787918,14.430666 63.0116123,14.5805634 62.3390996,14.5805634 L62.3390996,14.5805634 Z M60.4856381,11.1511533 L63.4613046,9.91551234 C63.3762277,9.70484569 63.222279,9.53469185 62.9954072,9.40505083 C62.7685354,9.27540981 62.511279,9.2105893 62.2256637,9.2105893 C61.7962278,9.2105893 61.3951509,9.38682006 61.022433,9.73928158 C60.6476894,10.0917431 60.469433,10.5637174 60.4856381,11.1511533 L60.4856381,11.1511533 Z M72.8562273,14.5805634 C71.5274068,14.5805634 70.4133043,14.1308711 69.5139197,13.2314865 C68.6145351,12.332102 68.1648429,11.2098969 68.1648429,9.86487132 C68.1648429,8.51984574 68.6145351,7.39764067 69.5139197,6.4982561 C70.4133043,5.59887152 71.5274068,5.14917924 72.8562273,5.14917924 C74.217458,5.14917924 75.3234579,5.64140998 76.1722015,6.62384583 L75.3659964,7.40574323 C74.7522272,6.64005096 73.9156375,6.25923047 72.8562273,6.25923047 C71.8717658,6.25923047 71.0432786,6.59143558 70.3667146,7.2558458 C69.6901505,7.92025603 69.3518684,8.78925599 69.3518684,9.86487132 C69.3518684,10.9404867 69.6901505,11.8115123 70.3667146,12.4759225 C71.0432786,13.1403327 71.8737914,13.4725378 72.8562273,13.4725378 C73.9399451,13.4725378 74.8656631,13.0349994 75.6293297,12.1619481 L76.4355348,12.9681532 C76.0243297,13.4644352 75.5057656,13.8574096 74.8838938,14.1470762 C74.2640477,14.4367429 73.5874836,14.5805634 72.8562273,14.5805634 L72.8562273,14.5805634 Z M78.6313295,14.3800249 L77.4706373,14.3800249 L77.4706373,5.35174333 L78.6313295,5.35174333 L78.6313295,14.3800249 L78.6313295,14.3800249 Z M80.5232782,8.93915341 C81.1208422,8.31323037 81.8804576,7.99925602 82.8061755,7.99925602 C83.7298678,7.99925602 84.4915087,8.31323037 85.0890728,8.93915341 C85.6866369,9.56507646 85.9844061,10.3489995 85.9844061,11.2909225 C85.9844061,12.2328456 85.6866369,13.0167686 85.0890728,13.6426916 C84.4915087,14.2686147 83.7318934,14.582589 82.8061755,14.582589 C81.8804576,14.582589 81.1208422,14.2686147 80.5232782,13.6426916 C79.9257141,13.0167686 79.6279449,12.2328456 79.6279449,11.2909225 C79.6279449,10.3489995 79.9257141,9.56507646 80.5232782,8.93915341 Z M81.3862012,12.9094096 C81.7852525,13.3165635 82.2592524,13.5211532 82.8041498,13.5211532 C83.3510729,13.5211532 83.8230472,13.3165635 84.2220985,12.9094096 C84.6211498,12.5022558 84.8216882,11.9614097 84.8216882,11.2888969 C84.8216882,10.6163841 84.6211498,10.075538 84.2220985,9.66838415 C83.8230472,9.26123032 83.3490473,9.05664059 82.8041498,9.05664059 C82.2572268,9.05664059 81.7852525,9.26123032 81.3862012,9.66838415 C80.9871499,10.075538 80.7866115,10.6163841 80.7866115,11.2888969 C80.7866115,11.9614097 80.9871499,12.5022558 81.3862012,12.9094096 Z M92.4016366,14.3800249 L91.2915853,14.3800249 L91.2915853,13.5231788 L91.2409443,13.5231788 C91.0647136,13.8168968 90.7953033,14.0680762 90.4347392,14.272666 C90.0741751,14.4792814 89.691329,14.582589 89.2882265,14.582589 C88.5144316,14.582589 87.9290214,14.3476147 87.5299701,13.8756404 C87.1309189,13.4056917 86.9303804,12.7736917 86.9303804,11.9836917 L86.9303804,8.19979448 L88.0910727,8.19979448 L88.0910727,11.7932815 C88.0910727,12.9458712 88.5995085,13.5211532 89.6163803,13.5211532 C90.0964572,13.5211532 90.4874059,13.3287173 90.7892264,12.9418199 C91.0910469,12.5549225 91.24297,12.1092815 91.24297,11.6048969 L91.24297,8.19979448 L92.4036622,8.19979448 L92.4036622,14.3800249 L92.4016366,14.3800249 L92.4016366,14.3800249 Z M96.3354312,14.5805634 C95.5373287,14.5805634 94.8465852,14.2645634 94.2672519,13.6345891 C93.6879186,13.0046148 93.3982519,12.2227174 93.3982519,11.2888969 C93.3982519,10.3550764 93.6879186,9.57317902 94.2672519,8.9432047 C94.8465852,8.31323037 95.5373287,7.99723038 96.3354312,7.99723038 C96.8053799,7.99723038 97.2287389,8.09851243 97.6034825,8.29905088 C97.978226,8.50161497 98.2577645,8.75279445 98.4420978,9.05664059 L98.4927388,9.05664059 L98.4420978,8.19979448 L98.4420978,5.35174333 L99.6027901,5.35174333 L99.6027901,14.3800249 L98.4927388,14.3800249 L98.4927388,13.5231788 L98.4420978,13.5231788 C98.2577645,13.8249993 97.978226,14.0782044 97.6034825,14.2807685 C97.2287389,14.4792814 96.8053799,14.5805634 96.3354312,14.5805634 L96.3354312,14.5805634 Z M96.5238159,13.5211532 C97.0707389,13.5211532 97.5346107,13.3185891 97.9174568,12.9154866 C98.3003029,12.512384 98.4907132,11.9695122 98.4907132,11.2888969 C98.4907132,10.6082815 98.3003029,10.0654098 97.9174568,9.66230723 C97.5346107,9.25920468 97.0707389,9.05664059 96.5238159,9.05664059 C95.9849954,9.05664059 95.5231492,9.26123032 95.1362518,9.66838415 C94.7493544,10.075538 94.5569185,10.6163841 94.5569185,11.2888969 C94.5569185,11.9614097 94.7493544,12.5022558 95.1362518,12.9094096 C95.5231492,13.3185891 95.987021,13.5211532 96.5238159,13.5211532 Z" id="Shape"></path>
                    </g>
                </g>
            </g>
        </g>
    </g>
</svg>