<?xml version="1.0" encoding="UTF-8"?>
<svg width="19px" height="15px" viewBox="0 0 19 15" version="1.1" xmlns="http://www.w3.org/2000/svg" xmlns:xlink="http://www.w3.org/1999/xlink">
    <!-- Generator: Sketch 64 (93537) - https://sketch.com -->
    <title>Clipped</title>
    <desc>Created with Sketch.</desc>
    <defs>
        <polygon id="path-1" points="0.180282043 0.0607692278 19.3205632 0.0607692278 19.3205632 19.2010504 0.180282043 19.2010504"></polygon>
    </defs>
    <g id="Page-1" stroke="none" stroke-width="1" fill="none" fill-rule="evenodd">
        <g id="showcase.withgoogle.com-Navigation-Wrapper-v2" transform="translate(-45.000000, -414.000000)">
            <g id="Group-6" transform="translate(44.000000, 412.000000)">
                <g id="ab3245a">
                    <g id="Group" transform="translate(0.546153, 0.076923)">
                        <g id="Clipped">
                            <mask id="mask-2" fill="white">
                                <use xlink:href="#path-1"></use>
                            </mask>
                            <g id="c"></g>
                            <g id="Group" mask="url(#mask-2)">
                                <g transform="translate(0.405128, 2.025641)" id="Path">
                                    <path d="M11.8479738,4.10394852 L12.4354097,4.11407672 L14.0316147,2.51787167 L14.1085891,1.8413076 C12.8405378,0.713025607 11.1714097,0.0263333321 9.3442816,0.0263333321 C6.03640996,0.0263333321 3.24507677,2.2768204 2.41861527,5.32541 C2.59282039,5.20387154 2.96553832,5.29502539 2.96553832,5.29502539 L6.15592278,4.77038439 C6.15592278,4.77038439 6.31999969,4.4989485 6.40305097,4.51515363 C7.13228171,3.7170511 8.18156371,3.21469215 9.34630724,3.21469215 C10.2922816,3.21671779 11.1633072,3.55094855 11.8479738,4.10394852 L11.8479738,4.10394852 Z" fill="#EA4335"></path>
                                    <path d="M16.2739992,5.33148692 C15.9033069,3.9641793 15.1396403,2.7568973 14.1085891,1.8413076 L11.8479738,4.10192288 C12.7534353,4.83317925 13.3347942,5.95133305 13.3347942,7.20317914 L13.3347942,7.6022304 C14.4347173,7.6022304 15.3280249,8.49756369 15.3280249,9.59546108 C15.3280249,10.6953841 14.4326916,11.5886917 13.3347942,11.5886917 L9.34833288,11.5886917 L8.94928162,11.9897687 L8.94928162,14.3820506 L9.34833288,14.7790762 L13.3347942,14.7790762 C16.1929736,14.7790762 18.5184094,12.4536404 18.5184094,9.59546108 C18.5163837,7.83112783 17.6271274,6.26733303 16.2739992,5.33148692 Z" fill="#4285F4"></path>
                                    <path d="M5.35782025,14.7811019 L9.34225596,14.7811019 L9.34225596,11.5907174 L5.35782025,11.5907174 C5.06410232,11.5907174 4.78658951,11.5258969 4.53743568,11.412461 L3.96215365,11.5886917 L2.3659486,13.1848968 L2.22617938,13.7237173 C3.09720498,14.3861019 4.18294852,14.7811019 5.35782025,14.7811019 Z" fill="#34A853"></path>
                                    <path d="M5.35782025,4.41387158 C2.4996409,4.41387158 0.17420512,6.73930737 0.17420512,9.59748672 C0.17420512,11.2807943 0.980410209,12.777743 2.22820502,13.7257429 L4.53946132,11.4144866 C3.84669212,11.1005123 3.36458958,10.4057174 3.36458958,9.59748672 C3.36458958,8.49756369 4.25992287,7.60425604 5.35782025,7.60425604 C6.16605098,7.60425604 6.86084582,8.08838422 7.17482017,8.77912778 L9.48607647,6.46787148 C8.53807651,5.22007667 7.04112787,4.41387158 5.35782025,4.41387158 Z" fill="#FBBC05"></path>
                                </g>
                            </g>
                        </g>
                    </g>
                </g>
            </g>
        </g>
    </g>
</svg>