
<svg width="747px" height="412px" viewBox="0 0 747 412" version="1.1" xmlns="http://www.w3.org/2000/svg" xmlns:xlink="http://www.w3.org/1999/xlink">
    <defs>
        <linearGradient x1="32.0464664%" y1="48.9513063%" x2="68.8686257%" y2="57.6552772%" id="linearGradient-1">
            <stop stop-color="#5965DD" offset="0%"></stop>
            <stop stop-color="#587EFF" offset="100%"></stop>
        </linearGradient>
        <linearGradient x1="32.0464664%" y1="46.3393497%" x2="68.8686257%" y2="76.7220964%" id="linearGradient-2">
            <stop stop-color="#587EFF" offset="0%"></stop>
            <stop stop-color="#A759DD" offset="100%"></stop>
        </linearGradient>
        <linearGradient x1="32.0464664%" y1="48.9565295%" x2="68.8686257%" y2="57.6171489%" id="linearGradient-3">
            <stop stop-color="#5965DD" offset="0%"></stop>
            <stop stop-color="#587EFF" offset="100%"></stop>
        </linearGradient>
        <linearGradient x1="32.0464664%" y1="49.4338647%" x2="68.8686257%" y2="54.1326873%" id="linearGradient-4">
            <stop stop-color="#587EFF" offset="0%"></stop>
            <stop stop-color="#A759DD" offset="100%"></stop>
        </linearGradient>
        <linearGradient x1="32.0464664%" y1="48.6045245%" x2="68.8686257%" y2="60.1867227%" id="linearGradient-5">
            <stop stop-color="#587EFF" offset="0%"></stop>
            <stop stop-color="#A759DD" offset="100%"></stop>
        </linearGradient>
        <linearGradient x1="32.0464664%" y1="49.4857505%" x2="68.8686257%" y2="53.7539303%" id="linearGradient-6">
            <stop stop-color="#5965DD" offset="0%"></stop>
            <stop stop-color="#587EFF" offset="100%"></stop>
        </linearGradient>
        <linearGradient x1="32.0464664%" y1="49.865737%" x2="68.8686257%" y2="50.9800957%" id="linearGradient-7">
            <stop stop-color="#5965DD" offset="0%"></stop>
            <stop stop-color="#587EFF" offset="100%"></stop>
        </linearGradient>
        <linearGradient x1="32.0464664%" y1="49.4857505%" x2="68.8686257%" y2="53.7539303%" id="linearGradient-8">
            <stop stop-color="#5965DD" offset="0%"></stop>
            <stop stop-color="#587EFF" offset="100%"></stop>
        </linearGradient>
        <radialGradient cx="55.4772028%" cy="81.0257329%" fx="55.4772028%" fy="81.0257329%" r="184.547757%" gradientTransform="translate(0.554772,0.810257),scale(0.354725,1.000000),rotate(-11.495378),translate(-0.554772,-0.810257)" id="radialGradient-9">
            <stop stop-color="#544D91" offset="0%"></stop>
            <stop stop-color="#13025A" offset="100%"></stop>
        </radialGradient>
        <path d="M136.97905,1.61052029 C149.392327,17.2855573 154.209762,24.6040895 151.05924,31.3451615 C146.528633,41.0391616 125.591762,54.9808586 78.3493037,54.9808793 C31.1068451,54.9809 7.00879401,41.0391693 2.47818278,31.3451615 C-0.672338316,24.6040895 4.14509585,17.2855573 16.5583728,1.61052029 L136.97905,1.61052029 Z" id="path-10"></path>
        <linearGradient x1="38.1969068%" y1="45.4520321%" x2="62.4046972%" y2="83.1993572%" id="linearGradient-12">
            <stop stop-color="#587EFF" offset="0%"></stop>
            <stop stop-color="#A759DD" offset="100%"></stop>
        </linearGradient>
        <rect id="path-13" x="101.979761" y="157.265597" width="249.346646" height="233.748007" rx="75"></rect>
        <filter x="-10.4%" y="-8.1%" width="120.9%" height="122.2%" filterUnits="objectBoundingBox" id="filter-14">
            <feOffset dx="0" dy="7" in="SourceAlpha" result="shadowOffsetOuter1"></feOffset>
            <feGaussianBlur stdDeviation="7.5" in="shadowOffsetOuter1" result="shadowBlurOuter1"></feGaussianBlur>
            <feColorMatrix values="0 0 0 0 0.653901115   0 0 0 0 0.347889293   0 0 0 0 0.868489583  0 0 0 0.268547858 0" type="matrix" in="shadowBlurOuter1"></feColorMatrix>
        </filter>
        <linearGradient x1="55.4772028%" y1="53.9910072%" x2="119.627829%" y2="49.2600143%" id="linearGradient-15">
            <stop stop-color="#544D91" offset="0%"></stop>
            <stop stop-color="#13025A" offset="100%"></stop>
        </linearGradient>
        <linearGradient x1="55.4772028%" y1="53.3101354%" x2="119.627829%" y2="49.386257%" id="linearGradient-16">
            <stop stop-color="#13025A" offset="0%"></stop>
            <stop stop-color="#544D91" offset="100%"></stop>
        </linearGradient>
        <linearGradient x1="32.0464664%" y1="45.4520321%" x2="153.760126%" y2="45.4520321%" id="linearGradient-17">
            <stop stop-color="#587EFF" offset="0%"></stop>
            <stop stop-color="#A759DD" offset="100%"></stop>
        </linearGradient>
        <linearGradient x1="32.0464664%" y1="45.4525952%" x2="68.8686257%" y2="83.1952462%" id="linearGradient-18">
            <stop stop-color="#587EFF" offset="0%"></stop>
            <stop stop-color="#A759DD" offset="100%"></stop>
        </linearGradient>
        <linearGradient x1="32.0464664%" y1="45.4525952%" x2="68.8686257%" y2="83.1952462%" id="linearGradient-19">
            <stop stop-color="#9458FF" offset="0%"></stop>
            <stop stop-color="#A759DD" offset="100%"></stop>
        </linearGradient>
        <linearGradient x1="32.0464664%" y1="45.4525952%" x2="68.8686257%" y2="83.1952462%" id="linearGradient-20">
            <stop stop-color="#587EFF" offset="0%"></stop>
            <stop stop-color="#A759DD" offset="100%"></stop>
        </linearGradient>
        <linearGradient x1="32.0464664%" y1="45.4525952%" x2="68.8686257%" y2="83.1952462%" id="linearGradient-21">
            <stop stop-color="#587EFF" offset="0%"></stop>
            <stop stop-color="#A759DD" offset="100%"></stop>
        </linearGradient>
        <linearGradient x1="32.0464664%" y1="45.4525952%" x2="68.8686257%" y2="83.1952462%" id="linearGradient-22">
            <stop stop-color="#587EFF" offset="0%"></stop>
            <stop stop-color="#A759DD" offset="100%"></stop>
        </linearGradient>
        <linearGradient x1="32.0464664%" y1="48.8629631%" x2="68.8686257%" y2="58.3001669%" id="linearGradient-23">
            <stop stop-color="#587EFF" offset="0%"></stop>
            <stop stop-color="#A759DD" offset="100%"></stop>
        </linearGradient>
        <linearGradient x1="32.0464664%" y1="48.8629631%" x2="68.8686257%" y2="58.3001669%" id="linearGradient-24">
            <stop stop-color="#9458FF" offset="0%"></stop>
            <stop stop-color="#A759DD" offset="100%"></stop>
        </linearGradient>
        <linearGradient x1="32.0464664%" y1="48.8628672%" x2="68.8686257%" y2="58.3008672%" id="linearGradient-25">
            <stop stop-color="#9458FF" offset="0%"></stop>
            <stop stop-color="#A759DD" offset="100%"></stop>
        </linearGradient>
        <linearGradient x1="32.0464664%" y1="48.8631162%" x2="68.8686257%" y2="58.2990493%" id="linearGradient-26">
            <stop stop-color="#587EFF" offset="0%"></stop>
            <stop stop-color="#A759DD" offset="100%"></stop>
        </linearGradient>
        <linearGradient x1="32.0464664%" y1="45.5372413%" x2="68.8686257%" y2="82.5773448%" id="linearGradient-27">
            <stop stop-color="#6A1B9A" offset="0%"></stop>
            <stop stop-color="#A759DD" offset="100%"></stop>
        </linearGradient>
        <linearGradient x1="32.0464664%" y1="45.5418617%" x2="68.8686257%" y2="82.5436168%" id="linearGradient-28">
            <stop stop-color="#6A1B9A" offset="0%"></stop>
            <stop stop-color="#A759DD" offset="100%"></stop>
        </linearGradient>
        <linearGradient x1="32.0464664%" y1="45.5533671%" x2="68.8686257%" y2="82.4596297%" id="linearGradient-29">
            <stop stop-color="#587EFF" offset="0%"></stop>
            <stop stop-color="#A759DD" offset="100%"></stop>
        </linearGradient>
        <linearGradient x1="32.0464664%" y1="49.521384%" x2="68.8686257%" y2="53.4938114%" id="linearGradient-30">
            <stop stop-color="#5965DD" offset="0%"></stop>
            <stop stop-color="#587EFF" offset="100%"></stop>
        </linearGradient>
        <linearGradient x1="32.0464664%" y1="45.7440884%" x2="69.7248625%" y2="81.8887815%" id="linearGradient-31">
            <stop stop-color="#587EFF" offset="0%"></stop>
            <stop stop-color="#A759DD" offset="97.7275127%"></stop>
        </linearGradient>
        <ellipse id="path-32" cx="128.827134" cy="124.238007" rx="128.176141" ry="123.992322"></ellipse>
        <linearGradient x1="41.2777219%" y1="34.9478333%" x2="73.362628%" y2="72.6470835%" id="linearGradient-34">
            <stop stop-color="#A759DD" stop-opacity="0" offset="0%"></stop>
            <stop stop-color="#6A1B9A" stop-opacity="0.407315341" offset="100%"></stop>
        </linearGradient>
        <linearGradient x1="36.7400966%" y1="32.5563222%" x2="66.8342966%" y2="64.7105399%" id="linearGradient-35">
            <stop stop-color="#969EFF" offset="0%"></stop>
            <stop stop-color="#6C79F5" stop-opacity="0" offset="100%"></stop>
        </linearGradient>
        <radialGradient cx="64.1781064%" cy="34.2197334%" fx="64.1781064%" fy="34.2197334%" r="53.5756896%" gradientTransform="translate(0.641781,0.342197),scale(0.968503,1.000000),rotate(44.794064),translate(-0.641781,-0.342197)" id="radialGradient-36">
            <stop stop-color="#FFFBD8" stop-opacity="0.467111014" offset="0%"></stop>
            <stop stop-color="#FFFFFF" stop-opacity="0.0522563374" offset="100%"></stop>
        </radialGradient>
        <radialGradient cx="50%" cy="58.0556234%" fx="50%" fy="58.0556234%" r="75.2790191%" gradientTransform="translate(0.500000,0.580556),scale(0.999938,1.000000),rotate(32.962588),translate(-0.500000,-0.580556)" id="radialGradient-37">
            <stop stop-color="#FFFDEA" stop-opacity="0.835992133" offset="0%"></stop>
            <stop stop-color="#FFFFFF" stop-opacity="0.475469843" offset="100%"></stop>
        </radialGradient>
    </defs>
    <g id="Design" stroke="none" stroke-width="1" fill="none" fill-rule="evenodd">
        <g id="Desktop__bqml_1" transform="translate(-351.000000, 0.000000)">
            <rect fill="#F6F6F6" x="0" y="0" width="1440" height="900"></rect>
            <g id="square/together" transform="translate(373.820788, -164.000000)">
                <path d="M34.1215802,300.191939 L105.972331,300.191939 C108.562818,300.191939 110.662823,302.291943 110.662823,304.882431 L110.662823,304.882431 C110.662823,307.472918 112.762828,309.572923 115.353315,309.572923 L189.844071,309.572923 C195.295272,309.572923 199.714343,313.991994 199.714343,319.443195 L199.714343,319.443195 C199.714343,324.894395 195.295272,329.313467 189.844071,329.313467 L133.817448,329.313467 C129.72461,329.313467 126.406709,332.631368 126.406709,336.724206 L126.406709,336.724206 C126.406709,340.817045 129.72461,344.134946 133.817448,344.134946 L171.096893,344.134946 C174.303443,344.134946 176.902865,346.734368 176.902865,349.940918 L176.902865,349.940918 C176.902865,353.147468 179.502287,355.74689 182.708837,355.74689 L250.49346,355.74689 C256.681764,355.74689 261.698376,360.763502 261.698376,366.951806 L261.698376,366.951806 C261.698376,373.14011 256.681764,378.156722 250.49346,378.156722 L196.197293,378.156722 C189.348064,378.156722 183.795668,383.709118 183.795668,390.558347 L183.795668,390.558347 C183.795668,397.407576 178.243271,402.959972 171.394042,402.959972 L143.205246,402.959972 C139.62393,402.959972 136.7207,400.056742 136.7207,396.475427 L136.7207,396.475427 C136.7207,392.894111 133.81747,389.990881 130.236154,389.990881 L103.7806,389.990881 C96.8541525,389.990881 91.239157,395.605876 91.239157,402.532324 L91.239157,402.532324 C91.239157,409.458772 96.8541525,415.073767 103.7806,415.073767 L113.724633,415.073767 C119.731407,415.073767 124.60086,419.94322 124.60086,425.949995 L124.60086,425.949995 C124.60086,431.95677 119.731407,436.826223 113.724633,436.826223 L19.9909719,436.826223 C13.9841973,436.826223 9.11474433,431.95677 9.11474433,425.949995 L9.11474433,425.949995 C9.11474433,419.94322 4.24529137,415.073767 -1.76148326,415.073767 L-8.23517863,415.073767 C-16.3023614,415.073767 -22.8421053,408.534024 -22.8421053,400.466841 L-22.8421053,400.466841 C-22.8421053,392.399658 -16.3023614,385.859914 -8.23517863,385.859914 L14.7998514,385.859914 C23.0714261,385.859914 29.7768622,379.154478 29.7768622,370.882903 C29.7768622,370.856403 29.7767919,370.829902 29.7766512,370.803402 L29.7766512,370.803402 C29.7324417,362.475023 22.9684991,355.74689 14.6400027,355.74689 L-14.1970178,355.74689 C-18.6001888,355.74689 -22.1696641,352.177415 -22.1696641,347.774244 L-22.1696641,347.774244 C-22.1696641,343.371073 -18.6001888,339.801598 -14.1970178,339.801598 L4.1216639,339.801598 C7.01788132,339.801598 9.36572942,337.453749 9.36572942,334.557532 L9.36572942,334.557532 C9.36572942,331.661315 11.7135775,329.313467 14.6097949,329.313467 L35.5142394,329.313467 C38.8430814,329.313467 41.5416409,326.614907 41.5416409,323.286065 L41.5416409,323.286065 C41.5416409,319.957223 38.8430814,317.258663 35.5142394,317.258663 L33.5649294,317.258663 C29.1595132,317.258663 25.5882178,313.687368 25.5882178,309.281952 L25.5882178,308.725301 C25.5882178,304.012455 29.4087343,300.191939 34.1215802,300.191939 Z" id="Path-5" fill="url(#linearGradient-1)" fill-rule="evenodd" opacity="0.060634"></path>
                <path d="M227.543487,-19.5777351 L175.381067,-19.5777351 C168.051477,-19.5777351 162.109671,-13.6359285 162.109671,-6.30633857 L162.109671,-6.30633857 C162.109671,1.02325136 156.167864,6.96505799 148.838274,6.96505799 L90.5490775,6.96505799 C81.7708137,6.96505799 74.6546248,14.0812469 74.6546248,22.8595107 L74.6546248,22.8595107 C74.6546248,31.6377745 81.7708137,38.7539634 90.5490775,38.7539634 L136.827406,38.7539634 C143.970896,38.7539634 149.761839,44.5449065 149.761839,51.6883969 L149.761839,51.6883969 C149.761839,58.8318873 155.552782,64.6228305 162.696273,64.6228305 L190.304126,64.6228305 C196.126993,64.6228305 200.847359,69.3431965 200.847359,75.1660631 L200.847359,75.1660631 C200.847359,80.9889298 196.126993,85.7092958 190.304126,85.7092958 L142.54069,85.7092958 C136.040011,85.7092958 130.77017,90.9791372 130.77017,97.4798159 L130.77017,97.4798159 C130.77017,103.980495 125.500329,109.250336 118.99965,109.250336 L24.0674633,109.250336 C15.7313993,109.250336 8.97368421,116.008051 8.97368421,124.344115 L8.97368421,124.344115 C8.97368421,132.680179 15.7313993,139.437894 24.0674633,139.437894 L83.9146943,139.437894 C90.5306181,139.437894 95.8938841,144.80116 95.8938841,151.417084 L95.8938841,151.417084 C95.8938841,158.033008 90.5306181,163.396274 83.9146943,163.396274 L66.545998,163.396274 C58.3550575,163.396274 51.7149882,170.036343 51.7149882,178.227283 L51.7149882,178.227283 C51.7149882,186.418224 58.3550575,193.058293 66.545998,193.058293 L89.1426588,193.058293 C96.4449313,193.058293 102.364593,198.977955 102.364593,206.280227 L102.364593,206.280227 C102.364593,213.5825 108.284254,219.502161 115.586527,219.502161 L188.566505,219.502161 C193.100334,219.502161 196.775728,223.177556 196.775728,227.711384 L196.775728,227.711384 C196.775728,232.245213 193.100334,235.920607 188.566505,235.920607 L187.169556,235.920607 C181.943403,235.920607 177.706769,240.157241 177.706769,245.383394 L177.706769,245.383394 C177.706769,250.609547 181.943403,254.846181 187.169556,254.846181 L229.198195,254.846181 C240.158665,254.846181 249.141281,246.148138 249.49401,235.193345 L249.49401,235.193345 C249.846299,224.252224 258.842948,215.579038 269.789633,215.627427 L287.139491,215.704121 C295.127023,215.739429 301.678553,209.385132 301.887344,201.400252 L301.887344,201.400252 C302.095848,193.426336 295.873286,186.757527 287.904039,186.414143 L277.140015,185.950337 C264.433561,185.402833 254.311297,175.127323 253.95477,162.414077 L253.710295,153.696462 C253.491891,145.908498 259.357282,139.288728 267.114885,138.567838 L267.114885,138.567838 C274.956166,137.839171 280.982665,131.309302 281.081307,123.434856 L281.099577,121.976372 C281.192648,114.546647 287.223054,108.562366 294.653275,108.526343 L297.951538,108.510352 C303.462646,108.483633 307.908622,103.994338 307.881903,98.48323 C307.881727,98.4470887 307.881356,98.4109486 307.880788,98.3748113 L307.880788,98.3748113 C307.793133,92.7970013 303.213187,88.3393289 297.635047,88.4026075 L286.83757,88.5250943 C280.012836,88.6025143 274.292882,83.3835815 273.746115,76.5803441 L273.746115,76.5803441 C273.242501,70.3140409 277.914084,64.8259387 284.180387,64.3223249 C284.417986,64.3032294 284.656126,64.291602 284.894454,64.2874597 L293.814542,64.1324248 C305.319182,63.9324692 314.483439,54.4440201 314.283483,42.9393804 C314.282282,42.8702379 314.280736,42.8011018 314.278845,42.7319747 L314.2262,40.8066164 C313.877581,28.0568125 303.384624,17.9335449 290.630518,18.0422607 L269.114859,18.2256598 C258.344278,18.3174681 249.304214,10.1319781 248.329519,-0.59480217 L248.329519,-0.59480217 C247.352629,-11.3457493 238.338726,-19.5777351 227.543487,-19.5777351 Z" id="Path-7" fill="url(#linearGradient-2)" fill-rule="evenodd" opacity="0.0906343006" transform="translate(161.913843, 117.634223) scale(-1, -1) translate(-161.913843, -117.634223) "></path>
                <path d="M516.797832,178.633575 L602.110645,178.633575 C610.095925,178.633575 616.569273,185.106923 616.569273,193.092203 L616.569273,193.092203 C616.569273,201.077483 623.042621,207.550831 631.027901,207.550831 L660.066851,207.550831 C667.846052,207.550831 674.152341,213.85712 674.152341,221.636321 L674.152341,221.636321 C674.152341,229.415522 667.846052,235.721811 660.066851,235.721811 L597.178406,235.721811 C589.967074,235.721811 584.121135,241.56775 584.121135,248.779082 L584.121135,248.779082 C584.121135,255.990413 589.967074,261.836353 597.178406,261.836353 L709.330747,261.836353 C713.512635,261.836353 716.902725,265.226443 716.902725,269.408331 L716.902725,269.408331 C716.902725,273.590219 713.512635,276.98031 709.330747,276.98031 L654.286468,276.98031 C648.828788,276.98031 644.404465,281.404633 644.404465,286.862313 L644.404465,286.862313 C644.404465,292.319993 648.828788,296.744317 654.286468,296.744317 L659.680286,296.744317 C664.982404,296.744317 669.28062,301.042533 669.28062,306.344651 L669.28062,306.344651 C669.28062,311.674524 665.010853,316.021937 659.681845,316.117979 L585.768959,317.450081 C581.14706,317.533379 577.460695,321.334796 577.519438,325.957074 L577.519438,325.957074 C577.577835,330.552218 573.900075,334.32466 569.30493,334.383057 C569.292904,334.38321 569.280878,334.383337 569.268852,334.383437 L476.956538,335.156269 C470.262058,335.212315 464.789675,329.830801 464.73363,323.13632 C464.733347,323.102495 464.733205,323.068668 464.733205,323.034841 L464.733205,323.034841 C464.733205,316.283844 470.205969,310.81108 476.956966,310.81108 L485.961609,310.81108 C493.043984,310.81108 498.785383,305.06968 498.785383,297.987305 L498.785383,297.987305 C498.785383,290.90493 493.043984,285.163531 485.961609,285.163531 L466.760998,285.163531 C460.319375,285.163531 455.097408,279.941564 455.097408,273.499942 L455.097408,273.499942 C455.097408,267.058319 460.319375,261.836353 466.760998,261.836353 L476.941396,261.836353 C489.005497,261.836353 498.785383,252.056466 498.785383,239.992365 L498.785383,238.752949 C498.785383,226.004337 488.450591,215.669545 475.701979,215.669545 L400.955543,215.669545 C394.976213,215.669545 390.129009,210.822341 390.129009,204.843012 L390.129009,204.843012 C390.129009,198.863682 394.976213,194.016478 400.955543,194.016478 L501.41493,194.016478 C505.662801,194.016478 509.106381,190.572898 509.106381,186.325026 L509.106381,186.325026 C509.106381,182.077155 512.549961,178.633575 516.797832,178.633575 Z" id="Path-10" fill="url(#linearGradient-3)" fill-rule="evenodd" opacity="0.060634" transform="translate(553.515867, 256.895136) scale(1, -1) translate(-553.515867, -256.895136) "></path>
                <path d="M466.534958,463.625188 L526.183664,463.625188 C532.694968,463.625188 537.973424,458.346733 537.973424,451.835428 L537.973424,451.835428 C537.973424,445.324124 532.694968,440.045669 526.183664,440.045669 L522.17946,440.045669 C515.096332,440.045669 509.354322,434.303659 509.354322,427.220531 L509.354322,427.220531 C509.354322,420.137403 515.096332,414.395393 522.17946,414.395393 L582.136616,414.395393 C587.210811,414.395393 591.324259,418.508842 591.324259,423.583037 L591.324259,423.583037 C591.324259,428.657233 595.437708,432.770681 600.511903,432.770681 L635.320217,432.770681 C643.840454,432.770681 650.747471,439.677698 650.747471,448.197934 L650.747471,448.197934 C650.747471,456.718171 643.840454,463.625188 635.320217,463.625188 L600.916069,463.625188 C595.618659,463.625188 591.324259,467.919587 591.324259,473.216998 L591.324259,473.216998 C591.324259,478.514408 587.02986,482.808807 581.73245,482.808807 L466.334947,482.808807 C461.092195,482.808807 456.842105,478.558717 456.842105,473.315966 C456.842105,473.282976 456.842277,473.249986 456.842621,473.216998 L456.842621,473.216998 C456.89802,467.903488 461.221159,463.625188 466.534958,463.625188 Z" id="Path-8" fill="url(#linearGradient-4)" fill-rule="evenodd" opacity="0.0906343006" transform="translate(553.794788, 448.602100) scale(1, -1) translate(-553.794788, -448.602100) "></path>
                <path d="M582.284679,-74.2322457 L385.675692,-74.2322457 C377.620077,-74.2322457 371.08971,-67.7018793 371.08971,-59.6462642 L371.08971,-59.6462642 C371.08971,-51.590649 377.620077,-45.0602827 385.675692,-45.0602827 L441.196904,-45.0602827 C447.752324,-45.0602827 453.066542,-39.7460645 453.066542,-33.1906441 L453.066542,-33.1906441 C453.066542,-26.6352238 458.38076,-21.3210056 464.936181,-21.3210056 L490.271286,-21.3210056 C495.6148,-21.3210056 499.946574,-16.9892319 499.946574,-11.6457182 L499.946574,-11.6457182 C499.946574,-6.3022046 495.6148,-1.9704309 490.271286,-1.9704309 L446.439856,-1.9704309 C440.474329,-1.9704309 435.638315,2.86558386 435.638315,8.83111039 L435.638315,8.83111039 C435.638315,14.7966369 430.8023,19.6326517 424.836773,19.6326517 L337.719642,19.6326517 C330.069824,19.6326517 323.868421,25.8340547 323.868421,33.483873 L323.868421,33.483873 C323.868421,41.1336914 330.069824,47.3350944 337.719642,47.3350944 L392.640099,47.3350944 C398.711384,47.3350944 403.633132,52.2568429 403.633132,58.3281272 L403.633132,58.3281272 C403.633132,64.3994116 398.711384,69.3211601 392.640099,69.3211601 L376.701238,69.3211601 C369.184596,69.3211601 363.091154,75.4146022 363.091154,82.9312439 L363.091154,82.9312439 C363.091154,90.4478857 369.184596,96.5413278 376.701238,96.5413278 L397.437685,96.5413278 C404.138816,96.5413278 409.571156,101.973668 409.571156,108.674799 L409.571156,108.674799 C409.571156,115.37593 415.003496,120.80827 421.704627,120.80827 L488.676711,120.80827 C492.837303,120.80827 496.21013,124.181097 496.21013,128.34169 L496.21013,128.34169 C496.21013,132.502282 492.837303,135.875109 488.676711,135.875109 L487.394762,135.875109 C482.598839,135.875109 478.710975,139.762972 478.710975,144.558895 L478.710975,144.558895 C478.710975,149.354818 482.598839,153.242682 487.394762,153.242682 L656.489814,153.242682 C666.547991,153.242682 674.791135,145.260683 675.114826,135.207717 L675.114826,135.207717 C675.438114,125.167296 683.694137,117.208109 693.739662,117.252514 L709.661237,117.322894 C716.991215,117.355296 723.003407,111.524101 723.19501,104.196556 L723.19501,104.196556 C723.386349,96.8790727 717.676044,90.7592564 710.362846,90.444141 L700.484943,90.018516 C688.824516,89.5160847 679.535542,80.0864797 679.208365,68.4198206 L678.984016,60.4198616 C678.783592,53.2730224 684.166129,47.1982084 691.285107,46.5366631 L691.285107,46.5366631 C698.480874,45.867982 704.011256,39.8756685 704.101778,32.6494662 L704.118544,31.3110485 C704.203953,24.4929572 709.737921,19.0013172 716.556467,18.9682597 L719.583209,18.9535855 C724.640629,18.9290662 728.720601,14.8093407 728.696081,9.75192101 C728.695921,9.71875493 728.69558,9.68558998 728.695058,9.65242761 L728.695058,9.65242761 C728.61462,4.53379689 724.411706,0.443091242 719.292773,0.501160556 L709.384171,0.613563994 C703.121266,0.684610552 697.872193,-4.10468664 697.370438,-10.3478644 L697.370438,-10.3478644 C696.908282,-16.0983099 701.195289,-21.1346177 706.945734,-21.5967728 C707.163773,-21.6142963 707.382308,-21.6249665 707.601017,-21.6287678 L717.044539,-21.7929002 C726.869199,-21.963657 734.695233,-30.0665429 734.524476,-39.8912025 C734.522978,-39.9774235 734.520852,-40.0636324 734.5181,-40.1498225 L734.5181,-40.1498225 C734.197302,-50.1967569 725.941678,-58.1652248 715.889684,-58.1302843 L599.214243,-57.7247231 C594.620092,-57.7087539 590.857467,-61.3712004 590.749486,-65.9641106 L590.749486,-65.9641106 C590.641398,-70.5615779 586.883417,-74.2322457 582.284679,-74.2322457 Z" id="Path-7" fill="url(#linearGradient-5)" fill-rule="evenodd" opacity="0.0906343006" transform="translate(529.197819, 39.505218) scale(1, -1) translate(-529.197819, -39.505218) "></path>
                <rect id="Rectangle" fill="url(#linearGradient-6)" fill-rule="evenodd" opacity="0.0906343006" x="20.8829698" y="458.638348" width="68.4714982" height="23.0243879" rx="9.5"></rect>
                <rect id="Rectangle" fill="url(#linearGradient-7)" fill-rule="evenodd" opacity="0.0906343006" x="607.763158" y="360.556622" width="115.842105" height="19.9037928" rx="9.5"></rect>
                <rect id="Rectangle" fill="url(#linearGradient-8)" fill-rule="evenodd" opacity="0.0906343006" x="251.263158" y="3.26295585" width="59.1912591" height="19.9037928" rx="9.5"></rect>
                <g id="Group" stroke-width="1" fill-rule="evenodd" transform="translate(119.105263, 145.201536)">
                    <g id="Group-5" transform="translate(149.953159, 375.514532)">
                        <mask id="mask-11" fill="white">
                            <use xlink:href="#path-10"></use>
                        </mask>
                        <use id="Path" fill="url(#radialGradient-9)" fill-rule="nonzero" xlink:href="#path-10"></use>
                        <path d="M-6.52631579,126.996269 L89.0184039,126.996269 L89.0184039,107.889235 L-6.52631579,107.889235 L-6.52631579,126.996269 Z M79.1063343,-48.9443378 L63.7739707,-37.5411669 L120.79699,39.1177217 L136.129353,27.7145508 L79.1063343,-48.9443378 Z M31.7119232,-3.74955231 L105.130287,57.3907762 L117.35911,42.7080126 L43.9407461,-18.4323159 L31.7119232,-3.74955231 Z M7.74306697,38.7397964 L94.3569302,79.0742437 L102.424683,61.7532704 L15.8108193,21.4170061 L7.74306697,38.7397964 Z M-4.62748668,83.5075989 L88.8748561,103.157901 L92.8051598,84.4578631 L-0.697182989,64.8075614 L-4.62748668,83.5075989 L-4.62748668,83.5075989 Z" id="Fill-3" fill="url(#linearGradient-12)" fill-rule="nonzero" opacity="0.0706612723" mask="url(#mask-11)" transform="translate(64.801519, 39.025966) rotate(-114.000000) translate(-64.801519, -39.025966) "></path>
                    </g>
                    <g id="Rectangle" fill="black" fill-opacity="1">
                        <use filter="url(#filter-14)" xlink:href="#path-13"></use>
                    </g>
                    <ellipse id="Oval" fill="url(#linearGradient-15)" fill-rule="nonzero" cx="226.72187" cy="377.974766" rx="60.6112629" ry="21.7386998"></ellipse>
                    <ellipse id="Oval" fill="url(#linearGradient-16)" fill-rule="nonzero" cx="226.72187" cy="377.974766" rx="55.221711" ry="18.0373076"></ellipse>
                    <g id="Group-3" transform="translate(185.907657, 0.245684)"></g>
                    <path d="M142.464396,256.818742 C138.772528,246.984103 128.422317,273.113602 128.42258,291.215343 C128.422844,309.317084 139.038574,337.018015 142.46544,328.623622 C145.892305,320.229229 146.156264,266.65338 142.464396,256.818742 Z" id="Path-6" fill="url(#linearGradient-17)" opacity="0.16" transform="translate(136.778967, 292.420602) rotate(-14.000000) translate(-136.778967, -292.420602) "></path>
                    <ellipse id="Oval" stroke="url(#linearGradient-18)" stroke-width="4" opacity="0.647856213" cx="383.416045" cy="197.591512" rx="11.1840138" ry="11.1831975"></ellipse>
                    <ellipse id="Oval" stroke="url(#linearGradient-19)" stroke-width="4" opacity="0.616629464" cx="252.826531" cy="109.42851" rx="11.1208151" ry="11.1200027"></ellipse>
                    <ellipse id="Oval" stroke="url(#linearGradient-20)" stroke-width="4" opacity="0.281436012" cx="61.8253701" cy="361.633978" rx="7.18400493" ry="7.1834363"></ellipse>
                    <ellipse id="Oval" fill="url(#linearGradient-21)" opacity="0.213727679" cx="332.353588" cy="146.532217" rx="6.17418791" ry="6.17380563"></ellipse>
                    <ellipse id="Oval" fill="url(#linearGradient-22)" opacity="0.213727679" cx="133.300957" cy="94.3249234" rx="4.54260947" ry="4.54232821"></ellipse>
                    <ellipse id="Oval" fill="url(#linearGradient-22)" opacity="0.213727679" cx="190.40622" cy="118.797092" rx="4.54260947" ry="4.54232821"></ellipse>
                    <ellipse id="Oval" fill="url(#linearGradient-21)" opacity="0.415852865" cx="384.564114" cy="306.417053" rx="6.17418791" ry="6.17380563"></ellipse>
                    <path d="M82.3614669,208.932602 C81.3888473,201.973353 75.4125953,196.617617 68.1851791,196.617837 C60.9577514,196.618058 54.9810906,201.974171 54.0079301,208.933466 L82.3614669,208.932602 Z" id="Oval" stroke="url(#linearGradient-23)" stroke-width="4" opacity="0.647856213" transform="translate(68.184621, 202.775684) rotate(40.000000) translate(-68.184621, -202.775684) "></path>
                    <path d="M380.345369,373.156704 C379.443587,369.369064 376.037756,366.552069 371.974107,366.551945 C367.910469,366.551822 364.504881,369.368599 363.603435,373.156194 L380.345369,373.156704 Z" id="Oval" stroke="url(#linearGradient-24)" stroke-width="4" opacity="0.616629464" transform="translate(371.974492, 369.854359) rotate(140.000000) translate(-371.974492, -369.854359) "></path>
                    <path d="M13.5006735,266.836318 C12.6250379,263.655785 9.7120686,261.319624 6.25353618,261.319624 C2.79500377,261.319624 -0.117965574,263.655785 -0.993601175,266.836318 L13.5006735,266.836318 Z" id="Oval" stroke="url(#linearGradient-25)" stroke-width="4" opacity="0.617280506" transform="translate(6.253536, 264.077971) scale(-1, 1) rotate(90.000000) translate(-6.253536, -264.077971) "></path>
                    <path d="M328.941253,95.6159073 C328.065453,92.4357149 325.152298,90.0997445 321.693518,90.0997079 C318.234741,90.0996713 315.321659,92.4355769 314.445962,95.6157538 L328.941253,95.6159073 Z" id="Oval" stroke="url(#linearGradient-26)" stroke-width="4" opacity="0.6" transform="translate(321.693640, 92.857820) scale(-1, 1) rotate(170.000000) translate(-321.693640, -92.857820) "></path>
                    <path d="M69.2330305,140.105414 C71.394288,136.867343 72.6542073,132.976462 72.6542073,128.791329 C72.6542073,124.600388 71.3907885,120.704516 69.2240269,117.463767 C69.4053044,117.227704 69.6123213,117.01244 69.8408807,116.822171 C73.1037113,119.034469 77.0410071,120.326898 81.2801845,120.326898 C85.519362,120.326898 89.4566578,119.034469 92.7194884,116.822171 C92.9418394,117.007271 93.1438023,117.216028 93.3215131,117.444577 C91.1468996,120.689132 89.8784862,124.592113 89.8784862,128.791329 C89.8784862,132.984706 91.143374,136.882671 93.3124455,140.124542 C93.1436169,140.340032 92.9531596,140.537764 92.7443411,140.714471 C89.4766598,138.49187 85.5301309,137.192866 81.2801845,137.192866 C77.0302382,137.192866 73.0837093,138.49187 69.816028,140.714471 C69.6010459,140.532548 69.4055249,140.32834 69.2330305,140.105414 Z" id="Combined-Shape" fill="url(#linearGradient-27)" opacity="0.616629464" transform="translate(81.272277, 128.767795) rotate(45.000000) translate(-81.272277, -128.767795) "></path>
                    <path d="M420.364544,264.663551 C422.026791,262.06966 422.990595,258.985331 422.990595,255.675907 C422.990595,252.361674 422.023988,249.27319 420.357293,246.676957 C420.532677,246.45234 420.731527,246.246937 420.950157,246.064434 C423.565435,247.767447 426.687932,248.756988 430.041563,248.756988 C433.395194,248.756988 436.517691,247.767447 439.132969,246.064434 C439.346447,246.242636 439.541067,246.442673 439.713396,246.661111 C438.040454,249.260618 437.069908,252.354928 437.069908,255.675907 C437.069908,258.992055 438.037633,262.082194 439.706101,264.679357 C439.541178,264.887155 439.35603,265.078177 439.153634,265.249446 C436.534147,263.538177 433.404032,262.543414 430.041563,262.543414 C426.679094,262.543414 423.548979,263.538177 420.929492,265.249446 C420.721974,265.073843 420.532589,264.877476 420.364544,264.663551 Z" id="Combined-Shape" fill="url(#linearGradient-28)" opacity="0.616629464" transform="translate(430.034898, 255.656432) rotate(58.000000) translate(-430.034898, -255.656432) "></path>
                    <path d="M63.5547336,304.503183 C64.5495969,302.786803 65.1191278,300.793222 65.1191278,298.666627 C65.1191278,296.536604 64.5477592,294.540024 63.5499191,292.821773 C63.7233317,292.602646 63.9192055,292.402108 64.1340639,292.223637 C65.867403,293.245592 67.888306,293.831876 70.0461515,293.831876 C72.2039969,293.831876 74.2249,293.245592 75.9582391,292.223637 C76.1693366,292.398984 76.3621084,292.595632 76.5332571,292.810284 C75.5312861,294.531123 74.9573673,296.531856 74.9573673,298.666627 C74.9573673,300.79796 75.5294393,302.795687 76.5284185,304.514653 C76.362584,304.721823 76.1765715,304.912138 75.973361,305.082624 C74.2366583,304.055154 72.2102751,303.465454 70.0461515,303.465454 C67.8820279,303.465454 65.8556446,304.055154 64.1189419,305.082624 C63.911986,304.908996 63.7228678,304.7148 63.5547336,304.503183 Z" id="Combined-Shape" fill="url(#linearGradient-29)" opacity="0.639834449" transform="translate(70.041170, 298.652614) rotate(58.000000) translate(-70.041170, -298.652614) "></path>
                </g>
                <path d="M267.177704,186.646086 L286.150404,186.646086 C291.299184,186.646086 295.473095,182.472175 295.473095,177.323395 L295.473095,177.323395 C295.473095,172.155544 299.627599,167.947855 304.795032,167.882122 L356.273674,167.227277 C361.601708,167.1595 365.975876,171.423782 366.043653,176.751816 C366.044173,176.792721 366.044433,176.833628 366.044433,176.874536 L366.044433,176.874536 C366.044433,182.271214 361.669561,186.646086 356.272883,186.646086 L345.244666,186.646086 C341.055767,186.646086 337.659992,190.04186 337.659992,194.23076 L337.659992,194.23076 C337.659992,198.41966 334.264218,201.815434 330.075318,201.815434 L266.841134,201.815434 C262.743136,201.815434 259.421053,198.493351 259.421053,194.395353 C259.421053,194.340483 259.421661,194.285616 259.422878,194.23076 L259.422878,194.23076 C259.516417,190.014918 262.960824,186.646086 267.177704,186.646086 Z" id="Path-8" fill="url(#linearGradient-30)" fill-rule="evenodd" opacity="0.0906343006" transform="translate(312.732743, 184.520961) scale(-1, 1) translate(-312.732743, -184.520961) "></path>
                <g id="Group-4" stroke-width="1" fill-rule="evenodd" transform="translate(217.000000, 296.928983)">
                    <mask id="mask-33" fill="white">
                        <use xlink:href="#path-32"></use>
                    </mask>
                    <use id="Oval" fill="url(#linearGradient-31)" fill-rule="nonzero" opacity="0.95" xlink:href="#path-32"></use>
                    <path d="M220.248221,213.921718 C269.768117,165.961534 267.082996,85.6021649 214.250835,34.4340423 C161.418675,-16.7340803 78.4459389,-19.334629 28.9260431,28.6255543 C-20.5938528,76.5857375 -17.9087317,156.945107 34.9234289,208.11323 C87.7555895,259.281352 170.728325,261.881901 220.248221,213.921718 Z" id="Oval" fill="url(#linearGradient-34)" fill-rule="nonzero" opacity="0.701195126" mask="url(#mask-33)"></path>
                    <path d="M69.1375209,56.3074214 C143.593045,-10.9090721 214.420074,21.5505266 176.572364,-15.1051056 C138.724655,-51.7607377 55.7384281,-24.7550681 20.2635466,9.60247219 C-15.2113348,43.9600125 -51.0472346,122.167806 -13.199525,158.823438 C24.6481845,195.47907 -5.31800314,123.523915 69.1375209,56.3074214 Z" id="Oval" fill="url(#linearGradient-35)" fill-rule="nonzero" opacity="0.464564732" mask="url(#mask-33)"></path>
                    <path d="M214.187483,204.379388 C258.205912,161.747394 255.819097,90.3156362 208.856383,44.832092 C161.893669,-0.651452286 88.1388797,-2.96309017 44.1204506,39.6689042 C0.102021537,82.3008987 2.48883617,153.732656 49.4515503,199.216201 C96.4142644,244.699745 170.169054,247.011383 214.187483,204.379388 Z" id="Oval" fill="url(#radialGradient-36)" fill-rule="nonzero" opacity="0.866792225" mask="url(#mask-33)"></path>
                </g>
                <rect id="Rectangle" fill="url(#radialGradient-37)" fill-rule="nonzero" x="307.20369" y="381.556324" width="78.3157895" height="78.3109405"></rect>
            </g>
        </g>
    </g>
</svg>