
<svg width="465px" height="399px" viewBox="0 0 465 399" version="1.1" xmlns="http://www.w3.org/2000/svg" xmlns:xlink="http://www.w3.org/1999/xlink">
    <defs>
        <radialGradient cx="55.4772028%" cy="81.0257329%" fx="55.4772028%" fy="81.0257329%" r="184.536784%" gradientTransform="translate(0.554772,0.810257),scale(0.354747,1.000000),rotate(-11.496070),translate(-0.554772,-0.810257)" id="radialGradient-1">
            <stop stop-color="#168196" offset="0%"></stop>
            <stop stop-color="#190066" offset="100%"></stop>
        </radialGradient>
        <path d="M83.9549019,0.987154202 C91.5630394,10.5950298 94.5156603,15.0808596 92.5846958,19.2127401 C89.8078717,25.154592 76.9755963,33.7000321 48.020541,33.7000448 C19.0654857,33.7000575 4.29571245,25.1545967 1.51888622,19.2127401 C-0.412078323,15.0808596 2.54054262,10.5950298 10.1486801,0.987154202 L83.9549019,0.987154202 Z" id="path-2"></path>
        <linearGradient x1="55.4772028%" y1="53.9915015%" x2="119.627829%" y2="49.2599227%" id="linearGradient-4">
            <stop stop-color="#544D91" offset="0%"></stop>
            <stop stop-color="#13025A" offset="100%"></stop>
        </linearGradient>
        <linearGradient x1="55.4772028%" y1="53.3105453%" x2="119.627829%" y2="49.386181%" id="linearGradient-5">
            <stop stop-color="#13025A" offset="0%"></stop>
            <stop stop-color="#544D91" offset="100%"></stop>
        </linearGradient>
        <linearGradient x1="32.0464664%" y1="45.4520321%" x2="153.760126%" y2="45.4520321%" id="linearGradient-6">
            <stop stop-color="#587EFF" offset="0%"></stop>
            <stop stop-color="#A759DD" offset="100%"></stop>
        </linearGradient>
        <linearGradient x1="32.0464664%" y1="45.4520321%" x2="68.8686257%" y2="83.1993572%" id="linearGradient-7">
            <stop stop-color="#E5D6A8" offset="0%"></stop>
            <stop stop-color="#EFBDBD" offset="100%"></stop>
        </linearGradient>
        <linearGradient x1="50%" y1="0%" x2="50%" y2="88.5111249%" id="linearGradient-8">
            <stop stop-color="#F6EAC7" offset="0%"></stop>
            <stop stop-color="#B86F6F" offset="100%"></stop>
        </linearGradient>
        <linearGradient x1="32.0464664%" y1="48.863008%" x2="68.8686257%" y2="58.2998393%" id="linearGradient-9">
            <stop stop-color="#E5D6A8" offset="0%"></stop>
            <stop stop-color="#EFBDBD" offset="100%"></stop>
        </linearGradient>
        <linearGradient x1="32.0464664%" y1="48.863008%" x2="68.8686257%" y2="58.2998393%" id="linearGradient-10">
            <stop stop-color="#E5D6A8" offset="0%"></stop>
            <stop stop-color="#EFBDBD" offset="100%"></stop>
        </linearGradient>
        <linearGradient x1="32.0464664%" y1="48.863008%" x2="68.8686257%" y2="58.2998393%" id="linearGradient-11">
            <stop stop-color="#E5D6A8" offset="0%"></stop>
            <stop stop-color="#EFBDBD" offset="100%"></stop>
        </linearGradient>
        <linearGradient x1="50%" y1="20.228847%" x2="50%" y2="124.857239%" id="linearGradient-12">
            <stop stop-color="#F0E1C4" offset="0%"></stop>
            <stop stop-color="#C1B49A" offset="64.7734697%"></stop>
            <stop stop-color="#24C1E0" offset="100%"></stop>
        </linearGradient>
        <ellipse id="path-13" cx="78.9585658" cy="76.1505901" rx="78.5595703" ry="76"></ellipse>
        <radialGradient cx="64.1781064%" cy="34.2197334%" fx="64.1781064%" fy="34.2197334%" r="53.5740192%" gradientTransform="translate(0.641781,0.342197),scale(0.968563,1.000000),rotate(44.795838),translate(-0.641781,-0.342197)" id="radialGradient-15">
            <stop stop-color="#FFFBD8" stop-opacity="0.467111014" offset="0%"></stop>
            <stop stop-color="#FFFFFF" stop-opacity="0.0522563374" offset="100%"></stop>
        </radialGradient>
        <radialGradient cx="50%" cy="58.0556234%" fx="50%" fy="58.0556234%" r="75.2757379%" id="radialGradient-16">
            <stop stop-color="#FFFDEA" stop-opacity="0.835992133" offset="0%"></stop>
            <stop stop-color="#FFFFFF" stop-opacity="0.475469843" offset="100%"></stop>
        </radialGradient>
    </defs>
    <g id="Symbols" stroke="none" stroke-width="1" fill="none" fill-rule="evenodd">
        <g id="square/together" transform="translate(14.000000, 46.000000)">
            <path d="M20.9135504,184 L64.9506055,184 C66.5384218,184 67.8256013,185.287179 67.8256013,186.874996 L67.8256013,186.874996 C67.8256013,188.462812 69.1127808,189.749992 70.7005971,189.749992 L116.355669,189.749992 C119.696934,189.749992 122.405565,192.458622 122.405565,195.799888 L122.405565,195.799888 C122.405565,199.141153 119.696934,201.849784 116.355669,201.849784 L82.0174271,201.849784 C79.5087578,201.849784 77.4750796,203.883462 77.4750796,206.392131 L77.4750796,206.392131 C77.4750796,208.9008 79.5087578,210.934478 82.0174271,210.934478 L104.865617,210.934478 C106.831044,210.934478 108.424337,212.527771 108.424337,214.493198 L108.424337,214.493198 C108.424337,216.458624 110.017629,218.051917 111.983056,218.051917 L153.527825,218.051917 C157.320891,218.051917 160.395779,221.126805 160.395779,224.919872 L160.395779,224.919872 C160.395779,228.712938 157.320891,231.787826 153.527825,231.787826 L120.250424,231.787826 C116.05225,231.787826 112.648958,235.191118 112.648958,239.389293 L112.648958,239.389293 C112.648958,243.587467 109.245665,246.99076 105.047491,246.99076 L87.7712031,246.99076 C85.5760671,246.99076 83.7965579,245.21125 83.7965579,243.016114 L83.7965579,243.016114 C83.7965579,240.820978 82.0170486,239.041469 79.8219126,239.041469 L63.6079407,239.041469 C59.3624356,239.041469 55.9207736,242.483131 55.9207736,246.728636 L55.9207736,246.728636 C55.9207736,250.974141 59.3624356,254.415803 63.6079407,254.415803 L69.7017815,254.415803 C73.383581,254.415803 76.3682692,257.400492 76.3682692,261.082291 L76.3682692,261.082291 C76.3682692,264.764091 73.383581,267.748779 69.7017815,267.748779 L12.2529439,267.748779 C8.57114443,267.748779 5.5864562,264.764091 5.5864562,261.082291 L5.5864562,261.082291 C5.5864562,257.400492 2.60176798,254.415803 -1.08003154,254.415803 L-5.0468132,254.415803 C-9.99152173,254.415803 -14,250.407325 -14,245.462617 L-14,245.462617 C-14,240.517908 -9.99152173,236.50943 -5.0468132,236.50943 L9.07030527,236.50943 C14.1402956,236.50943 18.2503349,232.39939 18.2503349,227.3294 C18.2503349,227.313158 18.2502918,227.296916 18.2502056,227.280674 L18.2502056,227.280674 C18.2231094,222.175868 14.0772114,218.051917 8.97233347,218.051917 L-8.70109545,218.051917 C-11.3999802,218.051917 -13.5878586,215.864039 -13.5878586,213.165154 L-13.5878586,213.165154 C-13.5878586,210.466269 -11.3999802,208.278391 -8.70109545,208.278391 L2.52598209,208.278391 C4.30119299,208.278391 5.74028577,206.839298 5.74028577,205.064087 L5.74028577,205.064087 C5.74028577,203.288876 7.17937855,201.849784 8.95458946,201.849784 L21.7665632,201.849784 C23.8069475,201.849784 25.4610057,200.195725 25.4610057,198.155341 L25.4610057,198.155341 C25.4610057,196.114957 23.8069475,194.460898 21.7665632,194.460898 L20.5720535,194.460898 C17.8719597,194.460898 15.6831012,192.27204 15.6831012,189.571946 L15.6831012,189.230449 C15.6831012,186.341752 18.0248531,184 20.9135504,184 Z" id="Path-5" fill="#190066" opacity="0.0236002604"></path>
            <path d="M139.46142,-12 L107.492126,-12 C102.999518,-12 99.3575401,-8.35802205 99.3575401,-3.86541458 L99.3575401,-3.86541458 C99.3575401,0.627192893 95.7155621,4.26917084 91.2229547,4.26917084 L55.4984249,4.26917084 C50.1178656,4.26917084 45.7560604,8.63097601 45.7560604,14.0115354 L45.7560604,14.0115354 C45.7560604,19.3920947 50.1178656,23.7538999 55.4984249,23.7538999 L83.8614675,23.7538999 C88.2400069,23.7538999 91.7895144,27.3034074 91.7895144,31.6819468 L91.7895144,31.6819468 C91.7895144,36.0604862 95.3390219,39.6099937 99.7175613,39.6099937 L116.637613,39.6099937 C120.206687,39.6099937 123.099994,42.5033005 123.099994,46.0723752 L123.099994,46.0723752 C123.099994,49.6414499 120.206687,52.5347566 116.637613,52.5347566 L87.3640953,52.5347566 C83.3795617,52.5347566 80.1494589,55.7648594 80.1494589,59.749393 L80.1494589,59.749393 C80.1494589,63.7339267 76.9193562,66.9640294 72.9348225,66.9640294 L14.7515987,66.9640294 C9.64208184,66.9640294 5.5,71.1061112 5.5,76.2156281 L5.5,76.2156281 C5.5,81.325145 9.64208184,85.4672268 14.7515987,85.4672268 L51.4311322,85.4672268 C55.4863043,85.4672268 58.7736709,88.7545934 58.7736709,92.8097655 L58.7736709,92.8097655 C58.7736709,96.8649376 55.4863043,100.152304 51.4311322,100.152304 L40.7868197,100.152304 C35.766255,100.152304 31.6962831,104.222276 31.6962831,109.242841 L31.6962831,109.242841 C31.6962831,114.263405 35.766255,118.333377 40.7868197,118.333377 L54.6353213,118.333377 C59.1111849,118.333377 62.7395892,121.961782 62.7395892,126.437645 L62.7395892,126.437645 C62.7395892,130.913509 66.3679935,134.541913 70.843857,134.541913 L115.572708,134.541913 C118.351678,134.541913 120.604478,136.794713 120.604478,139.573684 L120.604478,139.573684 C120.604478,142.352654 118.351678,144.605454 115.572708,144.605454 L114.717184,144.605454 C111.513859,144.605454 108.917052,147.202262 108.917052,150.405586 L108.917052,150.405586 C108.917052,153.608911 111.513859,156.205718 114.717184,156.205718 L140.475568,156.205718 C147.193687,156.205718 152.699495,150.874325 152.915684,144.159686 L152.915684,144.159686 C153.131602,137.453426 158.646013,132.137271 165.355682,132.166932 L175.988175,132.213935 C180.88406,132.235578 184.899759,128.340767 185.027727,123.446507 L185.027727,123.446507 C185.15552,118.55896 181.341455,114.471368 176.456771,114.260881 L169.860863,113.976655 C162.072553,113.641047 155.868214,107.342749 155.649698,99.5502756 L155.499844,94.2063698 C155.365991,89.4330893 158.960905,85.3757979 163.715575,84.9339333 L163.715575,84.9339333 C168.521527,84.4873029 172.215179,80.4851091 172.275633,75.6588267 L172.286844,74.763833 C172.343884,70.2101312 176.039937,66.5423443 180.593943,66.5202643 L182.615076,66.5104649 C185.993065,66.4940868 188.718189,63.7424084 188.701811,60.3644192 C188.701704,60.3422692 188.701476,60.3201201 188.701128,60.2979726 L188.701128,60.2979726 C188.647404,56.8791048 185.840168,54.1468141 182.421098,54.1856026 L175.804129,54.2606703 C171.620976,54.308127 168.114992,51.1092242 167.779877,46.9392462 L167.779877,46.9392462 C167.471209,43.0983478 170.334647,39.7344592 174.175545,39.4257908 C174.321166,39.4140882 174.467119,39.4069621 174.613187,39.4044233 L180.079881,39.3094039 C187.131131,39.1868426 192.747943,33.3713192 192.625382,26.3200689 C192.624645,26.2777029 192.623698,26.2353409 192.62254,26.1929843 L192.590252,25.0120555 C192.376582,17.1971807 185.945022,10.9922114 178.127511,11.0588519 L164.942083,11.1712513 C158.340364,11.2275277 152.799356,6.21029591 152.201964,-0.364578742 L152.201964,-0.364578742 C151.603225,-6.95426725 146.078253,-12 139.46142,-12 Z" id="Path-7" fill="#190066" opacity="0.0236002604" transform="translate(99.237517, 72.102859) scale(-1, -1) translate(-99.237517, -72.102859) "></path>
            <path d="M316.747351,109.491874 L369.035008,109.491874 C373.929515,109.491874 377.897296,113.459655 377.897296,118.354162 L377.897296,118.354162 C377.897296,123.248669 381.865078,127.21645 386.759585,127.21645 L404.556568,127.21645 C409.324761,127.21645 413.190145,131.081834 413.190145,135.850027 L413.190145,135.850027 C413.190145,140.61822 409.324761,144.483604 404.556568,144.483604 L366.013067,144.483604 C361.592945,144.483604 358.009728,148.066821 358.009728,152.486943 L358.009728,152.486943 C358.009728,156.907065 361.592945,160.490282 366.013067,160.490282 L434.750815,160.490282 C437.314067,160.490282 439.391993,162.568208 439.391993,165.131459 L439.391993,165.131459 C439.391993,167.694711 437.314067,169.772637 434.750815,169.772637 L401.014662,169.772637 C397.669425,169.772637 394.957575,172.484487 394.957575,175.829724 L394.957575,175.829724 C394.957575,179.17496 397.669425,181.886811 401.014662,181.886811 L404.319811,181.886811 C407.569697,181.886811 410.204251,184.521364 410.204251,187.771251 L410.204251,187.771251 C410.204251,191.038151 407.587136,193.702861 404.320767,193.761733 L359.020002,194.57822 C356.187048,194.62928 353.927523,196.959327 353.963526,199.792512 L353.963526,199.792512 C353.999318,202.609069 351.745063,204.921355 348.928506,204.957147 C348.921137,204.957241 348.913768,204.957319 348.906398,204.95738 L292.328664,205.431074 C288.225344,205.465429 284.871096,202.166881 284.836741,198.06356 C284.836567,198.042826 284.83648,198.022091 284.83648,198.001355 L284.83648,198.001355 C284.83648,193.863391 288.190963,190.508909 292.328927,190.508909 L297.846951,190.508909 C302.18803,190.508909 305.70717,186.989769 305.70717,182.648689 L305.70717,182.648689 C305.70717,178.30761 302.18803,174.78847 297.846951,174.78847 L286.079764,174.78847 C282.131428,174.78847 278.93067,171.587712 278.93067,167.639376 L278.93067,167.639376 C278.93067,163.69104 282.131428,160.490282 286.079764,160.490282 L292.31892,160.490282 C299.713046,160.490282 305.70717,154.496158 305.70717,147.102032 L305.70717,146.341513 C305.70717,138.527364 299.372551,132.192745 291.558402,132.192745 L245.747356,132.192745 C242.082379,132.192745 239.111328,129.221694 239.111328,125.556716 L239.111328,125.556716 C239.111328,121.891739 242.082379,118.920688 245.747356,118.920688 L307.318536,118.920688 C309.922231,118.920688 312.032943,116.809976 312.032943,114.206281 L312.032943,114.206281 C312.032943,111.602586 314.143655,109.491874 316.747351,109.491874 Z" id="Path-10" fill="#190066" opacity="0.0236002604" transform="translate(339.251660, 157.461607) scale(1, -1) translate(-339.251660, -157.461607) "></path>
            <path d="M285.941144,284.174968 L322.499218,284.174968 C326.490264,284.174968 329.725647,280.939586 329.725647,276.948539 L329.725647,276.948539 C329.725647,272.957492 326.490264,269.72211 322.499218,269.72211 L320.045962,269.72211 C315.704421,269.72211 312.184907,266.202596 312.184907,261.861055 L312.184907,261.861055 C312.184907,257.519514 315.704421,254 320.045962,254 L356.793061,254 C359.903244,254 362.424546,256.521302 362.424546,259.631485 L362.424546,259.631485 C362.424546,262.741669 364.945848,265.26297 368.056031,265.26297 L389.389225,265.26297 C394.611629,265.26297 398.845224,269.496565 398.845224,274.718969 L398.845224,274.718969 C398.845224,279.941373 394.611629,284.174968 389.389225,284.174968 L368.303761,284.174968 C365.05676,284.174968 362.424546,286.807182 362.424546,290.054183 L362.424546,290.054183 C362.424546,293.301184 359.792332,295.933398 356.545331,295.933398 L285.818557,295.933398 C282.605057,295.933398 280,293.328342 280,290.114841 C280,290.094621 280.000105,290.074402 280.000316,290.054183 L280.000316,290.054183 C280.034271,286.797315 282.684099,284.174968 285.941144,284.174968 Z" id="Path-8" fill="#190066" opacity="0.0236002604" transform="translate(339.422612, 274.966699) scale(1, -1) translate(-339.422612, -274.966699) "></path>
            <path d="M356.883844,-45.5 L236.382429,-45.5 C231.444811,-45.5 227.442081,-41.4972696 227.442081,-36.5596513 L227.442081,-36.5596513 C227.442081,-31.6220331 231.444811,-27.6193027 236.382429,-27.6193027 L270.410555,-27.6193027 C274.428642,-27.6193027 277.685945,-24.3619995 277.685945,-20.3439125 L277.685945,-20.3439125 C277.685945,-16.3258254 280.943248,-13.0685223 284.961335,-13.0685223 L300.488486,-13.0685223 C303.763745,-13.0685223 306.418868,-10.4133998 306.418868,-7.13814024 L306.418868,-7.13814024 C306.418868,-3.8628807 303.763745,-1.20775824 300.488486,-1.20775824 L273.624838,-1.20775824 C269.968321,-1.20775824 267.004128,1.75643434 267.004128,5.41295119 L267.004128,5.41295119 C267.004128,9.06946804 264.039936,12.0336606 260.383419,12.0336606 L206.989984,12.0336606 C202.301095,12.0336606 198.5,15.8347559 198.5,20.5236445 L198.5,20.5236445 C198.5,25.2125332 202.301095,29.0136285 206.989984,29.0136285 L240.649966,29.0136285 C244.371306,29.0136285 247.388049,32.0303707 247.388049,35.7517109 L247.388049,35.7517109 C247.388049,39.4730511 244.371306,42.4897934 240.649966,42.4897934 L230.88192,42.4897934 C226.274661,42.4897934 222.539739,46.224715 222.539739,50.8319742 L222.539739,50.8319742 C222.539739,55.4392335 226.274661,59.1741551 230.88192,59.1741551 L243.590379,59.1741551 C247.697778,59.1741551 251.027483,62.50386 251.027483,66.6112592 L251.027483,66.6112592 C251.027483,70.7186585 254.357188,74.0483634 258.464587,74.0483634 L299.511246,74.0483634 C302.061445,74.0483634 304.128789,76.1157077 304.128789,78.6659062 L304.128789,78.6659062 C304.128789,81.2161046 302.061445,83.2834489 299.511246,83.2834489 L298.726151,83.2834489 C295.786533,83.2834489 293.403501,85.6664806 293.403501,88.6060993 L293.403501,88.6060993 C293.403501,91.545718 295.786533,93.9287498 298.726151,93.9287498 L402.364041,93.9287498 C408.529107,93.9287498 413.581663,89.0362507 413.780055,82.8743769 L413.780055,82.8743769 C413.978199,76.7201936 419.038649,71.8416774 425.195961,71.8688969 L434.953161,71.9120306 C439.446004,71.931892 443.131121,68.357711 443.248554,63.8663593 L443.248554,63.8663593 C443.365827,59.3811673 439.865746,55.6300761 435.383181,55.4369167 L429.330264,55.1760889 C422.183108,54.8681089 416.489526,49.0883029 416.288998,41.9373253 L416.15148,37.0333433 C416.028647,32.6530111 419.327619,28.9297262 423.690872,28.524237 L423.690872,28.524237 C428.101186,28.1143743 431.490767,24.4416512 431.546245,20.0126804 L431.556533,19.1913648 C431.608877,15.0125352 435.000662,11.6466897 439.17977,11.6264274 L441.034519,11.6174347 C444.134424,11.6024048 446.635209,9.07725151 446.620179,5.97734687 C446.62008,5.95702037 446.619871,5.93669456 446.619552,5.91637033 L446.619552,5.91637033 C446.570251,2.77895233 443.994113,0.271590665 440.85651,0.307185925 L434.784266,0.376073879 C430.945481,0.419623852 427.728118,-2.51593728 427.420591,-6.34263219 L427.420591,-6.34263219 C427.137333,-9.86733825 429.765045,-12.9543031 433.289752,-13.2375612 C433.423384,-13.2483004 433.557322,-13.2548398 433.691365,-13.2571696 L439.478227,-13.357754 C445.500183,-13.4624247 450.297091,-18.4290371 450.19242,-24.4509934 C450.191502,-24.5038308 450.1902,-24.5566609 450.188513,-24.6094794 L450.188513,-24.6094794 C449.991895,-30.7676554 444.931689,-35.6518602 438.770412,-35.6304424 L367.260656,-35.3818608 C364.444713,-35.372072 362.138448,-37.6169371 362.072266,-40.4321195 L362.072266,-40.4321195 C362.006018,-43.2500954 359.702599,-45.5 356.883844,-45.5 Z" id="Path-7" fill="#190066" opacity="0.0236002604" transform="translate(324.347051, 24.214375) scale(1, -1) translate(-324.347051, -24.214375) "></path>
            <rect id="Rectangle" fill="#190066" opacity="0.0236002604" x="12.7992396" y="281.118328" width="41.9664021" height="14.1125954" rx="7.0562977"></rect>
            <rect id="Rectangle" fill="#190066" opacity="0.0236002604" x="372.5" y="221" width="71" height="12.1998542" rx="6.09992708"></rect>
            <rect id="Rectangle" fill="#190066" opacity="0.0236002604" x="154" y="2" width="36.2785137" height="12.1998542" rx="6.09992708"></rect>
            <g id="Group" transform="translate(73.000000, 89.000000)">
                <g id="Group-5" transform="translate(91.906775, 230.168319)">
                    <mask id="mask-3" fill="white">
                        <use xlink:href="#path-2"></use>
                    </mask>
                    <use id="Path" fill="url(#radialGradient-1)" fill-rule="nonzero" xlink:href="#path-2"></use>
                    <path d="M-4,77.8412428 L54.5596669,77.8412428 L54.5596669,66.1297549 L-4,66.1297549 L-4,77.8412428 Z M48.4845275,-30 L39.0872723,-23.010527 L74.0368647,23.9768624 L83.4341199,16.9873894 L48.4845275,-30 Z M19.43634,-2.29825501 L64.434692,35.1771699 L71.929777,26.1774995 L26.931425,-11.2979254 L19.43634,-2.29825501 Z M4.74575072,23.7452164 L57.8316669,48.46786 L62.7764183,37.8511222 L9.69050218,13.1273649 L4.74575072,23.7452164 Z M-2.83620151,51.1852459 L54.471686,63.229725 L56.8805818,51.767702 L-0.427305703,39.7232229 L-2.83620151,51.1852459 L-2.83620151,51.1852459 Z" id="Fill-3" fill="#FFFFFF" fill-rule="nonzero" opacity="0.0706612723" mask="url(#mask-3)" transform="translate(39.717060, 23.920621) rotate(-114.000000) translate(-39.717060, -23.920621) "></path>
                </g>
                <ellipse id="Oval" fill="url(#linearGradient-4)" fill-rule="nonzero" cx="138.958566" cy="231.676298" rx="37.1488386" ry="13.3245443"></ellipse>
                <ellipse id="Oval" fill="url(#linearGradient-5)" fill-rule="nonzero" cx="138.958566" cy="231.676298" rx="33.8455648" ry="11.0558085"></ellipse>
                <g id="Group-3" transform="translate(113.943403, 0.150590)"></g>
                <path d="M87.3172092,157.41481 C85.0545306,151.38681 78.7105975,167.402689 78.7105975,178.497952 C78.7105975,189.593214 85.21679,206.572099 87.3172092,201.426818 C89.4176284,196.281537 89.5798878,163.44281 87.3172092,157.41481 Z" id="Path-6" fill="url(#linearGradient-6)" opacity="0.16" transform="translate(83.832267, 179.236593) rotate(-14.000000) translate(-83.832267, -179.236593) "></path>
                <circle id="Oval" stroke="url(#linearGradient-7)" stroke-width="4" opacity="0.647856213" cx="234.996931" cy="121.111974" r="6.08052457"></circle>
                <circle id="Oval" stroke="url(#linearGradient-7)" stroke-width="4" opacity="0.647856213" cx="154.958196" cy="67.0732394" r="6.04178988"></circle>
                <circle id="Oval" stroke="url(#linearGradient-7)" stroke-width="4" opacity="0.647856213" cx="37.8929687" cy="221.660356" r="3.62890625"></circle>
                <circle id="Oval" fill="url(#linearGradient-8)" fill-rule="nonzero" opacity="0.95" cx="189.78418" cy="85.7841797" r="3.78417969"></circle>
                <circle id="Oval" fill="url(#linearGradient-8)" fill-rule="nonzero" opacity="0.95" cx="81.7005862" cy="57.8156295" r="2.78418"></circle>
                <circle id="Oval" fill="url(#linearGradient-8)" fill-rule="nonzero" opacity="0.95" cx="73.78418" cy="99.78418" r="2.78418"></circle>
                <circle id="Oval" fill="url(#linearGradient-8)" fill-rule="nonzero" opacity="0.95" cx="235.700586" cy="187.815629" r="3.78417969"></circle>
                <path d="M49.5387538,127.289548 C48.6506682,123.839093 45.5184676,121.289548 41.7907887,121.289548 C38.0631099,121.289548 34.9309093,123.839093 34.0428237,127.289548 L49.5387538,127.289548 Z" id="Oval" stroke="url(#linearGradient-9)" stroke-width="4" opacity="0.647856213" transform="translate(41.790789, 124.289548) rotate(40.000000) translate(-41.790789, -124.289548) "></path>
                <path d="M223.952521,227.948863 L221.484735,227.948863 L223.484735,229.948863 C223.484735,229.230439 223.653098,228.551337 223.952521,227.948863 Z M232.016489,227.948863 C232.315912,228.551337 232.484276,229.230439 232.484276,229.948863 L234.484276,227.948863 L232.016489,227.948863 Z" id="Oval" stroke="url(#linearGradient-10)" stroke-width="4" opacity="0.647856213" transform="translate(227.984505, 226.698978) rotate(140.000000) translate(-227.984505, -226.698978) "></path>
                <path d="M0.562546035,162.780668 L-2,162.780668 L0,164.780668 C0,164.047759 0.205711692,163.362896 0.562546035,162.780668 Z M7.10307896,162.780668 C7.45991331,163.362896 7.665625,164.047759 7.665625,164.780668 L9.665625,162.780668 L7.10307896,162.780668 Z" id="Oval" stroke="url(#linearGradient-11)" stroke-width="4" opacity="0.647856213" transform="translate(3.832812, 161.864262) scale(-1, 1) rotate(90.000000) translate(-3.832812, -161.864262) "></path>
                <path d="M193.896767,57.8328125 L191.334221,57.8328125 L193.334221,59.8328125 C193.334221,59.0999029 193.539933,58.4150399 193.896767,57.8328125 Z M200.4373,57.8328125 C200.794135,58.4150399 200.999846,59.0999029 200.999846,59.8328125 L202.999846,57.8328125 L200.4373,57.8328125 Z" id="Oval" stroke="url(#linearGradient-11)" stroke-width="4" opacity="0.647856213" transform="translate(197.167034, 56.916406) scale(-1, 1) rotate(170.000000) translate(-197.167034, -56.916406) "></path>
            </g>
            <path d="M163.754364,114.403072 L175.382152,114.403072 C178.538051,114.403072 181.096413,111.84471 181.096413,108.68881 L181.096413,108.68881 C181.096413,105.521221 183.642879,102.942154 186.810212,102.901861 L218.360913,102.500488 C221.626682,102.458943 224.30779,105.072693 224.349336,108.338461 C224.349654,108.363535 224.349814,108.388611 224.349814,108.413686 L224.349814,108.413686 C224.349814,111.721532 221.668275,114.403072 218.360428,114.403072 L211.601858,114.403072 C209.034308,114.403072 206.952899,116.484482 206.952899,119.052031 L206.952899,119.052031 C206.952899,121.61958 204.871489,123.70099 202.30394,123.70099 L163.54808,123.70099 C161.036245,123.70099 159,121.664745 159,119.15291 C159,119.11928 159.000373,119.085652 159.001119,119.052031 L159.001119,119.052031 C159.058449,116.467968 161.169666,114.403072 163.754364,114.403072 Z" id="Path-8" fill="#190066" opacity="0.0236002604" transform="translate(191.674907, 113.100495) scale(-1, 1) translate(-191.674907, -113.100495) "></path>
            <g id="Group-4" transform="translate(133.000000, 182.000000)">
                <mask id="mask-14" fill="white">
                    <use xlink:href="#path-13"></use>
                </mask>
                <use id="Oval" fill="url(#linearGradient-12)" fill-rule="nonzero" opacity="0.95" xlink:href="#path-13"></use>
                <path d="M131.276199,125.272543 C158.255236,99.1416379 156.79235,55.3581723 128.008751,27.4794352 C99.2251519,-0.399301931 54.0206037,-1.81619998 27.0415665,24.3147048 C0.0625293289,50.4456096 1.52541572,94.2290753 30.3090147,122.107812 C59.0926137,149.98655 104.297162,151.403448 131.276199,125.272543 Z" id="Oval" fill="url(#radialGradient-15)" fill-rule="nonzero" opacity="0.866792225" mask="url(#mask-14)"></path>
            </g>
            <rect id="Rectangle" fill="url(#radialGradient-16)" fill-rule="nonzero" x="188.286133" y="233.871582" width="48" height="48"></rect>
        </g>
    </g>
</svg>