
<svg width="375px" height="330px" viewBox="0 0 375 330" version="1.1" xmlns="http://www.w3.org/2000/svg" xmlns:xlink="http://www.w3.org/1999/xlink">
    <defs>
        <linearGradient x1="32.0464664%" y1="48.949174%" x2="68.8686257%" y2="57.6708429%" id="linearGradient-1">
            <stop stop-color="#5965DD" offset="0%"></stop>
            <stop stop-color="#587EFF" offset="100%"></stop>
        </linearGradient>
        <linearGradient x1="32.0464664%" y1="46.3319064%" x2="68.8686257%" y2="76.7764311%" id="linearGradient-2">
            <stop stop-color="#587EFF" offset="0%"></stop>
            <stop stop-color="#A759DD" offset="100%"></stop>
        </linearGradient>
        <linearGradient x1="32.0464664%" y1="48.9544078%" x2="68.8686257%" y2="57.632637%" id="linearGradient-3">
            <stop stop-color="#5965DD" offset="0%"></stop>
            <stop stop-color="#587EFF" offset="100%"></stop>
        </linearGradient>
        <linearGradient x1="32.0464664%" y1="49.4327135%" x2="68.8686257%" y2="54.1410904%" id="linearGradient-4">
            <stop stop-color="#587EFF" offset="0%"></stop>
            <stop stop-color="#A759DD" offset="100%"></stop>
        </linearGradient>
        <linearGradient x1="32.0464664%" y1="48.6016871%" x2="68.8686257%" y2="60.2074356%" id="linearGradient-5">
            <stop stop-color="#587EFF" offset="0%"></stop>
            <stop stop-color="#A759DD" offset="100%"></stop>
        </linearGradient>
        <linearGradient x1="32.0464664%" y1="49.4847048%" x2="68.8686257%" y2="53.7615632%" id="linearGradient-6">
            <stop stop-color="#5965DD" offset="0%"></stop>
            <stop stop-color="#587EFF" offset="100%"></stop>
        </linearGradient>
        <linearGradient x1="32.0464664%" y1="49.865464%" x2="68.8686257%" y2="50.9820885%" id="linearGradient-7">
            <stop stop-color="#5965DD" offset="0%"></stop>
            <stop stop-color="#587EFF" offset="100%"></stop>
        </linearGradient>
        <linearGradient x1="32.0464664%" y1="49.4847048%" x2="68.8686257%" y2="53.7615632%" id="linearGradient-8">
            <stop stop-color="#5965DD" offset="0%"></stop>
            <stop stop-color="#587EFF" offset="100%"></stop>
        </linearGradient>
        <radialGradient cx="55.4772028%" cy="81.0257329%" fx="55.4772028%" fy="81.0257329%" r="184.367864%" gradientTransform="translate(0.554772,0.810257),scale(0.355086,1.000000),rotate(-11.506747),translate(-0.554772,-0.810257)" id="radialGradient-9">
            <stop stop-color="#544D91" offset="0%"></stop>
            <stop stop-color="#13025A" offset="100%"></stop>
        </radialGradient>
        <path d="M104.642354,1.23157434 C114.125224,13.2183674 117.805404,18.814892 115.398628,23.9698293 C111.937563,31.3828883 95.9432672,42.044186 59.8533537,42.0442018 C23.7634403,42.0442176 5.35422533,31.3828942 1.89315723,23.9698293 C-0.513619154,18.814892 3.16656149,13.2183674 12.6494314,1.23157434 L104.642354,1.23157434 Z" id="path-10"></path>
        <linearGradient x1="38.2208576%" y1="45.4520321%" x2="62.3795256%" y2="83.1993572%" id="linearGradient-12">
            <stop stop-color="#587EFF" offset="0%"></stop>
            <stop stop-color="#A759DD" offset="100%"></stop>
        </linearGradient>
        <rect id="path-13" x="77.9053598" y="120.261927" width="190.483288" height="178.748476" rx="75"></rect>
        <filter x="-13.6%" y="-10.6%" width="127.3%" height="129.1%" filterUnits="objectBoundingBox" id="filter-14">
            <feOffset dx="0" dy="7" in="SourceAlpha" result="shadowOffsetOuter1"></feOffset>
            <feGaussianBlur stdDeviation="7.5" in="shadowOffsetOuter1" result="shadowBlurOuter1"></feGaussianBlur>
            <feColorMatrix values="0 0 0 0 0.653901115   0 0 0 0 0.347889293   0 0 0 0 0.868489583  0 0 0 0.268547858 0" type="matrix" in="shadowBlurOuter1"></feColorMatrix>
        </filter>
        <linearGradient x1="55.4772028%" y1="53.9991222%" x2="119.627829%" y2="49.2585097%" id="linearGradient-15">
            <stop stop-color="#544D91" offset="0%"></stop>
            <stop stop-color="#13025A" offset="100%"></stop>
        </linearGradient>
        <linearGradient x1="55.4772028%" y1="53.3168659%" x2="119.627829%" y2="49.3850091%" id="linearGradient-16">
            <stop stop-color="#13025A" offset="0%"></stop>
            <stop stop-color="#544D91" offset="100%"></stop>
        </linearGradient>
        <linearGradient x1="32.0464664%" y1="45.4520321%" x2="153.760126%" y2="45.4520321%" id="linearGradient-17">
            <stop stop-color="#587EFF" offset="0%"></stop>
            <stop stop-color="#A759DD" offset="100%"></stop>
        </linearGradient>
        <linearGradient x1="32.0806788%" y1="45.4520321%" x2="68.8326695%" y2="83.1993572%" id="linearGradient-18">
            <stop stop-color="#587EFF" offset="0%"></stop>
            <stop stop-color="#A759DD" offset="100%"></stop>
        </linearGradient>
        <linearGradient x1="32.0806788%" y1="45.4520321%" x2="68.8326695%" y2="83.1993572%" id="linearGradient-19">
            <stop stop-color="#9458FF" offset="0%"></stop>
            <stop stop-color="#A759DD" offset="100%"></stop>
        </linearGradient>
        <linearGradient x1="32.0806788%" y1="45.4520321%" x2="68.8326695%" y2="83.1993572%" id="linearGradient-20">
            <stop stop-color="#587EFF" offset="0%"></stop>
            <stop stop-color="#A759DD" offset="100%"></stop>
        </linearGradient>
        <linearGradient x1="32.0806788%" y1="45.4520321%" x2="68.8326695%" y2="83.1993572%" id="linearGradient-21">
            <stop stop-color="#587EFF" offset="0%"></stop>
            <stop stop-color="#A759DD" offset="100%"></stop>
        </linearGradient>
        <linearGradient x1="32.0806788%" y1="45.4520321%" x2="68.8326695%" y2="83.1993572%" id="linearGradient-22">
            <stop stop-color="#587EFF" offset="0%"></stop>
            <stop stop-color="#A759DD" offset="100%"></stop>
        </linearGradient>
        <linearGradient x1="32.0464664%" y1="48.8615628%" x2="68.8686257%" y2="58.3103889%" id="linearGradient-23">
            <stop stop-color="#587EFF" offset="0%"></stop>
            <stop stop-color="#A759DD" offset="100%"></stop>
        </linearGradient>
        <linearGradient x1="32.0464664%" y1="48.8615628%" x2="68.8686257%" y2="58.3103889%" id="linearGradient-24">
            <stop stop-color="#9458FF" offset="0%"></stop>
            <stop stop-color="#A759DD" offset="100%"></stop>
        </linearGradient>
        <linearGradient x1="32.0464664%" y1="48.8651747%" x2="68.8686257%" y2="58.2840231%" id="linearGradient-25">
            <stop stop-color="#9458FF" offset="0%"></stop>
            <stop stop-color="#A759DD" offset="100%"></stop>
        </linearGradient>
        <linearGradient x1="32.0464664%" y1="48.8605968%" x2="68.8686257%" y2="58.3174405%" id="linearGradient-26">
            <stop stop-color="#587EFF" offset="0%"></stop>
            <stop stop-color="#A759DD" offset="100%"></stop>
        </linearGradient>
        <linearGradient x1="32.0464664%" y1="45.5281671%" x2="68.8686257%" y2="82.643585%" id="linearGradient-27">
            <stop stop-color="#6A1B9A" offset="0%"></stop>
            <stop stop-color="#A759DD" offset="100%"></stop>
        </linearGradient>
        <linearGradient x1="32.0464664%" y1="45.5327969%" x2="68.8686257%" y2="82.6097885%" id="linearGradient-28">
            <stop stop-color="#6A1B9A" offset="0%"></stop>
            <stop stop-color="#A759DD" offset="100%"></stop>
        </linearGradient>
        <linearGradient x1="32.0464664%" y1="45.5443256%" x2="68.8686257%" y2="82.5256306%" id="linearGradient-29">
            <stop stop-color="#587EFF" offset="0%"></stop>
            <stop stop-color="#A759DD" offset="100%"></stop>
        </linearGradient>
        <linearGradient x1="32.0464664%" y1="49.5204109%" x2="68.8686257%" y2="53.5009154%" id="linearGradient-30">
            <stop stop-color="#5965DD" offset="0%"></stop>
            <stop stop-color="#587EFF" offset="100%"></stop>
        </linearGradient>
        <linearGradient x1="32.0464664%" y1="45.7354348%" x2="69.7248625%" y2="81.9536217%" id="linearGradient-31">
            <stop stop-color="#587EFF" offset="0%"></stop>
            <stop stop-color="#A759DD" offset="97.7275127%"></stop>
        </linearGradient>
        <ellipse id="path-32" cx="98.4148631" cy="95.0055347" rx="97.9175506" ry="94.8176583"></ellipse>
        <linearGradient x1="41.2777219%" y1="34.9172274%" x2="73.362628%" y2="72.6931323%" id="linearGradient-34">
            <stop stop-color="#A759DD" stop-opacity="0" offset="0%"></stop>
            <stop stop-color="#6A1B9A" stop-opacity="0.407315341" offset="100%"></stop>
        </linearGradient>
        <linearGradient x1="36.7400966%" y1="32.5208536%" x2="66.8342966%" y2="64.7404512%" id="linearGradient-35">
            <stop stop-color="#969EFF" offset="0%"></stop>
            <stop stop-color="#6C79F5" stop-opacity="0" offset="100%"></stop>
        </linearGradient>
        <radialGradient cx="64.1781064%" cy="34.2197334%" fx="64.1781064%" fy="34.2197334%" r="53.5483084%" gradientTransform="translate(0.641781,0.342197),scale(0.969487,1.000000),rotate(44.823159),translate(-0.641781,-0.342197)" id="radialGradient-36">
            <stop stop-color="#FFFBD8" stop-opacity="0.467111014" offset="0%"></stop>
            <stop stop-color="#FFFFFF" stop-opacity="0.0522563374" offset="100%"></stop>
        </radialGradient>
        <linearGradient x1="50%" y1="58.0556234%" x2="113.044065%" y2="99.0142822%" id="linearGradient-37">
            <stop stop-color="#FFFDEA" stop-opacity="0.835992133" offset="0%"></stop>
            <stop stop-color="#FFFFFF" stop-opacity="0.475469843" offset="100%"></stop>
        </linearGradient>
        <linearGradient x1="50%" y1="58.0556234%" x2="113.136241%" y2="99.0142822%" id="linearGradient-38">
            <stop stop-color="#FFFDEA" stop-opacity="0.835992133" offset="0%"></stop>
            <stop stop-color="#FFFFFF" stop-opacity="0.475469843" offset="100%"></stop>
        </linearGradient>
        <linearGradient x1="50%" y1="58.0556234%" x2="113.157145%" y2="99.0142822%" id="linearGradient-39">
            <stop stop-color="#FFFDEA" stop-opacity="0.835992133" offset="0%"></stop>
            <stop stop-color="#FFFFFF" stop-opacity="0.475469843" offset="100%"></stop>
        </linearGradient>
        <linearGradient x1="50%" y1="58.0556234%" x2="113.044068%" y2="99.0142822%" id="linearGradient-40">
            <stop stop-color="#FFFDEA" stop-opacity="0.835992133" offset="0%"></stop>
            <stop stop-color="#FFFFFF" stop-opacity="0.475469843" offset="100%"></stop>
        </linearGradient>
        <linearGradient x1="50%" y1="58.0556234%" x2="113.136242%" y2="99.0142822%" id="linearGradient-41">
            <stop stop-color="#FFFDEA" stop-opacity="0.835992133" offset="0%"></stop>
            <stop stop-color="#FFFFFF" stop-opacity="0.475469843" offset="100%"></stop>
        </linearGradient>
        <linearGradient x1="50%" y1="58.0556234%" x2="113.064965%" y2="99.0142822%" id="linearGradient-42">
            <stop stop-color="#FFFDEA" stop-opacity="0.835992133" offset="0%"></stop>
            <stop stop-color="#FFFFFF" stop-opacity="0.475469843" offset="100%"></stop>
        </linearGradient>
        <linearGradient x1="50%" y1="58.0556234%" x2="103.223587%" y2="99.0142822%" id="linearGradient-43">
            <stop stop-color="#FFFDEA" stop-opacity="0.835992133" offset="0%"></stop>
            <stop stop-color="#FFFFFF" stop-opacity="0.475469843" offset="100%"></stop>
        </linearGradient>
    </defs>
    <g id="Design" stroke="none" stroke-width="1" fill="none" fill-rule="evenodd">
        <g id="mobile__bqml_2">
            <rect fill="#F6F6F6" x="0" y="0" width="375" height="667"></rect>
            <g id="square/bits" transform="translate(-73.111149, -111.000000)">
                <path d="M26.0731099,229.558541 L80.9517614,229.558541 C82.9327222,229.558541 84.5386083,231.164427 84.5386083,233.145388 L84.5386083,233.145388 C84.5386083,235.126349 86.1444944,236.732235 88.1254553,236.732235 L145.019847,236.732235 C149.188412,236.732235 152.567702,240.111525 152.567702,244.28009 L152.567702,244.28009 C152.567702,248.448655 149.188412,251.827945 145.019847,251.827945 L102.232865,251.827945 C99.1030474,251.827945 96.5658289,254.365164 96.5658289,257.494981 L96.5658289,257.494981 C96.5658289,260.624799 99.1030474,263.162017 102.232865,263.162017 L130.701477,263.162017 C133.153545,263.162017 135.141338,265.149811 135.141338,267.601878 L135.141338,267.601878 C135.141338,270.053946 137.129132,272.041739 139.581199,272.041739 L191.350676,272.041739 C196.082908,272.041739 199.91914,275.877972 199.91914,280.610204 L199.91914,280.610204 C199.91914,285.342437 196.082908,289.178669 191.350676,289.178669 L149.89055,289.178669 C144.652905,289.178669 140.406954,293.42462 140.406954,298.662265 L140.406954,298.662265 C140.406954,303.899911 136.161004,308.145861 130.923358,308.145861 L109.403762,308.145861 C106.665109,308.145861 104.444992,305.925744 104.444992,303.187091 L104.444992,303.187091 C104.444992,300.448438 102.224875,298.22832 99.4862216,298.22832 L79.29081,298.22832 C73.9941145,298.22832 69.7002944,302.522141 69.7002944,307.818836 L69.7002944,307.818836 C69.7002944,313.115531 73.9941145,317.409352 79.29081,317.409352 L86.8691725,317.409352 C91.4625884,317.409352 95.1862877,321.133051 95.1862877,325.726467 L95.1862877,325.726467 C95.1862877,330.319883 91.4625884,334.043582 86.8691725,334.043582 L15.2801384,334.043582 C10.6867225,334.043582 6.96302316,330.319883 6.96302316,325.726467 L6.96302316,325.726467 C6.96302316,321.133051 3.23932384,317.409352 -1.35409206,317.409352 L-6.27975804,317.409352 C-12.4487802,317.409352 -17.4497608,312.408371 -17.4497608,306.239349 L-17.4497608,306.239349 C-17.4497608,300.070327 -12.4487802,295.069346 -6.27975804,295.069346 L11.2943572,295.069346 C17.6197129,295.069346 22.7474268,289.941632 22.7474268,283.616276 C22.7474268,283.596032 22.7473731,283.575787 22.7472658,283.555543 L22.7472658,283.555543 C22.7134929,277.186792 17.5410841,272.041739 11.172244,272.041739 L-10.8393335,272.041739 C-14.2064643,272.041739 -16.936063,269.312141 -16.936063,265.94501 L-16.936063,265.94501 C-16.936063,262.577879 -14.2064643,259.84828 -10.8393335,259.84828 L3.14459036,259.84828 C5.35934485,259.84828 7.15475811,258.052867 7.15475811,255.838113 L7.15475811,255.838113 C7.15475811,253.623358 8.95017136,251.827945 11.1649259,251.827945 L27.1257005,251.827945 C29.6712855,251.827945 31.7348899,249.764341 31.7348899,247.218756 L31.7348899,247.218756 C31.7348899,244.673171 29.6712855,242.609566 27.1257005,242.609566 L25.6412437,242.609566 C22.2758158,242.609566 19.5475975,239.881348 19.5475975,236.51592 L19.5475975,236.084054 C19.5475975,232.480113 22.4691689,229.558541 26.0731099,229.558541 Z" id="Path-5" fill="url(#linearGradient-1)" fill-rule="evenodd" opacity="0.060634"></path>
                <path d="M173.812534,-14.9712092 L133.989094,-14.9712092 C128.384113,-14.9712092 123.840379,-10.4274747 123.840379,-4.8224942 L123.840379,-4.8224942 C123.840379,0.782486334 119.296644,5.32622082 113.691664,5.32622082 L69.1854606,5.32622082 C62.4726706,5.32622082 57.0308791,10.7680123 57.0308791,17.4808023 L57.0308791,17.4808023 C57.0308791,24.1935923 62.4726706,29.6353838 69.1854606,29.6353838 L104.516467,29.6353838 C109.979137,29.6353838 114.407505,34.063752 114.407505,39.5264212 L114.407505,39.5264212 C114.407505,44.9890903 118.835873,49.4174586 124.298542,49.4174586 L145.370774,49.4174586 C149.823555,49.4174586 153.433246,53.0271503 153.433246,57.4799306 L153.433246,57.4799306 C153.433246,61.932711 149.823555,65.5424027 145.370774,65.5424027 L108.900192,65.5424027 C103.929085,65.5424027 99.899206,69.5722814 99.899206,74.5433886 L99.899206,74.5433886 C99.899206,79.5144958 95.8693273,83.5443745 90.8982201,83.5443745 L18.3975648,83.5443745 C12.0229276,83.5443745 6.85526316,88.712039 6.85526316,95.0866761 L6.85526316,95.0866761 C6.85526316,101.461313 12.0229276,106.628978 18.3975648,106.628978 L64.0956214,106.628978 C69.1548573,106.628978 73.2561783,110.730299 73.2561783,115.789535 L73.2561783,115.789535 C73.2561783,120.848771 69.1548573,124.950092 64.0956214,124.950092 L50.8479717,124.950092 C44.5843113,124.950092 39.5066113,130.027792 39.5066113,136.291452 L39.5066113,136.291452 C39.5066113,142.555112 44.5843113,147.632812 50.8479717,147.632812 L68.0884536,147.632812 C73.6725444,147.632812 78.1993444,152.159612 78.1993444,157.743703 L78.1993444,157.743703 C78.1993444,163.327794 82.7261444,167.854594 88.3102352,167.854594 L144.045166,167.854594 C147.512211,167.854594 150.322807,170.66519 150.322807,174.132235 L150.322807,174.132235 C150.322807,177.59928 147.512211,180.409876 144.045166,180.409876 L142.991713,180.409876 C138.995243,180.409876 135.755464,183.649655 135.755464,187.646125 L135.755464,187.646125 C135.755464,191.642595 138.995243,194.882374 142.991713,194.882374 L175.076042,194.882374 C183.457492,194.882374 190.326406,188.230852 190.595864,179.853735 L190.595864,179.853735 C190.864985,171.487083 197.744642,164.854589 206.115539,164.891629 L219.343213,164.950161 C225.451267,164.977188 230.461184,160.117988 230.620684,154.011957 L230.620684,154.011957 C230.779969,147.914134 226.021542,142.814371 219.927305,142.551512 L211.732926,142.198069 C202.016213,141.778964 194.275933,133.920934 194.00357,124.199 L193.816511,117.52194 C193.649828,111.572231 198.130514,106.514928 204.056972,105.96364 L204.056972,105.96364 C210.047284,105.406413 214.650921,100.41772 214.726202,94.4020186 L214.740423,93.2656605 C214.81145,87.5898853 219.418211,83.0182798 225.094364,82.9907328 L227.606176,82.9785427 C231.82064,82.9580895 235.220557,79.5250112 235.200103,75.3105478 C235.199969,75.2829628 235.199686,75.2553788 235.199253,75.2277969 L235.199253,75.2277969 C235.132291,70.9624469 231.630001,67.5536446 227.364401,67.6020828 L219.133063,67.6955542 C213.914313,67.754816 209.540446,63.7637854 209.122765,58.5614396 L209.122765,58.5614396 C208.738002,53.7690867 212.311059,49.5722045 217.103412,49.1874409 C217.284837,49.1728748 217.466675,49.1640022 217.648656,49.160836 L224.453631,49.0424425 C233.242765,48.8895284 240.243804,41.6405661 240.09089,32.8514322 C240.089976,32.7988506 240.0888,32.7462738 240.087364,32.6937038 L240.046701,31.2050596 C239.780383,21.4553112 231.756476,13.7139557 222.003446,13.7971749 L205.599486,13.9371441 C197.363447,14.0074193 190.450853,7.74776524 189.706275,-0.454848719 L189.706275,-0.454848719 C188.960018,-8.67596364 182.06745,-14.9712092 173.812534,-14.9712092 Z" id="Path-7" fill="url(#linearGradient-2)" fill-rule="evenodd" opacity="0.0906343006" transform="translate(123.690780, 89.955582) scale(-1, -1) translate(-123.690780, -89.955582) "></path>
                <path d="M394.803142,136.602146 L459.958932,136.602146 C466.065322,136.602146 471.01553,141.552353 471.01553,147.658743 L471.01553,147.658743 C471.01553,153.765134 475.965737,158.715341 482.072127,158.715341 L504.233684,158.715341 C510.182485,158.715341 515.004941,163.537797 515.004941,169.486598 L515.004941,169.486598 C515.004941,175.435399 510.182485,180.257855 504.233684,180.257855 L456.212408,180.257855 C450.69786,180.257855 446.227436,184.72828 446.227436,190.242827 L446.227436,190.242827 C446.227436,195.757375 450.69786,200.227799 456.212408,200.227799 L541.872889,200.227799 C545.070804,200.227799 547.663226,202.820221 547.663226,206.018136 L547.663226,206.018136 C547.663226,209.21605 545.070804,211.808472 541.872889,211.808472 L499.836483,211.808472 C495.662963,211.808472 492.279657,215.191778 492.279657,219.365298 L492.279657,219.365298 C492.279657,223.538818 495.662963,226.922125 499.836483,226.922125 L503.941857,226.922125 C507.996418,226.922125 511.283289,230.208996 511.283289,234.263556 L511.283289,234.263556 C511.283289,238.339364 508.018196,241.663893 503.943051,241.737413 L447.492741,242.755827 C443.958317,242.819591 441.139328,245.726577 441.184204,249.261292 L441.184204,249.261292 C441.228816,252.775301 438.416314,255.660134 434.902305,255.704747 C434.893154,255.704863 434.884003,255.704959 434.874851,255.705036 L364.370714,256.295891 C359.25145,256.338793 355.066687,252.223588 355.023786,247.104323 C355.023569,247.07843 355.02346,247.052537 355.02346,247.026643 L355.02346,247.026643 C355.02346,241.864116 359.208515,237.679061 364.371042,237.679061 L371.230512,237.679061 C376.646446,237.679061 381.036928,233.288579 381.036928,227.872645 L381.036928,227.872645 C381.036928,222.456711 376.646446,218.066229 371.230512,218.066229 L356.581605,218.066229 C351.655658,218.066229 347.66239,214.072961 347.66239,209.147014 L347.66239,209.147014 C347.66239,204.221068 351.655658,200.227799 356.581605,200.227799 L364.349659,200.227799 C373.565783,200.227799 381.036928,192.756654 381.036928,183.54053 L381.036928,182.575784 C381.036928,172.826846 373.133851,164.92377 363.384913,164.92377 L306.310219,164.92377 C301.737791,164.92377 298.031105,161.217084 298.031105,156.644656 L298.031105,156.644656 C298.031105,152.072227 301.737791,148.365542 306.310219,148.365542 L383.039745,148.365542 C386.288118,148.365542 388.921444,145.732216 388.921444,142.483844 L388.921444,142.483844 C388.921444,139.235472 391.55477,136.602146 394.803142,136.602146 Z" id="Path-10" fill="url(#linearGradient-3)" fill-rule="evenodd" opacity="0.060634" transform="translate(422.847165, 196.449222) scale(1, -1) translate(-422.847165, -196.449222) "></path>
                <path d="M356.407318,354.536908 L401.958134,354.536908 C406.937367,354.536908 410.973832,350.500443 410.973832,345.52121 L410.973832,345.52121 C410.973832,340.541977 406.937367,336.505511 401.958134,336.505511 L398.918312,336.505511 C393.501802,336.505511 389.110853,332.114563 389.110853,326.698053 L389.110853,326.698053 C389.110853,321.281544 393.501802,316.890595 398.918312,316.890595 L444.704271,316.890595 C448.584538,316.890595 451.730116,320.036173 451.730116,323.91644 L451.730116,323.91644 C451.730116,327.796707 454.875694,330.942286 458.755961,330.942286 L485.327956,330.942286 C491.843431,330.942286 497.125267,336.224122 497.125267,342.739597 L497.125267,342.739597 C497.125267,349.255072 491.843431,354.536908 485.327956,354.536908 L459.065029,354.536908 C455.014069,354.536908 451.730116,357.820861 451.730116,361.871822 L451.730116,361.871822 C451.730116,365.922783 448.446163,369.206735 444.395203,369.206735 L356.254524,369.206735 C352.245319,369.206735 348.995216,365.956632 348.995216,361.947427 C348.995216,361.922225 348.995347,361.897023 348.995609,361.871822 L348.995609,361.871822 C349.03793,357.808562 352.343838,354.536908 356.407318,354.536908 Z" id="Path-8" fill="url(#linearGradient-4)" fill-rule="evenodd" opacity="0.0906343006" transform="translate(423.060241, 343.048665) scale(1, -1) translate(-423.060241, -343.048665) "></path>
                <path d="M444.818096,-56.7658349 L294.640407,-56.7658349 C288.480231,-56.7658349 283.486421,-51.7720254 283.486421,-45.6118491 L283.486421,-45.6118491 C283.486421,-39.4516728 288.480231,-34.4578632 294.640407,-34.4578632 L337.034168,-34.4578632 C342.047137,-34.4578632 346.110951,-30.3940493 346.110951,-25.3810808 L346.110951,-25.3810808 C346.110951,-20.3681123 350.174765,-16.3042984 355.187733,-16.3042984 L374.525246,-16.3042984 C378.611463,-16.3042984 381.923996,-12.9917656 381.923996,-8.90554925 L381.923996,-8.90554925 C381.923996,-4.81933293 378.611463,-1.5068001 374.525246,-1.5068001 L341.057014,-1.5068001 C336.495141,-1.5068001 332.797012,2.19132883 332.797012,6.75320206 L332.797012,6.75320206 C332.797012,11.3150753 329.098883,15.0132042 324.537009,15.0132042 L258.00479,15.0132042 C252.154929,15.0132042 247.412679,19.7554536 247.412679,25.6053147 L247.412679,25.6053147 C247.412679,31.4551758 252.154929,36.1974251 258.00479,36.1974251 L299.940868,36.1974251 C304.583615,36.1974251 308.347305,39.9611151 308.347305,44.603862 L308.347305,44.603862 C308.347305,49.2466089 304.583615,53.0102989 299.940868,53.0102989 L287.783798,53.0102989 C282.035778,53.0102989 277.376087,57.6699899 277.376087,63.4180101 L277.376087,63.4180101 C277.376087,69.1660303 282.035778,73.8257213 287.783798,73.8257213 L303.605,73.8257213 C308.729395,73.8257213 312.883537,77.9798637 312.883537,83.1042582 L312.883537,83.1042582 C312.883537,88.2286526 317.03768,92.3827951 322.162074,92.3827951 L373.308765,92.3827951 C376.490395,92.3827951 379.069615,94.9620154 379.069615,98.1436449 L379.069615,98.1436449 C379.069615,101.325274 376.490395,103.904495 373.308765,103.904495 L372.342035,103.904495 C368.674565,103.904495 365.701493,106.877567 365.701493,110.545038 L365.701493,110.545038 C365.701493,114.212508 368.674565,117.18558 372.342035,117.18558 L501.498021,117.18558 C509.189489,117.18558 515.492937,111.081628 515.740212,103.394136 L515.740212,103.394136 C515.987178,95.7162482 522.300484,89.6297579 529.982268,89.6637492 L542.121007,89.717462 C547.726231,89.7422646 552.323719,85.2830862 552.470088,79.6797189 L552.470088,79.6797189 C552.616261,74.083884 548.249559,69.4039463 542.657015,69.1627266 L535.137218,68.8383799 C526.220409,68.4537767 519.117329,61.2426387 518.867388,52.3210393 L518.695727,46.1936518 C518.542766,40.7337372 522.654591,36.0927643 528.093168,35.58686 L528.093168,35.58686 C533.590342,35.075505 537.814996,30.4974941 537.88408,24.9770198 L537.89713,23.9342096 C537.962311,18.7256785 542.189831,14.530419 547.398709,14.5051397 L549.703743,14.4939532 C553.571261,14.4751837 556.691288,11.324725 556.672519,7.45720676 C556.672396,7.43189267 556.672136,7.40657944 556.671738,7.38126817 L556.671738,7.38126817 C556.610289,3.46705249 553.396316,0.338871297 549.481871,0.383321992 L541.928157,0.469098592 C537.139028,0.523481801 533.125229,-3.1389972 532.741932,-7.91307278 L532.741932,-7.91307278 C532.388844,-12.3109072 535.667758,-16.1622915 540.065592,-16.5153804 C540.232082,-16.5287474 540.39895,-16.5368896 540.565951,-16.5397951 L547.757569,-16.6649155 C555.270909,-16.7956333 561.255708,-22.9923672 561.12499,-30.505708 C561.123847,-30.571418 561.122228,-30.6371189 561.120132,-30.7028054 L561.120132,-30.7028054 C560.875068,-38.3856772 554.562067,-44.4792677 546.875334,-44.4525216 L457.763925,-44.1424576 C454.25078,-44.1302336 451.373519,-46.9309454 451.29103,-50.4431434 L451.29103,-50.4431434 C451.208458,-53.9588298 448.334752,-56.7658349 444.818096,-56.7658349 Z" id="Path-7" fill="url(#linearGradient-5)" fill-rule="evenodd" opacity="0.0906343006" transform="translate(404.269888, 30.209873) scale(1, -1) translate(-404.269888, -30.209873) "></path>
                <rect id="Rectangle" fill="url(#linearGradient-6)" fill-rule="evenodd" opacity="0.0906343006" x="15.9531192" y="350.723442" width="52.3074055" height="17.6068848" rx="8.80344242"></rect>
                <rect id="Rectangle" fill="url(#linearGradient-7)" fill-rule="evenodd" opacity="0.0906343006" x="464.288278" y="275.71977" width="88.4952153" height="15.2205474" rx="7.6102737"></rect>
                <rect id="Rectangle" fill="url(#linearGradient-8)" fill-rule="evenodd" opacity="0.0906343006" x="191.947368" y="2.49520154" width="45.217956" height="15.2205474" rx="7.6102737"></rect>
                <g id="Group" stroke-width="1" fill-rule="evenodd" transform="translate(90.988038, 111.036468)">
                    <g id="Group-5" transform="translate(114.553659, 287.158171)">
                        <mask id="mask-11" fill="white">
                            <use xlink:href="#path-10"></use>
                        </mask>
                        <use id="Path" fill="url(#radialGradient-9)" fill-rule="nonzero" xlink:href="#path-10"></use>
                        <path d="M-4.98564593,97.1147943 L68.0037954,97.1147943 L68.0037954,82.503533 L-4.98564593,82.503533 L-4.98564593,97.1147943 Z M60.4316718,-37.428023 L48.7188251,-28.7079511 L92.2803984,29.9135519 L103.993245,21.19348 L60.4316718,-37.428023 Z M24.2256774,-2.86730471 L80.31214,43.8870642 L89.6541,32.6590685 L33.5676374,-14.0953004 L24.2256774,-2.86730471 Z M5.9151582,29.6245502 L72.0820537,60.4685393 L78.2452487,47.2230891 L12.0783532,16.3777105 L5.9151582,29.6245502 Z M-3.53507414,63.8587521 L67.8941349,78.8854534 L70.8966103,64.5854247 L-0.532598735,49.5587234 L-3.53507414,63.8587521 L-3.53507414,63.8587521 Z" id="Fill-3" fill="url(#linearGradient-12)" fill-rule="nonzero" opacity="0.0706612723" mask="url(#mask-11)" transform="translate(49.503800, 29.843386) rotate(-114.000000) translate(-49.503800, -29.843386) "></path>
                    </g>
                    <g id="Rectangle" fill="black" fill-opacity="1">
                        <use filter="url(#filter-14)" xlink:href="#path-13"></use>
                    </g>
                    <ellipse id="Oval" fill="url(#linearGradient-15)" fill-rule="nonzero" cx="173.199552" cy="289.039527" rx="46.302739" ry="16.6237116"></ellipse>
                    <ellipse id="Oval" fill="url(#linearGradient-16)" fill-rule="nonzero" cx="173.199552" cy="289.039527" rx="42.1855006" ry="13.7932352"></ellipse>
                    <g id="Group-3" transform="translate(142.020366, 0.187876)"></g>
                    <path d="M108.839344,196.391377 C106.020641,188.87189 98.1085772,208.85397 98.1054797,222.695656 C98.1023823,236.537342 106.207488,257.717214 108.827057,251.297729 C111.446627,244.878244 111.658047,203.910863 108.839344,196.391377 Z" id="Path-6" fill="url(#linearGradient-17)" opacity="0.16" transform="translate(104.489447, 223.615046) rotate(-14.000000) translate(-104.489447, -223.615046) "></path>
                    <ellipse id="Oval" stroke="url(#linearGradient-18)" stroke-width="4" opacity="0.647856213" cx="292.902873" cy="151.099392" rx="8.07165862" ry="8.08126866"></ellipse>
                    <ellipse id="Oval" stroke="url(#linearGradient-19)" stroke-width="4" opacity="0.616629464" cx="193.141675" cy="83.6806249" rx="8.02337925" ry="8.03294323"></ellipse>
                    <ellipse id="Oval" stroke="url(#linearGradient-20)" stroke-width="4" opacity="0.281436012" cx="47.2302314" cy="276.54363" rx="5.01593339" ry="5.02262776"></ellipse>
                    <ellipse id="Oval" fill="url(#linearGradient-21)" opacity="0.213727679" cx="253.894749" cy="112.054048" rx="4.71664502" ry="4.72114548"></ellipse>
                    <ellipse id="Oval" fill="url(#linearGradient-22)" opacity="0.213727679" cx="101.832549" cy="72.1308238" rx="3.47023392" ry="3.47354511"></ellipse>
                    <ellipse id="Oval" fill="url(#linearGradient-22)" opacity="0.213727679" cx="145.456951" cy="90.8448353" rx="3.47023392" ry="3.47354511"></ellipse>
                    <ellipse id="Oval" fill="url(#linearGradient-21)" opacity="0.415852865" cx="293.779917" cy="234.318923" rx="4.71664502" ry="4.72114548"></ellipse>
                    <path d="M62.3658661,159.305305 C61.4294735,154.478529 57.1801644,150.831779 52.0820851,150.829385 C46.9841705,150.826991 42.7394651,154.469585 41.8093055,159.295651 L62.3658661,159.305305 Z" id="Oval" stroke="url(#linearGradient-23)" stroke-width="4" opacity="0.647856213" transform="translate(52.088880, 155.067859) rotate(40.000000) translate(-52.088880, -155.067859) "></path>
                    <path d="M289.933868,284.875488 C289.10772,282.485835 286.838517,280.771019 284.167485,280.772273 C281.496321,280.773528 279.224548,282.490591 278.394716,284.880907 L289.933868,284.875488 Z" id="Oval" stroke="url(#linearGradient-24)" stroke-width="4" opacity="0.616629464" transform="translate(284.162740, 282.827138) rotate(140.000000) translate(-284.162740, -282.827138) "></path>
                    <path d="M9.66100082,203.57702 C8.87236192,201.65838 6.98305864,200.306935 4.77726151,200.306935 C2.57146439,200.306935 0.682161106,201.65838 -0.106477794,203.57702 L9.66100082,203.57702 Z" id="Oval" stroke="url(#linearGradient-25)" stroke-width="4" opacity="0.617280506" transform="translate(4.777262, 201.941978) scale(-1, 1) rotate(90.000000) translate(-4.777262, -201.941978) "></path>
                    <path d="M250.629936,72.6452819 C249.843365,70.7226374 247.955732,69.3689063 245.752287,69.3692659 C243.548799,69.3696254 241.660419,70.7240068 240.872757,72.646874 L250.629936,72.6452819 Z" id="Oval" stroke="url(#linearGradient-26)" stroke-width="4" opacity="0.6" transform="translate(245.750774, 71.008265) scale(-1, 1) rotate(170.000000) translate(-245.750774, -71.008265) "></path>
                    <path d="M53.1080812,106.80177 C54.6249769,104.394728 55.5027009,101.543707 55.5027009,98.4874872 C55.5027009,95.4267491 54.6223799,92.5718172 53.1013496,90.1625318 C53.2754819,89.9403233 53.472615,89.7370023 53.689165,89.5561526 C56.1141264,91.1123261 58.997955,92.0146867 62.0923404,92.0146867 C65.1867258,92.0146867 68.0705544,91.1123261 70.4955158,89.5561526 C70.7072185,89.7329541 70.9003638,89.9312322 71.0716033,90.1476384 C69.5447917,92.5600481 68.6608377,95.4204399 68.6608377,98.4874872 C68.6608377,101.549999 69.542179,104.406465 71.0648332,106.81663 C70.9005558,107.023085 70.7162928,107.212928 70.5149709,107.383231 C68.0859851,105.819387 65.1950052,104.912192 62.0923404,104.912192 C58.9896755,104.912192 56.0986957,105.819387 53.6697099,107.383231 C53.4635674,107.20885 53.2753104,107.013982 53.1080812,106.80177 Z" id="Combined-Shape" fill="url(#linearGradient-27)" opacity="0.616629464" transform="translate(62.086299, 98.469490) rotate(45.000000) translate(-62.086299, -98.469490) "></path>
                    <path d="M321.342189,202.044688 C322.48083,200.134994 323.135044,197.902405 323.135044,195.51687 C323.135044,193.1276 322.47878,190.891756 321.336838,188.980085 C321.509655,188.761285 321.704848,188.560978 321.918963,188.382613 C323.844569,189.5524 326.104447,190.225932 328.521487,190.225932 C330.938527,190.225932 333.198405,189.5524 335.124012,188.382613 C335.334068,188.557597 335.525913,188.753699 335.696286,188.96766 C334.54976,190.882065 333.890649,193.122422 333.890649,195.51687 C333.890649,197.907572 334.5477,200.144664 335.690908,202.057092 C335.526311,202.262892 335.341811,202.452079 335.140324,202.621738 C333.211173,201.445837 330.945356,200.768493 328.521487,200.768493 C326.097619,200.768493 323.831801,201.445837 321.90265,202.621738 C321.697123,202.448677 321.50927,202.255296 321.342188,202.044691 Z" id="Combined-Shape" fill="url(#linearGradient-28)" opacity="0.616629464" transform="translate(328.516396, 195.501978) rotate(58.000000) translate(-328.516396, -195.501978) "></path>
                    <path d="M48.7504261,232.492342 C49.3868391,231.264904 49.7464305,229.870549 49.7464305,228.392127 C49.7464305,226.911041 49.3855425,225.514327 48.7469844,224.285279 C48.9264205,224.057775 49.1300331,223.850227 49.3539466,223.666509 C50.5947151,224.323151 52.0091431,224.694964 53.5103298,224.694964 C55.0115165,224.694964 56.4259445,224.323151 57.6667129,223.666509 C57.8876018,223.847745 58.0887344,224.052173 58.2663904,224.276071 C57.6248465,225.507348 57.262153,226.907341 57.262153,228.392127 C57.262153,229.874244 57.6235442,231.271873 58.2629345,232.501543 C58.0894021,232.719624 57.8935696,232.919169 57.6788867,233.096727 C56.4351995,232.436067 55.0164284,232.061817 53.5103298,232.061817 C52.0042312,232.061817 50.58546,232.436067 49.3417729,233.096727 C49.1240746,232.916675 48.9257599,232.714014 48.7504261,232.492342 Z" id="Combined-Shape" fill="url(#linearGradient-29)" opacity="0.639834449" transform="translate(53.506524, 228.381410) rotate(58.000000) translate(-53.506524, -228.381410) "></path>
                </g>
                <path d="M204.110848,142.72936 L218.591532,142.72936 C222.528834,142.72936 225.720649,139.537546 225.720649,135.600243 L225.720649,135.600243 C225.720649,131.648342 228.897607,128.430672 232.849188,128.380354 L272.160428,127.879779 C276.234754,127.827898 279.579705,131.088734 279.631586,135.163059 C279.631985,135.194371 279.632184,135.225684 279.632184,135.256998 L279.632184,135.256998 C279.632184,139.38387 276.286694,142.72936 272.159822,142.72936 L263.748514,142.72936 C260.545238,142.72936 257.948469,145.326129 257.948469,148.529405 L257.948469,148.529405 C257.948469,151.732681 255.351701,154.32945 252.148425,154.32945 L203.853732,154.32945 C200.7199,154.32945 198.179427,151.788977 198.179427,148.655145 C198.179427,148.613228 198.179892,148.571312 198.18082,148.529405 L198.18082,148.529405 C198.252277,145.305546 200.886197,142.72936 204.110848,142.72936 Z" id="Path-8" fill="url(#linearGradient-30)" fill-rule="evenodd" opacity="0.0906343006" transform="translate(238.905805, 141.104264) scale(-1, 1) translate(-238.905805, -141.104264) "></path>
                <g id="Group-4" stroke-width="1" fill-rule="evenodd" transform="translate(165.772727, 227.063340)">
                    <mask id="mask-33" fill="white">
                        <use xlink:href="#path-32"></use>
                    </mask>
                    <use id="Oval" fill="url(#linearGradient-31)" fill-rule="nonzero" opacity="0.95" xlink:href="#path-32"></use>
                    <path d="M168.25414,163.587196 C206.083855,126.911762 204.032611,65.4604791 163.672559,26.3319147 C123.312507,-12.7966496 59.9271762,-14.7853045 22.097461,21.8901297 C-15.7322541,58.565564 -13.6810106,120.016847 26.6790417,159.145411 C67.039094,198.273975 130.424424,200.26263 168.25414,163.587196 Z" id="Oval" fill="url(#linearGradient-34)" fill-rule="nonzero" opacity="0.701195126" mask="url(#mask-33)"></path>
                    <path d="M52.8162,43.0586164 C109.69498,-8.34223159 163.801845,16.4798144 134.888859,-11.5509631 C105.975873,-39.5817406 42.5802362,-18.9303462 15.4799235,7.34306697 C-11.6203892,33.6164801 -38.9964945,93.4224396 -10.0835081,121.453217 C18.8294782,149.483995 -4.06258011,94.4594643 52.8162,43.0586164 Z" id="Oval" fill="url(#linearGradient-35)" fill-rule="nonzero" opacity="0.464564732" mask="url(#mask-33)"></path>
                    <path d="M163.624162,156.290121 C197.251144,123.689184 195.427785,69.0648983 159.551577,34.2833645 C123.675369,-0.498169395 67.3319007,-2.26589249 33.704919,30.3350444 C0.0779372735,62.9359813 1.90129567,117.560267 37.777504,152.3418 C73.6537123,187.123334 129.99718,188.891057 163.624162,156.290121 Z" id="Oval" fill="url(#radialGradient-36)" fill-rule="nonzero" opacity="0.866792225" mask="url(#mask-33)"></path>
                </g>
                <path d="M212.764111,273.260245 L240.67901,273.265289 C241.231163,273.265382 241.678748,273.712968 241.678841,274.265121 L241.684223,302.206841 C241.684316,302.759126 241.236676,303.206917 240.684391,303.20701 C240.684279,303.20701 240.684167,303.20701 240.684054,303.20701 L212.769155,303.201629 C212.217002,303.201536 211.769417,302.75395 211.769324,302.201797 L211.763942,274.260077 C211.763849,273.707792 212.211489,273.260001 212.763774,273.259908 C212.763886,273.259908 212.763998,273.259908 212.764111,273.259908 Z" id="Rectangle" fill="url(#linearGradient-37)" fill-rule="nonzero" opacity="0.898065476" transform="translate(226.724082, 288.233459) rotate(10.000000) translate(-226.724082, -288.233459) "></path>
                <path d="M244.543339,344.843658 L272.469008,344.857713 C273.020926,344.857972 273.468279,345.305325 273.468538,345.857243 L273.483532,373.787867 C273.483791,374.340152 273.036286,374.788078 272.484002,374.788337 C272.483688,374.788337 272.483375,374.788337 272.483062,374.788337 L244.557394,374.773343 C244.005476,374.773084 243.558123,374.325731 243.557864,373.773813 L243.54287,345.843188 C243.542611,345.290904 243.990116,344.842978 244.5424,344.842719 C244.542713,344.842719 244.543026,344.842719 244.54334,344.842719 Z" id="Rectangle" fill="url(#linearGradient-38)" fill-rule="nonzero" opacity="0.898065476" transform="translate(258.513201, 359.815528) rotate(40.000000) translate(-258.513201, -359.815528) "></path>
                <path d="M260.228107,260.730674 L273.192181,260.737811 C273.744093,260.738074 274.19144,261.185421 274.191704,261.737334 L274.199793,274.701406 C274.200056,275.253691 273.752555,275.70162 273.20027,275.701883 C273.199952,275.701883 273.199634,275.701883 273.199316,275.701883 L260.235243,275.693794 C259.683331,275.693531 259.235984,275.246183 259.23572,274.694271 L259.227631,261.730198 C259.227368,261.177913 259.674869,260.729984 260.227154,260.729721 C260.227472,260.729721 260.22779,260.729721 260.228108,260.729721 Z" id="Rectangle" fill="url(#linearGradient-39)" fill-rule="nonzero" opacity="0.898065476" transform="translate(266.713712, 268.215802) rotate(45.000000) translate(-266.713712, -268.215802) "></path>
                <path d="M256.436365,298.078185 L269.393733,298.080626 C269.94589,298.080716 270.39348,298.528305 270.39357,299.080463 L270.396337,312.051241 C270.396427,312.603526 269.948784,313.051314 269.3965,313.051404 C269.396391,313.051404 269.396282,313.051404 269.396173,313.051404 L256.438805,313.048638 C255.886648,313.048548 255.439058,312.600958 255.438968,312.048801 L255.436202,299.078022 C255.436112,298.525737 255.883754,298.077949 256.436039,298.077859 C256.436147,298.077859 256.436256,298.077859 256.436365,298.077859 Z" id="Rectangle" fill="url(#linearGradient-40)" fill-rule="nonzero" opacity="0.898065476" transform="translate(262.916269, 305.564632) rotate(10.000000) translate(-262.916269, -305.564632) "></path>
                <path d="M203.474,309.967233 L216.436834,309.97426 C216.988752,309.97452 217.436105,310.421873 217.436365,310.973791 L217.444331,323.939103 C217.444591,324.491387 216.997086,324.939313 216.444801,324.939572 C216.444488,324.939572 216.444175,324.939572 216.443862,324.939572 L203.481028,324.931606 C202.92911,324.931347 202.481757,324.483993 202.481498,323.932075 L202.473531,310.966763 C202.473272,310.414479 202.920777,309.966553 203.473061,309.966294 C203.473375,309.966294 203.473688,309.966294 203.474001,309.966294 Z" id="Rectangle" fill="url(#linearGradient-41)" fill-rule="nonzero" opacity="0.898065476" transform="translate(209.958931, 317.452933) rotate(40.000000) translate(-209.958931, -317.452933) "></path>
                <path d="M300.701563,272.540578 L313.658931,272.538137 C314.211216,272.538047 314.659004,272.985689 314.659094,273.537974 C314.659094,273.538083 314.659094,273.538192 314.659094,273.5383 L314.656327,286.509079 C314.656237,287.061237 314.208648,287.508826 313.656491,287.508916 L300.699123,287.511683 C300.146838,287.511773 299.69905,287.064131 299.698959,286.511846 C299.698959,286.511737 299.698959,286.511628 299.698959,286.51152 L299.701726,273.540741 C299.701816,272.988584 300.149406,272.540994 300.701563,272.540904 Z" id="Rectangle" fill="url(#linearGradient-40)" fill-rule="nonzero" opacity="0.898065476" transform="translate(307.179027, 280.024910) rotate(-10.000000) translate(-307.179027, -280.024910) "></path>
                <path d="M293.007842,306.268301 L305.966449,306.272888 C306.518494,306.273057 306.965973,306.720536 306.966142,307.272581 L306.971342,320.242121 C306.971511,320.794406 306.523933,321.242258 305.971649,321.242427 C305.971444,321.242427 305.97124,321.242427 305.971036,321.242427 L293.012429,321.237228 C292.460383,321.237058 292.012905,320.789579 292.012735,320.237534 L292.007535,307.267995 C292.007366,306.71571 292.454944,306.267857 293.007229,306.267688 C293.007433,306.267688 293.007638,306.267688 293.007842,306.267688 Z" id="Rectangle" fill="url(#linearGradient-42)" fill-rule="nonzero" opacity="0.898065476" transform="translate(299.489439, 313.755058) rotate(20.000000) translate(-299.489439, -313.755058) "></path>
                <path d="M218.745658,332.716781 L231.704265,332.712195 C232.256549,332.712025 232.704402,333.159603 232.704571,333.711888 C232.704571,333.712092 232.704571,333.712297 232.704571,333.712501 L232.699371,346.682041 C232.699202,347.234086 232.251723,347.681565 231.699678,347.681734 L218.741071,347.686934 C218.188786,347.687103 217.740934,347.239525 217.740764,346.68724 C217.740764,346.687036 217.740764,346.686832 217.740764,346.686627 L217.745964,333.717088 C217.746134,333.165042 218.193612,332.717564 218.745658,332.717394 Z" id="Rectangle" fill="url(#linearGradient-42)" fill-rule="nonzero" opacity="0.898065476" transform="translate(225.222668, 340.199564) rotate(-20.000000) translate(-225.222668, -340.199564) "></path>
                <path d="M291.944927,343.078411 L302.155133,335.092537 C302.590182,334.752315 303.218663,334.829188 303.558885,335.264237 C303.559075,335.26448 303.559265,335.264723 303.559455,335.264966 L320.744223,357.284462 C321.083819,357.71954 321.006718,358.347485 320.571953,358.687484 L310.362317,366.674087 C309.927268,367.014309 309.298787,366.937436 308.958565,366.502387 C308.958375,366.502144 308.958185,366.501901 308.957996,366.501658 L291.773227,344.482162 C291.433631,344.047084 291.510733,343.419139 291.945497,343.07914 Z" id="Rectangle" fill="url(#linearGradient-43)" fill-rule="nonzero" opacity="0.898065476"></path>
            </g>
        </g>
    </g>
</svg>