<svg width="362px" height="127px" viewBox="0 0 362 127" version="1.1" xmlns="http://www.w3.org/2000/svg" xmlns:xlink="http://www.w3.org/1999/xlink">
    <g id="Design" stroke="none" stroke-width="1" fill="none" fill-rule="evenodd">
        <g id="pi_number" transform="translate(-13.000000, 0.000000)">
            <g id="particles" transform="translate(13.000000, -42.000000)">
                <circle id="Oval-Copy-10" stroke="#F1F1F1" stroke-width="2" cx="57" cy="36" r="36"></circle>
                <polygon id="Star-Copy-4" stroke="#F1F1F1" stroke-width="2" transform="translate(360.166054, 134.166054) rotate(-269.000000) translate(-360.166054, -134.166054) " points="360.166054 153.361384 326.824076 153.416054 343.54241 124.568389 360.166054 95.6660539 376.789697 124.568389 393.508032 153.416054"></polygon>
                <circle id="Oval-Copy-11" stroke="#F1F1F1" cx="237" cy="86" r="14"></circle>
                <circle id="Oval" fill="#F2F2F2" cx="148" cy="77" r="13"></circle>
                <circle id="Oval-Copy-9" fill="#F2F2F2" cx="294" cy="62" r="13"></circle>
                <circle id="Oval-Copy" fill="#E0392C" cx="341.5" cy="68.5" r="4.5"></circle>
                <circle id="Oval-Copy-4" fill="#31A852" cx="206" cy="58" r="3"></circle>
                <circle id="Oval-Copy-5" fill="#6A1B9A" cx="106.5" cy="87.5" r="4.5"></circle>
                <rect id="Rectangle" fill="#438AFF" x="190" y="116" width="13" height="13"></rect>
                <rect id="Rectangle-Copy" fill="#F2F2F2" x="0" y="129" width="18" height="18"></rect>
                <polygon id="Star" fill="#66BAFF" transform="translate(21.000000, 81.000000) rotate(-270.000000) translate(-21.000000, -81.000000) " points="21 83.99148 15.8038476 84 18.4093023 79.50426 21 75 23.5906977 79.50426 26.1961524 84"></polygon>
            </g>
        </g>
    </g>
</svg>
