
<svg width="201px" height="200px" viewBox="0 0 201 200" version="1.1" xmlns="http://www.w3.org/2000/svg" xmlns:xlink="http://www.w3.org/1999/xlink">
    <g id="Design" stroke="none" stroke-width="1" fill="none" fill-rule="evenodd">
        <g id="pi_1_load2" transform="translate(-87.000000, -62.000000)">
            <g id="logo" transform="translate(88.000000, 63.000000)">
                <path d="M99,160 C132.68937,160 160,132.68937 160,99 C160,65.3106303 132.68937,38 99,38 C65.3106303,38 38,65.3106303 38,99 C38,132.68937 65.3106303,160 99,160 Z" id="Oval-Copy-6" stroke="#438AFF" stroke-width="5" stroke-linecap="round" stroke-dasharray="0,24" fill-rule="nonzero"></path>
                <path d="M115.068771,174.404838 C73.4525688,183.250635 32.5450362,156.684973 23.6992394,115.068771 C14.8534426,73.4525688 41.4191049,32.5450362 83.0353069,23.6992394 C124.651509,14.8534426 165.559041,41.4191049 174.404838,83.0353069 C183.250635,124.651509 156.684973,165.559041 115.068771,174.404838 Z" id="Oval-Copy-7" stroke="#66BAFF" stroke-width="4" stroke-linecap="round" stroke-dasharray="0,29" fill-rule="nonzero"></path>
                <path d="M119.76166,196.115799 C66.2095887,207.498643 13.5694393,173.313731 2.18659523,119.76166 C-9.19624885,66.2095887 24.9886639,13.5694393 78.5407349,2.18659523 C132.092806,-9.19624885 184.732955,24.9886639 196.115799,78.5407349 C207.498643,132.092806 173.313731,184.732955 119.76166,196.115799 Z" id="Oval-Copy-7" stroke="#9FC1F9" stroke-width="2" stroke-linecap="round" stroke-dasharray="0,30" fill-rule="nonzero"></path>
                <path d="M83,83 L72.6363636,83 C71.1803402,83 70,81.6568542 70,80 C70,78.3431458 71.1803402,77 72.6363636,77 L125.363636,77 C126.81966,77 128,78.3431458 128,80 C128,81.6568542 126.81966,83 125.363636,83 L115.972124,83 C116.32266,101.937235 119.587816,115.72 122.529412,115.72 C123.89388,115.72 125,116.901968 125,118.36 C125,119.818032 123.89388,121 122.529412,121 C117.176471,121 113.882353,114.1184 112.152941,99.3344 C111.553218,93.9097942 111.186116,88.4592935 111.052637,83 L88,83 L88,118.36 C88,119.818032 86.8807119,121 85.5,121 C84.1192881,121 83,119.818032 83,118.36 L83,83 Z" id="Combined-Shape" fill="#438AFF"></path>
            </g>
        </g>
    </g>
</svg>
