<?xml version="1.0" encoding="UTF-8"?>
<svg width="12px" height="6px" viewBox="0 0 12 6" version="1.1" xmlns="http://www.w3.org/2000/svg" xmlns:xlink="http://www.w3.org/1999/xlink">
    <!-- Generator: Sketch 64 (93537) - https://sketch.com -->
    <title>Copy 24x24</title>
    <desc>Created with Sketch.</desc>
    <g id="Page-1" stroke="none" stroke-width="1" fill="none" fill-rule="evenodd">
        <g id="Share-Icons" transform="translate(-336.000000, -199.000000)">
            <g id="Group-3" transform="translate(265.000000, 89.000000)">
                <g id="Copy-24x24" transform="translate(65.000000, 101.000000)">
                    <rect id="Rectangle-Copy-2" x="0" y="0" width="24" height="24"></rect>
                    <path d="M12.444642,14.149425 C12.2499151,13.954698 11.933238,13.954698 11.7385111,14.149425 C11.1543303,14.7336058 10.2023319,14.7336058 9.61815115,14.149425 L7.8518402,12.383114 C7.56860103,12.0998749 7.41321288,11.7241896 7.41321288,11.3229341 C7.41321288,10.9216786 7.56860103,10.5459933 7.8518402,10.2627541 C8.436021,9.67857333 9.38605238,9.67857333 9.97220011,10.2627541 L11.0579503,11.3485043 C11.2526772,11.5432312 11.5693543,11.5432312 11.7640813,11.3485043 C11.9588082,11.1537773 11.9588082,10.8371002 11.7640813,10.6423733 L10.6783311,9.55662313 C9.70469645,8.58298848 8.11934387,8.58298848 7.14570921,9.55662313 C6.67364393,10.0286884 6.41400802,10.6541749 6.41400802,11.3229341 C6.41400802,11.9897263 6.67364393,12.6171797 7.14570921,13.089245 L8.91202016,14.855556 C9.39982095,15.3413898 10.039076,15.5852902 10.6783311,15.5852902 C11.3175862,15.5852902 11.9568413,15.3413898 12.444642,14.855556 C12.639369,14.660829 12.639369,14.3441519 12.444642,14.149425 Z" id="Path" fill="#404040" fill-rule="nonzero" transform="translate(9.502348, 12.205844) rotate(-45.000000) translate(-9.502348, -12.205844) "></path>
                    <path d="M16.8403237,10.9081173 L15.0740128,9.14180639 C14.1003781,8.16817174 12.5150255,8.16817174 11.5413909,9.14180639 C11.346664,9.33653332 11.346664,9.65321045 11.5413909,9.84793738 C11.7361178,10.0426643 12.0527949,10.0426643 12.2475219,9.84793738 C12.8317027,9.26375659 13.7817341,9.26375659 14.3678818,9.84793738 L16.1341927,11.6142483 C16.4174319,11.8974875 16.5728201,12.2731728 16.5728201,12.6744283 C16.5728201,13.0756838 16.4174319,13.4513691 16.1341927,13.7346082 C15.5677144,14.3010866 14.5803112,14.3010866 14.0138328,13.7346082 L12.9300496,12.6488581 C12.7353227,12.4541311 12.4186455,12.4541311 12.2239186,12.6488581 C12.0291917,12.843585 12.0291917,13.1602621 12.2239186,13.3549891 L13.3096688,14.4387723 C13.7817341,14.9108376 14.4091875,15.1704735 15.0759797,15.1704735 C15.7427719,15.1704735 16.3702254,14.9108376 16.8422907,14.4387723 C17.3143559,13.966707 17.5739918,13.3392536 17.5739918,12.6724613 C17.5720249,12.0056691 17.312389,11.3801826 16.8403237,10.9081173 Z" id="Path" fill="#404040" fill-rule="nonzero" transform="translate(14.484669, 11.791027) rotate(-45.000000) translate(-14.484669, -11.791027) "></path>
                </g>
            </g>
        </g>
    </g>
</svg>