<?xml version="1.0" encoding="UTF-8"?>
<svg width="18px" height="20px" viewBox="0 0 18 20" version="1.1" xmlns="http://www.w3.org/2000/svg" xmlns:xlink="http://www.w3.org/1999/xlink">
    <!-- Generator: Sketch 64 (93537) - https://sketch.com -->
    <title>Button/Dense/Label/Hairline/Default/Blue</title>
    <desc>Created with Sketch.</desc>
    <defs>
        <path d="M18,16 C17.21,16 16.5,16.31 15.97,16.81 L8.91,12.7 C8.96,12.47 9,12.24 9,12 C9,11.76 8.96,11.53 8.91,11.3 L15.96,7.19 L15.96,7.19 C16.49,7.69 17.21,8 18,8 C19.66,8 21,6.66 21,5 C21,3.34 19.66,2 18,2 C16.34,2 15,3.34 15,5 C15,5.24 15.04,5.48 15.09,5.7 L15.09,5.7 L8.04,9.81 C7.5,9.31 6.79,9 6,9 C4.34,9 3,10.34 3,12 C3,13.66 4.34,15 6,15 C6.79,15 7.5,14.69 8.04,14.19 L15.09,18.31 C15.04,18.53 15,18.76 15,19 C15,20.66 16.34,22 18,22 C19.66,22 21,20.66 21,19 C21,17.34 19.66,16 18,16 Z M18,4 C18.55,4 19,4.45 19,5 C19,5.55 18.55,6 18,6 C17.45,6 17,5.55 17,5 C17,4.45 17.45,4 18,4 Z M6,13 C5.45,13 5,12.55 5,12 C5,11.45 5.45,11 6,11 C6.55,11 7,11.45 7,12 C7,12.55 6.55,13 6,13 Z M18,20 C17.45,20 17,19.55 17,19 C17,18.45 17.45,18 18,18 C18.55,18 19,18.45 19,19 C19,19.55 18.55,20 18,20 Z" id="path-1"></path>
    </defs>
    <g id="Page-1" stroke="none" stroke-width="1" fill="none" fill-rule="evenodd">
        <g id="showcase.withgoogle.com-Navigation-Wrapper-v2" transform="translate(-580.000000, -412.000000)">
            <g id="social/share_24px" transform="translate(577.000000, 410.000000)">
                <mask id="mask-2" fill="white">
                    <use xlink:href="#path-1"></use>
                </mask>
                <g id="ic_share_24px" fill-rule="nonzero"></g>
                <g id="_c/Grey/500" mask="url(#mask-2)" fill="#9AA0A6" fill-rule="evenodd">
                    <rect id="swatch" x="0" y="0" width="24" height="24"></rect>
                </g>
            </g>
        </g>
    </g>
</svg>