
<svg width="400px" height="400px" viewBox="0 0 400 400" version="1.1" xmlns="http://www.w3.org/2000/svg" xmlns:xlink="http://www.w3.org/1999/xlink">
    <g id="Symbols" stroke="none" stroke-width="1" fill="none" fill-rule="evenodd">
        <g id="pizza/other" transform="translate(-1.000000, 0.000000)">
            <g id="Asset-1" transform="translate(1.000000, 0.000000)">
                <ellipse id="Oval" fill="#E6AB43" cx="200" cy="202.5" rx="200" ry="197.5"></ellipse>
                <ellipse id="Oval" fill="#F9DD9F" cx="200" cy="197.5" rx="200" ry="197.5"></ellipse>
                <ellipse id="Oval" fill="#D05B31" cx="200" cy="198" rx="178.947368" ry="177"></ellipse>
                <path d="M375.794858,198 C384.565943,230.952381 341.982206,309.649728 284.732454,338.047619 C261.21216,349.710408 229.182249,371 201.086253,371 C154.164513,371 128.338541,350.204694 96.9504166,320.394558 C82.0942428,306.342721 53.0712215,292.220272 43.9792431,273.778707 C32.7123208,250.888571 41.0912029,214.582109 41.0912029,187.408163 C41.0912029,139.63898 45.9283731,106.980816 77.554196,75.6760544 C93.361165,60.0236735 113.327863,53.6214966 134.233471,44.8655782 C155.139078,36.1096599 176.959827,25 201.086253,25 C215.134251,25 223.525018,37.1570748 236.598451,40.2993197 C249.671884,43.4415646 266.703002,42.5236054 278.457207,48.3608844 C291.863418,55.0102041 306.885981,73.0751701 318.057824,82.7137415 C335.195906,97.5893878 347.568128,100.943469 357.789175,121.362177 C369.293796,144.428844 368.390541,170.190544 375.794858,198 Z" id="Path" fill="#FAE69E"></path>
                <path d="M175.763282,334.989435 L176.369481,335.652829 C177.108703,336.514234 178.044619,337.169971 179.091657,337.560087 L179.674981,337.785167 C181.571631,338.369846 183.622631,337.737678 184.902016,336.174067 C186.278807,334.557123 186.789002,332.336868 186.263104,330.250905 C186.0311,329.500143 185.756108,328.764367 185.439589,328.047489 C184.922178,327.05592 184.17058,326.216337 183.254985,325.607147 C183.129186,325.528821 182.999366,325.457638 182.866103,325.393913 C181.978052,324.865024 181.023428,324.466344 180.02955,324.20928 C179.13826,323.93024 178.187226,323.93024 177.295936,324.20928 C176.384103,324.496728 175.568005,325.04245 174.939767,325.784842 C173.627646,327.370407 173.133715,329.513737 173.612992,331.542155 C173.917611,332.916711 174.67866,334.136801 175.763282,334.989435 Z" id="Path" fill="#FCE777"></path>
                <path d="M155.819545,315.720482 C160.685289,322.109931 172.062368,325.788342 175.756071,315.911569 C178.763124,307.885944 171.35204,296.934311 163.621309,297.161226 C162.885376,296.778048 162.111619,296.473829 161.312745,296.253566 C156.470679,294.963733 151.699646,298.737688 151.391837,304.326962 C151.178739,308.411431 153.546497,312.69893 155.819545,315.720482 Z" id="Path" fill="#FCE777"></path>
                <path d="M103.323749,254.635121 C105.416682,258.843293 108.994466,262.079364 113.331811,263.68732 C116.15507,264.543393 119.205603,263.607049 121.102914,261.302024 C123.223365,258.916728 123.596191,255.851622 123.130158,252.619546 C122.694739,250.200607 121.650651,247.939704 120.100943,246.059982 C119.756675,245.506236 119.366902,244.983552 118.93586,244.497613 C116.187621,241.41572 111.943612,240.243564 108.053985,241.49214 C105.643456,242.319963 103.739646,244.238021 102.892668,246.692086 C101.912233,249.279768 102.069336,252.174535 103.323749,254.635121 Z" id="Path" fill="#FCE777"></path>
                <path d="M218.877609,265.836421 C220.445492,267.681998 222.925755,268.431036 225.229748,267.754765 C227.307931,267.044845 228.875715,265.28979 229.371944,263.117786 C229.823523,261.226383 229.510959,259.229789 228.504166,257.574596 L228.504166,257.492213 C228.101749,255.617452 227.019296,253.965903 225.472726,252.867004 L224.118991,252.231479 C223.402159,251.969965 222.625473,251.929032 221.885908,252.113789 C220.580423,252.24948 219.377583,252.894975 218.530498,253.914443 C217.658085,255.005323 217.044419,256.285938 216.737089,257.656979 C216.441545,259.117583 216.481139,260.62784 216.852793,262.070347 C217.230494,263.468839 217.923815,264.758388 218.877609,265.836421 Z" id="Path" fill="#FCE777"></path>
                <path d="M211.055103,299.786346 C215.723208,304.797552 226.156422,308.443146 229.727522,299.786346 C231.204651,296.367838 230.730274,292.401538 228.490474,289.44331 C227.691371,287.067443 226.508081,284.843986 224.989396,282.864617 C222.39593,279.512115 218.966349,276.928658 215.058003,275.383432 C211.556925,273.85157 206.562053,277.129042 205.885177,281.32088 C204.641834,287.961596 206.559063,294.809379 211.055103,299.786346 L211.055103,299.786346 Z" id="Path" fill="#FCE777"></path>
                <path d="M136.915618,292.476211 C137.25375,293.071095 137.688206,293.60368 138.200678,294.051526 L138.536955,294.539996 C139.479226,295.649812 140.921176,296.181708 142.344093,295.944346 C143.59223,295.775871 144.70388,295.056569 145.382598,293.978256 C146.28881,292.697306 146.588057,291.073009 146.199271,289.545393 C145.823562,288.063329 144.942549,286.765041 143.713222,285.881871 C142.850205,285.276205 141.818864,284.968023 140.770796,285.002626 C139.560368,285.036634 138.415684,285.570099 137.600183,286.480246 C136.938829,287.281944 136.521496,288.262185 136.399192,289.301159 C136.23613,290.388414 136.416968,291.500233 136.915618,292.476211 L136.915618,292.476211 Z" id="Path" fill="#FCE777"></path>
                <path d="M135.855278,245.488939 C136.230135,245.690555 136.621828,245.859109 137.025916,245.992692 L137.119567,245.992692 L137.119567,245.992692 L137.119567,245.992692 L137.119567,245.992692 L137.119567,245.992692 L137.119567,245.992692 L137.119567,245.992692 C137.318576,246.109844 137.365401,246.19185 137.330282,246.203566 L137.587822,246.414439 L137.646354,246.414439 C137.704886,246.566737 137.915601,246.730749 138.009252,246.859616 C139.449137,248.886345 142.504502,247.960844 143.522957,246.039553 C144.676427,243.796128 144.636916,241.124991 143.417599,238.916717 C142.15331,236.491672 139.718383,234.710963 137.119567,235.038988 C135.811953,235.079958 134.575803,235.645722 133.689598,236.608824 C132.978243,237.462039 132.530766,238.504223 132.401896,239.607913 C131.984893,242.145233 133.437388,244.618797 135.855278,245.488939 L135.855278,245.488939 Z" id="Path" fill="#FFC543"></path>
                <path d="M136.696742,246.388162 C136.837093,246.568162 136.957393,246.628162 136.987469,246.608162 L136.756892,246.408162 L136.696742,246.388162 Z" id="Path" fill="#FFC543"></path>
                <path d="M177.398697,290.807431 C178.044542,291.492773 178.905531,291.914737 179.825308,291.996695 C180.675815,292.032127 181.514679,291.781913 182.21758,291.283136 C182.505612,291.119041 182.768042,290.910534 182.995927,290.664719 C183.910794,290.110279 184.469838,289.089263 184.461051,287.988875 C184.226352,286.568369 183.384463,285.335015 182.171795,284.635151 C181.812657,284.411996 181.428152,284.236216 181.027167,284.111875 C180.359467,283.962708 179.668877,283.962708 179.001176,284.111875 C178.078505,284.405741 177.31276,285.080931 176.883615,285.979019 C176.515802,286.756536 176.372677,287.62812 176.471549,288.488366 C176.533514,289.344622 176.858523,290.157563 177.398697,290.807431 Z" id="Path" fill="#FFC543"></path>
                <path d="M232.168802,281.932817 C232.674362,282.841007 233.383251,283.617293 234.238871,284.199698 C234.542949,284.388605 234.870418,284.542092 235.186191,284.707385 C235.973814,285.233226 236.837996,285.631588 237.747463,285.888052 C239.115454,286.230071 240.55829,285.774891 241.48996,284.707385 C242.463327,283.573036 242.829731,282.031816 242.472366,280.57505 C242.2131,279.618091 241.819248,278.703607 241.302835,277.859516 C240.711063,276.58316 239.800097,275.484475 238.659696,274.671715 C236.799339,273.517076 234.385895,273.880796 232.940692,275.533602 C232.394513,276.231382 231.996413,277.035163 231.771162,277.894936 C231.415376,279.245131 231.556656,280.679766 232.168802,281.932817 L232.168802,281.932817 Z" id="Path" fill="#FFC543"></path>
                <path d="M217.185769,319.965389 C217.701221,320.981714 218.52946,321.798678 219.544132,322.291648 L220.251641,322.591424 C220.770481,322.855226 221.301113,323.107038 221.831745,323.35885 L220.782273,322.867217 C221.301113,323.13102 221.831745,323.394823 222.362377,323.634643 L221.395448,323.178984 L221.819953,323.418805 C222.992307,324.193732 224.503524,324.193732 225.675877,323.418805 C226.857788,322.572812 227.561473,321.195334 227.562568,319.725568 C227.62307,318.203797 227.250483,316.696596 226.489513,315.384817 C225.192413,313.142494 222.362377,311.34384 219.992221,312.231176 C218.559953,312.71975 217.428952,313.852163 216.926349,315.300879 C216.33396,316.818838 216.428851,318.52503 217.185769,319.965389 L217.185769,319.965389 Z" id="Path" fill="#FFC543"></path>
                <path d="M170.671852,253.248264 C171.664573,254.264194 172.85784,255.04768 174.170467,255.545416 C175.509238,256.042202 176.957803,256.134005 178.345482,255.810009 C180.234734,255.509335 181.680829,253.344479 182.205621,251.43219 L182.263932,251.215705 C182.716085,249.398662 182.361396,247.468358 181.295981,245.94789 C181.010084,245.524486 180.668632,245.144017 180.281383,244.817354 C179.852726,244.263529 179.359157,243.766635 178.811964,243.338036 C178.030607,242.736688 177.167615,242.32777 176.386257,241.762503 C175.171764,240.995845 173.698948,240.796414 172.333713,241.213756 C170.968478,241.631098 169.838954,242.626044 169.225757,243.951412 C167.756179,247.054422 168.334899,250.774981 170.671852,253.248264 Z" id="Path" fill="#FFC543"></path>
                <path d="M198.673108,269.082143 C198.976038,270.153265 199.60853,271.118962 200.493068,271.86088 C201.081802,272.311381 201.762313,272.646749 202.493818,272.846883 C204.634747,273.390065 206.890311,272.45188 207.88138,270.605966 C208.593303,269.329602 208.716856,267.839118 208.223696,266.476423 C207.730536,265.113727 206.662989,263.995773 205.265941,263.379009 C204.238869,262.967374 203.092813,262.888454 202.011709,263.154918 C200.765112,263.509146 199.725942,264.317553 199.131111,265.395835 C198.491413,266.529123 198.328155,267.843129 198.673108,269.082143 L198.673108,269.082143 Z" id="Path" fill="#FFC543"></path>
                <path d="M109.011889,294.498652 C111.376693,300.103899 116.242572,304.307372 122.182689,305.876472 C123.876182,306.22172 125.63835,305.835507 127.024947,304.815197 C128.411544,303.794887 129.290267,302.237834 129.439588,300.536575 C130.611866,299.258329 131.280706,297.607081 131.324497,295.88307 C131.560111,287.37879 120.851473,283.632718 114.560589,284.028266 C109.424213,284.330744 106.914928,289.577571 109.011889,294.498652 Z" id="Path" fill="#FFC543"></path>
                <path d="M154.995773,229.270602 C156.670526,231.139154 159.460184,231.545743 161.608154,230.234347 C163.819728,228.70385 164.859476,225.989778 164.229062,223.392948 C163.900492,221.665207 162.741113,220.204636 161.122738,219.47964 C159.504363,218.754644 157.630406,218.856347 156.101844,219.752134 C154.607972,220.818869 153.636851,222.458672 153.426391,224.269816 C153.215932,226.080959 153.785577,227.896117 154.995773,229.270602 Z" id="Path" fill="#FFC543"></path>
                <path d="M200.674888,322.687733 C204.073081,321.800918 206.891582,319.482105 208.365877,316.360269 C210.614013,311.675401 209.383454,306.631937 206.437214,302.745232 C202.295912,297.285336 194.510264,295.388253 188.688777,298.488364 C187.07137,299.513229 185.899542,301.087415 185.3994,302.907178 C184.147005,304.915243 183.476278,307.218265 183.458904,309.570102 C183.399743,318.083838 193.540016,324.51541 200.674888,322.687733 Z" id="Path" fill="#FFF9CC"></path>
                <path d="M126.205194,275.36786 C127.083669,276.970868 128.573963,278.18203 130.361398,278.745606 L130.445972,278.745606 C131.628554,279.084798 132.887985,279.084798 134.070568,278.745606 C135.299348,278.387772 136.399933,277.705991 137.248131,276.777196 C138.138153,275.78765 138.77538,274.610894 139.108757,273.341213 C139.428242,272.086387 139.428242,270.775693 139.108757,269.520867 C138.808633,268.289183 138.189235,267.15105 137.308541,266.213006 C136.039013,264.822403 134.216008,264.017796 132.294516,264 L130.421808,264.256243 C129.49986,264.489815 128.663311,264.965625 128.00541,265.630636 C126.742432,266.619995 125.861511,267.990258 125.504439,269.520867 L125.504439,269.625693 C125.095934,271.54854 125.346087,273.547271 126.217276,275.321271 L126.205194,275.36786 Z" id="Path" fill="#FFF9CC"></path>
                <path d="M136.114583,338.466678 C139.977689,339.937822 144.332742,338.273507 146.217668,334.605712 C147.572865,331.97637 147.738934,328.896114 146.674238,326.137248 C146.667871,324.804513 146.526674,323.475813 146.252789,322.171301 C145.670606,319.089883 144.11614,316.274187 141.81586,314.134426 C139.362728,311.883452 135.775813,311.360325 132.778107,312.816331 C129.359682,314.391046 127.509986,318.403651 127.334382,322.346269 C127.053415,328.668456 130.47184,336.273743 136.114583,338.466678 Z" id="Path" fill="#FFF9CC"></path>
                <path d="M150.11208,275.00325 C150.8339,276.284182 152.020028,277.257402 153.439075,277.733056 L153.605425,277.790891 C155.46299,278.349783 157.483539,277.765628 158.726621,276.310318 L158.845442,276.159947 C160.560928,274.124351 160.88672,271.297175 159.677191,268.942155 C159.089894,267.865776 158.154398,267.007944 157.015595,266.501523 C155.910911,265.96017 154.634842,265.852511 153.450957,266.200781 C151.238581,266.958881 149.67425,268.891716 149.434799,271.163014 C149.249563,272.480435 149.486064,273.821416 150.11208,275.00325 L150.11208,275.00325 Z" id="Path" fill="#FFF9CC"></path>
                <path d="M107.149333,230.335606 C112.001141,231.47498 117.084843,231.143372 121.745456,229.383508 C124.558313,228.313866 127.252982,224.787577 126.000197,221.261288 C124.818324,217.946576 122.903691,215.454665 119.67718,214.45555 C117.232039,213.738402 114.614202,213.871068 112.255021,214.831688 C111.983191,214.937476 111.723179,215.066773 111.463167,215.196071 C110.000982,215.39841 108.563437,215.748944 107.17297,216.242203 C104.187277,217.306779 102.211718,220.140612 102.256381,223.294782 C102.374568,226.339145 104.20647,229.689119 107.149333,230.335606 Z" id="Path" fill="#FFF9CC"></path>
                <path d="M77.481345,236.29099 C78.4952486,236.991798 79.7415474,237.184229 80.8973715,236.818431 C82.0708262,236.427754 83.0480749,235.54312 83.6074192,234.365217 C84.2093352,233.124048 84.3673577,231.688042 84.0515027,230.329678 L83.9376351,229.94943 C83.6316396,228.636275 82.8957064,227.486331 81.8652457,226.711186 C80.8524265,226.007247 79.6048191,225.814614 78.4492192,226.183745 C77.2800283,226.577301 76.3072781,227.461579 75.7505583,228.63696 C75.2085809,229.888533 75.0529519,231.29419 75.3064748,232.647966 L75.3634086,233.052747 C75.6553191,234.385984 76.4141282,235.546174 77.481345,236.29099 Z" id="Path" fill="#FFF9CC"></path>
                <path d="M193.586714,249.268372 C195.139103,252.055338 198.19684,253.662759 201.148732,252.737625 C201.488206,252.623546 201.815211,252.476332 202.124855,252.298186 C203.278801,252.349623 204.402848,251.928652 205.229616,251.135409 C206.056383,250.342167 206.511972,249.247555 206.48801,248.111955 C206.624853,246.29752 206.263353,244.480262 205.441323,242.850255 C204.487651,241.216648 203.14852,239.83245 201.536829,238.814358 C200.43419,238.13363 199.118874,237.866747 197.832264,238.062687 C196.4827,238.202262 195.239943,238.848476 194.362909,239.866698 C193.558953,240.79122 192.986944,241.888411 192.692914,243.069975 C192.550703,243.75106 192.47977,244.444671 192.481225,245.139962 C192.513411,246.582575 192.892223,247.997236 193.586714,249.268372 L193.586714,249.268372 Z" id="Path" fill="#FFF9CC"></path>
                <path d="M172.755764,199.989435 L173.361962,200.652829 C174.101185,201.514234 175.0371,202.169971 176.084139,202.560087 L176.667462,202.785167 C178.564112,203.369846 180.615112,202.737678 181.894498,201.174067 C183.271289,199.557123 183.781483,197.336868 183.255586,195.250905 C183.023582,194.500143 182.748589,193.764367 182.43207,193.047489 C181.914659,192.05592 181.163061,191.216337 180.247467,190.607147 C180.121667,190.528821 179.991848,190.457638 179.858584,190.393913 C178.970533,189.865024 178.015909,189.466344 177.022031,189.20928 C176.130741,188.93024 175.179707,188.93024 174.288417,189.20928 C173.376584,189.496728 172.560487,190.04245 171.932248,190.784842 C170.620127,192.370407 170.126196,194.513737 170.605473,196.542155 C170.910092,197.916711 171.671141,199.136801 172.755764,199.989435 L172.755764,199.989435 Z" id="Path" fill="#FCE777"></path>
                <path d="M153.814533,181.720482 C158.680276,188.109931 170.057355,191.788342 173.751058,181.911569 C176.758111,173.885944 169.347028,162.934311 161.616297,163.161226 C160.880364,162.778048 160.106606,162.473829 159.307732,162.253566 C154.465666,160.963733 149.694633,164.737688 149.386825,170.326962 C149.173726,174.411431 151.541485,178.69893 153.814533,181.720482 Z" id="Path" fill="#FCE777"></path>
                <path d="M101.318736,120.635121 C103.41167,124.843293 106.989453,128.079364 111.326798,129.68732 C114.150058,130.543393 117.20059,129.607049 119.097901,127.302024 C121.218352,124.916728 121.591179,121.851622 121.125146,118.619546 C120.689726,116.200607 119.645639,113.939704 118.09593,112.059982 C117.751663,111.506236 117.361889,110.983552 116.930847,110.497613 C114.182608,107.41572 109.938599,106.243564 106.048973,107.49214 C103.638443,108.319963 101.734634,110.238021 100.887656,112.692086 C99.9072202,115.279768 100.064324,118.174535 101.318736,120.635121 Z" id="Path" fill="#FCE777"></path>
                <path d="M215.87009,131.836421 C217.437973,133.681998 219.918236,134.431036 222.222229,133.754765 C224.300413,133.044845 225.868196,131.28979 226.364425,129.117786 C226.816005,127.226383 226.503441,125.229789 225.496647,123.574596 L225.496647,123.492213 C225.09423,121.617452 224.011778,119.965903 222.465207,118.867004 L221.111473,118.231479 C220.39464,117.969965 219.617954,117.929032 218.878389,118.113789 C217.572904,118.24948 216.370064,118.894975 215.522979,119.914443 C214.650566,121.005323 214.0369,122.285938 213.72957,123.656979 C213.434026,125.117583 213.47362,126.62784 213.845274,128.070347 C214.222975,129.468839 214.916297,130.758388 215.87009,131.836421 Z" id="Path" fill="#FCE777"></path>
                <path d="M208.047585,165.786346 C212.715689,170.797552 223.148903,174.443146 226.720003,165.786346 C228.197133,162.367838 227.722755,158.401538 225.482956,155.44331 C224.683852,153.067443 223.500563,150.843986 221.981877,148.864617 C219.388411,145.512115 215.958831,142.928658 212.050484,141.383432 C208.549406,139.85157 203.554534,143.129042 202.877659,147.32088 C201.634315,153.961596 203.551544,160.809379 208.047585,165.786346 L208.047585,165.786346 Z" id="Path" fill="#FCE777"></path>
                <path d="M133.908099,157.476211 C134.246232,158.071095 134.680687,158.60368 135.193159,159.051526 L135.529436,159.539996 C136.471707,160.649812 137.913657,161.181708 139.336574,160.944346 C140.584711,160.775871 141.696361,160.056569 142.375079,158.978256 C143.281291,157.697306 143.580538,156.073009 143.191752,154.545393 C142.816043,153.063329 141.93503,151.765041 140.705703,150.881871 C139.842686,150.276205 138.811345,149.968023 137.763277,150.002626 C136.552849,150.036634 135.408165,150.570099 134.592664,151.480246 C133.93131,152.281944 133.513977,153.262185 133.391674,154.301159 C133.228611,155.388414 133.409449,156.500233 133.908099,157.476211 Z" id="Path" fill="#FCE777"></path>
                <path d="M133.850266,111.488939 C134.225122,111.690555 134.616815,111.859109 135.020904,111.992692 L135.114555,111.992692 L135.114555,111.992692 L135.114555,111.992692 L135.114555,111.992692 L135.114555,111.992692 L135.114555,111.992692 L135.114555,111.992692 C135.313563,112.109844 135.360389,112.19185 135.325269,112.203566 L135.58281,112.414439 L135.641342,112.414439 C135.699874,112.566737 135.910588,112.730749 136.004239,112.859616 C137.444124,114.886345 140.499489,113.960844 141.517944,112.039553 C142.671414,109.796128 142.631904,107.124991 141.412587,104.916717 C140.148298,102.491672 137.713371,100.710963 135.114555,101.038988 C133.806941,101.079958 132.570791,101.645722 131.684585,102.608824 C130.97323,103.462039 130.525753,104.504223 130.396884,105.607913 C129.979881,108.145233 131.432376,110.618797 133.850266,111.488939 L133.850266,111.488939 Z" id="Path" fill="#FFC543"></path>
                <path d="M134.691729,112.388162 C134.83208,112.568162 134.952381,112.628162 134.982456,112.608162 L134.75188,112.408162 L134.691729,112.388162 Z" id="Path" fill="#FFC543"></path>
                <path d="M174.391179,156.807431 C175.037023,157.492773 175.898012,157.914737 176.81779,157.996695 C177.668296,158.032127 178.50716,157.781913 179.210062,157.283136 C179.498093,157.119041 179.760523,156.910534 179.988408,156.664719 C180.903276,156.110279 181.462319,155.089263 181.453532,153.988875 C181.218833,152.568369 180.376944,151.335015 179.164276,150.635151 C178.805139,150.411996 178.420633,150.236216 178.019649,150.111875 C177.351949,149.962708 176.661358,149.962708 175.993658,150.111875 C175.070986,150.405741 174.305241,151.080931 173.876096,151.979019 C173.508283,152.756536 173.365158,153.62812 173.46403,154.488366 C173.525995,155.344622 173.851004,156.157563 174.391179,156.807431 Z" id="Path" fill="#FFC543"></path>
                <path d="M230.16379,146.932817 C230.66935,147.841007 231.378239,148.617293 232.233859,149.199698 C232.537936,149.388605 232.865405,149.542092 233.181178,149.707385 C233.968802,150.233226 234.832984,150.631588 235.74245,150.888052 C237.110442,151.230071 238.553278,150.774891 239.484948,149.707385 C240.458314,148.573036 240.824718,147.031816 240.467353,145.57505 C240.208087,144.618091 239.814236,143.703607 239.297823,142.859516 C238.706051,141.58316 237.795085,140.484475 236.654684,139.671715 C234.794327,138.517076 232.380883,138.880796 230.93568,140.533602 C230.3895,141.231382 229.991401,142.035163 229.766149,142.894936 C229.410364,144.245131 229.551643,145.679766 230.16379,146.932817 Z" id="Path" fill="#FFC543"></path>
                <path d="M215.180756,185.965389 C215.696209,186.981714 216.524447,187.798678 217.53912,188.291648 L218.246629,188.591424 C218.765469,188.855226 219.296101,189.107038 219.826732,189.35885 L218.777261,188.867217 C219.296101,189.13102 219.826732,189.394823 220.357364,189.634643 L219.390435,189.178984 L219.81494,189.418805 C220.987294,190.193732 222.498511,190.193732 223.670865,189.418805 C224.852775,188.572812 225.55646,187.195334 225.557555,185.725568 C225.618058,184.203797 225.24547,182.696596 224.4845,181.384817 C223.1874,179.142494 220.357364,177.34384 217.987209,178.231176 C216.55494,178.71975 215.42394,179.852163 214.921336,181.300879 C214.328947,182.818838 214.423838,184.52503 215.180756,185.965389 L215.180756,185.965389 Z" id="Path" fill="#FFC543"></path>
                <path d="M167.664333,119.248264 C168.657054,120.264194 169.850321,121.04768 171.162949,121.545416 C172.501719,122.042202 173.950284,122.134005 175.337963,121.810009 C177.227216,121.509335 178.67331,119.344479 179.198102,117.43219 L179.256413,117.215705 C179.708566,115.398662 179.353877,113.468358 178.288462,111.94789 C178.002565,111.524486 177.661114,111.144017 177.273864,110.817354 C176.845207,110.263529 176.351638,109.766635 175.804445,109.338036 C175.023088,108.736688 174.160096,108.32777 173.378739,107.762503 C172.164245,106.995845 170.69143,106.796414 169.326195,107.213756 C167.96096,107.631098 166.831436,108.626044 166.218239,109.951412 C164.74866,113.054422 165.32738,116.774981 167.664333,119.248264 L167.664333,119.248264 Z" id="Path" fill="#FFC543"></path>
                <path d="M196.668096,135.082143 C196.971025,136.153265 197.603518,137.118962 198.488055,137.86088 C199.076789,138.311381 199.7573,138.646749 200.488805,138.846883 C202.629734,139.390065 204.885298,138.45188 205.876367,136.605966 C206.588291,135.329602 206.711844,133.839118 206.218684,132.476423 C205.725524,131.113727 204.657976,129.995773 203.260929,129.379009 C202.233857,128.967374 201.0878,128.888454 200.006697,129.154918 C198.7601,129.509146 197.720929,130.317553 197.126099,131.395835 C196.4864,132.529123 196.323142,133.843129 196.668096,135.082143 Z" id="Path" fill="#FFC543"></path>
                <path d="M107.006877,159.498652 C109.37168,165.103899 114.23756,169.307372 120.177677,170.876472 C121.871169,171.22172 123.633338,170.835507 125.019935,169.815197 C126.406532,168.794887 127.285255,167.237834 127.434576,165.536575 C128.606853,164.258329 129.275693,162.607081 129.319485,160.88307 C129.555098,152.37879 118.84646,148.632718 112.555577,149.028266 C107.4192,149.330744 104.909916,154.577571 107.006877,159.498652 Z" id="Path" fill="#FFC543"></path>
                <path d="M152.99076,95.2706019 C154.665513,97.1391543 157.455171,97.5457429 159.603142,96.2343468 C161.814716,94.7038496 162.854464,91.9897778 162.224049,89.3929477 C161.895479,87.6652066 160.736101,86.204636 159.117726,85.4796398 C157.499351,84.7546435 155.625394,84.8563468 154.096831,85.7521335 C152.60296,86.8188686 151.631839,88.4586722 151.421379,90.2698158 C151.210919,92.0809595 151.780565,93.8961174 152.99076,95.2706019 L152.99076,95.2706019 Z" id="Path" fill="#FFC543"></path>
                <path d="M198.669875,187.687733 C202.068068,186.800918 204.88657,184.482105 206.360865,181.360269 C208.609,176.675401 207.378442,171.631937 204.432201,167.745232 C200.290899,162.285336 192.505252,160.388253 186.683764,163.488364 C185.066358,164.513229 183.89453,166.087415 183.394388,167.907178 C182.141992,169.915243 181.471265,172.218265 181.453892,174.570102 C181.39473,183.083838 191.535004,189.51541 198.669875,187.687733 Z" id="Path" fill="#FFF9CC"></path>
                <path d="M124.200181,141.36786 C125.078656,142.970868 126.56895,144.18203 128.356385,144.745606 L128.440959,144.745606 C129.623542,145.084798 130.882973,145.084798 132.065555,144.745606 C133.294335,144.387772 134.39492,143.705991 135.243118,142.777196 C136.13314,141.78765 136.770368,140.610894 137.103744,139.341213 C137.42323,138.086387 137.42323,136.775693 137.103744,135.520867 C136.803621,134.289183 136.184222,133.15105 135.303528,132.213006 C134.034001,130.822403 132.210995,130.017796 130.289503,130 L128.416795,130.256243 C127.494847,130.489815 126.658299,130.965625 126.000398,131.630636 C124.73742,132.619995 123.856498,133.990258 123.499426,135.520867 L123.499426,135.625693 C123.090921,137.54854 123.341075,139.547271 124.212263,141.321271 L124.200181,141.36786 Z" id="Path" fill="#FFF9CC"></path>
                <path d="M134.109571,204.466678 C137.972677,205.937822 142.327729,204.273507 144.212655,200.605712 C145.567852,197.97637 145.733922,194.896114 144.669226,192.137248 C144.662859,190.804513 144.521662,189.475813 144.247776,188.171301 C143.665593,185.089883 142.111128,182.274187 139.810848,180.134426 C137.357715,177.883452 133.7708,177.360325 130.773094,178.816331 C127.354669,180.391046 125.504973,184.403651 125.329369,188.346269 C125.048403,194.668456 128.466828,202.273743 134.109571,204.466678 Z" id="Path" fill="#FFF9CC"></path>
                <path d="M147.104561,141.00325 C147.826381,142.284182 149.012509,143.257402 150.431556,143.733056 L150.597906,143.790891 C152.455471,144.349783 154.47602,143.765628 155.719102,142.310318 L155.837923,142.159947 C157.553409,140.124351 157.879201,137.297175 156.669672,134.942155 C156.082375,133.865776 155.146879,133.007944 154.008076,132.501523 C152.903393,131.96017 151.627323,131.852511 150.443438,132.200781 C148.231062,132.958881 146.666731,134.891716 146.42728,137.163014 C146.242044,138.480435 146.478546,139.821416 147.104561,141.00325 Z" id="Path" fill="#FFF9CC"></path>
                <path d="M105.14432,96.3356056 C109.996128,97.4749798 115.079831,97.1433724 119.740444,95.3835075 C122.5533,94.3138665 125.247969,90.7875773 123.995184,87.2612881 C122.813312,83.9465763 120.898679,81.4546653 117.672167,80.45555 C115.227027,79.7384024 112.609189,79.8710682 110.250009,80.8316876 C109.978178,80.9374762 109.718166,81.0667735 109.458154,81.1960708 C107.995969,81.3984098 106.558424,81.7489443 105.167958,82.2422032 C102.182265,83.3067794 100.206705,86.1406118 100.251369,89.2947815 C100.369556,92.3391445 102.201458,95.6891192 105.14432,96.3356056 Z" id="Path" fill="#FFF9CC"></path>
                <path d="M75.4763325,102.29099 C76.4902361,102.991798 77.7365349,103.184229 78.892359,102.818431 C80.0658137,102.427754 81.0430624,101.54312 81.6024067,100.365217 C82.2043226,99.1240475 82.3623452,97.6880422 82.0464901,96.3296782 L81.9326226,95.9494299 C81.6266271,94.6362748 80.8906939,93.4863312 79.8602332,92.7111864 C78.847414,92.0072472 77.5998066,91.8146142 76.4442067,92.1837452 C75.2750158,92.5773014 74.3022656,93.4615789 73.7455458,94.63696 C73.2035684,95.8885334 73.0479394,97.2941901 73.3014623,98.6479662 L73.3583961,99.0527467 C73.6503066,100.385984 74.4091157,101.546174 75.4763325,102.29099 Z" id="Path" fill="#FFF9CC"></path>
                <path d="M191.581702,115.276983 C193.134091,118.057518 196.191827,119.661229 199.143719,118.73823 C199.483193,118.624415 199.810199,118.477541 200.119843,118.299805 C201.288526,118.352475 202.426118,117.921673 203.255606,117.112303 C204.085095,116.302932 204.530367,115.18926 204.482997,114.042471 C204.61984,112.232223 204.258341,110.419159 203.43631,108.792913 C202.476628,107.179896 201.13796,105.815192 199.531816,104.812479 C198.429177,104.133322 197.113861,103.867055 195.827251,104.062542 C194.477687,104.201795 193.234931,104.846518 192.357896,105.862391 C191.553941,106.784779 190.981932,107.879439 190.687902,109.058276 C190.54569,109.737789 190.474757,110.4298 190.476212,111.123486 C190.502831,112.574523 190.881811,113.998411 191.581702,115.276983 L191.581702,115.276983 Z" id="Path" fill="#FFF9CC"></path>
                <path d="M296.064034,234.989435 L296.670233,235.652829 C297.409455,236.514234 298.345371,237.169971 299.392409,237.560087 L299.975733,237.785167 C301.872383,238.369846 303.923383,237.737678 305.202768,236.174067 C306.579559,234.557123 307.089753,232.336868 306.563856,230.250905 C306.331852,229.500143 306.05686,228.764367 305.740341,228.047489 C305.22293,227.05592 304.471332,226.216337 303.555737,225.607147 C303.429937,225.528821 303.300118,225.457638 303.166855,225.393913 C302.278804,224.865024 301.32418,224.466344 300.330302,224.20928 C299.439012,223.93024 298.487978,223.93024 297.596688,224.20928 C296.684855,224.496728 295.868757,225.04245 295.240519,225.784842 C293.928398,227.370407 293.434467,229.513737 293.913744,231.542155 C294.218363,232.916711 294.979412,234.136801 296.064034,234.989435 L296.064034,234.989435 Z" id="Path" fill="#FCE777"></path>
                <path d="M276.121453,215.720482 C280.986924,222.109931 292.363365,225.788342 296.056861,215.911569 C299.063746,207.885944 291.653077,196.934311 283.922779,197.161226 C283.186888,196.778048 282.413174,196.473829 281.614344,196.253566 C276.77255,194.963733 272.001784,198.737688 271.693993,204.326962 C271.469069,208.44726 273.848532,212.734759 276.121453,215.720482 Z" id="Path" fill="#FCE777"></path>
                <path d="M224.627007,155.635121 C226.719941,159.843293 230.297724,163.079364 234.635069,164.68732 C237.458328,165.543393 240.508861,164.607049 242.406172,162.302024 C244.526623,159.916728 244.89945,156.851622 244.433416,153.619546 C243.997997,151.200607 242.953909,148.939704 241.404201,147.059982 C241.059933,146.506236 240.67016,145.983552 240.239118,145.497613 C237.490879,142.41572 233.24687,141.243564 229.357244,142.49214 C226.946714,143.319963 225.042904,145.238021 224.195926,147.692086 C223.215491,150.279768 223.372594,153.174535 224.627007,155.635121 Z" id="Path" fill="#FCE777"></path>
                <path d="M339.178361,165.831636 C340.746244,167.681295 343.226507,168.43199 345.5305,167.754223 C347.60276,167.047071 349.169357,165.298389 349.672696,163.130579 C350.124275,161.234993 349.811711,159.233983 348.804918,157.57513 L348.804918,157.50436 C348.402501,155.625452 347.320048,153.970251 345.773478,152.868921 L344.419743,152.231991 C343.702911,151.969899 342.926225,151.928875 342.18666,152.114041 C340.881175,152.250032 339.678334,152.896954 338.83125,153.918677 C337.958837,155.011969 337.345171,156.295417 337.037841,157.66949 C336.742297,159.133324 336.781891,160.646921 337.153544,162.092618 C337.536195,163.48163 338.229245,164.761413 339.178361,165.831636 Z" id="Path" fill="#FCE777"></path>
                <path d="M331.355855,199.786346 C336.02396,204.797552 346.457174,208.443146 350.028274,199.786346 C351.505403,196.367838 351.031026,192.401538 348.791226,189.44331 C347.992123,187.067443 346.808833,184.843986 345.290148,182.864617 C342.696682,179.512115 339.267101,176.928658 335.358755,175.383432 C331.857676,173.85157 326.862804,177.129042 326.185929,181.32088 C324.942586,187.961596 326.859815,194.809379 331.355855,199.786346 L331.355855,199.786346 Z" id="Path" fill="#FCE777"></path>
                <path d="M258.218876,192.476211 C258.557009,193.071095 258.991464,193.60368 259.503936,194.051526 L259.840213,194.539996 C260.782484,195.649812 262.224434,196.181708 263.647351,195.944346 C264.895488,195.775871 266.007138,195.056569 266.685856,193.978256 C267.592068,192.697306 267.891315,191.073009 267.502529,189.545393 C267.12682,188.063329 266.245807,186.765041 265.01648,185.881871 C264.153463,185.276205 263.122122,184.968023 262.074054,185.002626 C260.863626,185.036634 259.718942,185.570099 258.903441,186.480246 C258.242087,187.281944 257.824754,188.262185 257.702451,189.301159 C257.539388,190.388414 257.720226,191.500233 258.218876,192.476211 Z" id="Path" fill="#FCE777"></path>
                <path d="M257.158536,145.488939 C257.533393,145.690555 257.925086,145.859109 258.329174,145.992692 L258.422825,145.992692 L258.422825,145.992692 L258.422825,145.992692 L258.422825,145.992692 L258.422825,145.992692 L258.422825,145.992692 L258.422825,145.992692 C258.621834,146.109844 258.668659,146.19185 258.63354,146.203566 L258.89108,146.414439 L258.949612,146.414439 C259.008144,146.566737 259.218859,146.730749 259.31251,146.859616 C260.752395,148.886345 263.80776,147.960844 264.826215,146.039553 C265.979685,143.796128 265.940175,141.124991 264.720857,138.916717 C263.456568,136.491672 261.021641,134.710963 258.422825,135.038988 C257.115211,135.079958 255.879061,135.645722 254.992856,136.608824 C254.281501,137.462039 253.834024,138.504223 253.705154,139.607913 C253.288151,142.145233 254.740646,144.618797 257.158536,145.488939 Z" id="Path" fill="#FFC543"></path>
                <path d="M259.002506,146.388162 C259.142857,146.568162 259.263158,146.628162 259.293233,146.608162 L259.062657,146.408162 L259.002506,146.388162 Z" id="Path" fill="#FFC543"></path>
                <path d="M297.699449,190.807431 C298.345294,191.492773 299.206283,191.914737 300.12606,191.996695 C300.976567,192.032127 301.815431,191.781913 302.518332,191.283136 C302.806364,191.119041 303.068794,190.910534 303.296679,190.664719 C304.211546,190.110279 304.77059,189.089263 304.761803,187.988875 C304.527104,186.568369 303.685214,185.335015 302.472547,184.635151 C302.113409,184.411996 301.728903,184.236216 301.327919,184.111875 C300.660219,183.962708 299.969628,183.962708 299.301928,184.111875 C298.379257,184.405741 297.613512,185.080931 297.184367,185.979019 C296.816554,186.756536 296.673429,187.62812 296.772301,188.488366 C296.834266,189.344622 297.159275,190.157563 297.699449,190.807431 L297.699449,190.807431 Z" id="Path" fill="#FFC543"></path>
                <path d="M353.47206,181.932817 C353.977621,182.841007 354.686509,183.617293 355.542129,184.199698 C355.846207,184.388605 356.173676,184.542092 356.489449,184.707385 C357.277072,185.233226 358.141254,185.631588 359.050721,185.888052 C360.418713,186.230071 361.861548,185.774891 362.793218,184.707385 C363.766585,183.573036 364.132989,182.031816 363.775624,180.57505 C363.516358,179.618091 363.122506,178.703607 362.606094,177.859516 C362.014321,176.58316 361.103355,175.484475 359.962955,174.671715 C358.102597,173.517076 355.689153,173.880796 354.24395,175.533602 C353.697771,176.231382 353.299671,177.035163 353.07442,177.894936 C352.718634,179.245131 352.859914,180.679766 353.47206,181.932817 Z" id="Path" fill="#FFC543"></path>
                <path d="M337.482689,219.981451 C337.997163,220.99373 338.82383,221.807441 339.836577,222.298449 L340.542743,222.597031 C341.060598,222.859784 341.590223,223.110593 342.119847,223.361402 L341.072367,222.871727 C341.590223,223.13448 342.119847,223.397232 342.649472,223.636098 L341.684378,223.182253 L342.108078,223.421118 C343.278206,224.192961 344.786555,224.192961 345.956683,223.421118 C347.158961,222.574141 347.872305,221.179999 347.863332,219.694812 C347.923719,218.1791 347.551839,216.677898 346.792313,215.371341 C345.497675,213.137946 342.673011,211.346453 340.307354,212.230256 C338.877804,212.716885 337.74895,213.84479 337.247301,215.287738 C336.634069,216.80999 336.720339,218.530238 337.482689,219.981451 Z" id="Path" fill="#FFC543"></path>
                <path d="M290.972604,153.248264 C291.965325,154.264194 293.158592,155.04768 294.471219,155.545416 C295.80999,156.042202 297.258555,156.134005 298.646234,155.810009 C300.535486,155.509335 301.981581,153.344479 302.506373,151.43219 L302.564683,151.215705 C303.016837,149.398662 302.662147,147.468358 301.596733,145.94789 C301.310836,145.524486 300.969384,145.144017 300.582135,144.817354 C300.153478,144.263529 299.659909,143.766635 299.112716,143.338036 C298.331359,142.736688 297.468367,142.32777 296.687009,141.762503 C295.472516,140.995845 293.9997,140.796414 292.634465,141.213756 C291.26923,141.631098 290.139706,142.626044 289.526509,143.951412 C288.056931,147.054422 288.635651,150.774981 290.972604,153.248264 L290.972604,153.248264 Z" id="Path" fill="#FFC543"></path>
                <path d="M319.976366,169.082143 C320.279296,170.153265 320.911788,171.118962 321.796326,171.86088 C322.38506,172.311381 323.065571,172.646749 323.797076,172.846883 C325.938005,173.390065 328.193569,172.45188 329.184638,170.605966 C329.896562,169.329602 330.020115,167.839118 329.526955,166.476423 C329.033795,165.113727 327.966247,163.995773 326.5692,163.379009 C325.542127,162.967374 324.396071,162.888454 323.314967,163.154918 C322.06837,163.509146 321.0292,164.317553 320.434369,165.395835 C319.794671,166.529123 319.631413,167.843129 319.976366,169.082143 Z" id="Path" fill="#FFC543"></path>
                <path d="M230.313652,194.498652 C232.678614,200.103899 237.544819,204.307372 243.485335,205.876472 C245.178941,206.22172 246.941227,205.835507 248.327917,204.815197 C249.714607,203.794887 250.593389,202.237834 250.74272,200.536575 C251.915076,199.258329 252.583961,197.607081 252.627755,195.88307 C252.863384,187.37879 242.154029,183.632718 235.862724,184.028266 C230.737785,184.330744 228.216551,189.577571 230.313652,194.498652 Z" id="Path" fill="#FFC543"></path>
                <path d="M276.30849,129.273058 C277.981561,131.138957 280.768416,131.544968 282.914228,130.235434 C285.123581,128.707111 286.162284,125.996895 285.532503,123.403753 C285.208992,121.672659 284.050134,120.207491 282.42941,119.480449 C280.808687,118.753406 278.930979,118.856397 277.40144,119.756229 C275.907043,120.82329 274.936629,122.464129 274.728585,124.27567 C274.520541,126.08721 275.094145,127.901575 276.30849,129.273058 L276.30849,129.273058 Z" id="Path" fill="#FFC543"></path>
                <path d="M320.975678,222.687715 C324.373856,221.800901 327.192346,219.482089 328.666634,216.360256 C330.91476,211.67539 329.684207,206.631931 326.737979,202.745228 C322.596695,197.285336 314.811082,195.388254 308.98962,198.488363 C307.37222,199.513228 306.200397,201.087412 305.700257,202.907174 C304.445804,204.918599 303.775,207.225891 303.75977,209.581661 C303.688776,218.083823 313.817173,224.515391 320.975678,222.687715 Z" id="Path" fill="#FFF9CC"></path>
                <path d="M248.510958,175.36786 C249.389433,176.970868 250.879727,178.18203 252.667162,178.745606 L252.751736,178.745606 C253.934319,179.084798 255.19375,179.084798 256.376332,178.745606 C257.605112,178.387772 258.705697,177.705991 259.553895,176.777196 C260.443917,175.78765 261.081145,174.610894 261.414521,173.341213 C261.734007,172.086387 261.734007,170.775693 261.414521,169.520867 C261.114398,168.289183 260.494999,167.15105 259.614305,166.213006 C258.344778,164.822403 256.521772,164.017796 254.60028,164 L252.727572,164.256243 C251.805624,164.489815 250.969076,164.965625 250.311175,165.630636 C249.048197,166.619995 248.167275,167.990258 247.810203,169.520867 L247.810203,169.625693 C247.401698,171.54854 247.651852,173.547271 248.52304,175.321271 L248.510958,175.36786 Z" id="Path" fill="#FFF9CC"></path>
                <path d="M258.41961,239.466678 C262.282969,240.937822 266.638307,239.273507 268.523357,235.605712 C269.878642,232.97637 270.044723,229.896114 268.979957,227.137248 C268.97359,225.804513 268.832384,224.475813 268.55848,223.171301 C267.976259,220.089883 266.421692,217.274187 264.121261,215.134426 C261.667967,212.883452 258.080818,212.360325 255.082915,213.816331 C251.664266,215.391046 249.814449,219.403651 249.638833,223.346269 C249.369556,229.668456 252.799913,237.273743 258.41961,239.466678 Z" id="Path" fill="#FFF9CC"></path>
                <path d="M270.418119,175.994559 C271.139567,177.279206 272.325086,178.255249 273.743404,178.732282 L273.909668,178.790284 C275.766279,179.350797 277.78579,178.764948 279.028233,177.305417 L279.146993,177.154611 C280.861598,175.113111 281.187223,172.277736 279.978314,169.915886 C279.382105,168.847493 278.443353,167.9998 277.30621,167.502977 C276.202094,166.960055 274.92668,166.852083 273.743404,167.201364 C271.532165,167.961662 269.968638,169.900103 269.72931,172.177987 C269.555271,173.48902 269.79561,174.820693 270.418119,175.994559 Z" id="Path" fill="#FFF9CC"></path>
                <path d="M228.452591,131.335606 C233.304399,132.47498 238.388101,132.143372 243.048714,130.383508 C245.861571,129.313866 248.55624,125.787577 247.303455,122.261288 C246.121583,118.946576 244.206949,116.454665 240.980438,115.45555 C238.535297,114.738402 235.91746,114.871068 233.558279,115.831688 C233.286449,115.937476 233.026437,116.066773 232.766425,116.196071 C231.30424,116.39841 229.866695,116.748944 228.476228,117.242203 C225.490536,118.306779 223.514976,121.140612 223.559639,124.294782 C223.64237,127.339145 225.486091,130.689119 228.452591,131.335606 Z" id="Path" fill="#FFF9CC"></path>
                <path d="M198.784603,137.28861 C199.798507,137.99177 201.044806,138.184847 202.20063,137.817822 C203.374084,137.425833 204.351333,136.538229 204.910677,135.356373 C205.512593,134.111038 205.670616,132.670212 205.354761,131.307289 L205.240893,130.925765 C204.927476,129.621749 204.19228,128.4822 203.168504,127.713574 C202.155685,127.007272 200.908077,126.813992 199.752477,127.184362 C198.583286,127.579239 197.610536,128.466485 197.053816,129.645811 C196.511839,130.901585 196.35621,132.31196 196.609733,133.67028 L196.666667,134.076419 C196.96654,135.400527 197.72449,136.55008 198.784603,137.28861 Z" id="Path" fill="#FFF9CC"></path>
                <path d="M314.889972,149.268372 C316.442362,152.055338 319.500098,153.662759 322.45199,152.737625 C322.791464,152.623546 323.118469,152.476332 323.428113,152.298186 C324.582059,152.349623 325.706106,151.928652 326.532874,151.135409 C327.359641,150.342167 327.81523,149.247555 327.791268,148.111955 C327.928111,146.29752 327.566612,144.480262 326.744581,142.850255 C325.790909,141.216648 324.451778,139.83245 322.840087,138.814358 C321.737448,138.13363 320.422132,137.866747 319.135522,138.062687 C317.785958,138.202262 316.543201,138.848476 315.666167,139.866698 C314.862212,140.79122 314.290202,141.888411 313.996173,143.069975 C313.853961,143.75106 313.783028,144.444671 313.784483,145.139962 C313.816669,146.582575 314.195481,147.997236 314.889972,149.268372 L314.889972,149.268372 Z" id="Path" fill="#FFF9CC"></path>
                <ellipse id="Oval" fill="#CC4E23" cx="156.892231" cy="217.5" rx="17.5438596" ry="17.5"></ellipse>
                <path d="M174.43609,215.859324 C169.779518,217.459417 163.248676,220.8848 162.561831,217.672762 C161.828421,213.879951 163.982086,212.647287 154.890128,206.863248 C151.583962,204.729792 149.581636,203.307487 148.370927,202.371137 C151.013584,200.793207 154.026879,199.973998 157.090359,200.000629 C166.011349,199.9753 173.504612,206.826172 174.43609,215.859324 L174.43609,215.859324 Z" id="Path" fill="#C62C2C"></path>
                <ellipse id="Oval" fill="#C62C2C" cx="147.869674" cy="207.5" rx="3.50877193" ry="1.5"></ellipse>
                <ellipse id="Oval" fill="#C62C2C" transform="translate(145.500749, 218.999265) rotate(-60.000000) translate(-145.500749, -218.999265) " cx="145.500749" cy="218.999265" rx="1.58125491" ry="3.31166985"></ellipse>
                <ellipse id="Oval" fill="#C62C2C" transform="translate(153.107579, 229.116043) rotate(-85.530000) translate(-153.107579, -229.116043) " cx="153.107579" cy="229.116043" rx="1.57658757" ry="3.32119155"></ellipse>
                <ellipse id="Oval" fill="#C62C2C" transform="translate(165.251098, 225.190604) rotate(-60.000000) translate(-165.251098, -225.190604) " cx="165.251098" cy="225.190604" rx="1.58125491" ry="3.31166985"></ellipse>
                <ellipse id="Oval" fill="#B51F1F" opacity="0.3" style="mix-blend-mode: multiply;" transform="translate(166.318928, 211.155989) rotate(-60.000000) translate(-166.318928, -211.155989) " cx="166.318928" cy="211.155989" rx="1.58125491" ry="3.31166985"></ellipse>
                <ellipse id="Oval" fill="#C62C2C" transform="translate(155.110861, 216.866929) rotate(-60.000000) translate(-155.110861, -216.866929) " cx="155.110861" cy="216.866929" rx="1.58125491" ry="3.31166985"></ellipse>
                <ellipse id="Oval" fill="#CC4E23" cx="167.919799" cy="148.5" rx="17.5438596" ry="17.5"></ellipse>
                <path d="M184.461153,146.859324 C179.804581,148.459417 173.273738,151.8848 172.586894,148.672762 C171.853484,144.879951 174.007148,143.647287 164.915191,137.863248 C161.609025,135.729792 159.606699,134.307487 158.39599,133.371137 C161.038647,131.793207 164.051942,130.973998 167.115421,131.000629 C176.036412,130.9753 183.529675,137.826172 184.461153,146.859324 L184.461153,146.859324 Z" id="Path" fill="#C62C2C"></path>
                <ellipse id="Oval" fill="#C62C2C" cx="159.899749" cy="137.5" rx="3.50877193" ry="1.5"></ellipse>
                <ellipse id="Oval" fill="#C62C2C" transform="translate(156.466890, 149.480331) rotate(-60.000000) translate(-156.466890, -149.480331) " cx="156.46689" cy="149.480331" rx="1.58125491" ry="3.31166985"></ellipse>
                <ellipse id="Oval" fill="#C62C2C" transform="translate(164.057063, 159.577139) rotate(-85.530000) translate(-164.057063, -159.577139) " cx="164.057063" cy="159.577139" rx="1.57658757" ry="3.32119155"></ellipse>
                <ellipse id="Oval" fill="#C62C2C" transform="translate(176.206930, 155.654023) rotate(-60.000000) translate(-176.206930, -155.654023) " cx="176.20693" cy="155.654023" rx="1.58125491" ry="3.31166985"></ellipse>
                <ellipse id="Oval" fill="#B51F1F" opacity="0.3" style="mix-blend-mode: multiply;" transform="translate(177.268808, 141.641361) rotate(-60.000000) translate(-177.268808, -141.641361) " cx="177.268808" cy="141.641361" rx="1.58125491" ry="3.31166985"></ellipse>
                <ellipse id="Oval" fill="#C62C2C" transform="translate(166.071050, 147.346419) rotate(-60.000000) translate(-166.071050, -147.346419) " cx="166.07105" cy="147.346419" rx="1.58125491" ry="3.31166985"></ellipse>
                <ellipse id="Oval" fill="#CC4E23" cx="126.817043" cy="105.5" rx="17.5438596" ry="17.5"></ellipse>
                <ellipse id="Oval" fill="#C62C2C" cx="119.799499" cy="95.5" rx="3.50877193" ry="1.5"></ellipse>
                <ellipse id="Oval" fill="#C62C2C" transform="translate(116.870770, 106.808572) rotate(-60.000000) translate(-116.870770, -106.808572) " cx="116.87077" cy="106.808572" rx="1.58125491" ry="3.31166985"></ellipse>
                <ellipse id="Oval" fill="#C62C2C" transform="translate(124.459605, 116.908967) rotate(-85.530000) translate(-124.459605, -116.908967) " cx="124.459605" cy="116.908967" rx="1.57658757" ry="3.32119155"></ellipse>
                <ellipse id="Oval" fill="#C62C2C" transform="translate(136.622714, 112.982264) rotate(-60.000000) translate(-136.622714, -112.982264) " cx="136.622714" cy="112.982264" rx="1.58125491" ry="3.31166985"></ellipse>
                <ellipse id="Oval" fill="#B51F1F" opacity="0.3" style="mix-blend-mode: multiply;" transform="translate(137.684592, 98.969602) rotate(-60.000000) translate(-137.684592, -98.969602) " cx="137.684592" cy="98.9696024" rx="1.58125491" ry="3.31166985"></ellipse>
                <ellipse id="Oval" fill="#C62C2C" transform="translate(126.476524, 104.668778) rotate(-60.000000) translate(-126.476524, -104.668778) " cx="126.476524" cy="104.668778" rx="1.58125491" ry="3.31166985"></ellipse>
                <ellipse id="Oval" fill="#CC4E23" cx="238.095238" cy="117.5" rx="17.5438596" ry="17.5"></ellipse>
                <path d="M254.636591,115.859324 C249.980019,117.459417 243.449177,120.8848 242.762332,117.672762 C242.028922,113.879951 244.182587,112.647287 235.09063,106.863248 C231.784463,104.729792 229.782137,103.307487 228.571429,102.371137 C231.214085,100.793207 234.227381,99.9739978 237.29086,100.000629 C246.21185,99.9753002 253.705114,106.826172 254.636591,115.859324 Z" id="Path" fill="#C62C2C"></path>
                <ellipse id="Oval" fill="#C62C2C" cx="230.075188" cy="106.5" rx="3.50877193" ry="1.5"></ellipse>
                <ellipse id="Oval" fill="#C62C2C" transform="translate(227.389356, 118.535868) rotate(-60.000000) translate(-227.389356, -118.535868) " cx="227.389356" cy="118.535868" rx="1.58125491" ry="3.31166985"></ellipse>
                <ellipse id="Oval" fill="#C62C2C" transform="translate(235.001693, 128.637704) rotate(-85.530000) translate(-235.001693, -128.637704) " cx="235.001693" cy="128.637704" rx="1.57658757" ry="3.32119155"></ellipse>
                <ellipse id="Oval" fill="#C62C2C" transform="translate(247.151611, 124.715443) rotate(-60.000000) translate(-247.151611, -124.715443) " cx="247.151611" cy="124.715443" rx="1.58125491" ry="3.31166985"></ellipse>
                <ellipse id="Oval" fill="#B51F1F" opacity="0.3" style="mix-blend-mode: multiply;" transform="translate(248.219441, 110.692592) rotate(-60.000000) translate(-248.219441, -110.692592) " cx="248.219441" cy="110.692592" rx="1.58125491" ry="3.31166985"></ellipse>
                <ellipse id="Oval" fill="#C62C2C" transform="translate(237.011373, 116.403532) rotate(-60.000000) translate(-237.011373, -116.403532) " cx="237.011373" cy="116.403532" rx="1.58125491" ry="3.31166985"></ellipse>
                <ellipse id="Oval" fill="#CC4E23" cx="89.7243108" cy="145.5" rx="17.5438596" ry="17.5"></ellipse>
                <path d="M107.26817,143.859324 C102.611598,145.459417 96.0807557,148.8848 95.3939113,145.672762 C94.6605012,141.879951 96.8141658,140.647287 87.7222086,134.863248 C84.4160423,132.729792 82.4137163,131.307487 81.2030075,130.371137 C83.845664,128.793207 86.8589595,127.973998 89.922439,128.000629 C98.8434293,127.9753 106.336692,134.826172 107.26817,143.859324 Z" id="Path" fill="#C62C2C"></path>
                <ellipse id="Oval" fill="#C62C2C" cx="82.7067669" cy="135.5" rx="3.50877193" ry="1.5"></ellipse>
                <ellipse id="Oval" fill="#C62C2C" transform="translate(79.075751, 146.829332) rotate(-60.000000) translate(-79.075751, -146.829332) " cx="79.0757508" cy="146.829332" rx="1.58125491" ry="3.31166985"></ellipse>
                <ellipse id="Oval" fill="#C62C2C" transform="translate(86.677184, 156.939149) rotate(-85.530000) translate(-86.677184, -156.939149) " cx="86.677184" cy="156.939149" rx="1.57658757" ry="3.32119155"></ellipse>
                <ellipse id="Oval" fill="#C62C2C" transform="translate(98.838005, 153.020672) rotate(-60.000000) translate(-98.838005, -153.020672) " cx="98.8380051" cy="153.020672" rx="1.58125491" ry="3.31166985"></ellipse>
                <ellipse id="Oval" fill="#B51F1F" opacity="0.3" style="mix-blend-mode: multiply;" transform="translate(99.899883, 138.996245) rotate(-60.000000) translate(-99.899883, -138.996245) " cx="99.8998827" cy="138.996245" rx="1.58125491" ry="3.31166985"></ellipse>
                <ellipse id="Oval" fill="#C62C2C" transform="translate(88.691815, 144.707185) rotate(-60.000000) translate(-88.691815, -144.707185) " cx="88.6918151" cy="144.707185" rx="1.58125491" ry="3.31166985"></ellipse>
                <ellipse id="Oval" fill="#CC4E23" cx="192.982456" cy="72.5" rx="17.5438596" ry="17.5"></ellipse>
                <path d="M210.526316,70.8593243 C205.869744,72.4594168 199.338901,75.8848001 198.652057,72.6727625 C197.918647,68.8799505 200.072311,67.6472866 190.980354,61.8632484 C187.674188,59.7297916 185.671862,58.3074871 184.461153,57.3711367 C187.103809,55.7932071 190.117105,54.9739978 193.180584,55.0006292 C202.101575,54.9753002 209.594838,61.8261715 210.526316,70.8593243 L210.526316,70.8593243 Z" id="Path" fill="#C62C2C"></path>
                <ellipse id="Oval" fill="#C62C2C" cx="185.964912" cy="62.5" rx="3.50877193" ry="1.5"></ellipse>
                <ellipse id="Oval" fill="#C62C2C" transform="translate(182.250066, 73.900201) rotate(-60.000000) translate(-182.250066, -73.900201) " cx="182.250066" cy="73.9002011" rx="1.58125491" ry="3.31166985"></ellipse>
                <ellipse id="Oval" fill="#C62C2C" transform="translate(189.858870, 83.999732) rotate(-85.530000) translate(-189.858870, -83.999732) " cx="189.85887" cy="83.9997322" rx="1.57658757" ry="3.32119155"></ellipse>
                <ellipse id="Oval" fill="#C62C2C" transform="translate(202.012321, 80.079776) rotate(-60.000000) translate(-202.012321, -80.079776) " cx="202.012321" cy="80.0797759" rx="1.58125491" ry="3.31166985"></ellipse>
                <ellipse id="Oval" fill="#B51F1F" opacity="0.3" style="mix-blend-mode: multiply;" transform="translate(203.080151, 66.056925) rotate(-60.000000) translate(-203.080151, -66.056925) " cx="203.080151" cy="66.0569254" rx="1.58125491" ry="3.31166985"></ellipse>
                <ellipse id="Oval" fill="#C62C2C" transform="translate(191.872083, 71.756101) rotate(-60.000000) translate(-191.872083, -71.756101) " cx="191.872083" cy="71.7561008" rx="1.58125491" ry="3.31166985"></ellipse>
                <ellipse id="Oval" fill="#CC4E23" cx="285.213033" cy="184.5" rx="17.5438596" ry="17.5"></ellipse>
                <path d="M301.754386,182.859324 C297.097814,184.459417 290.566971,187.8848 289.880127,184.672762 C289.146717,180.879951 291.300381,179.647287 282.208424,173.863248 C278.902258,171.729792 276.899932,170.307487 275.689223,169.371137 C278.33188,167.793207 281.345175,166.973998 284.408655,167.000629 C293.329645,166.9753 300.822908,173.826172 301.754386,182.859324 L301.754386,182.859324 Z" id="Path" fill="#C62C2C"></path>
                <ellipse id="Oval" fill="#C62C2C" cx="277.192982" cy="174.5" rx="3.50877193" ry="1.5"></ellipse>
                <ellipse id="Oval" fill="#C62C2C" transform="translate(273.860082, 185.653948) rotate(-60.000000) translate(-273.860082, -185.653948) " cx="273.860082" cy="185.653948" rx="1.58125491" ry="3.31166985"></ellipse>
                <ellipse id="Oval" fill="#C62C2C" transform="translate(281.476817, 195.762221) rotate(-85.530000) translate(-281.476817, -195.762221) " cx="281.476817" cy="195.762221" rx="1.57658757" ry="3.32119155"></ellipse>
                <ellipse id="Oval" fill="#C62C2C" transform="translate(293.622336, 191.845288) rotate(-60.000000) translate(-293.622336, -191.845288) " cx="293.622336" cy="191.845288" rx="1.58125491" ry="3.31166985"></ellipse>
                <ellipse id="Oval" fill="#B51F1F" opacity="0.3" style="mix-blend-mode: multiply;" transform="translate(294.690166, 177.822437) rotate(-60.000000) translate(-294.690166, -177.822437) " cx="294.690166" cy="177.822437" rx="1.58125491" ry="3.31166985"></ellipse>
                <ellipse id="Oval" fill="#C62C2C" transform="translate(283.476146, 183.531801) rotate(-60.000000) translate(-283.476146, -183.531801) " cx="283.476146" cy="183.531801" rx="1.58125491" ry="3.31166985"></ellipse>
                <ellipse id="Oval" fill="#CC4E23" cx="344.360902" cy="182.5" rx="17.5438596" ry="17.5"></ellipse>
                <path d="M361.904762,180.859324 C357.24819,182.459417 350.717347,185.8848 350.030503,182.672762 C349.297093,178.879951 351.450757,177.647287 342.3588,171.863248 C339.052634,169.729792 337.050308,168.307487 335.839599,167.371137 C338.482256,165.793207 341.495551,164.973998 344.55903,165.000629 C353.480021,164.9753 360.973284,171.826172 361.904762,180.859324 Z" id="Path" fill="#C62C2C"></path>
                <ellipse id="Oval" fill="#C62C2C" cx="337.343358" cy="172.5" rx="3.50877193" ry="1.5"></ellipse>
                <ellipse id="Oval" fill="#C62C2C" transform="translate(334.241523, 184.293774) rotate(-60.000000) translate(-334.241523, -184.293774) " cx="334.241523" cy="184.293774" rx="1.58125491" ry="3.31166985"></ellipse>
                <ellipse id="Oval" fill="#C62C2C" transform="translate(341.852672, 194.402031) rotate(-85.530000) translate(-341.852672, -194.402031) " cx="341.852672" cy="194.402031" rx="1.57658757" ry="3.32119155"></ellipse>
                <ellipse id="Oval" fill="#C62C2C" transform="translate(353.991873, 190.485113) rotate(-60.000000) translate(-353.991873, -190.485113) " cx="353.991873" cy="190.485113" rx="1.58125491" ry="3.31166985"></ellipse>
                <ellipse id="Oval" fill="#B51F1F" opacity="0.3" style="mix-blend-mode: multiply;" transform="translate(355.059703, 176.450498) rotate(-60.000000) translate(-355.059703, -176.450498) " cx="355.059703" cy="176.450498" rx="1.58125491" ry="3.31166985"></ellipse>
                <ellipse id="Oval" fill="#C62C2C" transform="translate(343.851635, 182.161438) rotate(-60.000000) translate(-343.851635, -182.161438) " cx="343.851635" cy="182.161438" rx="1.58125491" ry="3.31166985"></ellipse>
                <ellipse id="Oval" fill="#CC4E23" cx="300.250627" cy="116.5" rx="17.5438596" ry="17.5"></ellipse>
                <ellipse id="Oval" fill="#C62C2C" cx="293.233083" cy="106.5" rx="3.50877193" ry="1.5"></ellipse>
                <ellipse id="Oval" fill="#C62C2C" transform="translate(289.872143, 117.072588) rotate(-60.113473) translate(-289.872143, -117.072588) " cx="289.872143" cy="117.072588" rx="1.58666817" ry="3.3231426"></ellipse>
                <ellipse id="Oval" fill="#C62C2C" transform="translate(297.997143, 127.688000) rotate(-85.426079) translate(-297.997143, -127.688000) " cx="297.997143" cy="127.688" rx="1.58163011" ry="3.33179125"></ellipse>
                <ellipse id="Oval" fill="#C62C2C" transform="translate(309.148650, 124.394733) rotate(-60.000000) translate(-309.148650, -124.394733) " cx="309.14865" cy="124.394733" rx="1.58125491" ry="3.31166985"></ellipse>
                <ellipse id="Oval" fill="#B51F1F" opacity="0.3" style="mix-blend-mode: multiply;" transform="translate(310.216480, 110.360118) rotate(-60.000000) translate(-310.216480, -110.360118) " cx="310.21648" cy="110.360118" rx="1.58125491" ry="3.31166985"></ellipse>
                <ellipse id="Oval" fill="#C62C2C" transform="translate(299.018722, 116.076940) rotate(-60.000000) translate(-299.018722, -116.076940) " cx="299.018722" cy="116.07694" rx="1.58125491" ry="3.31166985"></ellipse>
                <ellipse id="Oval" fill="#CC4E23" cx="216.0401" cy="164.5" rx="15.5388471" ry="15.5"></ellipse>
                <ellipse id="Oval" fill="#C62C2C" cx="209.52381" cy="155.5" rx="3.0075188" ry="1.5"></ellipse>
                <ellipse id="Oval" fill="#C62C2C" transform="translate(207.550119, 164.878118) rotate(-60.113473) translate(-207.550119, -164.878118) " cx="207.550119" cy="164.878118" rx="1.40905555" ry="2.94199368"></ellipse>
                <ellipse id="Oval" fill="#C62C2C" transform="translate(213.624130, 174.641882) rotate(-85.530000) translate(-213.624130, -174.641882) " cx="213.62413" cy="174.641882" rx="1.40010387" ry="2.94026635"></ellipse>
                <ellipse id="Oval" fill="#C62C2C" transform="translate(224.408376, 171.165354) rotate(-60.000000) translate(-224.408376, -171.165354) " cx="224.408376" cy="171.165354" rx="1.40424825" ry="2.93183681"></ellipse>
                <ellipse id="Oval" fill="#B51F1F" opacity="0.3" style="mix-blend-mode: multiply;" transform="translate(225.362080, 158.731048) rotate(-60.000000) translate(-225.362080, -158.731048) " cx="225.36208" cy="158.731048" rx="1.40424825" ry="2.93183681"></ellipse>
                <ellipse id="Oval" fill="#C62C2C" transform="translate(215.408401, 163.791416) rotate(-60.000000) translate(-215.408401, -163.791416) " cx="215.408401" cy="163.791416" rx="1.40424825" ry="2.93183681"></ellipse>
                <ellipse id="Oval" fill="#CC4E23" cx="317.293233" cy="245.5" rx="17.5438596" ry="17.5"></ellipse>
                <path d="M334.837093,242.859324 C330.180521,244.459417 323.649678,247.8848 322.962834,244.672762 C322.229423,240.879951 324.383088,239.647287 315.291131,233.863248 C311.984965,231.729792 309.982639,230.307487 308.77193,229.371137 C311.414586,227.793207 314.427882,226.973998 317.491361,227.000629 C326.412352,226.9753 333.905615,233.826172 334.837093,242.859324 Z" id="Path" fill="#C62C2C"></path>
                <ellipse id="Oval" fill="#C62C2C" cx="310.275689" cy="234.5" rx="3.50877193" ry="1.5"></ellipse>
                <ellipse id="Oval" fill="#C62C2C" transform="translate(306.765524, 246.379499) rotate(-60.000000) translate(-306.765524, -246.379499) " cx="306.765524" cy="246.379499" rx="1.58125491" ry="3.31166985"></ellipse>
                <ellipse id="Oval" fill="#C62C2C" transform="translate(314.365447, 256.486453) rotate(-85.530000) translate(-314.365447, -256.486453) " cx="314.365447" cy="256.486453" rx="1.57658757" ry="3.32119155"></ellipse>
                <ellipse id="Oval" fill="#C62C2C" transform="translate(326.505564, 252.553191) rotate(-60.000000) translate(-326.505564, -252.553191) " cx="326.505564" cy="252.553191" rx="1.58125491" ry="3.31166985"></ellipse>
                <ellipse id="Oval" fill="#B51F1F" opacity="0.3" style="mix-blend-mode: multiply;" transform="translate(327.573394, 238.530341) rotate(-60.000000) translate(-327.573394, -238.530341) " cx="327.573394" cy="238.530341" rx="1.58125491" ry="3.31166985"></ellipse>
                <ellipse id="Oval" fill="#C62C2C" transform="translate(316.369683, 244.245587) rotate(-60.000000) translate(-316.369683, -244.245587) " cx="316.369683" cy="244.245587" rx="1.58125491" ry="3.31166985"></ellipse>
                <ellipse id="Oval" fill="#CC4E23" cx="268.170426" cy="297.5" rx="17.5438596" ry="17.5"></ellipse>
                <ellipse id="Oval" fill="#C62C2C" cx="261.152882" cy="286.5" rx="3.50877193" ry="1.5"></ellipse>
                <ellipse id="Oval" fill="#C62C2C" transform="translate(257.254385, 298.400671) rotate(-60.000000) translate(-257.254385, -298.400671) " cx="257.254385" cy="298.400671" rx="1.58125491" ry="3.31166985"></ellipse>
                <ellipse id="Oval" fill="#C62C2C" transform="translate(264.846508, 308.509833) rotate(-85.530000) translate(-264.846508, -308.509833) " cx="264.846508" cy="308.509833" rx="1.57658757" ry="3.32119155"></ellipse>
                <ellipse id="Oval" fill="#C62C2C" transform="translate(276.994425, 304.574364) rotate(-60.000000) translate(-276.994425, -304.574364) " cx="276.994425" cy="304.574364" rx="1.58125491" ry="3.31166985"></ellipse>
                <ellipse id="Oval" fill="#B51F1F" opacity="0.3" style="mix-blend-mode: multiply;" transform="translate(278.062255, 290.551513) rotate(-60.000000) translate(-278.062255, -290.551513) " cx="278.062255" cy="290.551513" rx="1.58125491" ry="3.31166985"></ellipse>
                <ellipse id="Oval" fill="#C62C2C" transform="translate(266.858545, 296.278524) rotate(-60.000000) translate(-266.858545, -296.278524) " cx="266.858545" cy="296.278524" rx="1.58125491" ry="3.31166985"></ellipse>
                <ellipse id="Oval" fill="#CC4E23" cx="254.135338" cy="236.5" rx="17.5438596" ry="17.5"></ellipse>
                <path d="M271.679198,234.859324 C267.022626,236.459417 260.491783,239.8848 259.804939,236.672762 C259.071529,232.879951 261.225193,231.647287 252.133236,225.863248 C248.82707,223.729792 246.824744,222.307487 245.614035,221.371137 C248.256692,219.793207 251.269987,218.973998 254.333467,219.000629 C263.254457,218.9753 270.74772,225.826172 271.679198,234.859324 L271.679198,234.859324 Z" id="Path" fill="#C62C2C"></path>
                <ellipse id="Oval" fill="#C62C2C" cx="246.115288" cy="226.5" rx="3.50877193" ry="1.5"></ellipse>
                <ellipse id="Oval" fill="#C62C2C" transform="translate(243.358513, 237.614220) rotate(-60.000000) translate(-243.358513, -237.614220) " cx="243.358513" cy="237.61422" rx="1.58125491" ry="3.31166985"></ellipse>
                <ellipse id="Oval" fill="#C62C2C" transform="translate(250.962709, 247.719566) rotate(-85.530000) translate(-250.962709, -247.719566) " cx="250.962709" cy="247.719566" rx="1.57658757" ry="3.32119155"></ellipse>
                <ellipse id="Oval" fill="#C62C2C" transform="translate(263.108862, 243.805559) rotate(-60.000000) translate(-263.108862, -243.805559) " cx="263.108862" cy="243.805559" rx="1.58125491" ry="3.31166985"></ellipse>
                <ellipse id="Oval" fill="#B51F1F" opacity="0.3" style="mix-blend-mode: multiply;" transform="translate(264.176692, 229.770944) rotate(-60.000000) translate(-264.176692, -229.770944) " cx="264.176692" cy="229.770944" rx="1.58125491" ry="3.31166985"></ellipse>
                <ellipse id="Oval" fill="#C62C2C" transform="translate(252.968625, 235.481884) rotate(-60.000000) translate(-252.968625, -235.481884) " cx="252.968625" cy="235.481884" rx="1.58125491" ry="3.31166985"></ellipse>
                <ellipse id="Oval" fill="#CC4E23" cx="195.989975" cy="323.5" rx="17.5438596" ry="17.5"></ellipse>
                <path d="M213.533835,321.859324 C208.877262,323.459417 202.34642,326.8848 201.659575,323.672762 C200.926165,319.879951 203.07983,318.647287 193.987873,312.863248 C190.681706,310.729792 188.67938,309.307487 187.468672,308.371137 C190.111328,306.793207 193.124624,305.973998 196.188103,306.000629 C205.109093,305.9753 212.602357,312.826172 213.533835,321.859324 Z" id="Path" fill="#C62C2C"></path>
                <ellipse id="Oval" fill="#C62C2C" cx="188.972431" cy="312.5" rx="3.50877193" ry="1.5"></ellipse>
                <ellipse id="Oval" fill="#C62C2C" transform="translate(186.938571, 323.765765) rotate(-60.113473) translate(-186.938571, -323.765765) " cx="186.938571" cy="323.765765" rx="1.58666817" ry="3.3231426"></ellipse>
                <ellipse id="Oval" fill="#C62C2C" transform="translate(193.220125, 334.598839) rotate(-85.530000) translate(-193.220125, -334.598839) " cx="193.220125" cy="334.598839" rx="1.57658757" ry="3.32119155"></ellipse>
                <ellipse id="Oval" fill="#C62C2C" transform="translate(205.373524, 330.668585) rotate(-60.000000) translate(-205.373524, -330.668585) " cx="205.373524" cy="330.668585" rx="1.58125491" ry="3.31166985"></ellipse>
                <ellipse id="Oval" fill="#B51F1F" opacity="0.3" style="mix-blend-mode: multiply;" transform="translate(206.453259, 316.645735) rotate(-60.000000) translate(-206.453259, -316.645735) " cx="206.453259" cy="316.645735" rx="1.58125491" ry="3.31166985"></ellipse>
                <ellipse id="Oval" fill="#C62C2C" transform="translate(195.249549, 322.372746) rotate(-60.000000) translate(-195.249549, -322.372746) " cx="195.249549" cy="322.372746" rx="1.58125491" ry="3.31166985"></ellipse>
                <ellipse id="Oval" fill="#CC4E23" cx="129.824561" cy="278.5" rx="17.5438596" ry="17.5"></ellipse>
                <path d="M147.368421,276.859324 C142.711849,278.459417 136.181006,281.8848 135.494162,278.672762 C134.760752,274.879951 136.914416,273.647287 127.822459,267.863248 C124.516293,265.729792 122.513967,264.307487 121.303258,263.371137 C123.945915,261.793207 126.95921,260.973998 130.02269,261.000629 C138.94368,260.9753 146.436943,267.826172 147.368421,276.859324 Z" id="Path" fill="#C62C2C"></path>
                <ellipse id="Oval" fill="#C62C2C" cx="121.804511" cy="268.5" rx="3.50877193" ry="1.5"></ellipse>
                <ellipse id="Oval" fill="#C62C2C" transform="translate(119.148216, 279.781785) rotate(-60.000000) translate(-119.148216, -279.781785) " cx="119.148216" cy="279.781785" rx="1.58125491" ry="3.31166985"></ellipse>
                <ellipse id="Oval" fill="#C62C2C" transform="translate(126.760099, 289.891240) rotate(-85.530000) translate(-126.760099, -289.891240) " cx="126.760099" cy="289.89124" rx="1.57658757" ry="3.32119155"></ellipse>
                <ellipse id="Oval" fill="#C62C2C" transform="translate(138.910470, 285.961360) rotate(-60.000000) translate(-138.910470, -285.961360) " cx="138.91047" cy="285.96136" rx="1.58125491" ry="3.31166985"></ellipse>
                <ellipse id="Oval" fill="#B51F1F" opacity="0.3" style="mix-blend-mode: multiply;" transform="translate(139.978300, 271.938509) rotate(-60.000000) translate(-139.978300, -271.938509) " cx="139.9783" cy="271.938509" rx="1.58125491" ry="3.31166985"></ellipse>
                <ellipse id="Oval" fill="#C62C2C" transform="translate(128.770232, 277.649449) rotate(-60.000000) translate(-128.770232, -277.649449) " cx="128.770232" cy="277.649449" rx="1.58125491" ry="3.31166985"></ellipse>
                <ellipse id="Oval" fill="#CC4E23" cx="205.012531" cy="253.5" rx="17.5438596" ry="17.5"></ellipse>
                <ellipse id="Oval" fill="#C62C2C" cx="196.992481" cy="243.5" rx="3.50877193" ry="1.5"></ellipse>
                <ellipse id="Oval" fill="#C62C2C" transform="translate(193.965285, 254.686448) rotate(-60.000000) translate(-193.965285, -254.686448) " cx="193.965285" cy="254.686448" rx="1.58125491" ry="3.31166985"></ellipse>
                <ellipse id="Oval" fill="#C62C2C" transform="translate(201.560631, 264.795644) rotate(-85.530000) translate(-201.560631, -264.795644) " cx="201.560631" cy="264.795644" rx="1.57658757" ry="3.32119155"></ellipse>
                <ellipse id="Oval" fill="#C62C2C" transform="translate(213.717230, 260.871905) rotate(-60.000000) translate(-213.717230, -260.871905) " cx="213.71723" cy="260.871905" rx="1.58125491" ry="3.31166985"></ellipse>
                <ellipse id="Oval" fill="#B51F1F" opacity="0.3" style="mix-blend-mode: multiply;" transform="translate(214.785060, 246.849055) rotate(-60.000000) translate(-214.785060, -246.849055) " cx="214.78506" cy="246.849055" rx="1.58125491" ry="3.31166985"></ellipse>
                <ellipse id="Oval" fill="#C62C2C" transform="translate(203.571040, 252.558419) rotate(-60.000000) translate(-203.571040, -252.558419) " cx="203.57104" cy="252.558419" rx="1.58125491" ry="3.31166985"></ellipse>
                <ellipse id="Oval" fill="#CC4E23" cx="84.7117794" cy="222.5" rx="21.5538847" ry="21.5"></ellipse>
                <ellipse id="Oval" fill="#C62C2C" cx="76.1904762" cy="209" rx="4.01002506" ry="2"></ellipse>
                <ellipse id="Oval" fill="#C62C2C" transform="translate(71.638606, 223.648531) rotate(-60.000000) translate(-71.638606, -223.648531) " cx="71.6386063" cy="223.648531" rx="1.93526689" ry="4.04759652"></ellipse>
                <ellipse id="Oval" fill="#C62C2C" transform="translate(80.938981, 236.013845) rotate(-85.530000) translate(-80.938981, -236.013845) " cx="80.9389805" cy="236.013845" rx="1.92955493" ry="4.05923411"></ellipse>
                <ellipse id="Oval" fill="#C62C2C" transform="translate(95.827348, 231.221900) rotate(-60.000000) translate(-95.827348, -231.221900) " cx="95.8273483" cy="231.2219" rx="1.93526689" ry="4.04759652"></ellipse>
                <ellipse id="Oval" fill="#B51F1F" opacity="0.3" style="mix-blend-mode: multiply;" transform="translate(97.132145, 214.042338) rotate(-60.000000) translate(-97.132145, -214.042338) " cx="97.1321449" cy="214.042338" rx="1.93526689" ry="4.04759652"></ellipse>
                <ellipse id="Oval" fill="#C62C2C" transform="translate(83.403396, 221.042659) rotate(-60.000000) translate(-83.403396, -221.042659) " cx="83.4033963" cy="221.042659" rx="1.93526689" ry="4.04759652"></ellipse>
                <path d="M203.610096,218.815831 C203.610096,218.815831 199.46795,220.987894 200.746098,216.277823 C202.024246,211.567753 230.036992,212.06355 232.581454,238.541465 C232.581454,238.541465 229.031042,241.823168 228.758844,238.541465 C228.486646,235.259762 225.267606,214.719605 203.610096,218.815831 Z" id="Path" fill="#008A36"></path>
                <path d="M329.925886,131.815831 C329.925886,131.815831 325.783739,133.987894 327.061887,129.277823 C328.340035,124.567753 356.352782,125.06355 358.897243,151.541465 C358.897243,151.541465 355.346832,154.823168 355.074633,151.541465 C354.802435,148.259762 351.583396,127.719605 329.925886,131.815831 Z" id="Path" fill="#008A36"></path>
                <path d="M168.320697,275.192982 C168.320697,275.192982 169.286992,270.66648 172.138159,274.619859 C174.989327,278.573237 156.629719,299.579944 134.345282,284.795714 C134.345282,284.795714 134.047043,280.058678 136.802774,281.883314 C139.558504,283.70795 157.596014,294.258089 168.320697,275.192982 Z" id="Path" fill="#008A36"></path>
                <path d="M270.576336,319.192982 C270.576336,319.192982 271.542631,314.66648 274.393799,318.619859 C277.244966,322.573237 258.885358,343.579944 236.600921,328.795714 C236.600921,328.795714 236.302682,324.058678 239.058413,325.883314 C241.814143,327.70795 259.839723,338.258089 270.576336,319.192982 Z" id="Path" fill="#008A36"></path>
                <path d="M271.026009,139.047284 C271.026009,139.047284 269.056037,134.823108 273.703754,136.321628 C278.351471,137.820149 276.487666,165.69027 249.946136,167 C249.946136,167 246.843726,163.353994 250.134876,163.200602 C253.426025,163.04721 274.069437,160.805329 271.026009,139.047284 Z" id="Path" fill="#008A36"></path>
                <path d="M121.526676,144.256667 C121.526676,144.256667 122.395626,148.775994 118.273984,146.213489 C114.152341,143.650985 122.783131,117.431904 148.698986,122.696686 C148.698986,122.696686 150.800906,126.936466 147.583442,126.29584 C144.365977,125.655214 123.92216,122.696686 121.526676,144.256667 Z" id="Path" fill="#008A36"></path>
                <path d="M259.548767,76.1929815 C259.548767,76.1929815 260.515062,71.6664805 263.36623,75.6198586 C266.217397,79.5732368 247.857789,100.579944 225.573352,85.7957137 C225.573352,85.7957137 225.275113,81.0586777 228.030844,82.8833138 C230.786574,84.7079499 248.812154,95.1996073 259.548767,76.1929815 Z" id="Path" fill="#008A36"></path>
                <path d="M89.2296417,189.3823 C89.2296417,189.3823 93.4896998,187.526108 91.8584379,192.166588 C90.227176,196.807068 62.5191951,194.046577 62.1553885,167.250779 C62.1553885,167.250779 65.8756045,164.240416 65.9342829,167.560144 C65.9929614,170.879872 67.5068664,191.750134 89.2296417,189.3823 Z" id="Path" fill="#008A36"></path>
                <path d="M100.821381,243.282708 C100.821381,243.282708 98.1077414,239.50797 102.853724,240.054002 C107.599707,240.600033 111.248686,268.447625 86.0291577,275 C86.0291577,275 82.3455361,272.032439 85.4633349,271.213392 C88.5811338,270.394345 107.980771,264.126856 100.821381,243.282708 Z" id="Path" fill="#FFFFFF"></path>
                <path d="M143.25804,181.192982 C143.25804,181.192982 144.224336,176.66648 147.075503,180.619859 C149.92667,184.573237 131.567062,205.579944 109.282626,190.795714 C109.282626,190.795714 108.984386,186.058678 111.740117,187.883314 C114.495848,189.70795 132.533357,200.269786 143.25804,181.192982 Z" id="Path" fill="#FFFFFF"></path>
                <path d="M329.724206,268.192982 C329.724206,268.192982 330.690501,263.66648 333.541668,267.619859 C336.392835,271.573237 318.033227,292.579944 295.748791,277.795714 C295.748791,277.795714 295.450552,273.058678 298.206282,274.883314 C300.962013,276.70795 318.999523,287.269786 329.724206,268.192982 Z" id="Path" fill="#FFFFFF"></path>
                <ellipse id="Oval" fill="#111111" cx="279.699248" cy="263" rx="7.01754386" ry="7"></ellipse>
                <ellipse id="Oval" fill="#111111" cx="202.506266" cy="203" rx="7.01754386" ry="7"></ellipse>
                <ellipse id="Oval" fill="#111111" cx="187.468672" cy="102" rx="7.01754386" ry="7"></ellipse>
                <ellipse id="Oval" fill="#111111" cx="138.345865" cy="170" rx="7.01754386" ry="7"></ellipse>
                <ellipse id="Oval" fill="#111111" cx="59.1478697" cy="199" rx="7.01754386" ry="7"></ellipse>
                <ellipse id="Oval" fill="#111111" cx="88.2205514" cy="284" rx="7.01754386" ry="7"></ellipse>
                <ellipse id="Oval" fill="#111111" cx="186.466165" cy="291" rx="7.01754386" ry="7"></ellipse>
                <ellipse id="Oval" fill="#111111" cx="270.676692" cy="99" rx="7.01754386" ry="7"></ellipse>
                <path d="M160.475356,319 C160.171516,315.71954 160.802701,312.420881 162.298918,309.46981 C164.738229,305.301075 171.428571,305 171.428571,305 C169.926272,306.277999 169.04132,308.113842 168.989261,310.06038 C168.681387,313.634684 167.769605,316.016267 166.253917,317.205128 C164.738229,318.37469 160.475356,319 160.475356,319 Z" id="Path" fill="#6FC400"></path>
                <path d="M178.528274,218 C178.208626,214.723852 178.825605,211.425413 180.310914,208.46981 C182.759073,204.301075 189.473684,204 189.473684,204 C188.901596,205.656534 188.421567,207.341913 188.035688,209.048801 C187.180021,212.522746 185.81333,215.023987 184.280259,216.216708 C182.747189,217.409429 178.528274,218 178.528274,218 Z" id="Path" fill="#6FC400"></path>
                <path d="M104.335005,179 C104.031165,175.71954 104.66235,172.420881 106.158567,169.46981 C108.597878,165.301075 115.288221,165 115.288221,165 C114.7182,166.656534 114.239906,168.341913 113.855422,170.048801 C113.002847,173.522746 111.641096,176.023987 110.113566,177.216708 C108.586037,178.409429 104.335005,179 104.335005,179 Z" id="Path" fill="#6FC400"></path>
                <path d="M161.449181,84 C158.662133,82.2669825 156.406179,79.7904962 154.931481,76.8451569 C153.031445,72.4386085 156.704848,67 156.704848,67 C157.690505,68.4283815 158.751439,69.8025651 159.883091,71.1166439 C162.186165,73.8765348 163.337702,76.4392906 163.406794,78.3410641 C163.475886,80.2428377 161.449181,84 161.449181,84 Z" id="Path" fill="#6FC400"></path>
                <path d="M209.598163,97 C209.294323,93.7195398 209.925508,90.420881 211.421725,87.4698098 C213.861036,83.3010753 220.551378,83 220.551378,83 C219.985356,84.6567584 219.511016,86.3421343 219.130421,88.0488007 C218.277846,91.5227461 216.916095,94.0239868 215.388565,95.216708 C213.861036,96.4094293 209.598163,97 209.598163,97 Z" id="Path" fill="#6FC400"></path>
                <path d="M69.1729323,154.49525 C72.2904349,153.14119 75.7141078,152.694687 79.0647949,153.205188 C83.903465,154.239671 86.2155388,160.70215 86.2155388,160.70215 C84.4173577,160.6763 82.6191189,160.749429 80.828645,160.921217 C77.1460119,161.213306 74.2976322,160.677809 72.6529611,159.570303 C71.00829,158.462798 69.1729323,154.49525 69.1729323,154.49525 Z" id="Path" fill="#6FC400"></path>
                <path d="M245.614035,257.087867 C248.194118,254.932595 251.327481,253.526882 254.666251,253.026794 C259.566075,252.58078 263.659148,257.850785 263.659148,257.850785 C261.939751,258.347144 260.248657,258.934858 258.593229,259.611366 C255.176403,260.937671 252.30532,261.27805 250.430811,260.785087 C248.556302,260.292124 245.614035,257.087867 245.614035,257.087867 Z" id="Path" fill="#6FC400"></path>
                <path d="M281.704261,234.325628 C283.341082,231.529623 285.756112,229.221479 288.681593,227.657101 C293.077784,225.618243 298.746867,228.975036 298.746867,228.975036 C297.326954,229.996917 295.96566,231.091149 294.668899,232.252977 C291.958111,234.595974 289.412327,235.857587 287.479418,235.99276 C285.546508,236.127932 281.704261,234.325628 281.704261,234.325628 Z" id="Path" fill="#6FC400"></path>
                <path d="M209.52381,134.07809 C212.804901,133.766806 216.106255,134.390013 219.062106,135.878665 C223.245976,138.247843 223.558897,145 223.558897,145 C221.90073,144.433759 220.21392,143.959236 218.505802,143.578493 C215.028902,142.737435 212.525533,141.375158 211.331798,139.858884 C210.138062,138.34261 209.52381,134.07809 209.52381,134.07809 Z" id="Path" fill="#6FC400"></path>
                <path d="M345.864662,210.325628 C347.501483,207.529623 349.916513,205.221479 352.841994,203.657101 C357.238185,201.618243 362.907268,204.975036 362.907268,204.975036 C361.487355,205.996917 360.126061,207.091149 358.8293,208.252977 C356.118512,210.595974 353.572729,211.857587 351.639819,211.99276 C349.706909,212.127932 345.864662,210.325628 345.864662,210.325628 Z" id="Path" fill="#6FC400"></path>
                <path d="M312.781955,296.180833 C312.193861,299.384556 310.721286,302.364413 308.527497,304.790026 C305.128554,308.132956 298.746867,306.690459 298.746867,306.690459 C299.724383,305.262536 300.62359,303.783555 301.440587,302.25993 C303.174741,299.157416 305.116993,297.142499 306.862709,296.398353 C308.608424,295.654207 312.781955,296.180833 312.781955,296.180833 Z" id="Path" fill="#6FC400"></path>
                <path d="M277.768589,234 C277.464749,230.71954 278.095934,227.420881 279.592151,224.46981 C282.031462,220.301075 288.721805,220 288.721805,220 C288.151784,221.656534 287.67349,223.341913 287.289006,225.048801 C286.436431,228.522746 285.07468,231.023987 283.54715,232.216708 C282.019621,233.409429 277.768589,234 277.768589,234 Z" id="Path" fill="#6FC400"></path>
            </g>
        </g>
    </g>
</svg>
