<?xml version="1.0" encoding="utf-8"?>
<!-- Generator: Adobe Illustrator 22.0.1, SVG Export Plug-In . SVG Version: 6.00 Build 0)  -->
<svg version="1.1"
	 id="svg2" inkscape:version="0.48.4 r9939" sodipodi:docname="新北市.SVG" xmlns:cc="http://creativecommons.org/ns#" xmlns:dc="http://purl.org/dc/elements/1.1/" xmlns:inkscape="http://www.inkscape.org/namespaces/inkscape" xmlns:rdf="http://www.w3.org/1999/02/22-rdf-syntax-ns#" xmlns:sodipodi="http://sodipodi.sourceforge.net/DTD/sodipodi-0.dtd" xmlns:svg="http://www.w3.org/2000/svg"
	 xmlns="http://www.w3.org/2000/svg" xmlns:xlink="http://www.w3.org/1999/xlink" x="0px" y="0px" viewBox="0 0 900 600"
	 style="enable-background:new 0 0 900 600;" xml:space="preserve">
<style type="text/css">
	.st0{fill:#DA251D;}
	.st1{fill:#FCDB00;}
	.st2{fill:#282175;}
	.st3{fill:#2B7D3C;}
	.st4{fill:#848282;}
</style>
<sodipodi:namedview  bordercolor="#666666" borderopacity="1" fit-margin-bottom="0" fit-margin-left="0" fit-margin-right="0" fit-margin-top="0" gridtolerance="10" guidetolerance="10" id="namedview20" inkscape:current-layer="svg2" inkscape:cx="416.85038" inkscape:cy="269.57205" inkscape:pageopacity="0" inkscape:pageshadow="2" inkscape:window-height="1028" inkscape:window-maximized="1" inkscape:window-width="1920" inkscape:window-x="-8" inkscape:window-y="-8" inkscape:zoom="1" objecttolerance="10" pagecolor="#ffffff" showgrid="false">
	</sodipodi:namedview>
<path id="_x37_0100904" inkscape:connector-curvature="0" class="st0" d="M322.1,502c2.8-1.6,5.7-3.4,8.6-5.3
	c3.1-2.4,5.2-3.6,6.5-3.6c1.4,0,2.1-0.8,2.1-2.5c0.3-0.9-0.3-2-1.4-3.2c-1.4-1.6-3.6-3-6.4-3.9c-0.7-0.3-1.1-0.3-1.1,0
	c-0.3,0-0.3,0.2,0,0.7c0.7,2.8-1.9,6.3-7.9,10.3c-0.2,0-0.3,0.1-0.3,0.3c-2.2,1.4-4.2,2.4-6.1,2.9c-1.4,0.3-1.8,2.1-1.1,5.7
	c0,0.7,0.1,1.1,0.4,1.1c0.2,0,0.9-0.1,2.1-0.3c1.4,5.7,1.3,13.4-0.3,23.2c-0.3,1-0.5,1.8-0.7,2.5c-0.7,1.6-1.2,2.6-1.4,2.9
	c0,0-0.3-0.1-1.1-0.4c-0.3-0.7-0.5-0.5-0.7,0.7c-0.3,2.4-0.3,4.6-0.3,6.8c0,1.4,0.1,2.2,0.3,2.5s0.7,0,1.4-0.7
	c5-4.3,7.5-11.3,7.5-21.1c1.4,0,3.4-0.7,6.1-2.2c0.9-0.7,2-1.2,3.2-1.4c0,15,0.8,27.5,2.5,37.6c0.2,1.6,0.6,2.5,1.1,2.5
	c0.3,0.2,0.5-0.9,0.7-3.2c1.6-11.7,2.4-24.9,2.1-39.7c3.1-1.4,6.5-2,10-1.8c1,0.3,1.6,0.1,1.8-0.3c0.2,0,0.2-0.5,0-1.4
	c-0.3-0.7-1.3-1.6-2.9-2.8c-1.6-1.4-3.6-1.6-5.7-0.4c-1.4,0-2.5,0.3-3.2,0.7c0-0.2,0-0.5,0-0.7c0-2.1-0.7-3.2-2.1-3.2
	c-1.4,0-2.6,0.5-3.6,1.4c-0.7,0.7-1.1,1.2-1.1,1.4c0,0.9,0.1,2,0.4,3.2c-2.9,0.9-5.7,2.5-8.6,4.6l0,0c0-0.9,0.6-3.2,1.8-6.8
	c0.2-1.4,0.2-2.6,0-3.6C323.9,503.5,323,502.8,322.1,502z M302.1,479.5c-2.2-1.4-5.3-2-9.6-1.8c-1,0-1.1,0.5-0.4,1.4
	c2.8,2.1,4.4,3.9,4.7,5.3c-0.3,0.9-2.2,2.2-5.7,4c-0.3,0-0.5,0.1-0.7,0.3c0,0.3,0.3,0.5,1.1,0.7c2.2,0,4.3,0.1,6.5,0.3
	c0.2,0,0.9,0,1.8,0c-10.3,4.3-16.3,6.6-18.3,6.9c-0.7,0-1.2,0.1-1.4,0.3c0,0.3,0.1,0.7,0.4,1.4c1.4,1.6,2.7,2.8,4,3.6
	c0.7,0.3,2,0,3.9-0.7c2.4-0.9,4.9-2.1,7.5-3.6c1-1,1.7-1.2,2.2-0.7c0,0.3-0.1,0.6-0.4,1.1c-3.6,3.1-5.7,5-6.4,5.7
	c-2.4,0.3-3.6,2.5-3.6,6.8c0,0.3,0.1,0.6,0.4,1.1c0,0.3,0.3,0.1,1.1-0.3c2.4-1.4,5.3-3.6,8.6-6.5c0.7-0.7,1.7-1.2,2.9-1.4
	c0.9-0.3,1.6-0.4,2.1-0.4c0.3,0.3,0.3,0.5,0,0.7c-0.2,2.8-3,6.1-8.2,9.6c-6.5,1.4-11.5,3.2-15,5.4c-1.7,0.9-3,1.5-4,1.8
	c-0.7-0.3-1.2-0.1-1.4,0.3c-0.2,0.3-0.1,0.9,0.4,1.8c0.7,1.6,2.2,2.8,4.6,3.6c0.7,0.3,2-0.3,4-1.8c4.5-3.6,8.8-5.9,12.8-6.8
	c0,0,0.1,0,0.4,0c0.7,1.6,1.3,3,1.8,3.9c-2.9,0.3-5.3,1.2-7.5,2.9c-1,0.7-1.6,0.9-2.2,0.7c-0.2,0-0.6,0.1-1.1,0.3
	c0,0.3,0.1,0.7,0.3,1.4c0.3,0.9,1.4,1.9,3.6,2.8c0.7,0,1.9-0.5,3.6-1.4c1-0.7,2.2-1.3,3.6-1.8c0,1.7,0,3.5,0,5.4
	c-3.6,1.4-6.3,2.7-8.2,3.9c-1.4,0.7-2.5,0.7-3.2,0c-0.3,0-0.4-0.2-0.4-0.7c0-0.7,0.4-1.6,1.1-2.5c0-0.3,0-0.5,0-0.7
	c0,0-0.2,0.1-0.7,0.3c-1.7,1.6-2.5,3.7-2.5,6.1c0.2,2.9,1.3,5,3.2,6.5c0.3,0.3,0.6,0.3,1.1,0.3c0.2-0.2,1.2-1.5,2.8-3.9
	c1.7,3.1,4.2,6.4,7.5,10c0.3,0.7,0.7,1.1,1.4,1.1c0.2,0,0.6-0.5,1.1-1.4c1-1.4,1.4-3,1.4-4.6c0-3.1,0-6.1,0-9
	c2.8,0.9,4.3,1.4,4.3,1.4c0.7,0,1.4-0.3,2.1-0.7c0.7-0.7,1.1-1.6,1.1-2.5c0-1.4,0.2-4,0.7-7.5c0-0.3,0-0.5,0-0.7
	c-0.2,0-0.3,0.1-0.3,0.4c-2.1,3.8-4,5.6-5.3,5.3c0,0.3-0.3,0.1-0.7-0.3c-0.3,0-0.9-0.5-1.8-1.4c0-0.3,0-0.5,0-0.7
	c0.2-2.4,0.3-4.2,0.3-5.3c1,0,2.6,0,5,0c0.7,0.2,1.3,0.2,1.8,0c0.3,0,0.6-0.3,1.1-0.7c0-0.3-0.1-0.7-0.3-1.4c-1.4-2.2-3.1-3.4-5-3.6
	c-0.9-0.3-1.9,0-2.8,0.7c-1.4-2.2-2.4-3.4-2.9-3.6c2.4-0.7,6.3-0.9,11.8-0.7c1.7,0,2.9-0.1,3.6-0.3c0.7,0,1.1-0.3,1.1-0.7
	c0-0.7-0.1-1.3-0.4-1.8c-0.9-2.1-2.8-3.4-5.7-4c-0.3,0-2.5,0.6-6.8,1.8c0.2-0.3,0.6-0.5,1.1-0.7c3.6-2.4,5.6-4.2,6.1-5.4
	c0-1.4-1.4-3.2-4.3-5.3c-0.7-0.3-1.6-0.6-2.5-1.1c5.7-4.3,8.7-6.6,9-6.8c0-1-0.9-2.4-2.5-4.3c-0.7-0.7-1.4-0.9-2.2-0.7
	c-0.3-0.3-0.6-0.3-1.1,0C306.8,483.6,305.2,481.1,302.1,479.5z M297.8,539.9c0,0.9-0.1,1.8-0.4,2.5c-0.2,0.3-0.8,0.1-1.8-0.3
	c-0.9-0.3-2-0.9-3.2-1.8c1.6-2.4,3.6-4.5,5.7-6.4C298.1,536,298,538,297.8,539.9z M456.1,512.4c-0.7,6.7-0.6,14,0.4,21.8
	c0,1,0.6,2.3,1.8,4c3.8,4.3,10.1,5.9,18.9,5c2.2,0,4.5-0.3,7.2-0.7c1.4-0.3,1.8-1.3,1.1-3.2c-1.6-4.3-5.3-5.8-11.1-4.6
	c-7.2,0.9-11.1,0.3-11.8-1.8c-0.7-2.2-0.7-7.2,0-15c0.2,0,0.7-0.1,1.4-0.4c1.6-0.9,7-3.4,16.1-7.5c0.7-0.2,1.2-0.7,1.4-1.4
	c0-0.7-0.3-1.7-1.1-2.9c-0.9-1.4-1.8-2.4-2.5-2.8c-1.6-0.3-6.4,1.5-14.3,5.3c0-0.9,0.1-2,0.4-3.2c1.4-10.7,1.9-17,1.4-18.9
	c0-1.4-0.9-2.8-2.8-4c-3.8-2.1-6.7-2.4-8.6-0.7c-1,0.7-1.2,1.4-0.7,2.2c0.2,0,0.5,0,0.7,0c0.9-0.7,1.9-0.3,2.8,1.4
	c1.4,3.8,1.3,12.2-0.3,25c-0.3,0-0.4,0.3-0.4,0.7c-3.6,3.1-6.4,5.9-8.6,8.2c-4.3,3.8-6.8,6.2-7.5,7.2c0.7-12.2,1.6-19.7,2.5-22.5
	c0.7-2.4-0.5-4.7-3.6-6.8c-1.4-1.4-3-2.2-4.7-2.2c-1.4-0.3-2,0.6-1.8,2.5c1,3.8,1.4,8.4,1.4,13.6c-1.4,0.3-3.5,0.7-6.1,1.4
	c-5,0.9-8.6,1.4-10.7,1.4c-1.4,0-1.8,0.9-1.1,2.5c0.9,2.2,1.9,4.2,2.8,6.1c0.9,1.4,2.2,1.9,3.6,1.4c0.7-0.2,1.7-0.7,2.9-1.4l0,0
	c-1.7,2.4-3.5,6.1-5.4,11.1c0,0.3,0,0.3,0,0.3c0.3,0.3,0.4,0.3,0.4,0c3.8-6.4,8.3-11.2,13.6-14.3c-0.3,5.7-0.5,9.9-0.7,12.5
	c-3.6,2.4-7.8,5.1-12.8,8.2c-1,0.7-1.6,0.9-1.8,0.3c-0.3-0.7-0.6-0.2-1.1,1.4c-0.7,3.8,0,6.7,2.2,8.6c0.7,0.3,1.4,0.3,2.1,0
	c5-3.8,9.1-7.4,12.2-10.7c0.7,2.4,1.5,4.2,2.5,5.3c0.7,0.3,1.3-0.4,1.8-1.8c0.7-2.4,1.2-5.6,1.4-9.7c1.6-1.6,3.1-3.4,4.3-5.3
	C447.8,522.2,451.8,516.9,456.1,512.4z M560.9,502c8.6-3.1,16.3-5.9,23.3-8.2c0.9,2.9,1.5,6.8,1.8,11.8c-2.2,0.7-4.8,2.8-7.9,6.1
	c0-1.6-0.2-3.4-0.7-5.3c0-0.3-0.3-0.7-1.1-1.4c-0.7-0.2-1.3-0.8-1.8-1.8c-0.7-0.9-1.1-1.4-1.1-1.4c-0.3-0.3-0.9,1.1-1.8,3.9
	c-0.3,1.7,0,3.2,0.7,4.7c0.7,2.1-0.1,5.1-2.5,8.9c-1.6,2.9-2.2,6.3-1.8,10.4c0.7,3.6,1.3,5.3,1.8,5.3c0.7,0,1.8-1.3,3.2-4
	c2.4-5.7,4.1-11.3,5-16.8c1.4-0.9,4-1.5,7.5-1.8c0.3,0,0.4,0,0.4,0c0,2.4,0,5,0,7.9c-0.3,9.3-0.5,15.7-0.7,19.3
	c-0.3,5.9,0.7,11.2,2.8,15.7c0,0.3,0.1,0.5,0.4,0.7c0.2,0.3,0.6-0.1,1.1-1.1c0.7-3.1,1.2-10.3,1.4-21.5c0-1.6,0-3.9,0-6.8
	c1.4,2.4,3.4,4.8,6.1,7.2c1.4,1.4,2.5,2.5,3.2,3.2c0.2,0.2,0.6,0.5,1.1,0.7c0.3,0,0.5-0.1,0.7-0.3c2.1-2.4,3.6-5.2,4.3-8.6
	c0.2-1.6,0.6-7.3,1.1-16.8c0.3-1.4,0.5-3.1,0.7-5c0-1.4-0.1-2.4-0.4-2.8c-1.4-1.4-4-2.3-7.8-2.5c-2.1-0.3-4.7,0.2-7.8,1.4
	c0-2.4,0.1-3.9,0.3-4.6c0.7-2.2,0.3-4.1-1.4-5.7c0.9,0,1.9-0.5,2.8-1.4c2.2-0.7,4.3-1.2,6.5-1.4c2.8-0.7,4.3-0.7,4.3,0
	c0,0.3-0.5,0.6-1.4,1.1c-2.2,0.9-3.1,1.8-2.8,2.5c0,0,0.2,0,0.7,0c7.2-1.4,12.5-1.7,16.1-0.7c1.4,0.2,2.2,0.3,2.5,0.3
	c0.7-0.2,1.1-0.9,1.1-2.1c0-1.7-1.1-3.7-3.2-6.1c-0.9-0.9-2.2-1.8-4-2.5c-2.8,0.7-5.1,1.3-6.8,1.4c-2.8,0.3-7,1.1-12.5,2.5
	c-0.9-3.6-3.7-6.2-8.2-7.8c-1.4-0.7-2.8-1.6-4-2.5c-1.6-0.3-2.2,0.7-1.4,2.8c1,2.4,1.9,4.5,2.9,6.5c0.7,1.4,1.1,2.4,1.1,2.8
	c-5.7,1-10,2-12.8,3.2c-4.3,1.4-9.7,2.3-16.1,2.5c-1.4,0-1.7,1.1-0.7,3.2c0.7,1.6,1.8,3.1,3.2,4.3C559,502,559.9,502.3,560.9,502z
	 M591.3,513.4c0-1.4,0-2.7,0-3.9c1.4-0.7,3.7-1.6,6.8-2.5c1-0.3,1.6,0,2.2,0.7c1.4,2.1,1.5,8.1,0.3,17.9c-0.3,0.3-0.3,0.6-0.3,1.1
	c0,0.7-0.3,1.2-0.7,1.4c-0.3,0.3-0.7,0.3-1.4,0c-2.8-1.6-5.2-3.4-7.1-5.3C590.9,519.9,591,516.8,591.3,513.4z"/>
<g id="g11">
	<path id="_x37_0100992" inkscape:connector-curvature="0" class="st1" d="M445.6,159.3l-2.6,13.1L441,182l-27.3-5.5l1.9-9.5
		l-102.8-20.8c1.2-10.5,10.1-66.1,65.4-70.5c27.5-54.4,84.4-31.6,90.1-29.2L445.6,159.3z M434.6,75.8c-5.3-1.1-28-4.2-42.2,22.8
		c-34.7-3.7-45.5,23.4-47.4,29l76.2,15.4L434.6,75.8z"/>
	<path id="_x37_0101080" inkscape:connector-curvature="0" class="st0" d="M463.5,162.9l-2.6,13.1l-1.9,9.5l27.3,5.5l1.9-9.5
		L591,202.3c3-10.3,16.3-64.9-33-90.4c-4.2-60.8-65.6-61.9-71.7-61.8L463.5,162.9z M506,90.1c5.3,1.1,27.4,7,30.1,37.4
		c33.3,10,32.9,39.2,32.5,45.1l-76.2-15.4L506,90.1z"/>
	<path id="_x37_0101168" inkscape:connector-curvature="0" class="st2" d="M454.4,208.2L457,195l1.9-9.5l27.3,5.5l-1.9,9.5
		l102.8,20.8c-1.2,10.5-10.1,66.1-65.4,70.5c-27.5,54.4-84.4,31.6-90.1,29.2L454.4,208.2z M465.4,291.7c5.3,1.1,28,4.2,42.2-22.8
		c34.7,3.7,45.5-23.4,47.4-29l-76.2-15.4L465.4,291.7z"/>
	<path id="_x37_0101256" inkscape:connector-curvature="0" class="st3" d="M436.5,204.6l2.6-13.1l1.9-9.5l-27.3-5.5l-1.9,9.5
		L309,165.2c-3,10.2-16.3,64.9,33,90.4c4.2,60.8,65.6,61.8,71.7,61.8L436.5,204.6z M394,277.4c-5.3-1.1-27.4-7-30.1-37.4
		c-33.3-10-32.9-39.2-32.5-45.1l76.2,15.4L394,277.4z"/>
	<path id="_x37_0101344" inkscape:connector-curvature="0" class="st4" d="M399.7,439.6c3.3-3.4,10.4-10.9,14.6-16.7
		c5.5-7.8,29-25.1,45.5-31.3c16.5-6.1,27.9-15.6,27.9-15.6s34-10.9,61.7,6.9c-8.8,1.1-28.1,4.7-49.3,15.7
		c-29.2,15.2-44.1,26.8-44.1,26.8S420.1,442.3,399.7,439.6z"/>
	<path id="_x37_0101432" inkscape:connector-curvature="0" class="st4" d="M381.5,415.4c0.3-6.8-0.9-23.3-15.9-41.5
		c-18.7-22.7-18.4-35.6-55.9-33.7c5.4,3.9,19.7,15,27.8,29.4C347.2,386.9,358.4,406.4,381.5,415.4z"/>
	<path id="_x37_0101520" inkscape:connector-curvature="0" class="st4" d="M424,328.8c0,0-9.4,8.1-14.6,32.6
		c-5.3,24.4-4.9,34.9-1.2,36.1c3.2,1.1,12.5-0.1,4.8,7.4c-3.9,2.9-11.1,6.9-15.2,0c-4.1-10-3.2-31.1,3.1-45.5
		C410.6,337.3,424,328.8,424,328.8z"/>
</g>
</svg>
