<?xml version="1.0" encoding="utf-8"?>
<!-- Generator: Adobe Illustrator 22.0.1, SVG Export Plug-In . SVG Version: 6.00 Build 0)  -->
<svg version="1.1" id="Layer_1" xmlns="http://www.w3.org/2000/svg" xmlns:xlink="http://www.w3.org/1999/xlink" x="0px" y="0px"
	 viewBox="0 0 5349.7 3504.1" style="enable-background:new 0 0 5349.7 3504.1;" xml:space="preserve">
<polygon points="5349.7,3362.2 5349.6,3362 5349.4,3361.7 5349.2,3361.2 5348.9,3360.8 5348.8,3360.4 5348.7,3360.1 5348.6,3360 
	5348.2,3359.4 5348,3358.7 5347.9,3358.2 5347.8,3358.1 5347.8,3357.4 5347.7,3356.8 5347.7,3356.7 5347.8,3356 5347.9,3355.2 
	5347.9,3354.4 5347.9,3353.8 5347.9,3353.6 5347.9,3353.3 5347.8,3353.2 5347.8,3352.9 5347.5,3352.6 5347.3,3352.4 5347,3352.2 
	5346.7,3352.3 5346.2,3352.2 5346.1,3352.2 5345.8,3352.1 5345.5,3352 5345.3,3351.7 5345.2,3351.2 5345.2,3350.8 5345,3350.4 
	5344.9,3350.1 5344.6,3349.8 5344.3,3349.6 5343.9,3349.4 5343.2,3349.1 5342.6,3348.7 5342.5,3348.7 5342,3348.6 5341.8,3348.5 
	5341.3,3348.4 5340.8,3348.3 5340.2,3348 5339.5,3347.7 5338.8,3347.2 5338.2,3346.9 5337.6,3346.6 5337.5,3346.5 5337,3346.3 
	5336.7,3346.2 5336.3,3346.1 5335.8,3346 5335.2,3345.8 5334.8,3345.6 5334.4,3345.3 5333.9,3344.9 5333.8,3344.9 5333.4,3344.5 
	5332.9,3343.9 5332.4,3343.2 5332,3342.7 5331.7,3342.4 5331.4,3341.7 5331.1,3341.1 5331,3340.8 5330.8,3340.2 5330.7,3339.8 
	5330.6,3339.5 5330.6,3339.4 5330.6,3339.1 5330.6,3338.9 5330.7,3338.4 5330.9,3338 5331,3337.5 5331.2,3337.2 5331.3,3336.8 
	5331.3,3336.3 5331.3,3336 5331.2,3335.8 5331.1,3335.6 5331,3335.4 5330.8,3335.4 5330.8,3335.4 5330.7,3335.4 5330.5,3335.2 
	5330.1,3334.7 5329.7,3334.2 5329.4,3333.7 5329.1,3333.2 5328.5,3332.6 5327.8,3331.9 5327.4,3331.3 5327.3,3331.2 5327.2,3331.1 
	5326.9,3330.9 5326.6,3330.8 5326.3,3330.7 5325.8,3330.2 5325.3,3329.8 5324.8,3329.6 5324.8,3329.6 5324.2,3329.3 5323.5,3329 
	5322.9,3328.7 5322.8,3328.7 5322.4,3328.4 5322.3,3328.3 5322,3327.9 5321.8,3327.5 5321.8,3327.1 5321.6,3326.7 5321.4,3326.5 
	5321,3326.3 5320.4,3326.1 5320,3325.9 5319.4,3325.7 5319.3,3325.6 5318.8,3325.5 5318.2,3325.2 5317.3,3324.7 5316.6,3324.1 
	5316,3323.6 5315.7,3323.2 5315.7,3322.9 5315.7,3322.6 5315.7,3322 5315.8,3321.6 5316.1,3321.1 5316.4,3320.6 5316.7,3320.2 
	5316.8,3319.8 5316.8,3319.3 5316.6,3318.7 5316.4,3318.3 5316.3,3317.9 5316,3317.5 5315.6,3317.3 5315.2,3316.8 5314.9,3316.5 
	5314.6,3316 5314.5,3315.5 5314.3,3315 5313.9,3314.3 5313.6,3313.5 5313.3,3313.1 5313.2,3312.7 5313.1,3312.3 5313,3311.9 
	5312.9,3311.5 5312.7,3311.1 5312.4,3310.5 5312.2,3310.4 5312,3310 5311.5,3309.6 5311,3309.4 5310.4,3309.2 5310,3309.1 
	5309.4,3309 5308.8,3308.9 5308.4,3308.8 5307.6,3308.6 5306.5,3308.5 5305.6,3308.2 5304.7,3308.1 5303.4,3307.9 5301.8,3307.4 
	5301.1,3307.2 5300.3,3307.1 5299.9,3307 5299.8,3306.9 5299.2,3306.7 5299,3306.6 5298.6,3306.4 5298.2,3306.2 5297.9,3306.1 
	5297.5,3306.2 5297.2,3306.2 5297,3306.2 5296.6,3306.2 5296.2,3306.1 5295.8,3305.8 5295.4,3305.6 5295,3305.4 5294.6,3305.1 
	5294.3,3304.7 5293.9,3304.4 5293.4,3304 5292.8,3303.7 5292.1,3303.3 5291.8,3303.1 5291.6,3303 5291.6,3303 5291.5,3302.8 
	5291.3,3302.6 5291.3,3302.4 5291.3,3302.2 5291.2,3302.1 5291,3301.9 5290.8,3301.9 5290.6,3301.9 5290.4,3301.9 5290.3,3301.9 
	5290.1,3301.9 5290,3301.8 5289.8,3301.5 5289.7,3301.3 5289.7,3301.2 5289.7,3301.1 5289.5,3301 5289.3,3300.9 5289.2,3300.7 
	5289.2,3300.6 5289.2,3300.5 5289.2,3300.4 5289.3,3300.1 5289.3,3299.9 5289.2,3299.7 5289.1,3299.4 5288.9,3299.2 5288.8,3298.9 
	5288.7,3298.6 5288.6,3298.1 5288.5,3297.4 5288.3,3296.7 5288.2,3295.8 5288.1,3294.8 5288.1,3294.1 5288.1,3293.8 5288.1,3293.5 
	5288,3293.3 5287.8,3293 5287.6,3292.9 5287.6,3292.9 5287.4,3292.7 5287.2,3292.4 5287.1,3292.1 5287,3291.6 5286.8,3290.9 
	5286.6,3290.4 5286.6,3290.3 5286.3,3289.7 5285.8,3289.2 5285.2,3288.8 5284.6,3288.5 5284.2,3288.2 5284,3287.8 5283.7,3287.4 
	5283.7,3286.8 5283.7,3286 5283.6,3285.1 5283.6,3284.9 5283.6,3284.4 5283.6,3283.8 5283.5,3283 5283.2,3282.5 5283.1,3282.3 
	5282.9,3282 5282.8,3281.9 5282.7,3281.6 5282.8,3281.1 5282.8,3280.6 5282.8,3280.3 5282.7,3280 5282.6,3279.8 5282.4,3279.1 
	5282,3278.1 5281.8,3277.3 5281.5,3276.2 5281.4,3275.4 5281.3,3274.8 5281.3,3274.2 5281.3,3273.5 5281.3,3273 5281.3,3272.8 
	5281.3,3272 5281.3,3271 5281.3,3270.5 5281.2,3269.7 5281.1,3269.3 5281.1,3268.7 5281.2,3268.3 5281.3,3268 5281.4,3267.8 
	5281.6,3267.7 5281.7,3267.7 5282,3267.5 5282.4,3267.4 5282.4,3267.3 5282.7,3267 5282.9,3266.6 5283,3266.2 5283.2,3265.8 
	5283.5,3265 5283.6,3264.4 5283.8,3263.8 5284.1,3263.3 5284.3,3262.8 5284.6,3262.4 5284.6,3262.4 5285.2,3261.6 5286,3260.6 
	5286.6,3259.9 5287.4,3259 5287.7,3258.6 5287.9,3258.4 5288,3258.2 5288.1,3257.7 5288,3257.4 5287.9,3257.3 5287.9,3257.2 
	5287.5,3257.1 5287.3,3256.8 5287.1,3256.3 5287,3256 5287,3255.5 5286.4,3254.4 5286.4,3254.3 5286,3253.6 5285.6,3253 
	5285,3252.6 5284.2,3252 5283.5,3251.4 5282.7,3250.9 5282.1,3250.6 5281.6,3250.5 5281.3,3250.6 5280.8,3250.3 5280.4,3250 
	5280,3249.9 5279.7,3249.8 5279.4,3249.8 5279.1,3249.7 5278.7,3249.4 5278.6,3249.1 5278.5,3248.8 5278.4,3248.5 5278.4,3248.3 
	5278.6,3248 5278.8,3247.8 5278.9,3247.4 5279.1,3246.9 5279.2,3246.6 5279.2,3246.1 5279.2,3245.6 5279.1,3244.7 5278.8,3244 
	5278.7,3243.6 5278.7,3243.4 5278.3,3242.9 5277.8,3242.2 5277.5,3242 5277.3,3241.7 5277.2,3241.4 5277.1,3241 5277.1,3240.8 
	5277.1,3240.4 5277.2,3240 5277.3,3239.8 5277.4,3239.7 5277.5,3239.5 5277.6,3239.2 5277.7,3238.7 5277.7,3238.6 5277.7,3237.8 
	5277.7,3237 5275.7,3237 5274.6,3237.1 5274.4,3237.1 5273.2,3237.1 5253.6,3237.5 5248.7,3237.6 5246,3237.7 5224.3,3238.1 
	5224.1,3238.1 5201.3,3238.4 5199.2,3238.4 5194.9,3238.4 5174.6,3238.5 5165.7,3238.6 5164,3238.6 5149.5,3238.6 5136.3,3238.6 
	5126.9,3238.5 5125,3238.5 5107,3238.4 5100.2,3238.4 5089.6,3238.3 5077.6,3238.2 5075.2,3238.2 5051.8,3237.8 5050.3,3237.8 
	5048.3,3237.7 5025.4,3237.3 5019,3237.2 5014.7,3237.1 5000.2,3236.7 4989.6,3236.4 4977.6,3236.1 4975.6,3236.1 4952.6,3235.3 
	4943.8,3235 4943.8,3235.1 4943.8,3235.3 4944,3235.5 4944.5,3235.8 4944.6,3237.2 4944.5,3237.9 4944.1,3238.4 4943.8,3238.8 
	4943.6,3239.4 4943.6,3240.1 4943.9,3240.4 4944.3,3240.8 4945.2,3241.1 4945.2,3241.3 4945.1,3241.6 4945.3,3241.9 4945.4,3242.2 
	4945.9,3242.5 4946.1,3243 4946.3,3243.4 4946.7,3243.6 4947,3243.9 4947.3,3244.1 4947.9,3244.1 4948.2,3244.6 4948.1,3245.8 
	4948.1,3246.1 4947.8,3246.4 4947.8,3247.7 4947.7,3248.5 4947.4,3249.2 4947.4,3250.8 4947.6,3251.4 4947.2,3252.3 4946.4,3252.6 
	4945.6,3252.5 4944.9,3252.5 4944.2,3252.4 4943.8,3252.7 4944,3252.8 4944.3,3252.9 4944.2,3253.6 4944.3,3253.9 4943.9,3254.3 
	4944,3254.7 4944.5,3254.8 4944.9,3255.1 4945,3255.4 4945.4,3255.6 4945.4,3255.6 4945.5,3255.7 4945.6,3255.9 4945.8,3256.1 
	4945.9,3256.8 4945.5,3256.9 4945,3257.1 4945,3257.3 4944.9,3257.5 4944.9,3257.9 4945,3258.1 4945.1,3258.4 4945.3,3258.7 
	4945.5,3258.8 4945.6,3258.7 4946.1,3258.5 4946.5,3258.6 4947,3258.6 4948,3259.3 4948.7,3259.2 4949.2,3258.9 4949.9,3258.8 
	4950,3258.8 4950.5,3259.3 4950.8,3260.2 4950.7,3261.2 4950.7,3261.8 4951,3262.6 4951.1,3263.3 4950.9,3265.3 4951.5,3265.7 
	4952.3,3266.5 4952.6,3267.3 4952.5,3268.2 4952.2,3268.7 4951.8,3269.3 4951.5,3269.8 4951.2,3269.9 4951.1,3270.1 4951.1,3270.3 
	4951.3,3270.5 4951.5,3270.7 4951.5,3270.9 4951.5,3271.2 4951.3,3271.7 4951.3,3271.8 4950.8,3272.5 4950.4,3272.7 4950,3272.6 
	4948.9,3273.6 4948.5,3273.7 4947.9,3273.8 4947.3,3274.1 4947.2,3274.3 4947.1,3274.5 4947.3,3274.6 4947.5,3274.7 4947.7,3274.7 
	4947.9,3274.9 4947.5,3275.4 4947.5,3275.7 4948.5,3276.4 4948.7,3277 4948.7,3277.6 4948.4,3278.1 4947.5,3278.6 4947.5,3278.9 
	4947.2,3279.3 4947.2,3279.9 4947.4,3280.3 4947.7,3280.4 4947.9,3280.6 4948.1,3281.3 4948.2,3281.5 4947.8,3281.9 4947.6,3282.3 
	4947.7,3282.7 4947.6,3282.9 4947.1,3282.9 4947,3283.2 4946.9,3283.7 4946.9,3283.9 4946.5,3283.6 4946.1,3284.2 4945.6,3284.9 
	4945.6,3285.6 4945.6,3285.7 4945.5,3286.6 4945.5,3286.7 4945.8,3286.7 4945.9,3286.9 4946.1,3286.9 4946.2,3287.2 4946.2,3287.4 
	4945.6,3287.5 4945.3,3287.8 4945.3,3288.1 4945.6,3288.3 4945.5,3288.5 4945.2,3288.5 4944.9,3288.8 4944.8,3289.1 4944.9,3289.4 
	4944.8,3289.6 4944.8,3289.7 4944.9,3290 4945.2,3290.4 4945.2,3290.6 4944.9,3290.7 4944.7,3290.8 4944.4,3290.9 4944.4,3291.3 
	4944.4,3291.8 4944.2,3291.9 4944.1,3291.9 4944.1,3291.9 4944,3292 4943.9,3292.6 4943.8,3292.6 4943.6,3292.6 4943.4,3292 
	4943.1,3291.9 4942.9,3291.8 4942.8,3292 4942.8,3292.1 4942.7,3292.3 4942.8,3292.9 4942.4,3293.1 4942.4,3293.3 4942.1,3293.6 
	4941.9,3294.1 4941.7,3294.4 4942,3295 4941.2,3295.5 4941.1,3295.9 4940.9,3296 4940.2,3296.3 4939.8,3296.8 4939.4,3297.3 
	4939.2,3297.5 4939.1,3297.7 4939.1,3298 4939.5,3298.3 4939.8,3298.3 4939.9,3298.3 4940.1,3298.6 4939.9,3298.7 4939.6,3298.8 
	4939.3,3299 4939.1,3299.7 4939.1,3299.9 4938.9,3300.2 4938.9,3300.4 4939.1,3300.8 4939,3301.1 4939.1,3301.4 4939.5,3301.7 
	4939.5,3301.8 4939.4,3302 4939.2,3302.4 4939.3,3302.7 4939.4,3302.8 4939.6,3302.8 4939.9,3303.4 4940,3303.6 4940.2,3303.5 
	4940.4,3303.4 4940.6,3303.6 4940.9,3303.5 4941.1,3303.6 4941.3,3303.7 4941.6,3304.3 4941.8,3304.3 4942.5,3305.1 4942.5,3305.3 
	4942.4,3305.4 4942.4,3305.7 4942.6,3305.7 4943.1,3305.7 4943.2,3305.8 4943.6,3306.3 4943.5,3307 4943.7,3307 4944,3306.9 
	4944.3,3306.8 4944.7,3307 4944.8,3307.3 4944.8,3308 4945,3308.2 4945.2,3308.4 4945.4,3308.6 4945.5,3308.6 4945.6,3308.8 
	4945.8,3309.1 4945.9,3309.3 4946,3309.5 4946.1,3309.6 4946,3310 4945.8,3310.3 4945.4,3310.5 4945.3,3310.5 4945.2,3310.5 
	4945.1,3310.6 4945,3310.7 4945,3310.9 4945,3311 4945.2,3311.2 4945.4,3311.3 4945.5,3311.2 4945.8,3311 4945.9,3310.9 
	4946,3310.9 4946.2,3310.9 4946.4,3311 4946.7,3311.7 4946.8,3312.1 4946.8,3312.3 4946.9,3312.5 4947,3313 4947.4,3313.2 
	4947.2,3313.4 4947.3,3313.8 4947.4,3314 4947.7,3314.1 4947.8,3314.2 4947.8,3314.3 4947.7,3314.5 4947.4,3314.5 4947.2,3314.5 
	4947,3314.6 4946.9,3314.9 4946.9,3315.3 4947,3315.4 4947.1,3315.7 4947.7,3315.6 4948.1,3315.9 4948.2,3316.5 4948.2,3317.9 
	4948.2,3318.2 4948,3318.5 4947.2,3318.9 4947.2,3319.5 4947.4,3319.7 4947.7,3319.7 4948.2,3319.9 4948.3,3320.1 4948.3,3320.4 
	4948.2,3320.6 4948.2,3321.1 4948.3,3321.2 4948.6,3321.3 4949.2,3321.6 4949.8,3321.7 4949.9,3321.7 4950.9,3321.6 4951.7,3321.6 
	4952.4,3321.8 4953,3322 4953.5,3322.3 4953.8,3322.8 4954,3323.3 4954.1,3324 4954,3325 4953.9,3325.7 4953.8,3326.2 
	4953.6,3326.7 4953.3,3327 4953,3327.4 4952.8,3327.5 4951.8,3328.7 4951.6,3330.1 4952.1,3331.6 4951.5,3332.6 4951.3,3333.5 
	4951.9,3334.8 4953.5,3335.8 4954.1,3336.4 4954.1,3336.6 4954.2,3336.8 4954.3,3337.5 4954.4,3338.9 4955,3340 4955.2,3340.2 
	4956.1,3340.8 4956.6,3341.6 4956.8,3342.6 4956.7,3343.2 4957.1,3343.9 4956.1,3345.1 4954.8,3345.3 4954.8,3345.3 4954.7,3345.6 
	4954.8,3345.8 4954.8,3346.1 4955,3346.4 4955.2,3347 4955.2,3347.2 4955.2,3347.4 4955.2,3347.8 4955.1,3348 4955.1,3348.3 
	4955.1,3348.5 4955.1,3348.8 4955.2,3349.1 4955.3,3349.1 4955.3,3349.4 4955.7,3350.1 4956.6,3350.6 4957.1,3351.2 4957.3,3351.7 
	4957.4,3352.1 4957.9,3352.7 4959.1,3353 4959.7,3353.4 4959.7,3353.6 4960.2,3354 4960.3,3355 4960,3356 4959.5,3357 4959.4,3358 
	4959.4,3358.8 4959.6,3359.5 4959.7,3359.8 4959.7,3359.9 4959.9,3360.2 4960.6,3360.6 4961.9,3360.4 4962.2,3360.6 4962.3,3360.7 
	4962.8,3361 4962.8,3361.3 4962.9,3361.5 4962.9,3361.8 4962.8,3361.9 4962.4,3362.4 4961.8,3362.8 4961.6,3363.6 4961.6,3363.8 
	4961.8,3364.2 4962.6,3364.4 4963.2,3363.4 4963.8,3363.2 4964.7,3363.2 4965,3363.5 4965.1,3363.5 4965.1,3363.6 4965.1,3364 
	4965.1,3364.3 4965.1,3364.6 4965.1,3364.9 4965.2,3365.3 4965.3,3365.5 4965.5,3365.7 4965.7,3365.9 4965.9,3365.9 4966.2,3365.9 
	4966.5,3365.9 4966.8,3365.9 4967.1,3365.9 4967.5,3366 4967.7,3366 4968,3366.3 4968.3,3366.7 4968.4,3367 4968.2,3367.4 
	4968.1,3367.7 4967.9,3368 4967.8,3368.3 4967.7,3368.6 4967.7,3368.8 4967.8,3369.1 4967.8,3369.6 4967.9,3369.9 4968,3370.2 
	4968,3370.5 4967.9,3370.9 4967.7,3371.1 4967.5,3371.3 4967.3,3371.5 4967,3371.6 4966.8,3371.7 4966.6,3371.8 4966.5,3371.9 
	4966.5,3372.4 4966.7,3372.7 4966.9,3373 4967.2,3373.5 4967.3,3373.8 4967.3,3374.1 4967.3,3374.5 4967.5,3374.9 4967.7,3375.3 
	4967.9,3375.6 4967.9,3375.7 4968.3,3375.9 4968.7,3376.2 4969,3376.4 4969.3,3376.6 4969.4,3376.8 4969.5,3377.1 4969.6,3377.5 
	4969.6,3377.8 4969.5,3378.2 4969.5,3378.6 4969.5,3379 4969.6,3379.3 4969.7,3379.5 4969.9,3379.7 4970.2,3380 4970.4,3380.2 
	4970.6,3380.4 4970.8,3380.4 4971.1,3380.5 4971.4,3380.6 4971.6,3380.7 4971.8,3380.9 4972.1,3381.2 4972.2,3381.6 4972.1,3382.1 
	4972,3382.5 4971.8,3383 4971.2,3383.8 4970.7,3384.6 4970.3,3385.1 4970,3385.6 4969.8,3386 4969.7,3386.3 4969.6,3386.7 
	4969.6,3387.1 4969.8,3387.4 4970.1,3387.6 4970.3,3387.7 4970.8,3387.9 4971.1,3388.1 4971.3,3388.3 4971.5,3388.6 4971.6,3389 
	4971.6,3389.3 4971.5,3389.5 4971.3,3389.7 4971.1,3389.7 4970.7,3389.8 4970.4,3389.8 4970,3389.8 4969.7,3389.8 4969.4,3389.7 
	4969.1,3389.8 4968.9,3389.9 4968.6,3390.1 4968.6,3390.3 4968.5,3390.5 4968.4,3391.1 4968.5,3391.3 4968.5,3391.6 4968.7,3392 
	4969,3392.3 4969.3,3392.7 4969.6,3393.1 4969.9,3393.6 4970,3393.9 4970,3394.4 4970,3394.9 4969.8,3395.2 4969.7,3395.6 
	4969.5,3396 4969.3,3396.2 4968.9,3396.6 4968.7,3397 4968.5,3397.4 4968.5,3397.7 4968.6,3398 4968.8,3398.4 4969.1,3398.7 
	4969.4,3398.9 4970.1,3399.4 4970.7,3399.7 4970.9,3400 4971,3400.4 4971.1,3400.6 4970.9,3400.8 4970.8,3400.9 4970.6,3401 
	4970.4,3401.2 4970.2,3401.5 4969.9,3401.7 4969.8,3402 4969.7,3402.3 4969.6,3402.7 4969.6,3403 4969.7,3403.4 4969.9,3403.8 
	4970.2,3404.4 4970.5,3404.7 4970.8,3405 4971.1,3405.1 4971.4,3405.1 4971.6,3405.2 4971.6,3405.2 4972,3405.4 4972.3,3405.4 
	4972.5,3405.4 4973.1,3405.4 4973.3,3405.2 4973.5,3405 4973.7,3404.6 4973.8,3404.4 4973.8,3404 4973.9,3403.6 4974.1,3403.3 
	4974.5,3403 4975,3403 4975.3,3403.1 4975.7,3403.5 4975.9,3403.8 4976.1,3404.4 4976.3,3404.8 4976.4,3405.3 4976.5,3405.7 
	4976.4,3406.1 4976.2,3406.4 4976.1,3406.5 4976,3406.6 4975.6,3406.9 4975.3,3407 4975,3407.2 4974.8,3407.4 4974.7,3407.6 
	4974.5,3407.8 4974.5,3408 4974.6,3408.4 4974.7,3408.7 4974.9,3408.9 4975.2,3409.1 4975.6,3409.2 4976,3409.3 4976.4,3409.4 
	4976.7,3409.5 4977,3409.7 4977.3,3409.9 4977.6,3410 4977.9,3410.3 4978.3,3410.3 4978.6,3410.2 4978.9,3410.1 4979.2,3410.1 
	4979.6,3410.1 4979.9,3410.2 4980.1,3410.3 4980.4,3410.5 4980.5,3410.8 4980.8,3411.1 4980.9,3411.5 4980.9,3411.9 4980.7,3412.2 
	4980.5,3412.3 4980.3,3412.5 4980.1,3412.8 4979.9,3413.1 4979.8,3413.5 4979.9,3413.8 4980,3414.4 4980,3414.8 4980,3415.1 
	4979.8,3415.4 4979.6,3415.6 4979.5,3415.9 4979.4,3416.2 4979.4,3416.5 4979.5,3416.8 4979.7,3417.2 4979.9,3417.6 4980.1,3417.9 
	4980,3418.3 4979.9,3418.6 4979.8,3418.8 4979.5,3419.1 4979.2,3419.3 4978.9,3419.4 4978.6,3419.6 4978.4,3419.8 4978.2,3419.9 
	4978.1,3420.1 4978.2,3420.4 4978.2,3420.8 4978.4,3421 4978.7,3421.3 4978.9,3421.4 4979.4,3421.9 4979.9,3422.2 4980.5,3422.4 
	4980.9,3422.5 4981.3,3422.5 4981.7,3422.5 4982.1,3422.5 4982.4,3422.7 4982.5,3422.7 4982.7,3422.9 4983,3423.2 4983.2,3423.6 
	4983.3,3423.9 4983.3,3424.7 4983.1,3425.3 4982.9,3425.6 4982.4,3426 4981.1,3426.6 4981,3426.6 4980.9,3426.5 4980.8,3425.8 
	4981,3425.4 4981.3,3424.8 4981.3,3424.5 4981.2,3424.2 4980.9,3424.1 4980.3,3424.1 4979.8,3424.3 4979.6,3424.7 4979.6,3425.4 
	4979.8,3426.4 4980,3427.4 4980,3427.7 4980.1,3428 4980.2,3428.2 4980.4,3428.5 4980.6,3428.9 4980.7,3429.3 4980.8,3429.6 
	4980.8,3430.2 4980.7,3430.5 4980.4,3430.9 4980,3431.4 4979.7,3431.9 4979.6,3432.2 4979.5,3432.5 4979.5,3433 4979.6,3433.3 
	4979.9,3433.7 4980,3433.7 4980.2,3433.8 4980.5,3434 4980.9,3434 4981.4,3434 4982,3434 4982.4,3434 4982.7,3434 4982.8,3434 
	4983.5,3434 4983.9,3434 4984.4,3434.2 4984.7,3434.5 4984.9,3434.8 4985,3435 4985.1,3435.4 4984.9,3435.7 4984.7,3435.8 
	4984.4,3435.9 4984.1,3435.9 4983.9,3435.8 4983.6,3435.7 4983.3,3435.6 4983.2,3435.6 4983.1,3435.5 4982.9,3435.7 4982.7,3435.9 
	4982.6,3436.1 4982.5,3436.3 4982.5,3436.6 4982.4,3437 4982.5,3437.4 4982.7,3437.9 4982.8,3438.3 4983,3438.6 4983.2,3439 
	4983.4,3439.4 4983.4,3439.6 4983.4,3440 4983.3,3440.4 4983.4,3440.9 4983.4,3441.4 4983.5,3441.7 4983.5,3442.2 4983.6,3442.5 
	4983.5,3442.9 4983.3,3443.1 4983,3443.5 4982.8,3443.8 4982.6,3444 4982.2,3444.2 4982.1,3444.5 4982.1,3444.7 4982.2,3445.3 
	4982.6,3445.7 4982.6,3445.7 4983.4,3446.6 4983.6,3447 4983.5,3447.7 4983.2,3448.3 4982.8,3449.2 4982.8,3449.5 4983,3449.9 
	4983.2,3450.1 4983.2,3450.1 4983.4,3450.3 4983.7,3450.5 4984,3450.7 4984.4,3450.9 4984.8,3451 4985,3451.2 4985.2,3451.5 
	4985.3,3451.8 4985.4,3452.2 4985.4,3452.6 4985.4,3452.9 4985.3,3453.3 4985.1,3453.6 4984.9,3454 4984.8,3454.3 4984.7,3454.8 
	4984.7,3455.2 4984.7,3455.7 4984.8,3456.2 4985.1,3457 4985.4,3457.4 4985.7,3457.8 4986,3458.2 4986.3,3458.5 4986.4,3458.8 
	4986.4,3459.2 4986.3,3459.5 4986.2,3460 4985.9,3460.3 4985.7,3460.5 4985.4,3460.7 4985,3460.7 4984.7,3460.8 4984.4,3460.9 
	4984.2,3461 4984,3461.3 4983.9,3461.6 4983.8,3462 4983.9,3462.3 4984,3462.5 4984.2,3463 4984.4,3463.4 4984.3,3463.8 
	4984.4,3464.5 4984.3,3464.8 4984.1,3465.3 4984,3465.6 4983.9,3465.9 4984,3466.4 4984.1,3466.7 4984.2,3467 4984.4,3467.5 
	4984.6,3467.8 4984.6,3468.1 4984.6,3468.3 4984.3,3469 4983.9,3469.5 4982.1,3470.4 4981.4,3471.1 4980.9,3472.4 4981,3473.4 
	4981.2,3474 4982.7,3474.8 4983.2,3475.3 4983.7,3477.5 4985,3478.4 4986.8,3478.8 4988,3480.1 4988.3,3480.8 4988.4,3482.4 
	4989.5,3483.4 4989.7,3483.9 4989.3,3484.9 4988.5,3485.4 5001,3485.9 5014,3486.4 5018.5,3486.6 5025.1,3486.9 5035.8,3487.3 
	5043.7,3487.6 5053.4,3487.9 5062.1,3488.2 5071,3488.4 5072.5,3488.4 5088.1,3488.5 5088.4,3488.5 5102.1,3488.4 5106,3488.4 
	5117.7,3488.2 5123.7,3488.1 5132.1,3488.1 5141.2,3488 5143.4,3488 5149.5,3488 5158.9,3487.7 5162,3487.6 5176.5,3487.2 
	5186.8,3487 5191.8,3486.8 5194.1,3486.7 5210.2,3486.1 5211.7,3486.1 5221.7,3485.7 5229.3,3485.3 5237,3484.9 5239.8,3484.8 
	5246.9,3484.3 5250,3484.1 5250.9,3484 5251.1,3484.5 5251.6,3485.1 5251.6,3485.1 5252.2,3485.6 5252.9,3486 5253.2,3486.2 
	5253.5,3486.4 5253.7,3486.8 5253.7,3487 5253.7,3487.2 5253.8,3487.5 5253.7,3487.8 5253.6,3488.1 5253.6,3488.4 5253.7,3488.7 
	5254,3489 5254.3,3489.2 5255,3489.4 5256,3489.6 5257,3489.8 5257.5,3490 5257.8,3490.1 5258,3490.2 5258.2,3490.5 5258.2,3490.7 
	5258.2,3491.2 5258.2,3491.6 5258.1,3491.9 5258.1,3492.2 5258.2,3492.5 5258.3,3492.8 5258.5,3493.1 5258.7,3493.3 5259.1,3493.5 
	5259.4,3493.7 5259.7,3493.9 5260,3494.1 5260.2,3494.4 5260.4,3494.7 5260.8,3495.6 5261,3496.1 5261.4,3496.5 5261.8,3496.8 
	5262.3,3497 5263,3497.1 5263.6,3497 5264,3497 5264.2,3497 5264.5,3497.1 5264.6,3497.4 5264.6,3497.6 5264.6,3497.8 5264.4,3498 
	5264.2,3498.2 5264.1,3498.3 5264,3498.6 5264,3498.8 5264.2,3499 5264.4,3499.1 5264.6,3499.2 5264.8,3499.2 5264.9,3499.4 
	5264.8,3499.7 5264.6,3500 5264.5,3500.3 5264.4,3500.6 5264.4,3500.8 5264.6,3501 5264.9,3501.2 5265.4,3501.4 5266,3501.7 
	5266.2,3501.8 5266.6,3502 5266.8,3502.2 5266.9,3502.5 5266.9,3502.8 5267,3503 5267.2,3503.2 5267.3,3503.2 5267.6,3503.3 
	5267.8,3503.2 5268,3503.2 5268.3,3503.2 5268.5,3503.3 5268.6,3503.5 5268.6,3503.7 5268.6,3503.9 5268.8,3504.1 5269,3504.1 
	5269.2,3504 5269.4,3503.9 5269.6,3503.7 5269.7,3503.5 5269.8,3503.3 5270,3503.2 5270.2,3503.2 5270.5,3503.3 5271.1,3503.5 
	5271.4,3503.7 5271.8,3503.6 5272.1,3503.5 5272.7,3503.4 5273.3,3503.2 5273.9,3503.1 5274,3503 5274.2,3502.8 5274.6,3502.6 
	5274.8,3502.3 5275,3501.8 5275,3501.4 5274.8,3500.9 5274.7,3500.5 5274.3,3499.8 5274,3499.3 5273.9,3498.8 5274,3498.3 
	5273.9,3497.9 5274.1,3497.4 5274.2,3496.8 5274.4,3496.4 5274.6,3495.7 5274.8,3495 5274.8,3494.3 5274.9,3493.9 5274.8,3493.3 
	5274.7,3492.8 5274.6,3492.4 5274.4,3492 5274.2,3491.6 5274,3491.3 5273.7,3490.9 5273.3,3490.6 5273,3490.4 5272.6,3490.2 
	5272.3,3490.1 5272.1,3489.9 5271.8,3489.7 5271.6,3489.3 5271.6,3488.9 5271.6,3488.5 5271.8,3488 5272,3487.6 5272.2,3487.4 
	5272.7,3486.9 5273.3,3486.5 5273.8,3485.9 5274.3,3485.5 5274.7,3485 5275.1,3484.7 5275.5,3484.3 5275.9,3484 5276.3,3483.7 
	5276.9,3483.4 5277.9,3483 5279.3,3482.4 5279.9,3482.1 5280.7,3481.8 5281.4,3481.5 5281.9,3481.4 5282.4,3481.3 5282.9,3481.2 
	5283.3,3481.2 5283.7,3481.2 5283.9,3481.2 5284.1,3481.2 5284.6,3481.3 5285,3481.3 5285.4,3481.3 5285.8,3481.3 5286.2,3481.2 
	5286.3,3481.1 5286.7,3480.9 5287.3,3480.4 5287.8,3480.1 5288.2,3479.8 5288.9,3479.4 5289.2,3479.2 5289.6,3478.9 5289.9,3478.6 
	5290.1,3478.3 5290.4,3478 5290.5,3477.6 5290.7,3477.3 5290.8,3476.8 5290.8,3476.2 5290.8,3475.7 5290.8,3475.1 5290.8,3474.7 
	5290.6,3474.1 5290.6,3473.6 5290.6,3473.3 5290.7,3472.9 5290.8,3472.5 5290.9,3472.1 5291,3471.8 5291.1,3471.5 5291.3,3471.2 
	5291.5,3470.9 5291.7,3470.5 5291.8,3470.2 5291.9,3469.7 5292,3469.2 5292.1,3468.9 5292.1,3468.2 5292,3467.7 5291.8,3466.9 
	5291.7,3466.4 5291.7,3466.1 5291.8,3465.6 5292,3465.2 5292.3,3464.9 5292.6,3464.6 5292.7,3464.4 5292.8,3464.2 5293.1,3463.9 
	5293.4,3463.7 5293.6,3463.5 5293.9,3463.2 5294.2,3462.8 5294.5,3462.3 5294.7,3461.7 5294.9,3461.2 5295.3,3460.7 5295.8,3460 
	5296.2,3459.6 5296.6,3459.1 5297.1,3458.4 5297.3,3458.1 5297.5,3458 5297.7,3457.8 5297.9,3457.7 5298.2,3457.6 5298.5,3457.5 
	5298.8,3457.2 5298.8,3457.2 5299.1,3457 5299.4,3456.8 5299.7,3456.6 5299.8,3456.3 5300,3455.7 5300.2,3455 5300.3,3454.3 
	5300.4,3453.9 5300.5,3453.6 5300.5,3453.3 5300.5,3453.1 5300.4,3452.8 5300.3,3452.5 5300.2,3452.1 5300.2,3451.8 5300.2,3451.5 
	5300.3,3451.3 5300.5,3450.8 5300.6,3450.3 5300.7,3449.7 5300.7,3449.2 5300.8,3448.7 5300.8,3448.1 5300.8,3447.3 5300.8,3446.5 
	5300.8,3445.8 5300.7,3445.2 5300.6,3444.6 5300.5,3444.2 5300.5,3443.8 5300.5,3443.5 5300.5,3443.2 5300.5,3442.7 5300.6,3442.2 
	5300.5,3441.8 5300.5,3441.5 5300.3,3441.2 5300.1,3440.8 5299.7,3440.3 5299.3,3439.7 5299.1,3439.2 5298.8,3438.7 5298.4,3438 
	5298,3437.3 5297.7,3436.9 5297.5,3436.6 5297.1,3436.2 5296.7,3435.9 5296.3,3435.8 5296.1,3435.9 5295.9,3435.9 5295.6,3436.1 
	5295.5,3436.1 5295.2,3436.1 5294.8,3436.1 5294.3,3436 5293.9,3435.9 5293.7,3435.8 5293.4,3435.5 5293.3,3435.2 5293.2,3434.9 
	5293.1,3434.7 5293,3434.4 5292.8,3434.2 5292.5,3434 5292.3,3433.9 5292,3433.8 5292,3433.8 5291.7,3433.5 5291.3,3433.1 
	5291.2,3432.7 5291.1,3432.4 5291,3431.9 5290.9,3431.5 5290.7,3431.2 5290.5,3430.7 5290.1,3430.4 5289.7,3429.9 5289.6,3429.7 
	5289.4,3429.4 5289.4,3429 5289.5,3428.6 5289.6,3428.4 5289.9,3428 5290.1,3427.7 5290.2,3427.1 5290.3,3426.8 5290.4,3426.3 
	5290.6,3426 5290.8,3425.6 5291.1,3425 5291.3,3424.7 5291.5,3424.4 5291.7,3424 5291.9,3423.7 5291.9,3423.3 5291.9,3422.9 
	5292,3422.4 5292,3421.9 5292,3421.8 5292,3421.6 5292,3421.3 5292,3420.5 5292.1,3419.7 5292.2,3419.1 5292.4,3418.5 
	5292.6,3418.1 5292.8,3417.7 5293,3417.4 5293.1,3417.1 5293.1,3416.8 5293.1,3416.4 5293.1,3415.6 5293.2,3415.3 5293.3,3414.9 
	5293.5,3414.6 5293.7,3414.4 5294,3414.2 5294.3,3414 5294.7,3413.9 5295.5,3413.7 5296,3413.6 5296.4,3413.4 5296.7,3413.3 
	5297,3413.2 5297.3,3413.2 5297.7,3413.2 5298.1,3413.2 5298.4,3413.3 5298.9,3413.5 5299.3,3413.7 5299.8,3413.7 5300.6,3413.8 
	5300.8,3413.8 5301.1,3413.7 5301.6,3413.5 5301.9,3413.4 5302.5,3413.1 5303.2,3412.8 5303.6,3412.5 5304,3412.2 5304.5,3411.9 
	5304.8,3411.6 5305.1,3411.4 5305.2,3411.4 5305.5,3411.2 5305.9,3411 5306.6,3411 5306.6,3411 5307.2,3411 5307.6,3410.9 
	5308.1,3410.9 5308.6,3411 5309.1,3411 5309.2,3411 5309.7,3411 5309.7,3411 5309.9,3411 5310.5,3411.1 5311,3411.1 5311.6,3411.2 
	5312.1,3411.2 5312.6,3411.2 5312.6,3411.2 5313,3411.2 5313.5,3411.1 5313.9,3411 5314.3,3410.9 5314.8,3410.8 5315.3,3410.8 
	5315.9,3410.6 5316.2,3410.5 5316.6,3410.3 5317.1,3410.2 5317.1,3410.2 5317.6,3410.2 5318,3410.2 5318.3,3410 5318.5,3409.8 
	5318.9,3409.5 5319.3,3409 5319.7,3408.7 5320.3,3408.1 5320.8,3407.7 5321.1,3407.5 5321.2,3407.3 5321.3,3407 5321.4,3406.6 
	5321.4,3406.3 5321.6,3406.1 5321.9,3405.7 5322.2,3405.5 5322.5,3405.3 5322.8,3405.2 5323.2,3405.2 5323.5,3405.1 5323.9,3404.8 
	5324.3,3404.6 5324.8,3404.3 5325.1,3404.3 5325.2,3404.3 5325.5,3404.3 5325.8,3404.4 5326.2,3404.4 5326.5,3404.5 5327.1,3404.7 
	5327.7,3404.8 5328.6,3404.8 5329.2,3404.8 5329.7,3404.7 5330,3404.6 5330.4,3404.3 5330.8,3404.1 5331.2,3403.7 5331.5,3403.3 
	5331.8,3402.8 5332.1,3402.4 5332.3,3402.1 5332.7,3401.8 5332.9,3401.6 5333.1,3401.2 5333.4,3400.8 5333.7,3400.4 5334.2,3400.1 
	5334.8,3399.7 5335.5,3399.5 5336,3399.4 5336.5,3399.2 5336.9,3399 5337.3,3398.8 5337.6,3398.5 5337.9,3398.2 5338,3398 
	5338.1,3397.5 5338,3397 5337.9,3396.2 5337.9,3395.4 5337.8,3394.3 5337.8,3393.7 5337.7,3393.2 5337.9,3392.8 5338,3392.4 
	5338,3391.9 5338.1,3391.4 5338.1,3391.2 5338.2,3390.9 5338.3,3390.5 5338.5,3390.2 5338.9,3389.7 5339.3,3389.4 5339.3,3389.1 
	5339.4,3388.6 5339.3,3387.9 5339.2,3387.3 5339.1,3386.7 5339.1,3386.4 5339.1,3386.2 5339.2,3385.9 5339.4,3385.5 5339.7,3385 
	5340.2,3384.3 5340.6,3383.8 5341.1,3383.3 5341.6,3383 5341.7,3382.9 5342,3382.7 5342.8,3382.3 5343.4,3381.9 5343.7,3381.7 
	5343.9,3381.5 5343.9,3381.5 5344.1,3381.4 5344.6,3380.9 5344.6,3380.9 5345,3380.7 5345.3,3380.5 5345.8,3380.3 5346.3,3380.1 
	5346.4,3380.1 5346.8,3380 5347.1,3379.7 5347.3,3379.4 5347.5,3379 5347.5,3378.6 5347.4,3378 5347.3,3377.7 5347.3,3377.5 
	5347.3,3376.8 5347.3,3376.5 5347.4,3376.1 5347.5,3375.9 5347.6,3375.7 5347.8,3375.4 5347.8,3375.1 5347.9,3374.6 5348,3373.9 
	5348.1,3373.2 5348.4,3372.4 5348.7,3371.8 5348.8,3371.6 5348.9,3371.3 5349,3370.9 5349.1,3370.9 5349.2,3370.4 5349.1,3369.9 
	5349,3369.4 5348.8,3368.9 5348.6,3368.4 5348.4,3368 5348.2,3367.5 5348.1,3367 5348.1,3366.4 5348.4,3366.1 5348.7,3365.5 
	5348.9,3365.2 5349.1,3364.8 5349.1,3364.5 5349.1,3364.1 5349.2,3363.8 5349.3,3363.5 5349.5,3363.2 5349.6,3362.9 5349.7,3362.6 
	"/>
</svg>
