<?xml version="1.0" encoding="utf-8"?>
<!-- Generator: Adobe Illustrator 22.0.1, SVG Export Plug-In . SVG Version: 6.00 Build 0)  -->
<svg version="1.1" id="圖層_1" xmlns="http://www.w3.org/2000/svg" xmlns:xlink="http://www.w3.org/1999/xlink" x="0px" y="0px"
	 viewBox="0 0 500 540" style="enable-background:new 0 0 500 540;" xml:space="preserve">
<g>
	<path d="M219.5,22.9v494.2c0,1.2-0.1,2.4-0.3,3.5c-3.4,27-47,25.9-47-3.5v-7C93,484.1,31.2,419.7,8.8,339c-4.2-15.1-7-30.9-8.2-47
		h160.3v47H58.3c19.1,54.6,60.8,98.5,113.9,120.7v-375c-55.5,23.1-98.5,70-116.3,128h104.9v47H0c0.8-16.1,3.2-31.8,6.9-47
		C27.5,128.6,90.7,61.1,172.2,34.4V22.9C172.2-7.6,219.5-7.6,219.5,22.9z"/>
	<path d="M499.4,292c-1.3,16.1-4.1,31.9-8.2,47c-22.4,80.7-84.2,145.1-163.4,171v7c0,29.3-43.6,30.5-47,3.5
		c-0.2-1.1-0.3-2.2-0.3-3.5V22.9c0-30.5,47.3-30.5,47.3,0v11.5c81.6,26.7,144.7,94.3,165.3,178.3c3.7,15.2,6.1,30.9,6.9,47H339.2
		v-47h104.9c-17.8-57.9-60.9-104.9-116.3-128v375c53.1-22.1,94.8-66.1,113.9-120.7H339.2v-47H499.4z"/>
</g>
</svg>
