<?xml version="1.0" encoding="utf-8"?>
<!-- Generator: Adobe Illustrator 22.0.1, SVG Export Plug-In . SVG Version: 6.00 Build 0)  -->
<svg version="1.1"
	 id="svg2" inkscape:version="0.48.0 r9654" sodipodi:docname="Blank Map of Oregon.svg" xmlns:cc="http://creativecommons.org/ns#" xmlns:dc="http://purl.org/dc/elements/1.1/" xmlns:inkscape="http://www.inkscape.org/namespaces/inkscape" xmlns:rdf="http://www.w3.org/1999/02/22-rdf-syntax-ns#" xmlns:sodipodi="http://sodipodi.sourceforge.net/DTD/sodipodi-0.dtd" xmlns:svg="http://www.w3.org/2000/svg"
	 xmlns="http://www.w3.org/2000/svg" xmlns:xlink="http://www.w3.org/1999/xlink" x="0px" y="0px" viewBox="0 0 1280 965"
	 style="enable-background:new 0 0 1280 965;" xml:space="preserve">
<sodipodi:namedview  bordercolor="#666666" borderopacity="1" fit-margin-bottom="0" fit-margin-left="0" fit-margin-right="0" fit-margin-top="0" gridtolerance="10" guidetolerance="10" id="namedview91" inkscape:current-layer="svg2" inkscape:cx="3230.4004" inkscape:cy="2410.3503" inkscape:pageopacity="0" inkscape:pageshadow="2" inkscape:window-height="716" inkscape:window-maximized="1" inkscape:window-width="1366" inkscape:window-x="-8" inkscape:window-y="-8" inkscape:zoom="0.10309705" objecttolerance="10" pagecolor="#ffffff" showgrid="false">
	</sodipodi:namedview>
<g>
	<polygon points="819.7,583.8 820,584.1 820.6,584.4 820.9,584.7 821,584.5 820.9,584.4 820.7,584.3 820.4,583.4 820.2,583 
		820.2,582.9 820,582.8 819.9,582.8 819.8,582.8 819.8,583 819.6,583 819.5,583 819.4,583.2 819.5,583.4 	"/>
	<polygon points="822.1,585.1 822.5,585.2 822.8,585.3 822.9,585.1 823,585 823.1,584.9 822.9,584.7 822.8,584.6 822.5,584.6 
		822.2,584.5 822,584.5 821.7,584.4 821.6,584.5 821.5,584.7 821.8,585 	"/>
	<polygon points="852.1,586 852.3,586 852.3,585.9 852.1,585.7 851.9,585.7 851.7,585.8 851.7,585.9 851.6,585.9 851.6,586 
		851.7,586 	"/>
	<polygon points="852.1,586.2 852.1,586.3 852.1,586.3 852.4,586.5 852.6,586.5 852.7,586.7 852.6,586.6 852.4,586.5 852.3,586.5 
		852.3,586.6 853.2,587.1 853.6,587.1 853.7,587 853.4,586.8 853,586.3 852.6,586.2 852.5,586.1 852.3,586.1 	"/>
	<polygon points="853.3,587.2 852.4,586.9 852.3,586.9 852.2,587.1 852.2,587.3 852.8,587.9 853.6,587.7 853.7,587.7 854,587.6 
		854.1,587.5 854,587.3 853.8,587.2 853.5,587.2 	"/>
	<polygon points="849,587.2 849.2,587.1 848.8,586.8 848.5,586.8 848,587.2 848,587.3 	"/>
	<polygon points="850.9,587.7 851.3,587.8 851.7,588 851.8,587.9 851.7,587.7 851.5,587.1 851.3,587.1 851.2,587.2 851.1,587.2 
		850.7,587.4 850.7,587.6 	"/>
	<polygon points="847.7,587.8 847.9,587.9 847.9,588.2 848,588.3 848.1,588.2 848.1,588 848.2,588 848.3,587.9 848.4,587.8 
		848.4,587.7 848.4,587.5 848.2,587.5 848.1,587.5 847.9,587.5 847.9,587.5 847.7,587.4 847.6,587.3 847.4,587.6 847.4,587.7 
		847.5,587.8 	"/>
	<polygon points="853.8,587.9 853.5,588 853.1,588.1 852.8,588.2 852.6,588.4 852.6,588.5 852.6,588.8 852.6,589 852.8,589.1 
		853.1,589.5 853.4,589.5 853.7,590 854.2,590.2 854.6,590.6 854.8,590.5 854.9,590.4 854.9,589.6 855.1,589.4 855.1,589 
		854.9,588.2 854.8,588.2 854.6,588.2 854.4,588.2 854.2,588.2 854,588 	"/>
	<polygon points="845.8,590.1 845.9,590.3 846.4,590.1 846.6,589.9 847.3,589.2 847.2,589 847,589.1 846.8,589.2 846.3,589.4 
		846,589.4 845.8,589.5 845.7,589.5 845.7,589.7 845.6,589.8 845.5,589.9 845.4,589.9 845.3,590 845.4,590.2 	"/>
	<polygon points="844.5,591.1 844.7,591.1 844.8,591.5 844.5,591.7 845,591.8 845.4,592.1 845.7,591.8 845.8,591.4 845.8,590.9 
		845.7,590.6 845.1,590.5 844.7,590.4 844.3,590.5 844.2,590.7 844.6,590.9 	"/>
	<polygon points="841.6,593.2 841.7,593.2 841.9,592.9 842.4,592.8 842.6,592.7 843.1,592.6 843.1,592.4 842.9,592.3 842.8,592.3 
		842.6,592.5 842.5,592.5 842.2,592.6 841.9,592.7 841.6,592.7 841.2,592.7 841,592.8 841,593 841.1,593.2 	"/>
	<polygon points="840,593 840.2,592.9 840.2,592.8 840.2,592.7 840.2,592.7 840.1,592.7 839.9,592.7 839.8,592.8 839.7,592.9 
		839.7,592.9 839.8,593 	"/>
	<polygon points="871.6,593.5 872,593.9 872.3,594.1 872.5,594.3 873.1,594.3 873.6,594.4 873.8,594.4 873.8,594.1 873.8,594 
		873.4,594 873,593.9 872.6,593.6 872.1,593.4 871.7,593.2 871.3,593.1 871.3,593.3 871.5,593.3 	"/>
	<polygon points="864.6,597.1 865.2,597.1 865.8,597.1 866.3,597 866.9,596.9 867.2,596.7 867.3,596.4 867.3,596.2 867.3,596.1 
		867.1,596.1 866.8,596.3 866.6,596.4 866,596.6 865.7,596.7 865.3,596.7 864.7,596.7 864.4,596.7 864.2,596.7 864.2,597 	"/>
	<polygon points="889.3,609.3 889.5,609.5 889.5,609.6 889.7,609.8 889.8,609.8 889.8,609.5 889.7,609.3 889.7,609 889.5,608.7 
		889.4,608.5 889.3,608.3 889.2,608.4 889.1,608.5 889.2,608.7 889.2,608.8 889.1,608.8 889,608.9 889,609 	"/>
	<polygon points="896.4,641.6 897.1,642.2 897.4,642.4 897.5,642.5 897.9,642.8 898.6,643.2 899.6,643.8 900.3,643.7 900.2,643.6 
		899.8,643.3 899.3,642.9 899.1,642.9 899,643 898.7,642.8 898.5,642.4 898.2,642.1 897.3,641.5 897.2,641.6 896.6,641.3 896.2,641 
		896,640.9 895.9,640.9 896,641.1 	"/>
	<polygon points="907.7,646.3 907.9,646.5 908.3,646.7 908.8,646.7 909.2,647.3 909.4,647.4 909.9,647.4 910.5,647.7 910.8,647.8 
		911.4,647.6 911.7,647.6 912.4,647.6 912.8,647.5 912.3,647.2 911.7,646.9 910.9,646.7 910.4,646.7 909.4,646.4 909.3,646.4 
		909.6,646.9 909.6,647.2 909.4,647.1 909.2,646.9 909.2,646.7 909.1,646.5 908.5,646.3 908.2,646.1 907.8,645.9 907.5,645.6 
		907.1,645.3 907.1,645.6 	"/>
	<polygon points="822.9,646.6 822.9,646.3 822.8,646.2 822.5,646.3 822.3,646.4 822.1,646.7 821.9,647.2 821.8,647.6 821.7,647.8 
		821.6,648.1 821.6,648.2 821.8,648.4 821.9,648.3 822.1,648.1 822.4,647.8 822.5,647.6 822.6,647.4 822.5,646.9 822.6,646.9 	"/>
	<path d="M1278.9,636.4L1278.9,636.4l-0.1-0.4l-0.1-0.2l0,0l-0.1-0.1l-0.1-0.1l-0.3-0.3l-0.1-0.3l0,0l-0.1-0.1l0,0l-0.2,0l-0.2-0.2
		l-0.1-0.3l-0.1-0.3l-0.2-0.4l0-0.1l-1-0.8l-0.7-0.8l-0.3-0.6l-0.3-0.1l-0.5-0.8l-0.3-0.5l-0.1-0.8l-0.1-1l0-0.5l0.1-1.5l-0.8-1.4
		l-0.6-0.2l-0.3-0.3l-0.8-0.8l-0.7-0.5l-0.6-0.4l-1.2-0.1l-0.8-0.1l-0.4-0.2l-1,0.4l-0.5,0.1l-0.4-0.1l-1.2-1.2l-0.5-1.1l-0.4-0.8
		l-0.4-0.3l-0.6-0.3l-0.6,0l-0.4,0l-0.5,0l-0.4,0.3l-0.8,0.6l-0.4,0.1l-0.3-0.3l-0.3-0.2l-0.3-0.2l-0.4-0.1l-0.3-0.4l-0.1-0.5l0-0.5
		l-0.2-0.6l0-0.8l-0.5-0.3l-0.4-0.2l-0.3-0.4l-0.2-0.4l-0.4-0.3l-1.3-0.7l-1-1l-0.8-1.2l-0.2-0.8l-0.3-0.9l0-0.5l-0.1-0.7l-0.2-0.5
		l-0.2-0.3l-0.2-0.1l-0.4-0.1l-0.1-0.4l-0.2-0.6l0.2-0.5l-1.2-1l-0.2-0.6l-5.3,0.3l-3.6,0.2l-1.5,0.1l-1,0.1l-0.3,0l-7.3,0.3
		l-7.7,0.4l-1.6,0l-6,0.1l-3.8,0.1l-0.6,0.1l-3.2,0l-8.3,0.2l-2.9,0.1l-6.7,0.3l-0.6,0l-4.2,0.2l-1.1,0.1l-3.7,0.1l-0.3,0l-3.3,0.1
		l-4.7,0.1l-2.8,0.1l-0.8,0l-6.8,0.2l-0.6,0l-3.1,0.1l-3.8,0.1l-6.1,0.2l-0.4,0l-23.1,0.7l-0.4,0l-0.3,0.5l-0.4,0.5l-0.4,0.7
		l-0.4,0.5l-0.7,0.5l-0.4,0.4l-0.5,0.3l-0.6,0.2l-0.6,0.3l-0.6,0.3l-0.5,0.3l-0.5,0.3l-0.6,0.4l-0.4,0.2l-0.4,0.2l-0.9,0.3l-0.8,0.2
		l-0.8,0.1l-0.7,0.2l-0.5,0.1l-0.5,0.1l-0.4,0.2l-0.8-0.1l-1.1-0.2l-1.1-0.4l-0.9-0.3l-0.7-0.1l-0.4,0l-0.3,0l-0.4,0l-0.8,0.1
		l-0.5,0l-0.2,0l-0.6,0.1l-0.5,0.1l-0.3,0.1l-0.5,0.3l-0.8,0.3l-1,0.2l-0.5,0.1l-0.7,0.1l-0.8,0.1l-0.5,0.1l-0.5,0.1l-0.4,0.1
		l-0.8-0.1l-0.1,0l-0.5,0l-0.5,0l-0.6,0.2l-0.7,0.2l-0.9,0.4l-0.6,0.3l-0.4,0.1l-0.3,0.1h-0.4l-0.8-0.1l-0.8-0.4l-0.9-0.5l-0.6-0.4
		l-0.1,0l-0.4-0.1l-0.2,0l-0.2,0l-0.5,0.1l-0.7,0.3l-0.6,0.3l-0.2,0.1l-0.4,0.4l-0.4,0.6l-0.3,0.5l-0.2,0.3l-0.4,0.7l-0.3,0.6
		l-0.2,0.3l-0.2,0.3l-0.4,0.5l0,0l-0.4,0.4l-0.4,0.3l-0.4,0.2l-0.6,0l-0.4,0l-0.5,0l-0.4,0l-0.2,0l-0.5,0l-0.4-0.1l-0.6,0.2
		l-0.6,0.2l-0.9,0.2l-0.7,0.1l-0.7-0.1l-0.6,0l0,0l-0.4,0l-0.9,0.2l-1,0.1l-0.9,0.3l-1.4,0.6l-0.9,0.4l-0.6,0.2l-0.6,0.2l-0.4,0.1
		l-0.8-0.1l-0.7,0.1l-0.6-0.1l-0.8,0l-0.5,0l-0.4,0.1l-0.6,0.2l-0.2,0.2l-0.5,0.4l-0.4,0.3l-0.1,0.1l-0.6,0.2l-0.5,0.3l-0.4,0.3
		l-0.3,0.3l-0.6,0.3l-0.6,0.3l-0.8,0.3l-0.8,0l-0.2,0.2l-0.5,0.2l-0.7,0.3l-0.4,0l-0.6,0l-0.8,0.3l-0.6,0.3l-0.6,0.2l-0.4,0.2
		l-0.8,0.5l-0.4,0.2l-0.4,0.3l-0.4,1.1l-0.4,0.3l-0.3,0.5l-0.4,0.5l-0.5,0.2l-0.3,0.1l-0.3,0.1l-0.3,0.1l-0.4,0l-0.7,0.1l-0.5-0.1
		l-0.5,0l-1.1,0.1l-0.6,0.1l-0.6,0.2l-0.6,0.2l-0.6,0.1l-0.4,0.1l-0.8,0.3l-0.9,0.1l-0.6,0.2l-0.6,0.1l-0.8,0.1l-0.2,0l-0.3,0
		l-0.6,0.1l-0.4,0.1l-0.5,0.1l-0.7,0.2l-0.4,0.1l-0.8,0.1l-0.4,0l-0.5,0.1l-0.4,0.1l-0.5,0.1l-0.4,0l-0.7-0.1l-0.6-0.4l-0.5-0.4
		l-0.4-0.3l-0.6-0.5l-0.4-0.5l-0.5-0.6l-0.4-0.6l-0.4-0.5l-0.5-0.3l-0.6-0.2l-0.5-0.1l-0.6-0.2h-0.4l-0.7,0l-0.6,0l-0.8,0l-0.6,0.2
		l-0.5,0.3l-0.4,0.3l-0.1,0.1l-0.4,0.3l-0.5,0.3l-0.4,0.4l-0.4,0.4l-0.4,0.4l-0.4,0.2l-0.6,0.1l-0.5,0.2l-0.6,0.1l-0.4,0.2l-0.5,0.2
		l-0.6,0.3l-0.6,0.2l-0.5,0.2l-0.6,0.2l-0.9,0.4l-0.4,0.2l-1.1,0.4l-0.7,0.3l-0.6,0.2l-0.9,0.3l-0.5,0.3l-0.6,0.4l-0.4,0.4l-0.4,0.4
		l-0.3,0.3l-0.2,0.2l-0.4,0.2l-0.6,0.3l-0.4,0.1l-0.3,0l-0.1-0.1l-0.2-0.1l-0.3-0.4l-0.5-0.5l-0.4-0.2l-0.4-0.1l-0.5,0.1l-0.8,0.3
		l-0.4,0.2l-0.3,0.1l-0.2,0.1l-0.2,0l-0.3-0.2l-0.4-0.3l-0.4-0.2l-0.2-0.1l-0.2,0.1l-0.4,0.2l-0.3,0h-0.5l-0.6,0h-0.6l-0.4-0.2
		l-0.9,0.1l-0.6,0.2l-0.8,0.7l-0.3,0.8l-0.4,0.3l-0.4,0.3l-0.2,0.3l-0.1,0.3l-0.2,0.3l-0.3,0.3l-0.3,0.2l-0.2,0.1l-0.2,0.1l-0.5,0.1
		l-0.7,0.2L992,645l-0.6,0l-0.6-0.5l-0.4-0.7l0-1l0-0.4l-0.1-0.8l-0.2-0.8l-0.2-0.5l-0.4-0.7l-0.4-0.4l-0.4-0.1l-1.1-0.4l-0.8-0.1
		l-0.3-0.2l-0.9-0.1l-0.4-0.2l-0.7-0.6l-0.6-0.6l-0.4-0.2l-0.5-0.1l-0.5,0l-0.3,0l-0.4-0.1l-0.4-0.1l-0.4-0.2l-0.6,0l-0.5,0
		l-0.5,0.1l-0.6,0.3l-0.2,0.2l-0.4,0.2l-0.4,0.1l-0.8,0.2h-0.4l-0.7-0.2l-0.4-0.4l-0.3-0.1l-0.4-0.1l-0.6-0.1l-0.3-0.2l-0.5-0.3
		l-0.6-0.4l-0.3-0.3l-0.8-0.4l-0.3-0.2l-0.7-0.1l-0.6-0.1l-0.6-0.1l-0.2,0l-0.3,0l-0.7,0.4l-0.3,0.1l-0.6,0.1l-0.4,0.1l-0.3,0
		l-0.6,0l-0.4,0.1l-0.8,0.2l-0.4,0.2l-0.2,0.1l-0.5,0.1l-0.2,0.1l-0.6,0.1l-0.9,0.1l-0.3-0.1l-0.4,0l-0.4,0l-0.8,0.3l-0.3,0.2
		l-0.4,0.2l-0.3,0.1l-0.4,0.1l-0.4,0l-0.4,0l-0.6-0.1l-0.5-0.1l-0.3,0l-0.4-0.1l-0.6-0.1l-0.4-0.1l-0.8-0.1l-0.5-0.2l-0.6-0.1
		l-0.4-0.1l-0.6-0.1l-0.7,0l-0.5,0.2l-0.4,0.2l-0.4,0.1l-0.3,0.2l-0.7,0.3l-0.5,0.3l-0.3,0.1l-0.5,0.3l-0.5,0.4l-0.2,0.3l-0.6,0.3
		l-0.1,0.7l-0.1,0.3l-0.1,0.4l-0.1,0.3l-0.2,0.2l-0.3,0.1l-0.3,0.1l-0.3,0.1l-0.2,0.1l0,0l-0.3,0.1l-0.3,0.2l-0.3,0.1l0.1,0.3
		l0.1,0.3l-0.3,0.1l-0.5,0l-0.2,0.1l-0.2,0.2l-0.3,0.3l-0.5,0.4l-0.4,0.2l-0.6,0.4l-0.4,0.2l-0.3,0.1l-0.7,0.2l-0.6,0.1l-0.2,0.2
		l-0.5,0.1l-0.6,0.3l-1.7,1.1l-0.4-0.1l-0.3,0.1l-0.5,0.4l-0.8,0.2l-0.2,0l-1.1,0.2l-0.4,0.1l-0.8,0.2l-0.6,0.3l-0.4,0.1l-0.4,0.2
		l-0.3,0.2l-0.2,0.2l-0.3,0.5L930,649l-0.4,0.3l-0.2,0.1l-0.4,0.1l-0.6-0.1l0-0.2l0.4-0.1l0.8,0l0.4-0.4l0.4-0.4l0-0.4l-0.4,0.2
		l-0.6,0.3l-1.6,1l-0.8,0.2l-0.9,0.4l-0.8,0.3l-0.8-0.2h-0.8l-0.8,0l-1,0.2l-0.6,0.1l-0.3-0.2l-1.2-1l-0.6-0.8l-0.1-0.4l-0.2-0.2
		l-0.2,0l-0.2-0.4l-0.5,0l-0.6,0l-0.8,0.2l-0.2,0.1l-0.4,0.2l-0.7,0.1l-0.7,0l-0.6,0.2l-0.9,0.2l-0.8-0.2l-1.5,0l-1.2-0.4l-0.6-0.2
		l-0.8-0.3l-0.6-0.6l-1.8-1.4l-1.2-0.6l-1.1-0.2l-0.8,0l-1.2-0.2h-0.4l-0.4,0l-1-0.2l-1-0.7l-0.8-0.5l-1.8-1.5l-0.4-0.5l-0.4-0.6
		l-0.2-0.2l0-0.1l-0.2,0.2l-0.1,0.4l-0.2,0.2l-0.3,0.2l-0.2,0.1l0,0.2l-0.3,0.4l0,0l0-0.2l0-0.2l-0.1,0.1l-0.1,0.4l-0.1,0.4l0,0.3
		l0.2,0.4l0.2,0.8l0.1,0.7l-0.5-0.6l-0.3-0.7l-0.1-0.5l0-0.1l0.1-0.3l0.1-0.7l0.2-0.3l0.3-0.2l0.4-0.3l0.4-0.4l0.4-0.3l-0.2-0.6
		l-0.4-1l-0.2-0.6l0-1l0.3-1.2l0.2-1.4l0.1-0.7l0-0.4l-0.1-0.4l-0.1-0.5v-0.4l0.2-0.4l0.2-0.2l0-0.8l-0.2-0.6l-0.1-0.5l-0.6-0.9
		l-0.3-1l-0.4-0.6l-0.2-0.7l0-0.4v-0.8l0.4-1.3l0.1-0.3l0.2-0.5l0-0.3l0-0.2l0,0l-0.1,0.1l-0.1,0.2L893,623l-0.2,0.3l-0.3,0.6
		l-0.1,0.2l-0.6,0.3v-0.2l0.1-0.2l0.2-0.2v-0.2l-0.3,0.2l-0.2,0.1l-0.1,0.2l-0.1,0.2l0,0.2l-0.1,0.2l-0.1,0l-0.2,0l-0.1,0l-0.2,0.1
		l-0.1,0.2l0,0.2v0.3l-0.1,0.2l-0.2,0l-0.2,0.1l-0.1,0.1l-0.1,0.2l-0.1,0.2l-0.2,0.2l-0.1,0.4l-0.3,0.4l0,0.1l-0.2,0.2l-0.3,0.1
		l-0.2-0.1l0.3-0.2l0.1,0v-0.4l0.2-0.1l0.2-0.1l0.2-0.2l0.1-0.2l0.2-0.4l0.4-0.7l0.3-0.6l0.2-0.1l0.2-0.3l0.1,0.1l0.1,0l0.2-0.1
		l0-0.1l-0.1-0.1l-0.1-0.1l-0.1,0l-0.1-0.1l0.1-0.1h0.2l0.1-0.1l0.1-0.1l0.1-0.1l0.1,0.1l0,0.1l0,0.2l0.2,0h0.1l0.1-0.1l0.2-0.1h0.2
		l0.2,0l0.1-0.2l0.3-0.5l0.1-0.3l0-0.2l-0.2-0.1l-0.2,0l0.2-0.1l0.2-0.1l0.2-0.1l0-0.4l-0.1-0.3l-0.1-0.5l-0.4-0.9l-0.7-2.4l0-0.5
		l0-0.4V616l-0.2,0.1l-0.1,0.2l-0.1,0.2l-0.1-0.1l0.1-0.2l0-0.3l0.1-0.2l0.1-0.3l0-0.5l0-0.6l-0.1-1l-0.2-0.4l-0.2-0.4l-0.4-0.6
		l-0.9-0.8l-0.5-0.5l-0.3-0.4l-0.2-0.6l-0.2-0.7l0-1l-0.4-0.6l-0.4-2l-0.2-0.6l-0.4-1.1l-0.4-0.8l-0.3-0.2l-1-0.6l-0.6-0.4l-1-0.4
		l-0.7-0.4l-0.9-0.6l-1.1-1l-0.6-0.3l-0.7-0.2l-0.5-0.1l-0.6-0.3l-0.2-0.6l-0.2-0.2l-0.2-0.4l-0.3-0.3l-0.1-0.1l-0.6-0.7l-0.8-0.4
		l-0.6-0.4l-0.4-0.3l-0.9-0.1l-0.8-0.1l-0.8,0l-0.2,0l-0.3-0.1h0l-0.9-0.3l-0.3-0.3l-0.4-0.5l-0.2,0l-0.6,0.2l-0.5,0.3l-0.4,0.3
		l-0.6,0.6l-0.1,0.3l-0.7,0.8l-0.3,0.8l-0.1,0l-0.2,0.2l-0.6,0.2l-0.6,0.1l-0.8,0.2l-0.5,0l-0.6-0.2l-0.4-0.3l-0.6-0.1l-0.8,0
		l-1-0.2l-1.3-0.1l-0.6-0.1l-1.1-0.3l-0.6-0.4l-0.7-0.8l-1-1l-0.6-0.5l-0.2-0.8l-0.1-0.8l-0.1-0.4l-0.1-0.2l-0.1-0.4l-0.8-0.5
		l-0.5-0.2l-0.5-0.5l-0.4-0.9l-0.7-0.4l-0.4-0.2l-0.5-0.1l-0.6,0.1l-0.7,0l-0.6-0.1l-0.4,0.1l-0.3,0.4v0.1l0.2-0.1l0.2-0.2h0l0,0
		l-0.1,0.2l-0.1,0.1v0.3l-0.7,0.3l-0.5,0.4l-0.1,0.2l-0.7,0.5l-0.1,0.1l-0.3,0.1l0,0v0.1l0,0.1l0.1,0.2l-0.1,0.1l-0.2,0.4l-0.1,0.5
		l-0.3,0.3l-0.3,0.1l-0.4-0.2l-0.2,0l-0.4,0.3l-0.3,0.2l-0.2,0.1h-0.2l-0.4,0.1l-0.2,0.1l-0.4,0.3l-0.4,0.2l-0.3,0.1h-0.7l-0.2-0.1
		l-0.1-0.1l-0.2-0.3h-0.3l-0.4,0.2l-0.9,0.2l-0.6-0.2l-0.4,0l-0.3,0l-0.2,0l-0.2,0l-0.3-0.2l-0.2-0.2l-0.2-0.3l0-0.1l-0.2,0.1
		l-0.1,0.1h-0.2l-0.1-0.1l-0.4-0.7l0-0.4l-0.4-0.4l-0.1-0.3l-0.1-0.2l0.4-0.4l0.2-0.2l0.1-0.2v-0.2l-0.2,0l-0.4,0.4l-0.2,0.3
		l-0.2,0.1v0.2l-0.3,0.3l-0.3,0.1l-0.6,0H833l-1.6,0.4l-0.8-0.2l-0.4,0l-0.2,0.1l-0.4,0.3l-0.4,0.1v0.3l0.2,0.2l0.6,0.5l0.3,0.2
		l0.4,0.2l0.2,0l0.2-0.2l0.8,0.3l0.4,1l-0.3,0.5l0,0.2l0.2,0.2l0.3-0.2l0.2-0.1l0.3,0.1l0.2,0.3l0.4,0.1l0.2,0.2l0.2,0.4l0,0.2
		l-0.1,0.1l-0.2-0.5l-0.4-0.2l-0.4-0.2l-0.2-0.2l-0.6,0.2l0.2,0.7l0,0.4l0.1,0.4l0.2,0.3l0,0.2v0.3l0.3,0.3l0.5,0.3l0.3,0.6l0.1,0.4
		l0.2,0.4l0.2,0.4l-0.4-0.2l-0.1-0.2l0-0.2l-0.2-0.7l-0.2-0.2l-0.3-0.1l-0.5-0.1l-0.2-0.1l-0.2-0.5l0-0.7l0-1.2l-0.2-0.8l-0.2-0.5
		l0.2-0.4l0-0.5l-0.1-0.2h-0.2l-0.1,0.1v0.2l-0.2,0.2l-0.2-0.1l0-0.2l0-0.1l-0.2,0l-0.1,0.1l0,0.2l-0.1,0.3h-0.2l-0.3,0.2l-0.3,0.4
		l-0.4,0.6l-0.4,0.5l0-0.3l0.2-0.7l0.2-0.5l-0.1-0.2l-0.3-0.2l-0.5-0.4l-0.2-0.1h-0.4l-0.1,0l-0.1,0.1l-0.1,0h-0.1l-0.1-0.2l-0.1,0
		H827l-0.1,0l-0.3-0.6v-0.2l0.1-0.2l0-0.1l0.1-0.2l0-0.1l-0.2,0.1l-0.2,0.4l-0.2,0.6l-0.1,0.2l0,0l-0.4,0.2l-0.2,0l0.4-0.4l0.1-0.1
		l0.2-0.4l0.2-0.4l0-0.2l-0.1-0.1l0,0.1l-0.1,0.2l0,0.1l-0.2,0.1l-0.1,0l0,0l-0.1,0l0-0.2l0.1-0.2l0-0.1h-0.1l-0.1,0.2l-0.1,0.2
		l-0.1,0h-0.1l0-0.1l0.1-0.3l0.2-0.3l0-0.1l0-0.2l-0.5-0.2l-0.2-0.3l-0.5-0.2l-0.4-0.2l-0.1,0l0-0.2l0-0.1v-0.1l-0.3-0.2h-0.3
		l-0.3,0l-0.1-0.1l-0.1,0.1l0,0.2v0.1l0,0.2v0.1l-0.1,0l-0.1,0h0l0-0.1l0-0.1l0.2-0.3l0.1-0.1l-0.1,0h-0.1l0,0.1l-0.1,0.1l0,0.2
		l0,0.1l0,0l-0.1,0l0-0.1h0l-0.2,0.1l-0.9-1.2l-0.1-0.4l-0.1-0.2l0.1-0.1h0.1v-0.1l0-0.2l0.4,0.2l0.1,0.1l0.2,0.2l0.3,0.1l0-0.1
		l-0.1-0.3l-0.6-0.4l-0.3-0.2l-0.4-0.1l-0.1,0.1v0.5l0.1,0.3l0.1,0.2l0.3,0.6l0.3,0.6l0.4,0.8l0.2,0.6l0.3,0.6l0.2,0.4l0.3,0.4
		l0.2,0.4l0.2,1l0.2,0.6l0.1,0.4l0.2,0.8l0.4,1.2l0.3,0.8l0.1,0.4l0,0.2l0.2,1.1l0,0.6l0,0.6l0,0.4l0.1,0.3l0,0.6v0.4l0.1,0.4v0.3
		l-0.1,0.4v0.3l0,0.4l0.1,0.3l0,0.8l0.1,1.1l0.3-0.1h0.2l0.1,0.1l0.2,0.2l0.1,0.2h-0.2l-0.1,0.2l-0.2,0.4l-0.1,0.3l-0.2,0.4
		l-0.2,0.2l-0.1-0.1V608l0.1-0.2l0.2-0.6l0-0.1V607l0-0.2l-0.1-0.1h0l0,0.3l-0.2,0.6l-0.2,0.4l-0.1,0.6l-0.2,0.6v0.4l-0.2,0.2
		l-0.2,0.1h-0.2l-0.3,0l-0.2,0l-0.4,0.1l-0.5,0.2l-0.2,0.2l-0.2,0.2l-0.1,0.2v0.4l-0.1,0.2l-0.2,0.2l-0.3,0.2l-0.3,0.2l-0.2,0.1
		l-0.1,0.1l0,0.2l0,0.2l-0.1,0.2v0.2l0.2,0.1l0.2,0.1l0,0.2l0.2,0.2l0.1,0.2v0.3l0.1,0.3l0.1,0.2l0.2,0l0,0.1l0.1,0.2v0.2l0,0.2
		l0.1,0.1l0.1,0.2l0,0.2l-0.1,0.1l0.1,0.2l0.3,0l0.2,0l0.1,0.2l-0.3,0l-0.2,0.1l0,0.2l0,0.2v0.4l-0.1,0.2l0,0.2l0,0.2l0,0.2l0,0.4
		l0,0.3v0.4l0,0.3l-0.1,0.3l0,0.2l0,0.2v0.3l0,0.6v0.5l-0.1,0.4l0,0.4l0.1,0.3v0.3l-0.1,0.4L822,624l0,0.3l0,0.2l0,0.2l-0.1,0.2
		l-0.2,0.1l0.1,0.2v0.2l0,0.2v0.5l-0.1,0.1l-0.1,0.3l0,0.1l0,0.1l0,0.2l-0.1,0.2l-0.1,0.1l-0.1,0.1l-0.2,0.1l-0.1,0.2l-0.2,0.1
		l0,0.2l-0.1,0.2l0.1,0.2l-0.1,0.2l0,0.2l0.2,0l0.2-0.1h0.2l0.2,0l0,0.2l0.1,0.1l0,0.1l-0.1,0.1v0.2l0,0.2l0,0.2l0,0.1l0,0.2l0,0.1
		l0,0.2l0.1,0.2l0.2,0.2l0.2,0.1l0.2,0.2l0.2,0.4l0.1,0.4l0.1,0.5l0,0.3v0.6l0,0.5l0.1,0.6l0,0.3l0,0.4v0.6l0.1,0.2l0,0.3l0,0.2
		l0,0.4l0.1,0.2v0.3l-0.1,0.3v0.3l0,0.1h0.1l0.1-0.2l0.2-0.6l0.1-0.4l-0.3-1l0.2-0.5l0.6-0.6l0.2-0.5l0.2-0.4l0.3,0l0.4-0.1l0.4-0.1
		h0.2l0.1,0.1v0.3l0,0.1v0.1l0,0.2l0,0l0.2,0.1h0.1l0-0.1l0-0.1l-0.2-0.8l0-0.4l0-0.2l0.2-0.2l0.1,0l0.1,0.1l0,0.1l-0.1,0.2
		l-0.1,0.5l0.2,0.7l0.2,0.2l0.1,0.5l-0.2,0.5l-0.3,0.1l-1-0.2l-0.8-0.2l-0.2,0l-0.2,0.2v0.3l0.1,0.7l-0.1,0.6l-0.2,0.4l-0.2,0.5
		l-0.4,0.2h0l-0.2,0.5l-0.1,0.5l0,0.6l-0.2,0.5l-0.1,0.4l0,0.4l-0.1,0.4l0,0.3v0.2l-0.2,0.4l-0.1,0.5l0,0.4l0,0.6l0,0.4l-0.1,0.4
		l-0.3,0.4l0.1,0.2l0.2,0.1l0.4,0.1l0.4,0.1l0.2,0.6l1,0.4l0.2-0.1l0.3,0.1l0.2,0l0-0.2l0-0.1l0.6-0.3h0.1l0.2,0.1l0,0.1l-0.2,0.1
		l-0.3,0.1l0,0.1l-0.1,0.3l-0.2,0.1l-0.2,0l-0.2,0.1l0.1,0.2l0.1,0.3l0.3,0.2l0.1,0.2l0.1,0.1l-0.1,0.2l0.1,0.2l0.1,0.1l0,0.1l0,0.2
		l-0.1,0.1l0,0.2l0.4,0.5l0.1,0.2l0.1,0.1l0.1,0.1l-0.1,0.4l-0.1,0.3l0.1,0.1l0.3,0.1h0.1l0,0.2l0,0.2l0,0.1l0.3,0.1h0.4l0.3-0.2
		l0.1,0.1l0.1,0.2l0.2-0.1l0.1,0l0.1,0.2l0,0.1l-0.5,0.2l-0.2,0.2l-0.2,0.2l-0.2,0.2l-0.2,0l0,0l-0.2,0.1v0.3l-0.1,0.3l0,0.1
		l-0.1,0.1l-0.3,0l-0.1,0.2l-0.2,0.1l-0.1,0.1l0.2,0.4l-0.1,0l-0.1,0l-0.3-0.2l-0.2-0.2l-0.3-0.2l-0.1-0.3l-0.3-0.3l-0.2-0.2
		l-0.3-0.4l-0.4-0.2l-0.4-0.6l-0.4-0.4l-0.2-0.2l-0.1,0l-0.6,0.2l-0.1-0.2l0-0.8l0-0.3l-0.1-0.2l0,0l-0.1,0.1l0,0.2l-0.1,0.5l0,0.4
		l0,0.4l-0.1,0.4l-0.1,0.2l-0.1,0.1l-0.2,0.1l-0.2,0l-0.1,0.1l0,0.1l0,0.2l0,0.1l-0.2,0.1l0.2,0.1l0.2,0.2l0.2,0.3l0,0.2l0,0.2
		l-0.1,0.1l-0.2,0.2l0,0.1l0,0.2l0,0.2l0.1,0.2l0.1,0.4l0.1,0.2l0.2,0.3l0.1,0.2l0.1,0.2l0.1,0.2l0.2,0.2l0.2,0.3l0.1,0.1l0.1,0.2
		l0,0.2v0.1l0.2,0.3l0.2,0.1l0.2,0.2l0,0.3l0,0.3l0.1,0.2l-0.1,0.3v0.1l0.1,0.2l0,0.2l0,0.1l0.1,0.2v0.1l-0.2,0.3l0,0.2l0,0.2
		l-0.2,0.2l-0.2,0.2l-0.2,0.2l-0.6,0.6l-0.3,0.4l-0.1,0l-0.1,0l0.1-0.2l0.2-0.7l0.2-0.9l0.1-1.4l0.1-0.3l0.1,0l0.1,0l0.2,0l0-0.1
		l-0.2-0.2l-0.1-0.2l0.1-0.2v-0.2l-0.2-0.2l-0.1-0.1l0.1-0.2l-0.2,0l-0.1,0.2l-0.1,0.2v0.4l0,0.4l-0.1,0.5l0,0.4v0.3l0,0.5l-0.2,1.3
		l-0.1,0.5l-0.1,0.6l-0.1,0.4l-0.1,0.4l-0.1,0.4l-0.2,0.3l-0.1,0l-0.1,0.2l-0.2,0.2l-0.2,0l-0.2,0l-0.2,0.1l-0.1,0.2l-0.1,0.2h-0.1
		l-0.2,0h-0.2l-0.3,0.2l0,0.1l0,0.2l0.1,0.1l0.2,0.1h0.3l0.4-0.1l0.6-0.1l0.3,0l0.2,0.1l0.1,0.2l0.1,0.2v0.4l0.2,0.6l0.1,0.6l0,0.3
		l0,0.3l0.1,0.3l0.1,0.3v0.6l0,0.2l-0.1,0.4l0,0.4l-0.1,0.3l0.1,0.2h0l0.1,0l0.1-0.3h0.2l0.1,0l0.1-0.2V670l-0.1-0.4l0.1,0l0.1,0
		l0.1-0.1l0.1-0.1l0.3-0.2l0.2-0.1h0.2l0,0.2l0,0.2l0.1,0.2l0,0.2l-0.2,0.2l-0.2,0.2l0,0l-0.2,0.2l-0.1,0.2l-0.2,0.3l-0.1,0.3
		l-0.1,0.2l-0.2,0.3l-0.1,0.2l-0.1,0h-0.1v-0.1l0.1-0.3h-0.2l-0.2,0.1l-0.1,0.2l0,0.3v0.2l0,0.2l0,0.3l-0.1,0.1l-0.1,0.2l0,0.1
		l0,0.2v0.1l0,0.2l0,0.2l-0.1,0.3v0.4l-0.1,0.5l-0.1,0.2l-0.1,0.2l-0.2,0.2l-0.1,0.2l0,0l0.2,0l0,0h0.2l0.2,0l0,0.2v0.6l0.1,0.4
		l0,0.3l0,0.3l0,0.3v0.5l-0.1,0.2l0,0.2l0,0.3v0.6l0.1,0.2l0,0.1l-0.1,0.2l-0.1,0.1l0,0.1l0,0.1l0.2,0.2l0.1-0.1v-0.4l0.2-0.3
		l0.1-0.2l0.2-0.2l0.2-0.4l0-0.4l-0.1-0.2l0-0.3l-0.2-0.6l-0.2-0.3l0.2-0.4l0.2-0.4l0.1,0v0.1l-0.1,0.2l-0.1,0.2l-0.1,0.2l0.1,0.1
		l0,0.2l0.1,0.2l0,0.1l0.1,0.3l0.1,0.2v0.2l-0.1,0.2h0.1l0.2,0l0.3,0.4l0.4,0.2l0.2,0.3l0.1,0.2l0,0.2l0,0.2l0,0.2l-0.1,0.1v0.2
		l-0.1,0.1l-0.1,0l-0.2-0.4l-0.1-0.5l-0.2-0.5l-0.2-0.2l-0.1,0l-0.1,0.2l-0.1,0.3l0,0.2l0,0.2l-0.2,0.4l-0.2,0.2l-0.1,0.1l-0.2,0.2
		l-0.3,0.2l0,0l-0.1,0.1l-0.1,0.1l0,0.2l-0.1,0.2l0,0.2l0,0.2l0,0.3l-0.1,0.2l-0.2,0.3l0,0.3l0,0.5l-0.1,0.5l-0.1,0.6l-0.1,0.4
		l0,0.4l-0.1,0.2l-0.1,0.2l0,0.1v0.2l-0.1,0.2l-0.1,0.3l-0.2,0l-0.2,0.1l-0.1,0.1l-0.1,0.2l-0.1,0.1l-0.1,0.2l-0.1,0.2l-0.2,0.3
		l-0.1,0.2v0.1l-0.1,0.1l0,0l0,0.1l-0.1,0.2v0.1l0,0.1l0,0.1l-0.1,0.1l-0.1,0.1l-0.2,0.1l-0.1,0.2l0,0.2v0.2l0,0.2v0.1l0,0.2
		l-0.1,0.1l0,0.1l0.1,0.2h0.2l0.3,0.1l0.3,0.1l0.2,0.1l2.3,0.1l0.4,0l1.3,0l4.5,0.1l1.2,0.1l-1.2-0.1l-4.5-0.1l-1.3,0l-0.4,0
		l-2.3-0.1l0,0.2l0.1,0.2l0.2,0.1l0.2,0.1l0.2,0l0.1,0.1l0,0.2l0.2,0.2l0.4,0.2l0.1,0.1l-0.2,0l-0.2-0.1l-0.2-0.1l-0.2,0l0,0v-0.1
		l0-0.2l-0.2-0.2l-0.2-0.2l-0.2-0.1l-0.2-0.3l-0.2-0.2l-0.1,0h-0.2l0.1,0.3l0.1,0.2l0,0.1l-0.1,0.2l-0.1,0.1l0,0.1v0.2l0,0.1
		l-0.1,0.1l-0.1,0.1l0,0.2l0.1,0.2l0.1,0.2l0.1,0.2l0,0.3l-0.1,0.4l-0.1,0.4l-0.1,0.6l0,0.5l-0.1,0.6l-0.1,0.9v0.4l0,0.2l0,0.2
		l0,0.2l-0.1,0.2l-0.1,0.1l0,0.2v0.2l0.1,0.2l-0.2,0.5l-0.2,0.4l0,0.4l0,0.2l-0.1,0.7l0.1,0.3l0,0l0.1,0l0.2,0l0.2,0l0.1,0v0.2
		l-0.1,0.2v0.1l-0.1,0.1l-0.1,0.1l0,0.2l0,0.2l0.1,0.2l0.2,0.1l0.2-0.1h0l0.2,0l0,0.2l-0.2,0.2v0.4l0,0.2v0.1l-0.1,0.2v0.2l-0.4,0
		l-0.1,0h-0.1l-0.4,0.2l-0.2,0h-0.1v-0.2l0.2-0.2v-0.4l0.1-0.6l0-0.4l0-0.4l0.1-0.3l0.1-0.2l0-0.1l-0.1,0l-0.1,0.2l-0.1,0.2
		l-0.1,0.2l-0.1,0.2l-0.1,0.2l0,0.3l0,0.3l-0.1,0.4l-0.1,0.3l-0.2,0.3l-0.1,0.5l0,0.4v0.3l-0.2,0.7l-0.3,0.9l-0.3,0.7l-0.1,0.4
		l-0.1,0.4l-0.1,0.1l-0.2,0.2l-0.1,0l-0.2,0.1v0.2l0,0.1l0,0.1l-0.1,0l-0.1,0l-0.1,0h0l-0.1,0.1l0.1,0.2l0,0.2l-0.1,0.2v0.1l0,0.1
		v0.2l0,0.1l-0.1,0.2l0,0.2l0.1,0l0.1,0l0,0.2v0.2l-0.1,0.3l0,0.2l-0.1,0.1l-0.1,0l-0.1,0.1l0,0.1v0.1l-0.1,0.1L812,712v0.2l0,0.2
		l0,0.1v0.1l0.1,0.1h0.1l0.1,0l0,0.1l0,0h-0.1l-0.1,0h0l0,0.2v0.5l0,0.1l-0.1,0.1v0.3l0.1,0.2l0.2,0.1l0.1,0.2l0.1,0.2l0,0.3l0,0.3
		v0.3l0.1,0.3l0,0.2l-0.1,0.1v0.1l0.1,0.1l0.1,0.1l0.2,0.2l0.2,0.2l0,0.2v0.4l-0.1,0.4l-0.1,0.7l-0.2,1l-0.2,0.7l-0.2,0.7l-0.2,0.7
		l-0.2,0.4l-0.1,0.1h-0.2l0,0l0,0.1l0,0.2l0.1,0.1l0.1,0l0.2,0l0.2,0h0.2l0.1,0.1l0.2,0.2l0.1,0.2l0.1,0.3l0,0.1v0.2l-0.1,0.2
		l-0.1,0.2l-0.1,0.2l-0.1,0.5l-0.1,0.2l-0.1,0.3l-0.1,0.3l-0.1,0.3l0,0.3l0,0.4l0,0.2l0,0.2l0.1,0.1l0.2,0l0.1,0l0.1-0.1l0.1-0.1
		l0.1-0.1l0.1-0.2l0.2-0.2l0.1-0.1h0.2l0.2,0.2l0.4,0.2l0.3,0.1l0.5-0.1h0.4l0.4,0.1l0.4,0.6l0.1,0.3l-0.1,0.2l-0.3,0.2l-0.2,0.2
		l0.1,0.3l0.1,0.4l0,0.3l-0.2,0.2l-0.3,0.4l-0.1,0.2l-0.2,0.3v0.1l0.1,0.1l0.4,0.2h0.6l0.2,0.1l0.5,0.4l0.6,0.2l0.6,0.1l0.2-0.1
		l0.2-0.3l0.1-0.4l0.2-0.2l0.2-0.1l0.3-0.1l0.2,0.1l-0.2,0.3l-0.3,0.1l-0.1,0.6L818,732h-0.5l-0.4-0.1l-0.2-0.1l-0.3-0.2l-0.4-0.2
		l-0.3-0.2h-0.2l-0.4-0.1l-0.5-0.1l-0.4-0.2v-0.5l0.2-0.3l0.4-0.6l0-0.3l-0.1-0.4l-0.2-0.2l-0.2-0.1l-0.1,0l-0.2,0.4l-0.1,0.2
		l-0.2,0.1l-0.1,0.2v0.1l0.1,0.1v0.1l0,0.1l-0.1,0l-0.1,0h-0.1l-0.1-0.1v-0.1l0.1-0.2l0.2-0.3l0.1-0.4l0.1-0.2l0.1-0.2l0.2-0.1
		l0.1,0h0.1V728l-0.2,0l-0.2,0l-0.2,0.1l-0.2,0l-0.2-0.3l-0.1-0.2l0-0.1v-0.1l0-0.3l-0.1,0l-0.5,0.4l-0.4,0.2l-0.4,0.1v0.3l-0.1,0.4
		l0,0.3v0.3l0,0.3v0.4l-0.1,0.3l-0.1,0.4l0,0.7l0,0.5l0,0.4l-0.1,0.4l-0.1,0.6v0.5l0,0.5l-0.1,0.4l-0.1,0.4l-0.1,0.4v0.4l0,0.5
		l-0.1,0.4l0,0.3l-0.1,0.3l-0.1,0.2l-0.1,0.2l0,0.4v0.7l0,0.6v0.5l0,0.5l0,0.4v0.8l-0.1,0.4l0,0.4l-0.1,0.8l-0.1,0.3v0.2l0.1,0.3
		v0.3l0,0.2l0,0l0.2,0.1h0.1l0-0.2l0-0.2v-0.3l0.4-0.4l0.5-0.3l0.4-0.6l0.3,0l0.2-0.2l0.2-0.1l0.3,0.2l0.2,0.2l0.1,0.2l0.1,0.2
		l0.1-0.1l0.1-0.2l0.3,0l0.1,0.3l0,0.1l-0.2,0.4l0,0.5l-0.1,0.2l-0.1,0.2l0.2,0.1l0.7,0.2l0.2,0l0.4,0.2l0.4,0.5h-0.3l-0.4-0.1
		l-0.5,0l-0.5-0.1l-0.2,0.1l-0.2,0.5l0-0.1l-0.2-0.8l-0.2-0.4l-0.2,0.1l-0.1-0.1l-0.1-0.5l-0.2-0.2l-0.2-0.1l-0.2,0.1l0,0.2l0,0.4
		l-0.1,0.4l-0.1,0.2h-0.1l0,0l0.1-0.1l0-0.1v-0.3l0.1-0.1l-0.1-0.2l0-0.1l0-0.2l0.1,0v-0.1l-0.1-0.1l-0.1,0l0,0.1v0.1l-0.1,0.1
		l-0.2,0.2l-0.2,0.1l-0.2,0.2l-0.1,0.1l-0.1,0l-0.2,0l-0.1,0.1l-0.2,0.2l0,0.2l0,0.2l-0.1,0.4l-0.1,0.6l-0.1,0.6l-0.1,0.4l0,0.3
		l0,0.2l-0.1,0.2l-0.1,0.3l0,0.2l0.1,0.2v0.5l-0.1,0.2l0,0.2l0,0.1l0,0.3l-0.1,0.7l-0.1,0.3l-0.1,0.3l-0.1,0.4l0,0.4l-0.1,0.3
		l-0.1,0.2l-0.1,0.2v0.2l-0.1,0.3l-0.1,0.2l-0.2,0.2l0,0.2l0,0.2l0.2,0.2l0.2,0l0.1,0.1l0,0.1v0.1l-0.1,0l-0.1,0.1l-0.2,0.2l0,0.3
		l-0.1,0.3l-0.1,0.2l0,0.2l0,0.3v0.2l0.1,0.2l0.1,0.1l0,0.1l-0.1,0.2l0,0l-0.2,0.1l0,0.1l0,0.2l0.1,0.1l0.1,0.2l0,0.2v0.1l0,0.1
		l0.1,0.1v0.2l-0.1,0.2l-0.1,0.3l-0.1,0.2l0,0.4v0.2l0,0.3l0,0.2l0.1,0.5v0.4l-0.1,0.3v0.4l-0.1,0.2l0,0.2l0,0.4v0.4l0,0.2v0.2
		l0,0.3l0,0.4l0,0.4l-0.1,0.7l0,0.4l0,0.3l0,0.2l0,0.2l0,0.3l0,0.1l-0.1,0.4l-0.1,0.7l-0.2,0.8l-0.1,0.3l-0.1,0.1l-0.1,0.2l-0.1,0.2
		v0.1l0.1,0.2l0.1,0.1l0,0.1v0.6l-0.2,0.4v0.1l0.1,0.1l0,0.1l0,0.3l0,0.2l0.1,0.2v0.3l-0.1,0.4l-0.1,0.6l-0.1,0.8l-0.1,0.6l-0.1,0.6
		v0.6l-0.2,0.5v0.6l0,0.6l0,0.2l-0.1,0.5l-0.2,0.7l-0.1,0.3l-0.1,0.2l0,0l0.1,0.4l0.2,0.2l0.2,0.2l0,0l0-0.2l0-0.1v-0.2l0-0.2h0
		l0.1,0.1v0.4l0,0.2l-0.1,0.2l0,0.2l0,0.2l0.1,0.6l0.1,0.3l0.1,0.5v0.2l-0.1,0.5l-0.1,0.4v0.6l0.3,0.4l0.3,0.3l0.4,0.2l0.2-0.1
		l0.2-0.3l0.4-0.1l0.2-0.3l0.4-0.1l0.1,0.1l0-0.4l0.1-0.4l0.2-0.2l0.3-0.2l0.2-0.2l0.2-0.2l0.1-0.2l0-0.2l0.2,0.1l0.2,0.2v0.2
		l-0.3,0.4l-0.2,0.1l-0.4,0.1l-0.2,0.1l-0.1,0.3v0.2l0.1,0.1l0.2,0l0.3-0.2l0.6-0.3l0.8-0.4l0.4-0.2l0.4-0.1l0.4,0l0.2,0l-0.1,0.2
		l-0.2,0.1l-0.4,0.2l-0.7,0.1h0l-0.4,0.1l-0.4,0.2l-0.1,0l0,0.1h0.3l0.1,0.1l0,0.1l-0.1,0.1l-0.1,0.1l-0.2,0.1l0,0.2l0,0.2v0.1
		l0,0.3l-0.1,0.2l0,0.2l-0.1,0.1l-0.2,0.1l0,0l0-0.1l0-0.1l0.1-0.2l0-0.3l-0.1-0.1l-0.5-0.1H809l-0.3-0.2l-0.2,0.2l0,0.1h-0.3
		l-0.2,0l-0.1,0.1l-0.2,0.1h-0.4l-0.5-0.2l-0.2-0.2l-0.6-0.5l-0.1-0.9l0-0.3l0.2-0.6l0-0.2L806,780l-0.3-0.2l0,0.4v0.3l-0.1,0.4
		l-0.1,0.5l0,0.3l-0.1,0.7l-0.1,0.9v0.6l0,0.4l-0.2,1.3l-0.1,0.6l0,0.6l-0.1,0.5l-0.1,0.8l-0.1,0.6l-0.1,0.6l0,0.4l-0.1,0.4
		l-0.1,0.3l-0.1,0.1l0,0.3l0,0.2v0.5l-0.1,0.2l0,0.1l0.1,0.1h0.1l0.2,0h0.1l0,0.1v0.1l-0.1,0h-0.1l-0.2,0.1l-0.1,0.1l-0.1,0.2l0,0.5
		l0,0.3l0,0.3l-0.1,0.4l-0.1,0.6l-0.1,0.8l-0.2,0.9l-0.1,0.4l0,0.2v0.1l0.1,0l0.1,0l0.1,0.1v0.1l0.1,0l-0.2,0.1l-0.1,0l0,0.1
		l-0.1,0.3l-0.1,0.6l-0.2,0.9l-0.1,0.8l-0.2,0.6l-0.1,0.4l-0.1,0.5l-0.1,0.4l-0.1,0.5l0,0.4l-0.1,0.3l-0.1,0.2l-0.1,0.3l0,0.4
		l-0.1,0.4l-0.2,0.8l-0.1,0.5l0,0.3l0,0.2l-0.1,0.4l-0.1,0.4l-0.1,0.4l-0.1,0.5l-0.2,0.4l-0.2,0.4l-0.1,0.2l-0.1,0.4l0,0.2l0.5-0.4
		l0.6-1.1l0.8-0.4l0.5-0.4l0.2-0.4l-0.2-0.5l-0.1-0.3l0.1-0.2l-0.1-0.3l0.2-0.2l-0.2-0.3l0.4-0.9l0.3-0.4l0.2-0.2l0,0l1-0.3l0.2,0
		l0.5,0.1l0.4,0.5l0.4,1v0.4l-0.1,0.4v0.2l0.1,0.2l0.3-0.2l0.6,0.1l0.2,0.1l0.1,0.2h0.4l0.2-0.1l0.4-0.4l0.1,0.4l-0.2,0.4l0,0.2
		l-0.2,0.1l-0.1,0.2l0.3,0.1l0.8,0.3l0.7,0.3l1,0h0.2l1.4-0.2l1.5,0.1l0.8,0.4l0.8,0.1l0.6,0.5l0.5,0.2l1,0.5l0.4,0.4l0.5,1.1l0,0.2
		l-0.2-0.1l-0.2-0.3l-0.6-0.9l-0.1-0.1l-1.2-0.5l-1-0.3l-1-0.7l-1-0.1l-0.7-0.1l-0.6,0h-0.8l-1,0.2h-0.8l-1.5-1l-0.3-0.1l-0.3-0.2
		l-0.4-0.1h-0.2l-0.1,0.1l-0.2,0.1l0-0.2l-0.1-0.4l-0.4-0.4l-0.6-0.4h0l0-0.5l-0.2-0.7l-0.2,0l-0.2,0.1l-0.2,0.3l-0.2,0.6l-0.1,0.4
		l-0.1,0.1l-0.2,0.1l0,0.2l-0.1,0.2v0.3l-0.3,0.1v0.3l0,0.1l0.1,0.1l0.1,0.2l-0.3,0.1l-0.2,0.4l-0.3,0.2l-0.4,0.1l-0.3,0.2l-0.2,0.1
		l0,0.3l0.2,0.4l-0.2,0.3l-0.3,0.1l-0.1-0.2l-0.2,0.2l-0.4,0.3l-0.3,0.2l0,0.2v0.3l-0.1,0.1l-0.1,0l-0.1,0.1l-0.1,0.2v0.2l0,0.2v0.4
		l-0.1,0.2l-0.1,0.4l-0.1,0.3v0.2l0,0.3l-0.1,0.3l-0.1,0.4l-0.1,0.4l0,0.5l-0.1,0.4l-0.1,0.4l-0.1,0.5L799,816l-0.1,0.4l-0.2,0.4
		l-0.1,0.5l-0.1,0.4l-0.1,0.3l0,0.4l-0.1,0.2v0.4l-0.1,0.1v0.1l-0.1,0.3l0,0.1l-0.2,0.4l-0.1,0.4l-0.1,0.3l-0.1,0.3l0,0.3l-0.1,0.3
		l-0.2,0.5l-0.3,0.8l-0.3,0.7l-0.2,0.4l-0.1,0.4l-0.1,0.4l-0.2,0.4l-0.2,0.4l-0.2,0.4l-0.2,0.4l-0.2,0.5l-0.2,0.6l-0.3,0.9l-0.2,0.4
		l-0.2,0.6l-0.1,0.2l-0.1,0.2l-0.1,0.1l-0.1,0.1v0.2l0,0.3l-0.2,0.4l-0.3,0.6l-0.4,0.9l-0.4,0.8l-0.4,0.8l-0.2,0.3l-0.1,0.4
		l-0.2,0.3l-0.2,0.2l-0.1,0.2l-0.1,0.3l-0.2,0.2l-0.1,0.2l-0.1,0.2l-0.2,0.2l0.2,0.2l0.1,0l0.2,0l0.2-0.1l0.2-0.4l0.1-0.1l0.1-0.1
		l0-0.5l0.2-0.3l0.1-0.2l0-0.3l0.2,0l0-0.1l0.2-0.2l0.2-0.1l0.1-0.2l0,0l0.1-0.1l0.2-0.1l0.1,0l0-0.1l0-0.2l0.1,0l0.1-0.1l0.5-0.2
		l0.1-0.2v-0.5l0.1-0.4l0.2-0.2l0.3-0.4l0.4-0.4l0.6-0.2l0.3-0.1l0.3-0.1l0.2-0.1l0-0.4l0.1-0.2l0.4,0.3l0.3,0.1l0.1-0.1l0.1-0.5
		v-0.2l0-0.4l0.1-0.3l0.1-0.2l0-0.2l0-0.2l0,0.1l0.2,0.3l0.4,0h0.2l0.2-0.1l0.1-0.2h0.4l0.1,0l0.1-0.3l0.1-0.4l0.1-0.2l0.2-0.1h0.2
		l0.3,0.1l0,0.2l-0.2,0.2l-0.2,0l-0.1,0.2l-0.2,0.4l-0.1,0.3l-0.2,0.3l-0.4,0.3l-0.4,0.3l-0.4,0.3v0.3l0.2,0.2l0.4,0h0.3l0.2,0.3
		l0.1,0.3l0.1,0.2l0.2,0.2h0.4l0.3,0l-0.2,0.2l-0.2,0.1l-0.1,0.3l-0.2,0.3v0.2l0,0.2l0,0.2l0,0.1l-0.1,0.1v0.1l0.1,0l0.3,0.2
		l0.2,0.1l0,0.3l0,0.3h0.1l0.4,0.2l0.3,0.2v0.3l0.1,0.2l0.2,0.2l0.2,0.2l0.1,0.3l0,0.3l-0.1,0.2l0,0.2l0,0.1l-0.5-0.1l-0.2-0.2
		l-0.1-0.5v-0.2l-0.1-0.1h-0.1l-0.3,0.2l-0.2,0.1l-0.8-0.1l-0.1,0l-0.1,0.1l-0.2,0.3l0-0.3l0-0.4l-0.1-0.3l-0.4-0.4l-0.1-0.1
		l0.1-0.3l0.1-0.3l0.1-0.2l0.1-0.4l0-0.5l-0.2-0.6l0.1-0.4l0.1-0.3l0.1-0.4l-0.2-0.2l-0.5,0h-0.2l-0.3,0l-0.2,0l-0.7,0.3l-0.2,0.1
		l-0.2,0.3l-0.3,0.3l-0.3,0.5l-0.1,0.1l-0.3,0.3l-0.5,0.3l-0.1,0.2l-0.2,0.4l-0.2,0.4l-0.3,0.6l-0.2,0.2l-0.2,0.1v0.1l-0.1,0.4
		l-0.1,0.4l-0.2,0.4l-0.2,0l-0.3,0l-0.2,0.1l-0.1,0.2l-0.1,0.2l-0.1,0.2l0,0.2l-0.1,0.1v0.4l0,0.2l-0.1,0.2l0,0.2l0.2,0l0.2-0.2
		l0.2-0.2l0.2-0.2l0.3,0l0.1,0l0.2,0.2l0.2,0.2l0.1,0.1l0.1,0l0.1,0l0.2-0.1l0,0.1l-0.1,0.1v0.3l-0.1,0.1l-0.4-0.3l-0.2,0l-0.1-0.2
		l-0.1-0.2l0-0.1l-0.1,0l-0.2,0.3l-0.1-0.2l-0.1,0l-0.2,0.1l-0.1,0.1l0,0.2l-0.3-0.1l-0.2,0.2v0.2l0.3,0.4l0.1,0.2v0.2h-0.3l-0.2,0
		l0,0.1l0,0.2l0,0.1l0,0.1h0l0.1,0l0.1,0h0l0,0l-0.1,0.1l-0.1,0.2l0.3,0.3v0.1l-0.1,0.3l0,0.2l0.2,0.2l0.1,0.3l0,0.3l0.2,0.2
		l-0.2,0.2v0.5h-0.1l-0.1-0.1l0-0.6l-0.1-0.2l-0.2-0.6v-0.3l0-0.2l0-0.1l-0.1,0l-0.1,0l0,0.5v0.2l0,0.2v0.2l0.1,0.1l0,0.1v0.3l0,0.1
		l-0.1-0.1h-0.1l0,0.1v0.4h-0.2l0-0.4l0.1-0.2l-0.2-0.3l0.1-0.1l0-0.1l0-0.1l-0.1-0.1h-0.1v-0.2l0.1-0.1l0.1-0.1l0.1-0.2l0.1-0.2
		l-0.1-0.1l-0.1,0l-0.1,0l-0.1-0.1l0.1-0.2l0.1-0.4l0-0.3l0-0.2l0.2-0.2l0-0.1l-0.1,0l-0.1,0.1l-0.2,0.1l-0.1,0.1l-0.1,0.1l-0.2,0
		l0.2-0.2l0.2-0.3l0.1-0.1l-0.1-0.2l0.1-0.1l0,0l-0.1-0.1l0.1-0.2v-0.3l0.2-0.2l0.1-0.4l-0.1-0.3l-0.1-0.1h0l0-0.2l-0.1-0.1l-0.4,0
		l-0.2,0l-0.3-0.2l-0.2,0.1l-0.1,0.2l-0.2,0.2l-0.2,0.1l-0.2,0.2l-0.2,0h-0.2l-0.1,0h-0.1l-0.1,0l-0.1,0.1l-0.1,0.1l-0.2,0h-0.1
		l-0.1,0l-0.1,0l0,0v0.2l0.1,0.1l0,0.2l-0.2,0l-0.2,0.1l-0.1,0.1l-0.1,0.1l-0.1,0.2v0.4l-0.1,0.1l-0.2,0.1l-0.1,0.1l0,0.2v0.2
		l-0.1,0h-0.1l-0.1,0.2l0,0.2l-0.1,0.2l-0.1,0l-0.1,0.1v0.3l0.1,0.1l0.1,0l0.1,0l0.1,0.1l0,0.2l0.1,0.4l0,0.3l0.2,0.2l0.1,0.2l0,0.3
		v0.6l0,0.1l0.2,0.2l0,0.2l0,0.2l-0.1,0.2l-0.1,0.2l-0.1,0.3l0,0.3v0.2l0,0.3l-0.1,0.3l-0.2,0.5l-0.1,0.4l-0.1,0.4l-0.1,0.2
		l-0.1,0.3l0,0.4l0,0.3v0.2l-0.1,0.3l0,0.4l-0.1,0.4l-0.1,0.7l-0.1,0.8l-0.2,0.4L786,852l-0.2,0.5l-0.2,0.6l0,0.3l-0.1,0.5l-0.1,0.3
		l-0.1,0.2l-0.1,0.3l-0.1,0.2l-0.1,0.3v0.2l-0.2,0.3l-0.1,0.1l-0.1,0.2l-0.1,0.4l0,0l-0.1,0.2l-0.1,0l-0.1,0.3l-0.2,0.2l-0.2,0.2
		v0.1l0,0.2l-0.1,0.3v0.3l0.1,0.3l0,0.2l0.1,0.2l-0.1,0.3l-0.1,0.2l-0.1,0.4l0,0.2v0.3l0,0.4l-0.1,0.4l-0.2,0.9l-0.2,0.9l-0.2,0.5
		l-0.2,0.6l-0.2,0.4l0,0.5v0.3l-0.2,0.3l-0.2,0.3l-0.1,0.2l-0.1,0.3v0.1l-0.1,0.2L782,867l-0.1,0.3l-0.1,0.2l-0.1,0.4l-0.2,0.6
		l-0.3,0.7l-0.2,0.6l-0.2,0.5l-0.2,0.5l-0.2,0.4l4.1,0.2l0,0l-4.1-0.2l-0.4,1.2l-0.4,1l-0.4,0.8l-0.6,1.1l-0.4,0.6l-0.2,0.4
		l-0.2,0.5l-0.3,0.5l-0.3,0.4l-0.1,0.1l-0.1,0.1h-0.1l-0.1,0l0,0v0.2l0.1,0.2l-0.1,0.4l-0.2,0.4l-0.2,0.3l0,0.2l0.1,0.4l-0.3-0.1
		l-0.2,0.2l0,0.3l-0.2,0.4l-0.2,0.2l-0.2,0.1h-0.2l0-0.1l-0.1,0l-0.1,0.1l-0.1,0.2l0,0.2l0.2,0.1l0.2,0l0.3,0.3l0.6,0.5l0.4,0.4
		l0.2,0.6l0.2,0.4l0.2,0.4l0.1,0.5l0.1,0.5l0.1,0.5l0.1,0.4l0,0.6l0.1,0.6l0.1,0.6l0,0.6l0.1,0.3l0,0.4v0.3l-0.1,0.2l0.1,0.3l0,0.3
		l0,0.1v0.1l0.2,0l0.1-0.1l0.1-0.1l0.1-0.2l0.2-0.1l0.2,0h0.1l0.1-0.1l0.1-0.1l0.2,0l0.3,0.1l0.5,0.4l0.4,0.5l0.2,0.4l0.1,0.3l0,0.3
		l0.1,0.2l0.1,0.2l0.1,0.2l0.1,0.2l0.1,0.4l0,0.3l0.1,0.3l0.1,0.1l0,0.1v0.2l0.1,0.2l0.3,0.2l0.1,0.2l0,0.1l-0.1,0.2v0.2l0,0.1
		l-0.1,0.2v0.2l0.1,0.2l0.2,0l0.3,0l0.3,0.2l0.2,0.2l0.5,0.4l0.3,0.2l0.2,0h0.2l0.1,0.1l0.1,0.2l0.2,0.4l0,0.2l0,0.4l0,0.1l0,0.3
		l0,0.1l-0.1,0.1l0,0.1l0.2,0.1l0.2,0.2l0,0.2v0.3l-0.1,0.2l0.2,0.1l0.1,0.2l0,0.3l0,0.4v0.4l0,0.5v0.4l0,0.2l-0.1,0.3l-0.1,0.1
		l-0.2,0l0,0.1l0,0.2l0.2,0l0.2,0l0.2,0.2l0.1,0.2l0,0.2l0.1,0.3l-0.1,0.1l-0.1,0.1l0.1,0.2h0.1l0.1,0.2l0,0.2l0,0.3v0.4l-0.2,0.6
		l-0.2,0.7l-0.2,0.6l-0.2,0.8l-0.3,0.7l-0.2,0.5l-0.2,0.5L783,910l-0.2,0.5l-0.1,0.4l-0.1,0.2l-0.1,0.1l0.1,0.2l0,0.3l-0.1,0.2
		l-0.1,0.2v0.2l0,0.1l-0.1,0.2l-0.1,0.1l0.1,0.3l0,0.4l0,0.2l0,0.2l-0.2,0.1l-0.1,0.2l0.1,0.2v0.1l-0.1,0.2l-0.2,0.4l-0.2,0.6
		l-0.3,0.6l-0.1,0.4l0.1,0.4l0.2,0.3l0.2,0.1l0.4-0.1l0.6-0.1l0.3-0.1l0.2-0.4l0.2-0.2h0.4l0.6-0.2l0.2-0.6l0.3-0.2l0,0.5v0.5
		l-0.3,0.3l-1,0.2l-0.3,0.1l-0.2,0.1l-0.3,0.2l-0.4,0.1l-0.4,0.2l-0.3,0l-0.1,0.2v0.5l0,0.8v1.5l0,0.5l0,0.5l0,0.5v0.5l0,0.5
		l-0.1,0.4l-0.1,0.5l0,0.2l-0.1,0.2l0,0.1l0,0.2v0.2l-0.1,0.2l-0.1,0.1l-0.1,0.1l-0.1,0.3v0.5l0.1,0.2l0.1,0l0.1,0l0.1-0.1h0.2
		l0.2,0.1l0.2,0.2l0.1,0.2l0.1,0.2l0.1,0.4l0.1,0.4v0.3l0.1,0.4l0,0.5v0.4l0,0.4v0.8l0,0.2l-0.1,0.2l0,0.2l0,0.2v0.3l-0.1,0.2
		l-0.1,0.2l0,0.1l0,0.2l0,0.1l0.2,0.2l0.2,0.2l0.1,0.2l0.1,0.2l0.1,0.2l0.2,0.2l0.1,0.2l0.1,0.2v0.1l0.1,0l0.2,0.2l0,0.2l0.1,0.1
		l0.2,0l0.1,0.3l0.1,0.3l0.2,0.2v0.3l0,0.2l-0.1,0.2l0.1,0.2l0.1,0.1l0.1,0.1l0,0.2l-0.1,0.2v0.3l0,0.2l0.2,0.2l0.2,0.1l0.1,0.3
		l0.2,0.4v0.2l0,0.1l0.1,0.1l0.1,0.1l0,0.3l0,0.2v0.2l-0.1,0.2l-0.1,0.1l0,0.2l0.1,0.1l0,0.2l0,0.3l0,0.2l-0.1,0.1l-0.1,0l-0.1,0
		l0,0.2l0.1,0.2l0.1,0.2l0.1,0.3l0,0.2l0.2,0.2l0.1,0.2l0.1,0.2l0.1,0.2l0,0.2l0,0.2l0,0.2v0.4l0,0.2l-0.1,0.2l-0.1,0.1v0.1l0,0.2
		l0.1,0.2l0,0.1l0.1,0.2l0,0.2l0,0.1l-0.1,0.2l0,0.2l0.1,0.1l0.2,0l0.1,0l0,0l0.1,0.1l0,0.2l0.2,0.2l0.2,0.3l0.2,0.2l0.3,0.3
		l0.2,0.1l0.1,0.2l0.1,0.2l0.2,0.4l0,0.2l0.1,0.2l0.2,0.2l0.2,0.2l0.2,0.2l0.4,0.2l0.2,0.2l0.1,0.3l0,0.3l0,0.2l0.1,0.1l0.2,0.1
		l0.2,0.1l0.1,0.1l0,0.1l0,0.2l0.2,0l0.2,0l0.1,0.1l0.5-0.1l0.5,0.2l0.2,0.2l0.2,0.4l0.1,0.2l0.2,0.1l0.1,0.2l0,0.3l0.2,0l0.2,0
		l0.1,0l0.2,0l0.2,0.1l0.2,0.2l0.2,0.2l0.1,0.2l0.1,0.2l0.3,0.2l0.4,0.4l0.3,0.2l0.2,0.2l0.1,0.3l1.9,0.1l3.5,0.3l0.7,0l0.7,0l0,0
		l1.9,0.1l4.4,0.2h0.6l0.8,0l1.7,0l0.1,0l4.9,0.2l4.2,0.2l2,0.1l0.9,0h0.1l4.9,0.2l0.9,0l1.9,0.1l2-0.3l6.8,0.2l3.8,0.1l3.2,0.1
		l3.7,0.1l0.3,0l0.7,0l0.1,0h0l3.8-0.1l0.9,0l2.1-0.1l1.1,0l0.2,0l1.9-0.1l2.7-0.2l4.2,0.5l1.3,0.1l0.1,0l1.1,0l1.3,0l7.3,0.1
		l11,0.1l1.2,0l2.2,0l2.6,0l2.5,0l0.2,0l1.1,0l3.8-0.1l11.1,0l0.2,0l2.5,0l1.3,0l1.2,0l1.5,0l2.4,0l1.3,0l0.1,0l1.1,0l1.1,0h0.1
		l1.5,0.1l1.2,0l0.6,0l8.7,0.3l2.9,0.1l3,0.1h0.1l0.2,0l4.3,0.1l8.4,0.2l0.9,0l0.4,0l0.7,0l1.7,0l0.7,0l8.8,0.2l1.7,0l6.9,0h0.5
		l0.2,0l1.1,0h0.2l1.1,0l3.3,0l1.1,0l0.6,0h7l0.1,0l6.8,0.4l1.3,0l2,0l4.5,0l18.9-0.1l3.8,0l2.8,0l3.8,0l8.7-0.1l1.1,0h0.4l5.3-0.1
		l6.2-0.1l0.6,0l0.7,0l2.6-0.1h0.5l1.7,0l9-0.2h0l2.2,0h0.8l1.3,0h0.2l1.8,0l8.4-0.1l5,0l3.2,0h0.1l0.2,0l0.4,0h0.1l8.9-0.3l2.1-0.1
		l11.6-0.3l6.3-0.2l9.1-0.1l8.5-0.2l0.3,0l11.7-0.5l10.5-0.4l5.1-0.2l2.4-0.1l5.1-0.2l1.3-0.1l1.2,0l2.6-0.1l1.3-0.1l3.7-0.2
		l2.3-0.1l1.5-0.1l6-0.3l6.3-0.3l1.4-0.1l2.2-0.1h0l3.7-0.2l0.4,0l2.5-0.1l1.2-0.1l2.2-0.1l0.3,0l3.5-0.2l1.8-0.1l1.7-0.1l0.9,0
		l5.8-0.2l7.4-0.3l3.6-0.2l13-0.7h0l0-0.1l-0.2-3.9l0-0.8l0-0.5l-0.3-6.3l-0.1-1.3l-0.5-11.6l-0.2-4l-0.1-1.8l-0.1-2.9l-0.1-1.3
		l-0.1-1.5l-0.1-1.1l0-0.7l-0.3-5.9l-0.3-5.3l-0.2-5.5l-0.2-4.3l-0.1-1.9l-0.2-4.8l-0.2-4.7l-0.1-1.6l-0.1-1.3l-0.1-0.9l-0.1-2.4
		l-0.2-3.8l-0.1-2.5l-0.3-5.5l0-0.6l0-0.7l-0.1-2.5l-0.2-3.8l-0.1-1l0-1.5l0-0.9l-0.3-6.6l-0.1-1.3l-1.4-28.6l-0.5-10.2l-0.4-8.4
		l-0.1-2.4l0-0.1l0-0.1l0.1-0.5l0-0.1l0.1-0.4l0-0.1l-0.3-0.2l-0.5-0.3l0.1-0.7l0.5-0.5l0.3,0.2l0.4,0l0.1-0.2l-0.1-0.3l-0.1-0.4
		l-0.2-0.2l-0.4-0.2l-0.1-0.3l0.7-0.4l0.8-0.2l0.5,0l0.4-0.3l0.1-0.3l0-0.6l0-0.4l0.1-0.3l0.1-0.3l0.1-0.4l0-0.2l0.1-0.4l0.1-0.1
		l0.2-0.3l0.1-0.1l0.1-0.1l0.1-0.2l0-0.1l0.1-0.3l0-0.3l0-0.3v-0.3l0-0.2l-0.1-0.1l-0.1-0.2l-0.1-0.1l-0.1-0.2l-0.1-0.2l0-0.3
		l0.2-0.5l0,0l0.1-0.2v-0.3l-0.1-0.1l0-0.1l-0.1-0.1l-0.1,0l-0.2-0.1l-0.3-0.1l-0.2-0.2l0-0.1l0.1-0.2l0.2-0.2l0.2-0.2l0.2-0.1
		l0.2-0.1l0.1-0.1l0.2-0.2l0,0l0.1-0.2l0.3-0.4l0.1-0.2l0.1,0l0.3-0.1l0,0l0.1-0.1l0.1,0l0.1-0.1l0.1-0.3l-0.1-0.1l-0.1-0.2
		l-0.2-0.3l-0.1-0.3l0-0.1l0,0l0.1-0.1l0.1-0.1l0.1-0.1l0.2-0.1l0.1-0.4l0-0.4l0-0.3l-0.1-0.3l-0.1-0.3l-0.1-0.4l-0.4-0.3l-0.2-0.2
		l-0.2-0.1l-0.3-0.2l-0.3-0.2l-0.2-0.1l-0.3-0.2l0,0l-0.1-0.3l-0.1-0.1l-0.1-0.8l0-0.2l0-0.3l0-0.2l-0.1-0.4l0-0.1l0-0.5l0.1-0.2
		l0,0l0.4-0.2l0.3-0.1l0.3-0.1l0.3-0.1l0.1,0l0.4-0.2l0.2-0.1l0.2-0.1l0.3-0.3l0,0l0.1-0.2l0.3-0.3l0,0l0.1-0.4l0-0.2l0.1-0.3
		l0.1-0.4l0-0.1l0-0.2l0-0.2l0-0.2l0-0.2l0-0.1l0.1-0.3l0-0.1l0-0.1l0-0.1l0.1-0.2l0.1-0.1l0.2-0.3l0.1-0.1l0-0.1l0.2-0.7h0.1
		l0.1-0.4v-0.5l-0.1-0.5l-0.3-0.4l-0.1-0.1l-0.3-0.3l-0.9-0.6l-0.3-0.2l-0.1-0.1l-0.3-0.2l-0.2-0.1l-0.4-0.2l-0.2,0l-0.3,0l-0.4,0.1
		l-0.3,0l-0.3-0.1l-0.1,0l0,0l0,0l-0.2-0.4l-0.1-0.3l-0.1-0.4l0-0.2v-0.1l0-0.3l0-0.7v-0.1l0-0.2l0-0.1l-0.1-0.5l-0.1-0.4l0,0
		l-0.2-0.2l-0.2-0.2l-0.4-0.1l-0.1,0l-0.1,0l-0.2,0l-0.5,0l-0.4,0l0,0l-0.4-0.1l-0.4,0l-0.1,0l-0.3,0l-0.3,0.1l0,0l-0.1,0.1
		l-0.1,0.1l-0.2,0.4l-0.1,0.4l-0.1,0.1l-0.2,0.3l-0.2,0l0,0l-0.3-0.2l-0.5-0.4l-0.2-0.1l-0.4-0.3l-0.1-0.1l-0.3-0.4l-0.1-0.1
		l-0.1-0.2l-0.2-0.6l-0.3-0.7l-0.1-0.4l-0.4-0.3l-0.1-0.1l-0.5-0.3l-0.1,0l-0.1,0l-0.1,0h-0.2l-0.1,0l-0.3,0.2l-0.3,0.4l-0.1,0.3
		l0,0.1l-0.3,0.6l-0.2,0.4l-0.1,0l-0.2,0.1l-0.1,0l-0.1,0l-0.2,0h0l-0.3-0.1l-0.4-0.1l-0.4-0.1l-0.1,0l-0.5-0.2l-0.7-0.6l-0.1-0.1
		l-0.4-0.5l-0.1-0.3l-0.1-0.2l-0.3-0.4l-0.5-0.4l-0.1-0.2l-0.1-0.3l0-0.2l0-0.1l0-0.1l0.2-0.2l0.1-0.1l0.3-0.2l0.3-0.3l0.1-0.1
		l0.3-0.5l0.1-0.2l0.2-0.3l0-0.1l0.1-0.3l0-0.1l0-0.3l-0.1-0.4l-0.1-0.4l0,0l-0.3-0.5l-0.3-0.4l0,0l-0.4-0.3l-0.2-0.2l-0.2-0.2
		l-0.4-0.3l-0.1-0.1l-0.4-0.3l-0.1-0.1l-0.5-0.9l0-0.1l-0.1-0.3l0-0.1l0.1-0.5l0,0l0.1-0.3l0.1-0.1l0.1-0.2l0.4-0.4l0.2-0.3l0,0
		l0.2-0.4l0.1-0.5l0-0.1l0.1-0.4l0,0l0,0l0-0.2l0-0.3l0-0.4l0-0.3l0-0.4l0-0.4v-0.1l-0.1-0.7l-0.1-0.2l-0.2-0.3l0,0l-0.1-0.3l0-0.1
		l-0.1-0.3l-0.1-0.4l0-0.2l0.1-0.4l0.2-0.2l0.4-0.1l0,0l0.2-0.1l0.2-0.1l0.2-0.1l0.1-0.1l0.2-0.2l0.1-0.1l0.1-0.3l0.1-0.2l0.1-0.3
		l0.1-0.4l0-0.2l0.3-0.5l0.2-0.2l0.1-0.1l0.3-0.2l0.1,0l0.2-0.1l0.1,0l0.3-0.1l0,0l0.2-0.1l0.2-0.1l0.1,0l0.2-0.3l0,0l0.1-0.2
		l0.1-0.1l0-0.1l0.1-0.4l0.1-0.6l0.1-0.4l0-0.1l0-0.1l-0.1-0.4l0-0.1l-0.1-0.3l0.1-0.6l0.1,0l0.1-0.1l0.1-0.1l0.3-0.3l0,0l0.2-0.2
		l0.2-0.2l0-0.1l0.1-0.6l0-0.2l0-0.5l0.1-0.5l0-0.2l0-0.2l0-0.3l0-0.1l0-0.3l0-0.1l0.2-0.7l0.2-0.3l0.1-0.1l0.1-0.2l0.2-0.2l0.1-0.1
		l0.1-0.1l0.1-0.2l0.2-0.6l0.1-0.5l0-0.6l0-0.4l0.1-0.3l0.1-0.3l0-0.1l0.4-0.3l0.2-0.3l0.1-0.3l0-0.2l0-0.3l0-0.4l0.1-0.3l0-0.1
		l0.2-0.3l0.1-0.1l0.1-0.2l0.2-0.4l0.1-0.2v-0.4l0-0.6l0-0.4v-0.1l0-0.2l0.1-0.2l0,0l0.1-0.1l0.2-0.2l0.2-0.3l0.1-0.2l0.1-0.1
		l0.1-0.2l0-0.1l0.1-0.1l0.3-0.3l0.1-0.1l0.3-0.2l0.1-0.1l0.2-0.1l0.6-0.2l0.1,0l0.4-0.1l0.4-0.1l0.3-0.1l0.1,0l0.3-0.2l0.3-0.2
		l0.1-0.1l0.4-0.5l0.1-0.2l0.1-0.1l0.2-0.2l0.1-0.1l0.1,0l0.7-0.3l0.1,0l0.6-0.3l0.1,0l0.3-0.2l0,0l0.2-0.3v-0.1l0.1-0.2l0-0.1
		l0-0.3l0-0.4l0-0.1l0.1-0.4l0.1-0.3l0.1-0.1l0.2-0.3l0.5-0.6l0,0l0.3-0.4l0-0.1l0.2-0.4l0.2-0.4l0.2-0.4l0.3-0.5l0.1-0.4l0.1-0.4
		l0-0.1l0.2-0.3l0.3-0.5l0.2-0.3l0-0.1l0.1-0.1l0.1-0.1l0.1-0.1l0.2-0.2l0.3-0.5l0-0.1l0.1-0.2l0.1-0.3l0-0.1l0.2-0.6l0.1-0.5
		l0.1-0.4l0.1-0.3l0.1-0.2l0-0.1l0.2-0.4l0-0.1l0.2-0.6l0-0.1l0.1-0.6l0-0.4l0-0.2l0-0.3l0-0.1l0,0l-0.2-0.5l-0.3-0.6l-0.3-0.4
		l-0.1-0.1l-0.2-0.6l0.1-0.3l0.2-0.2l0.3-0.3l0.3-0.3l0,0l0-0.1l0.1-0.3l0-0.4l0,0l-0.3-0.1l-0.1,0l-0.2,0.1l-0.2,0.4l-0.2,0.4
		l-0.2,0.2l-0.2-0.1l0,0l-0.1-0.2l0.1-0.5l0.1-0.5l0.2-0.5l0-0.2l0.1-0.5l0,0l-0.1-0.5l-0.1-0.9V689l0-0.1l0.1-0.4l0.4-0.5l0.2-0.2
		l0,0l0.1-0.1l0.2-0.2l0.2-0.2l0.2-0.3l0,0l0.1-0.2l0.2-0.2l0.1-0.2l0.1-0.1l0.1-0.1l0.2-0.2l0.3-0.4l0-0.1l0.2-0.3l0.1-0.3l0-0.1
		l0.1-0.2l0.2-0.3l0.1-0.1l0.2-0.4l0-0.1l0.1-0.3l0-0.1l0-0.2l-0.1-0.2l0-0.1l0-0.5l0.2-0.3l0,0l0.4-0.6l0.1-0.1l0.2-0.1l0.3-0.1
		l0.4-0.3l0,0l0.3-0.5l0,0l0.2-0.5l0-0.1l0.1-0.3l0.1-0.3l0,0l0.1-0.2l0-0.1l0.2-0.2l0.3-0.4l0.2-0.7l0-0.2l0.1-0.6v-0.5l0-0.2
		l0-0.2l0-0.4l0-0.1l0.2-0.6l0-0.2l0.3-1.1l0-0.2l0.1-0.4l0-0.2l0.1-0.5l0-0.3l0.1-0.5l0.1-0.9l0.2-1.1l0.1-0.4l0-0.2l0.2-0.8
		l0.1-0.1l0.5-0.6l0.1-0.1l0.2-0.3l0.1-0.1l0-0.1l0.1-0.2l0.1-0.4l0-0.5l0-0.6l0-0.1l-0.2-0.8l0-0.2l0-0.3v-0.1l0-0.6l0.1-0.3
		l0.1-0.4l0.2-0.5l0.2-0.4l0.3-0.7l0.2-0.5l0.1-0.2l0.2-0.3l0.2-0.4l0.3-0.5l0.1-0.2l0.4-0.7l0.1-0.2l0.2-0.5l0.2-0.6l0.2-0.5
		l0.1-0.2l0.3-0.5l0-0.1l0.2-0.2l0.1-0.1l0.2-0.3l0.3-0.3l0.2-0.5l0.1-0.5l0-0.6l0-0.3l0-0.1l0.1-0.6l0.4-0.6l0.3-0.4l0.2-0.1
		l0.5-0.5l0.1,0l0.3-0.4l0-0.1l0.1-0.1l0.1-0.3l0-0.2l0-0.2v0l-0.1-0.3l-0.1-0.3l0,0l0-0.3v-0.6l0-0.2l0-0.2v-0.4l0-0.4l0-0.1l0-0.1
		l0-0.1l0.1-0.1l0,0l0.4-0.3l0.1-0.1l0.1-0.3l0.1-0.3l0-0.1l0.2-0.3l0.2-0.3l0.1-0.4l0,0l0.1-0.6l0.1-0.3l0.1-0.3l0,0l0-0.2l0-0.3
		l0-0.1l0,0l0.1-0.1l0.1,0l0.1,0l0.1,0l0.2-0.1l0.1,0l0.1,0l0.1-0.3l0,0l0.2-0.3l0.1-0.1l0.1-0.1l0.2-0.2l0.2-0.1l0.1-0.1l0.2-0.1
		l0.2-0.2l0.1-0.1l0,0l0.1-0.2l0-0.1l0-0.1l0-0.2l0-0.2l0-0.2l0-0.1l0.1-0.2l0.1-0.1l0.1-0.1l0.2-0.4l0,0l0.2-0.5l0.2-0.4l0,0
		L1278.9,636.4z M795.7,873l-0.9-0.1l0,0L795.7,873L795.7,873z M798,876.8l1,0v0L798,876.8L798,876.8z M800.3,886.2H800l0,0H800.3
		L800.3,886.2z M800.5,878.2l-1.6-0.1l0,0L800.5,878.2L800.5,878.2z M801,880.1L801,880.1l0.6,0v0L801,880.1z M801.9,897l-0.4,0
		L801.9,897L801.9,897z M807.1,920.3l-0.1,0.2l-0.4,1l0,0l0.4-1L807.1,920.3l0.4-0.3L807.1,920.3z M808.8,916.9l-0.2,0.3l-0.1,0.4
		l0.1-0.4L808.8,916.9l0.4-0.4L808.8,916.9z M804.5,895.4l-0.1,0.6L804.5,895.4l5.4,0.2l0.6,0l-0.6,0L804.5,895.4z M811.7,912.2
		l-0.5,0h-0.4l-0.4-0.2l0.4,0.2h0.4L811.7,912.2l0.5-0.1L811.7,912.2z M811.8,893.1l0,1.3L811.8,893.1l0.9,0L811.8,893.1z
		 M813.1,893.2l-0.3,0L813.1,893.2l0-1.3L813.1,893.2z M815.2,891.1l0.2-3.1L815.2,891.1l-0.8,0L815.2,891.1z M815.4,912.3l-0.6,0.1
		l-0.4,0l-0.2-0.1l-0.5-0.3l0.5,0.3l0.2,0.1l0.4,0L815.4,912.3l0.3-0.2L815.4,912.3z M818,909.6l-0.2,0.4L818,909.6l0.1-0.4
		L818,909.6z M818.5,906.4L818.5,906.4l0.1-0.2L818.5,906.4z M819.1,907.9l-0.2,0.2L819.1,907.9l0-0.3L819.1,907.9z M819.9,790.6
		l-1.3-0.1L819.9,790.6L819.9,790.6z M820.4,790.6l0-0.6L820.4,790.6l-0.5,0L820.4,790.6z M820.9,903.5l-0.2,0.3l-0.4,0.6l0.4-0.6
		L820.9,903.5l0.1-0.4L820.9,903.5z M820.9,900.7l0,0.4L820.9,900.7l0.6-1L820.9,900.7z M824,896l-0.7,1l-0.4,0.8l-0.6,0.8l-0.2,0.2
		l-0.5,0.7l0.5-0.7l0.2-0.2l0.6-0.8l0.4-0.8L824,896l0.4-0.6L824,896z M824.9,894.8l-0.3,0.4L824.9,894.8l0.3-0.5L824.9,894.8z
		 M826.2,892.1l-0.2,0.6l-0.2,0.5l0,0.2l-0.5,0.8l0.5-0.8l0-0.2l0.2-0.5L826.2,892.1l0.1-0.3L826.2,892.1z M827.3,889.9l-0.2,0.5
		l-0.2,0.4l0.2-0.4L827.3,889.9l0.3-0.6L827.3,889.9z M824.9,786.5l0,0.3L824.9,786.5l3.6,0.1L824.9,786.5z M832.5,786.8l-1.5-0.1
		L832.5,786.8L832.5,786.8z M829.4,691l-1.3-0.1L829.4,691l5.1,0.2L829.4,691z M842.1,676.8l-7.3-0.3L842.1,676.8l0.6,0L842.1,676.8
		z M843.3,797.1h-0.1l0,0H843.3l3.6,0.2L843.3,797.1z M850.9,674.3l0,1.3L850.9,674.3l0.2-6.2L850.9,674.3z M850.1,656.5l1.2,0l0,0
		L850.1,656.5z M851.2,664.2l0,1.3L851.2,664.2L851.2,664.2z M851.2,660.4l-0.1,2.5L851.2,660.4l0.1-2.5L851.2,660.4z M855.4,649.2
		l-1.2,0l-0.1,1.3l-1.2,0l-0.1,2.2l-1.2,0l1.2,0l0.1-2.2l1.2,0l0.1-1.3L855.4,649.2l0.1-1.2L855.4,649.2z M859,919.2l0,1.3l0,1.3
		l0-1.3L859,919.2l0-1.3L859,919.2z M859.3,907.8l-0.1,1.3l0,1.3l0-1.3L859.3,907.8L859.3,907.8z M858.2,802l-1.3,0L858.2,802l1.3,0
		L858.2,802z M859.6,897.7l0,1.2l-0.1,1.3l0.1-1.3L859.6,897.7l0-1.3L859.6,897.7z M860.6,645.5l-2.6,0l-0.1,2.5l0.1-2.5
		L860.6,645.5l0-1.2L860.6,645.5z M858.5,628l-0.2,6.2l-7.5-0.1l0,1.2l0-1.2l7.5,0.1L858.5,628l7.6,0.3L858.5,628z M868,763.5
		l-0.1,0.3L868,763.5l0.1-0.2L868,763.5z M869.2,817.6l-1.1,0L869.2,817.6L869.2,817.6z M876.7,823.1L876.7,823.1l1,0L876.7,823.1z
		 M880.9,632.4l0-1.4l-1.1,0l1.1,0L880.9,632.4h1.2l2.6,0.1l-2.6-0.1H880.9z M885.8,641.3l-1.3,0L885.8,641.3l0,1.2L885.8,641.3z
		 M887,643.8l1.2,0l0,0L887,643.8l0-1.2L887,643.8z M888.1,823.1l-1.3,0L888.1,823.1l2.5,0L888.1,823.1z M890.7,646.3l-1.2,0l0,0
		L890.7,646.3L890.7,646.3z M895.7,651.6l-1.3,0v0L895.7,651.6z M895.1,674.2l0,0.2l-0.1,0.3l-0.1,0.2l0.1-0.2l0.1-0.3L895.1,674.2z
		 M894.8,675.3l0,0.2L894.8,675.3l0.1-0.2L894.8,675.3z M894.9,676.6l-0.1,0.2v0L894.9,676.6z M894.2,679.9l-0.2,0.1v0L894.2,679.9
		l0.2-0.1L894.2,679.9z M894.3,681.4l-0.1,0.2l-0.2,0.4l0.2-0.4L894.3,681.4z M894.4,678.6l-0.2,0.3L894.4,678.6l0.2-0.4
		L894.4,678.6z M891.9,648.9l1.2,0.1v1.3l1.3,0l-1.3,0V649L891.9,648.9L891.9,648.9z M893.9,682.2l-0.1,0.2l-0.2,0.1l-0.4,0.1
		l0.4-0.1l0.2-0.1L893.9,682.2z M892.6,684l0,0.3L892.6,684l0.1-0.3l0.2-0.2l-0.2,0.2L892.6,684z M892.6,684.7L892.6,684.7l-0.1,0.2
		L892.6,684.7z M899.5,832.4l-7.5-0.1L899.5,832.4l7.2,0.3L899.5,832.4z M916.3,706.2l-0.1,0.3L916.3,706.2L916.3,706.2z
		 M910.7,656.9l-8.5-0.2l-1.3,0.3l-0.3-0.1v0l0.3,0.1l1.3-0.3L910.7,656.9l7.6,0L910.7,656.9z M919.8,914.7l-0.1,2.1L919.8,914.7
		l0.2-5.5L919.8,914.7z M920.2,897.2l-0.1,1.8v0L920.2,897.2L920.2,897.2z M952.8,696.3l0.3-0.2L952.8,696.3l-0.1,0.3L952.8,696.3z
		 M952.7,697.1v0.1l0.1,0.6l-0.1-0.6V697.1l-0.1-0.3L952.7,697.1z M949.5,654.3L949.5,654.3l0,0.3L949.5,654.3z M946.3,646l0.2-0.4
		L946.3,646l-0.2,0.3L946.3,646z M946.7,649.6l-0.2,0l-0.3,0.1l-0.1,0.2l0.1-0.2l0.3-0.1L946.7,649.6z M945.7,641.8L945.7,641.8
		l0,0.9L945.7,641.8z M930.1,825l0.6-1.7l0.2-0.4l0.2-0.2l0.1-0.1l0.4-0.2l-0.4,0.2l-0.1,0.1l-0.2,0.2l-0.2,0.4L930.1,825L930.1,825
		z M931.1,827.8l-0.2,0.4l-0.2,0.3l0.2-0.3L931.1,827.8z M930.6,829.5l-0.2,0.4l-0.5,1l0,0.4l0-0.4l0.5-1L930.6,829.5l0.1-0.3l0,0
		L930.6,829.5z M930.7,833L930.7,833L930.7,833L930.7,833L930.7,833z M929.7,826l0.2-0.5l0.1-0.2l0.1-0.2l0,0l-0.1,0.2l-0.1,0.2
		L929.7,826l0,0.3L929.7,826z M929.5,832.3l0.3-0.6l0-0.1l0,0.1L929.5,832.3L929.5,832.3z M929.5,832.5L929.5,832.5L929.5,832.5
		L929.5,832.5L929.5,832.5z M920.5,872.8l-0.1,6.2l-0.1,5l0,2.5l0-2.5l0.1-5L920.5,872.8l0.1-1.1L920.5,872.8z M922.6,865.2h-0.6
		l-1.2,0l1.2,0L922.6,865.2l11.7,0.1L922.6,865.2z M932,822.1l0.1-0.1l0.2-0.1l0.2-0.2l0.2-0.3l-0.2,0.3l-0.2,0.2l-0.2,0.1
		L932,822.1z M933.2,820.9l-0.2,0.1L933.2,820.9l0.3-0.1L933.2,820.9z M933.7,860.8l0.1-0.4L933.7,860.8l-0.3,0.7l-0.2,0.4l0,0.3
		l0-0.3l0.2-0.4L933.7,860.8z M933.1,863.1l-0.1,0.4l0,0.2l-0.1,0.3l0.1-0.3l0-0.2L933.1,863.1z M935.1,820.5l-0.2,0l-0.6,0.2
		l0.6-0.2L935.1,820.5l0.1-0.1L935.1,820.5z M935.3,836.6l0.1-0.2L935.3,836.6l-0.2,0.3L935.3,836.6z M934.7,859l-0.1,0.2l-0.2,0.3
		l0.2-0.3L934.7,859L934.7,859z M935.4,857.1l-0.1,0.2l0,0.2l-0.5,0.6l0.5-0.6l0-0.2L935.4,857.1l0-0.3L935.4,857.1z M936.1,854.4
		l-0.1,0.4L936.1,854.4l0-0.2L936.1,854.4z M935.9,819.5l-0.2,0.1l-0.2,0.3l-0.2,0.3l0.2-0.3l0.2-0.3L935.9,819.5l0.3-0.2
		L935.9,819.5z M936.7,852.5L936.7,852.5l0.2-0.2L936.7,852.5z M937.3,818.8l-0.5,0.2L937.3,818.8l0.4-0.1l0.7-0.4l0.4-0.3l-0.4,0.3
		l-0.7,0.4L937.3,818.8z M938.3,842.1l-0.1,0.2l0,0.4l0-0.4L938.3,842.1z M938.2,851.1l-0.5,0.4L938.2,851.1l0.5-0.3L938.2,851.1z
		 M938.6,845.4l0,0.2L938.6,845.4l0.2-0.4L938.6,845.4z M939.3,849.6l0,0.3L939.3,849.6l0.4-0.8L939.3,849.6z M949,746.4l-0.1,0.2
		v0.2l0,0.1l0-0.1v-0.2L949,746.4l0.1-0.1l0.1-0.2l-0.1,0.2L949,746.4z M949.3,747.4l-0.2-0.1L949.3,747.4l0.2,0.2l0.2,0.1l-0.2-0.1
		L949.3,747.4z M949.4,746.1l0.2-0.1l0.2-0.2l-0.2,0.2L949.4,746.1z M949.7,754.1l0-0.2L949.7,754.1l0,0.3L949.7,754.1z
		 M949.9,748.4l-0.1,0.2l-0.2,0.3l0.2-0.3L949.9,748.4v-0.2l0-0.2l0-0.2l0,0.2l0,0.2V748.4z M949.8,741.6l-0.1,0.2L949.8,741.6
		l0.4-0.4L949.8,741.6z M941,657.2l-0.3,0l-7.5-0.2l-2.5,0l2.5,0l7.5,0.2L941,657.2l11,0.2L941,657.2z M951.6,715.7l0,0.2
		L951.6,715.7l-0.1-0.2v-0.3l0.1-0.3l0-0.2l0.1-0.1l-0.1,0.1l0,0.2l-0.1,0.3v0.3L951.6,715.7z M951.4,740l-0.3,0.2L951.4,740
		l0.3-0.2L951.4,740z M951.6,739l-0.1-0.1L951.6,739l0.2,0.2L951.6,739z M952.1,716.4l0.2,0.2L952.1,716.4l-0.2-0.2L952.1,716.4z
		 M952.4,761.9l-0.2-0.3l-0.2-0.1l0.2,0.1L952.4,761.9L952.4,761.9z M952.5,734.7l-0.1,0.1l-0.1,0.2l0,0.2l0.1,0.4l-0.1-0.4l0-0.2
		l0.1-0.2L952.5,734.7l0.1-0.3L952.5,734.7z M952.5,725.6l0.1-0.3L952.5,725.6l0,0.4L952.5,725.6z M952.7,728.5l0,0.2l-0.1,0.2
		l0.1-0.2L952.7,728.5L952.7,728.5l0-0.3L952.7,728.5L952.7,728.5z M952.7,727.7l0.1-0.1l-0.2-0.3l0.2,0.3L952.7,727.7z
		 M953.1,721.9l-0.1,0.3L953.1,721.9l0-0.2l0-0.2l0,0.2L953.1,721.9z M953,720.1l-0.1,0.3l-0.1,0.3l0,0.2v0.2l0.1,0.1l0.1,0.2
		l-0.1-0.2l-0.1-0.1v-0.2l0-0.2l0.1-0.3L953,720.1l0.2-0.2L953,720.1z M953.3,713.6l-0.2,0L953.3,713.6l0.2-0.1L953.3,713.6z
		 M953.9,718.8L953.9,718.8L953.9,718.8l0-0.1L953.9,718.8z M954.7,694.1l-0.2,0.2L954.7,694.1l0.3-0.1L954.7,694.1z M957.5,683.4
		l0,0.1l0.4,0.3l-0.4-0.3L957.5,683.4l-0.2-0.4L957.5,683.4z M956.1,662.9l0.3,0.1L956.1,662.9l-0.5-0.2L956.1,662.9z M956.2,711.8
		l-0.3,0.8L956.2,711.8l0-0.2L956.2,711.8z M956,709.7l0.1,0.4l0.1,0.3l-0.1-0.3L956,709.7z M956.2,708.6l-0.1,0.4l-0.2,0.4l0,0
		l0.2-0.4L956.2,708.6l0.2-0.4L956.2,708.6z M956.4,679.8l0.3-0.3l0.4-0.2l-0.4,0.2L956.4,679.8z M957.1,682.4l0.2,0.4L957.1,682.4
		l-0.3-0.6L957.1,682.4z M956.8,705.6l0.4,0.2l0.4,0l-0.4,0L956.8,705.6z M957.5,706.8l-0.3,0.4L957.5,706.8l0.4-0.4L957.5,706.8z
		 M958,693.7l0-0.3l0.2-0.2l-0.2,0.2L958,693.7z M957.8,663.4l0.4,0.2l0.3,0.3l-0.3-0.3L957.8,663.4z M958.4,679.1L958.4,679.1
		l-0.2,0.2h0L958.4,679.1L958.4,679.1l0.2-0.3L958.4,679.1z M959.2,667l0-0.4l0.1-0.4l-0.1,0.4L959.2,667l-0.1,0.9L959.2,667z
		 M959.6,692.1l-0.2,0.3l-0.3,0.3l0.3-0.3L959.6,692.1l0.2-0.2L959.6,692.1z M959.9,687l-0.2-0.1L959.9,687l0.3,0L959.9,687z
		 M960.4,672.2l0,0.4l-0.2,0.4l0.2-0.4L960.4,672.2V672l-0.1-0.2l-0.2-0.6l0.2,0.6l0.1,0.2V672.2z M980.3,879.8l-0.1,6.3
		L980.3,879.8L980.3,879.8z M980.3,870.9l-0.1,7.7L980.3,870.9L980.3,870.9z M980.4,855.8l-0.1,7.5l0,1.3l0,0l0-1.3L980.4,855.8
		l0.1-7.4L980.4,855.8z M980.5,817.9l-7.4-0.2L980.5,817.9l1.1,0L980.5,817.9z M981.6,834.8L981.6,834.8l0-0.6L981.6,834.8z
		 M1018,818.2L1018,818.2l1.3,0L1018,818.2z M1023.2,795.8l-1.2,0L1023.2,795.8l2.6,0L1023.2,795.8z M1025.9,635.4l-0.5-0.4
		L1025.9,635.4l0.2,0.1L1025.9,635.4z M1026.4,636.4l0-0.2l-0.2-0.4l0.2,0.4L1026.4,636.4l0.2,0L1026.4,636.4z M1029,638.2l-0.3-0.5
		l-0.2-0.3l-0.3-0.2l0.3,0.2l0.2,0.3L1029,638.2l0.2,0.3L1029,638.2z M1029.6,675.8l-0.1,0.1L1029.6,675.8l0.1,0L1029.6,675.8z
		 M1030.1,675.8L1030.1,675.8l0.3,0L1030.1,675.8z M1035.5,686.9l0,0.1l0,0.3l0,0.3l0-0.3l0-0.3L1035.5,686.9L1035.5,686.9
		L1035.5,686.9z M1035.2,685.1l0.2,0l0,0L1035.2,685.1l-0.2-0.2L1035.2,685.1z M1035.3,705l-0.1-0.2l-0.1-0.4l0.1,0.4L1035.3,705z
		 M1034.9,656.2l0.1-0.1L1034.9,656.2l-0.2,0L1034.9,656.2z M1034.5,643.5l0.1,0.2L1034.5,643.5l-0.1-0.3L1034.5,643.5z
		 M1034.5,682.2l-0.1-0.1L1034.5,682.2l0,0.2l0,0.1l-0.2,0.2l-0.2,0.2l0.2-0.2l0.2-0.2l0-0.1L1034.5,682.2z M1034,642.7l0.2,0.2
		l0.2,0.2l-0.2-0.2L1034,642.7l-0.1-0.1L1034,642.7z M1034,680.9l0,0.2l-0.1,0.2l-0.2,0.3l-0.1,0.2l0.1-0.2l0.2-0.3l0.1-0.2
		L1034,680.9z M1033.8,659.5l-0.1,0.2L1033.8,659.5l0-0.1L1033.8,659.5z M1033.7,657.7l0.1,0.2L1033.7,657.7l-0.2-0.1L1033.7,657.7z
		 M1033.3,657.5l0-0.1v-0.1l0.1-0.2l-0.1,0.2v0.1L1033.3,657.5z M1033.1,640.6l0.1,0l0.1,0.1l-0.1-0.1L1033.1,640.6l-0.2-0.1
		L1033.1,640.6z M1031.7,664.5l0.2,0.1l0,0.1l0,0.2l-0.1,0h0l0.1,0l0-0.2l0-0.1L1031.7,664.5L1031.7,664.5z M1031.7,663.3l-0.1-0.1
		l-0.3-0.2l0.3,0.2L1031.7,663.3z M1031.1,639.5l0.2,0.1L1031.1,639.5l-0.2-0.2L1031.1,639.5z M1030.9,668.2l0,0.2L1030.9,668.2
		l0-0.3L1030.9,668.2z M1030.8,665.6l0,0.2l0,0.1l0-0.1L1030.8,665.6z M1030.7,678.9l0.3,0l0,0L1030.7,678.9z M1031.3,663.9l0.2-0.1
		L1031.3,663.9l-0.2,0.1L1031.3,663.9z M1031.3,669.2l0,0.1v0.2l-0.1,0.2l0.1-0.2v-0.2L1031.3,669.2z M1032,680.3l-0.3-0.2l-0.3-0.2
		l-0.1-0.1l-0.2-0.1l0.2,0.1l0.1,0.1l0.3,0.2L1032,680.3l0.4,0.2L1032,680.3z M1032.6,661.7l0.2-0.3l0,0l0,0l0,0L1032.6,661.7
		l-0.1,0.3L1032.6,661.7z M1032.8,688.6l0.2,0L1032.8,688.6l-0.2,0.1L1032.8,688.6z M1033,690.7l-0.3-0.4L1033,690.7l0.2,0.2
		L1033,690.7z M1033.4,658.4l0.4-0.2L1033.4,658.4l-0.2,0.1L1033.4,658.4z M1033.4,691.6l-0.1-0.4L1033.4,691.6L1033.4,691.6
		l0.1,0.5L1033.4,691.6z M1033.5,680.5L1033.5,680.5l0.2,0l0.2,0.2l-0.2-0.2L1033.5,680.5z M1033.7,681.8l0.1,0.1l0.3,0.1l-0.3-0.1
		L1033.7,681.8z M1034,701.9L1034,701.9L1034,701.9L1034,701.9L1034,701.9z M1034,702L1034,702l0.1,0.1L1034,702z M1034.2,683.1
		l0.2,0.1l0.2,0l-0.2,0L1034.2,683.1L1034.2,683.1L1034.2,683.1z M1034.4,688.1l-0.1,0l-0.1,0.2l0.1-0.2L1034.4,688.1L1034.4,688.1z
		 M1034.2,692.9L1034.2,692.9L1034.2,692.9L1034.2,692.9z M1034.5,698.9l0-0.2l-0.1-0.2l-0.1-0.3l0.1,0.3l0.1,0.2L1034.5,698.9
		L1034.5,698.9z M1034.6,684.1l0.2-0.3l0.1-0.1l0-0.2l0,0.2l-0.1,0.1L1034.6,684.1z M1034.9,704l-0.1-0.2l0,0L1034.9,704l0.1,0.2
		L1034.9,704z M1035.3,705.7l-0.2-0.2l-0.1-0.1l0,0l0.1,0.1L1035.3,705.7l0.2,0.2L1035.3,705.7z M1036,705.7l-0.1,0.2L1036,705.7
		l0.1-0.1L1036,705.7z M1036.1,644l-0.1,0.2v0.2l0.1,0.3l-0.1-0.3v-0.2L1036.1,644l0.2-0.3L1036.1,644z M1036.6,645.4l-0.1-0.1
		l-0.2-0.2l0.2,0.2L1036.6,645.4l0.1,0.1L1036.6,645.4z M1038.3,655.9l-0.2,0l-0.3-0.1l0.3,0.1L1038.3,655.9l0.1,0.1L1038.3,655.9z
		 M1038.8,710.8l-0.1-0.2l-0.2-0.2l0.2,0.2L1038.8,710.8l0.1,0.3L1038.8,710.8z M1039.7,650.4l-0.1-0.4L1039.7,650.4l0.1,0.2
		L1039.7,650.4z M1040.1,651.7l-0.1,0.2L1040.1,651.7l0.2-0.1L1040.1,651.7z M1040.3,650.9l-0.2,0L1040.3,650.9L1040.3,650.9z
		 M1041,654.2l-0.2,0.3L1041,654.2l0.3-0.4L1041,654.2z M1041.2,653l-0.3-0.2l-0.3-0.2l-0.1-0.1l0.1,0.1l0.3,0.2L1041.2,653l0.2,0.2
		L1041.2,653z M1050.3,818.4l-1.2,0L1050.3,818.4l1.3,0L1050.3,818.4z M1070.5,878.6h-0.4l0,0H1070.5L1070.5,878.6z M1069.8,855.8
		L1069.8,855.8l2.6-0.1L1069.8,855.8z M1079.3,810.3l-3.8,0.1l-1.3,0l-1.3,0l-1.2,0.1l0,0l1.2-0.1l1.3,0l1.3,0L1079.3,810.3
		L1079.3,810.3z M1097.3,787.2l-3.1,0.1l-1.3,0l-6.3,0.2l6.3-0.2l1.3,0L1097.3,787.2l4.5-0.2L1097.3,787.2z M1116.7,786.7l-7.5,0.2
		L1116.7,786.7l7.5-0.3L1116.7,786.7z M1131.9,786.3l-1.3,0L1131.9,786.3l1.1-0.1L1131.9,786.3z M1139.3,786l-3.2,0.1L1139.3,786
		L1139.3,786z M1146.8,778.4l-7.6,0.2L1146.8,778.4l6.7-0.2L1146.8,778.4z M1153.5,778.7L1153.5,778.7l2.9-0.1L1153.5,778.7z
		 M1175.2,760.7L1175.2,760.7l-0.1-1.4L1175.2,760.7z M1163.4,696.8L1163.4,696.8l-0.1-0.2L1163.4,696.8z M1161.1,778.5l6.2-0.2
		l1.3-0.1l-1.3,0.1L1161.1,778.5z M1174.7,778.2l-1.3,0l-2.5,0.1l-1.3,0l-1,0l1,0l1.3,0l2.5-0.1L1174.7,778.2l1.3-0.1l0-1.2l0-1.3
		l-0.1-2.5l-0.1-2.5l-0.1-1.2l0.1,1.2l0.1,2.5l0.1,2.5l0,1.3l0,1.2L1174.7,778.2z M1176.2,784.4l-0.1-3.8L1176.2,784.4l0.1,1.2
		L1176.2,784.4z M1176.5,793.3l-0.1-2.5l-0.1-1.2l0.1,1.2L1176.5,793.3l0.2,7.5L1176.5,793.3z M1176.9,813.8l-0.2-5.9L1176.9,813.8
		l0.1,4.8L1176.9,813.8z M1177.5,833.2l0-1.3L1177.5,833.2l0.1,1.2L1177.5,833.2z M1178.2,842l-0.1-1.3L1178.2,842l0,1.3L1178.2,842
		z M1178.9,860.8l0-1.2l-0.2-6.2l0.2,6.2L1178.9,860.8l0.1,2.5L1178.9,860.8z M1181.1,899.9l-0.2-6.4l0-1.3l-0.3-6.2l0.3,6.2l0,1.3
		L1181.1,899.9l0,1.3L1181.1,899.9z M1182.1,926.3l-0.1-1.2l0-1.3l-0.4-7.5l0-1.3l-0.1-2.6l-0.2-3.7l0.2,3.7l0.1,2.6l0,1.3l0.4,7.5
		l0,1.3L1182.1,926.3l0.1,1.3L1182.1,926.3z M1183.8,934.7l-0.1-3.4l-1.4,0l-0.1-2.5l0.1,2.5l1.4,0L1183.8,934.7l0.1,1.2
		L1183.8,934.7z M1184.1,943.4l-0.1-1.1L1184.1,943.4l0.1,6.3L1184.1,943.4z M1200.7,693L1200.7,693l-0.3,0.4L1200.7,693L1200.7,693
		l0-0.2L1200.7,693z"/>
</g>
</svg>
